<svg id="ec2qct9dcafi1" xmlns="http://www.w3.org/2000/svg" xmlns:xlink="http://www.w3.org/1999/xlink" viewBox="0 0 724 510" shape-rendering="geometricPrecision" text-rendering="geometricPrecision"><defs><radialGradient id="ec2qct9dcafi2-fill" cx="334" cy="255" r="1" spreadMethod="pad" gradientUnits="userSpaceOnUse"><stop id="ec2qct9dcafi2-fill-0" offset="0%" stop-color="rgb(249,235,232)"/><stop id="ec2qct9dcafi2-fill-1" offset="100%" stop-color="rgb(205,215,245)"/></radialGradient><linearGradient id="ec2qct9dcafi9-fill" x1="464" y1="274" x2="464" y2="349" spreadMethod="pad" gradientUnits="userSpaceOnUse"><stop id="ec2qct9dcafi9-fill-0" offset="0%" stop-color="rgba(255,255,255,0.3)"/><stop id="ec2qct9dcafi9-fill-1" offset="100%" stop-color="rgba(255,255,255,0)"/></linearGradient><linearGradient id="ec2qct9dcafi15-fill" x1="178" y1="108" x2="178" y2="183" spreadMethod="pad" gradientUnits="userSpaceOnUse"><stop id="ec2qct9dcafi15-fill-0" offset="0%" stop-color="rgba(255,255,255,0.3)"/><stop id="ec2qct9dcafi15-fill-1" offset="100%" stop-color="rgba(255,255,255,0)"/></linearGradient><linearGradient id="ec2qct9dcafi21-fill" x1="334" y1="18" x2="334" y2="93" spreadMethod="pad" gradientUnits="userSpaceOnUse"><stop id="ec2qct9dcafi21-fill-0" offset="0%" stop-color="rgba(255,255,255,0.3)"/><stop id="ec2qct9dcafi21-fill-1" offset="100%" stop-color="rgba(255,255,255,0)"/></linearGradient><linearGradient id="ec2qct9dcafi27-fill" x1="516" y1="123" x2="516" y2="170" spreadMethod="pad" gradientUnits="userSpaceOnUse"><stop id="ec2qct9dcafi27-fill-0" offset="0%" stop-color="rgba(255,255,255,0.3)"/><stop id="ec2qct9dcafi27-fill-1" offset="100%" stop-color="rgba(255,255,255,0)"/></linearGradient><linearGradient id="ec2qct9dcafi33-fill" x1="282" y1="332" x2="282" y2="379" spreadMethod="pad" gradientUnits="userSpaceOnUse"><stop id="ec2qct9dcafi33-fill-0" offset="0%" stop-color="rgba(255,255,255,0.3)"/><stop id="ec2qct9dcafi33-fill-1" offset="100%" stop-color="rgba(255,255,255,0)"/></linearGradient><linearGradient id="ec2qct9dcafi45-fill" x1="334" y1="128" x2="334" y2="199" spreadMethod="pad" gradientUnits="userSpaceOnUse"><stop id="ec2qct9dcafi45-fill-0" offset="0%" stop-color="rgba(255,255,255,0.3)"/><stop id="ec2qct9dcafi45-fill-1" offset="100%" stop-color="rgba(255,255,255,0)"/></linearGradient></defs><path id="ec2qct9dcafi2" d="M334,0L724,225L724,285L334,510L-56,285L-56,225L334,0Z" fill="url(#ec2qct9dcafi2-fill)" stroke="none" stroke-width="1"/><path id="ec2qct9dcafi3" d="M423,386L404.043000,397.058000C400.927000,398.876000,397.074000,398.874000,393.959000,397.054000L326.989000,357.916000C323.902000,356.112000,320.087000,356.093000,316.982000,357.867000L308,363M476,326L508.487000,307.320000C511.825000,305.400000,511.832000,300.587000,508.500000,298.658000L485.667000,285.439000C482.298000,283.488000,482.352000,278.606000,485.763000,276.731000L498,270M259,256L210,226M218,175L294,131M138,221L125.038000,228.407000C118.354000,232.226000,118.311000,241.848000,124.961000,245.727000L155.506000,263.545000C162.049000,267.362000,162.137000,276.786000,155.666000,280.725000L147,286M494,189L462.832000,206.315000C459.825000,207.986000,456.171000,207.994000,453.157000,206.336000L442.913000,200.702000C439.861000,199.024000,436.156000,199.054000,433.132000,200.782000L403,218" opacity="0" fill="none" stroke="rgb(24,134,141)" stroke-width="2" stroke-linecap="round" stroke-dasharray="5,5"/><path id="ec2qct9dcafi4" d="M392.006000,367.465000L460.002000,406.694000C462.476000,408.121000,465.524000,408.121000,467.998000,406.694000L535.994000,367.465000C538.663000,365.925000,538.663000,362.075000,535.994000,360.535000L465.999000,320.153000C464.762000,319.440000,463.238000,319.440000,462.001000,320.153000L392.006000,360.535000C389.337000,362.075000,389.337000,365.925000,392.006000,367.465000Z" fill="none" stroke="rgb(24,134,141)" stroke-width="2"/><path id="ec2qct9dcafi5" d="M416,334L416,363.699000C416,365.122000,416.756000,366.437000,417.985000,367.154000L460.826000,392.142000C461.806000,392.714000,462.903000,393,464,393L464,361.997000L416,334Z" fill="rgb(104,131,203)" stroke="none" stroke-width="1"/><path id="ec2qct9dcafi6" d="M467.174000,392.142000L510.015000,367.154000C511.244000,366.437000,512,365.122000,512,363.699000L512,334L464,361.997000L464,393C465.097000,393,466.194000,392.714000,467.174000,392.142000Z" fill="rgb(92,114,173)" stroke="none" stroke-width="1"/><path id="ec2qct9dcafi7" d="M460.002000,361.694000L418.006000,337.465000C415.337000,335.925000,415.337000,332.075000,418.006000,330.535000L460.002000,306.306000C462.476000,304.879000,465.524000,304.879000,467.998000,306.306000L509.994000,330.535000C512.663000,332.075000,512.663000,335.925000,509.994000,337.465000L467.998000,361.694000C465.524000,363.121000,462.476000,363.121000,460.002000,361.694000Z" fill="rgb(56,53,90)" stroke="none" stroke-width="1"/><path id="ec2qct9dcafi8" d="M490,334L464,349L438,334L464,319L490,334Z" fill="rgb(255,255,255)" stroke="none" stroke-width="1"/><path id="ec2qct9dcafi9" d="M464,349L438,334L438,289L464,274L490,289L490,334L464,349Z" opacity="0" fill="url(#ec2qct9dcafi9-fill)" stroke="none" stroke-width="1"/><path id="ec2qct9dcafi10" d="M106.006000,201.465000L174.002000,240.694000C176.476000,242.121000,179.524000,242.121000,181.998000,240.694000L249.994000,201.465000C252.663000,199.925000,252.663000,196.075000,249.994000,194.535000L179.999000,154.153000C178.762000,153.440000,177.238000,153.440000,176.001000,154.153000L106.006000,194.535000C103.337000,196.075000,103.337000,199.925000,106.006000,201.465000Z" fill="none" stroke="rgb(24,134,141)" stroke-width="2"/><path id="ec2qct9dcafi11" d="M130,168L130,197.699000C130,199.122000,130.756000,200.437000,131.985000,201.154000L174.826000,226.142000C175.806000,226.714000,176.903000,227,178,227L178,195.997000L130,168Z" fill="rgb(104,131,203)" stroke="none" stroke-width="1"/><path id="ec2qct9dcafi12" d="M181.174000,226.142000L224.015000,201.154000C225.244000,200.437000,226,199.122000,226,197.699000L226,168L178,195.997000L178,227C179.097000,227,180.194000,226.714000,181.174000,226.142000Z" fill="rgb(92,114,173)" stroke="none" stroke-width="1"/><path id="ec2qct9dcafi13" d="M174.002000,195.694000L132.006000,171.465000C129.337000,169.925000,129.337000,166.075000,132.006000,164.535000L174.002000,140.306000C176.476000,138.879000,179.524000,138.879000,181.998000,140.306000L223.994000,164.535000C226.663000,166.075000,226.663000,169.925000,223.994000,171.465000L181.998000,195.694000C179.524000,197.121000,176.476000,197.121000,174.002000,195.694000Z" fill="rgb(56,53,90)" stroke="none" stroke-width="1"/><path id="ec2qct9dcafi14" d="M204,168L178,183L152,168L178,153L204,168Z" fill="rgb(255,255,255)" stroke="none" stroke-width="1"/><path id="ec2qct9dcafi15" d="M178,183L152,168L152,123L178,108L204,123L204,168L178,183Z" opacity="0" fill="url(#ec2qct9dcafi15-fill)" stroke="none" stroke-width="1"/><path id="ec2qct9dcafi16" d="M262.006000,111.465000L330.002000,150.694000C332.476000,152.121000,335.524000,152.121000,337.998000,150.694000L405.994000,111.465000C408.663000,109.925000,408.663000,106.075000,405.994000,104.535000L335.999000,64.153200C334.762000,63.439500,333.238000,63.439500,332.001000,64.153200L262.006000,104.535000C259.337000,106.075000,259.337000,109.925000,262.006000,111.465000Z" fill="none" stroke="rgb(24,134,141)" stroke-width="2"/><path id="ec2qct9dcafi17" d="M286,78L286,107.699000C286,109.122000,286.756000,110.437000,287.985000,111.154000L330.826000,136.142000C331.806000,136.714000,332.903000,137,334,137L334,105.997000L286,78Z" fill="rgb(104,131,203)" stroke="none" stroke-width="1"/><path id="ec2qct9dcafi18" d="M337.174000,136.142000L380.015000,111.154000C381.244000,110.437000,382,109.122000,382,107.699000L382,78L334,105.997000L334,137C335.097000,137,336.194000,136.714000,337.174000,136.142000Z" fill="rgb(92,114,173)" stroke="none" stroke-width="1"/><path id="ec2qct9dcafi19" d="M330.002000,105.694000L288.006000,81.464700C285.337000,79.925400,285.337000,76.074600,288.006000,74.535300L330.002000,50.306400C332.476000,48.879100,335.524000,48.879100,337.998000,50.306400L379.994000,74.535300C382.663000,76.074600,382.663000,79.925400,379.994000,81.464700L337.998000,105.694000C335.524000,107.121000,332.476000,107.121000,330.002000,105.694000Z" fill="rgb(56,53,90)" stroke="none" stroke-width="1"/><path id="ec2qct9dcafi20" d="M360,78L334,93L308,78L334,63L360,78Z" fill="rgb(255,255,255)" stroke="none" stroke-width="1"/><path id="ec2qct9dcafi21" d="M334,93L308,78L308,33L334,18L360,33L360,78L334,93Z" opacity="0" fill="url(#ec2qct9dcafi21-fill)" stroke="none" stroke-width="1"/><path id="ec2qct9dcafi22" d="M511.986000,198.672000L471.966000,175.460000C469.308000,173.919000,469.308000,170.081000,471.966000,168.540000L511.986000,145.328000C514.468000,143.888000,517.532000,143.888000,520.014000,145.328000L560.034000,168.540000C562.692000,170.081000,562.692000,173.919000,560.034000,175.460000L520.014000,198.672000C517.532000,200.112000,514.468000,200.112000,511.986000,198.672000Z" fill="none" stroke="rgb(24,134,141)" stroke-width="1.500000"/><path id="ec2qct9dcafi23" d="M519.174000,191.142000L550.015000,173.155000C551.244000,172.438000,552,171.123000,552,169.700000L552,161L516,179.996000L516,192C517.097000,192,518.194000,191.714000,519.174000,191.142000Z" fill="rgb(92,114,173)" stroke="none" stroke-width="1"/><path id="ec2qct9dcafi24" d="M480,161L480,169.700000C480,171.123000,480.756000,172.438000,481.985000,173.155000L512.826000,191.142000C513.806000,191.714000,514.903000,192,516,192L516,179.996000L480,161Z" fill="rgb(104,131,203)" stroke="none" stroke-width="1"/><path id="ec2qct9dcafi25" d="M513.052000,140.663000L481.478000,158.474000C479.511000,159.584000,479.511000,162.416000,481.478000,163.526000L513.052000,181.337000C514.882000,182.369000,517.118000,182.369000,518.948000,181.337000L550.522000,163.526000C552.489000,162.416000,552.489000,159.584000,550.522000,158.474000L518.948000,140.663000C517.118000,139.631000,514.882000,139.631000,513.052000,140.663000Z" fill="rgb(56,53,90)" stroke="none" stroke-width="1"/><path id="ec2qct9dcafi26" d="M516,170L500,161L516,152L532,161L516,170Z" fill="rgb(255,255,255)" stroke="none" stroke-width="1"/><path id="ec2qct9dcafi27" d="M516,170L500,161L500,132L516,123L532,132L532,161L516,170Z" opacity="0" fill="url(#ec2qct9dcafi27-fill)" stroke="none" stroke-width="1"/><path id="ec2qct9dcafi28" d="M277.986000,407.672000L237.966000,384.460000C235.308000,382.919000,235.308000,379.081000,237.966000,377.540000L277.986000,354.328000C280.468000,352.888000,283.532000,352.888000,286.014000,354.328000L326.034000,377.540000C328.692000,379.081000,328.692000,382.919000,326.034000,384.460000L286.014000,407.672000C283.532000,409.112000,280.468000,409.112000,277.986000,407.672000Z" fill="none" stroke="rgb(24,134,141)" stroke-width="1.500000"/><path id="ec2qct9dcafi29" d="M285.174000,400.142000L316.015000,382.155000C317.244000,381.438000,318,380.123000,318,378.700000L318,370L282,388.996000L282,401C283.097000,401,284.194000,400.714000,285.174000,400.142000Z" fill="rgb(92,114,173)" stroke="none" stroke-width="1"/><path id="ec2qct9dcafi30" d="M246,370L246,378.700000C246,380.123000,246.756000,381.438000,247.985000,382.155000L278.826000,400.142000C279.806000,400.714000,280.903000,401,282,401L282,388.996000L246,370Z" fill="rgb(104,131,203)" stroke="none" stroke-width="1"/><path id="ec2qct9dcafi31" d="M279.052000,349.663000L247.478000,367.474000C245.511000,368.584000,245.511000,371.416000,247.478000,372.526000L279.052000,390.337000C280.882000,391.369000,283.118000,391.369000,284.948000,390.337000L316.522000,372.526000C318.489000,371.416000,318.489000,368.584000,316.522000,367.474000L284.948000,349.663000C283.118000,348.631000,280.882000,348.631000,279.052000,349.663000Z" fill="rgb(56,53,90)" stroke="none" stroke-width="1"/><path id="ec2qct9dcafi32" d="M282,379L266,370L282,361L298,370L282,379Z" fill="rgb(255,255,255)" stroke="none" stroke-width="1"/><path id="ec2qct9dcafi33" d="M282,379L266,370L266,341L282,332L298,341L298,370L282,379Z" opacity="0" fill="url(#ec2qct9dcafi33-fill)" stroke="none" stroke-width="1"/><path id="ec2qct9dcafi34" d="M121.986000,329.672000L81.965700,306.460000C79.308200,304.919000,79.308200,301.081000,81.965700,299.540000L121.986000,276.328000C124.468000,274.888000,127.532000,274.888000,130.014000,276.328000L170.034000,299.540000C172.692000,301.081000,172.692000,304.919000,170.034000,306.460000L130.014000,329.672000C127.532000,331.112000,124.468000,331.112000,121.986000,329.672000Z" fill="none" stroke="rgb(24,134,141)" stroke-width="1.500000"/><path id="ec2qct9dcafi35" d="M123.052000,282.663000L91.477600,300.474000C89.510700,301.584000,89.510700,304.416000,91.477600,305.526000L123.052000,323.337000C124.882000,324.369000,127.118000,324.369000,128.948000,323.337000L160.522000,305.526000C162.489000,304.416000,162.489000,301.584000,160.522000,300.474000L128.948000,282.663000C127.118000,281.631000,124.882000,281.631000,123.052000,282.663000Z" fill="rgb(56,53,90)" stroke="none" stroke-width="1"/><path id="ec2qct9dcafi36" d="M515.002000,271.270000L496.504000,260.599000C494.503000,259.444000,494.503000,256.556000,496.504000,255.401000L515.002000,244.730000C516.857000,243.659000,519.143000,243.659000,520.998000,244.730000L539.496000,255.401000C541.497000,256.556000,541.497000,259.444000,539.496000,260.599000L520.998000,271.270000C519.143000,272.341000,516.857000,272.341000,515.002000,271.270000Z" fill="rgb(56,53,90)" stroke="none" stroke-width="1"/><path id="ec2qct9dcafi37" d="M514.952000,236.797000L483.382000,255.416000C481.414000,256.577000,481.414000,259.423000,483.382000,260.584000L514.952000,279.203000C516.833000,280.312000,519.167000,280.312000,521.048000,279.203000L552.618000,260.584000C554.586000,259.423000,554.586000,256.577000,552.618000,255.416000L521.048000,236.797000C519.167000,235.688000,516.833000,235.688000,514.952000,236.797000Z" fill="none" stroke="rgb(24,134,141)" stroke-width="1.500000"/><path id="ec2qct9dcafi38" d="M330.002000,331.694000L236.006000,277.465000C233.337000,275.925000,233.337000,272.075000,236.006000,270.535000L334,214L431.994000,270.535000C434.663000,272.075000,434.663000,275.925000,431.994000,277.465000L337.998000,331.694000C335.524000,333.121000,332.476000,333.121000,330.002000,331.694000Z" fill="none" stroke="rgb(24,134,141)" stroke-width="2"/><path id="ec2qct9dcafi39" d="M260,184L334,226.998000L334,318C332.898000,318,331.796000,317.713000,330.810000,317.140000L261.990000,277.153000C260.758000,276.437000,260,275.119000,260,273.694000L260,184Z" fill="rgb(104,131,203)" stroke="none" stroke-width="1"/><path id="ec2qct9dcafi40" d="M334,226.998000L408,184L408,273.694000C408,275.119000,407.242000,276.437000,406.010000,277.153000L337.190000,317.140000C336.204000,317.713000,335.102000,318,334,318L334,226.998000Z" fill="rgb(92,114,173)" stroke="none" stroke-width="1"/><path id="ec2qct9dcafi41" d="M330.002000,226.694000L262.006000,187.465000C259.337000,185.925000,259.337000,182.075000,262.006000,180.535000L330.002000,141.306000C332.476000,139.879000,335.524000,139.879000,337.998000,141.306000L405.994000,180.535000C408.663000,182.075000,408.663000,185.925000,405.994000,187.465000L337.998000,226.694000C335.524000,228.121000,332.476000,228.121000,330.002000,226.694000Z" fill="rgb(56,53,90)" stroke="none" stroke-width="1"/><path id="ec2qct9dcafi42" d="M282,249L282,229L308,244L308,264L282,249Z" fill="rgb(255,255,255)" stroke="none" stroke-width="1"/><path id="ec2qct9dcafi43" d="M386,249L386,229L360,244L360,264L386,249Z" fill="rgb(255,255,255)" stroke="none" stroke-width="1"/><path id="ec2qct9dcafi44" d="M334,199L308,184L334,169L360,184L334,199Z" fill="rgb(255,255,255)" stroke="none" stroke-width="1"/><path id="ec2qct9dcafi45" d="M334,199L308,184L308,143L334,128L360,143L360,184L334,199Z" opacity="0" fill="url(#ec2qct9dcafi45-fill)" stroke="none" stroke-width="1"/><g id="ec2qct9dcafi46" opacity="0"><path id="ec2qct9dcafi47" d="M336,154L336,136L351,128L351,145L336,154Z" fill="rgb(239,86,45)" stroke="none" stroke-width="1"/><path id="ec2qct9dcafi48" d="M321,146L321,128L336,136L336,154L321,146Z" fill="rgb(242,120,87)" stroke="none" stroke-width="1"/><path id="ec2qct9dcafi49" d="M336,136L321,128L336,119L351,128L336,136Z" fill="rgb(245,154,129)" stroke="none" stroke-width="1"/></g><g id="ec2qct9dcafi50" opacity="0"><path id="ec2qct9dcafi51" d="M165,122L165,110L175,116L175,128L165,122Z" transform="matrix(1 0 0 1 0 -0.50000000000000)" fill="rgb(160,193,111)" stroke="none" stroke-width="1"/><path id="ec2qct9dcafi52" d="M175,128L175,116L185,110L185,122L175,128Z" fill="rgb(136,177,75)" stroke="none" stroke-width="1"/><path id="ec2qct9dcafi53" d="M175,116L165,110L175,105L185,110L175,116Z" fill="rgb(184,208,147)" stroke="none" stroke-width="1"/></g><g id="ec2qct9dcafi54" opacity="0"><path id="ec2qct9dcafi55" d="M508,137L508,128L516,132L516,141L508,137Z" fill="rgb(70,158,164)" stroke="none" stroke-width="1"/><path id="ec2qct9dcafi56" d="M516,141L516,132L523,128L523,137L516,141Z" fill="rgb(24,134,141)" stroke="none" stroke-width="1"/><path id="ec2qct9dcafi57" d="M516,132L508,128L516,124L523,128L516,132Z" fill="rgb(116,182,187)" stroke="none" stroke-width="1"/></g><g id="ec2qct9dcafi58" opacity="0"><path id="ec2qct9dcafi59" d="M464,281L464,301L482,291L482,271L464,281Z" fill="rgb(155,81,224)" stroke="none" stroke-width="1"/><path id="ec2qct9dcafi60" d="M464,281L447,271L464,261L482,271L464,281Z" fill="rgb(195,151,236)" stroke="none" stroke-width="1"/><path id="ec2qct9dcafi61" d="M447,291L447,271L464,281L464,301L447,291Z" fill="rgb(175,116,230)" stroke="none" stroke-width="1"/></g><g id="ec2qct9dcafi62" opacity="0"><path id="ec2qct9dcafi63" d="M274,340L274,331L282,335L282,345L274,340Z" fill="rgb(248,219,121)" stroke="none" stroke-width="1"/><path id="ec2qct9dcafi64" d="M282,345L282,335L290,331L290,340L282,345Z" fill="rgb(246,210,88)" stroke="none" stroke-width="1"/><path id="ec2qct9dcafi65" d="M282,335L274,331L282,327L290,331L282,335Z" fill="rgb(250,228,155)" stroke="none" stroke-width="1"/></g><g id="ec2qct9dcafi66" opacity="0"><path id="ec2qct9dcafi67" d="M322,39L322,25L334,32L334,46L322,39Z" fill="rgb(73,139,221)" stroke="none" stroke-width="1"/><path id="ec2qct9dcafi68" d="M334,46L334,32L347,25L347,39L334,46Z" fill="rgb(27,110,212)" stroke="none" stroke-width="1"/><path id="ec2qct9dcafi69" d="M334,32L322,25L334,18L347,25L334,32Z" fill="rgb(118,168,229)" stroke="none" stroke-width="1"/></g><script><![CDATA[!function(t,n){"object"==typeof exports&&"undefined"!=typeof module?module.exports=n():"function"==typeof define&&define.amd?define(n):(t=t||self).__SVGATOR_PLAYER__=n()}(this,(function(){"use strict";function t(n){return(t="function"==typeof Symbol&&"symbol"==typeof Symbol.iterator?function(t){return typeof t}:function(t){return t&&"function"==typeof Symbol&&t.constructor===Symbol&&t!==Symbol.prototype?"symbol":typeof t})(n)}function n(t,n){if(!(t instanceof n))throw new TypeError("Cannot call a class as a function")}function r(t,n){for(var r=0;r<n.length;r++){var e=n[r];e.enumerable=e.enumerable||!1,e.configurable=!0,"value"in e&&(e.writable=!0),Object.defineProperty(t,e.key,e)}}function e(t,n,e){return n&&r(t.prototype,n),e&&r(t,e),t}var i=Math.abs;function u(t){return t}function o(t,n,r){var e=1-r;return 3*r*e*(t*e+n*r)+r*r*r}function a(){var t=arguments.length>0&&void 0!==arguments[0]?arguments[0]:0,n=arguments.length>1&&void 0!==arguments[1]?arguments[1]:0,r=arguments.length>2&&void 0!==arguments[2]?arguments[2]:1,e=arguments.length>3&&void 0!==arguments[3]?arguments[3]:1;return t<0||t>1||r<0||r>1?null:i(t-n)<=1e-5&&i(r-e)<=1e-5?u:function(u){if(u<=0)return t>0?u*n/t:0===n&&r>0?u*e/r:0;if(u>=1)return r<1?1+(u-1)*(e-1)/(r-1):1===r&&t<1?1+(u-1)*(n-1)/(t-1):1;for(var a,l=0,f=1;l<f;){var s=o(t,r,a=(l+f)/2);if(i(u-s)<1e-5)break;s<u?l=a:f=a}return o(n,e,a)}}function l(){return 1}function f(t){return 1===t?1:0}function s(){var t=arguments.length>0&&void 0!==arguments[0]?arguments[0]:1,n=arguments.length>1&&void 0!==arguments[1]?arguments[1]:0;if(1===t){if(0===n)return f;if(1===n)return l}var r=1/t;return function(t){return t>=1?1:(t+=n*r)-t%r}}function c(t){var n=arguments.length>1&&void 0!==arguments[1]?arguments[1]:2;if(Number.isInteger(t))return t;var r=Math.pow(10,n);return Math.round(t*r)/r}var v=Math.PI/180;function h(t,n,r){return t>=.5?r:n}function y(t,n,r){return 0===t||n===r?n:t*(r-n)+n}function d(t,n,r){var e=y(t,n,r);return e<=0?0:e}function g(t,n,r){return 0===t?n:1===t?r:{x:y(t,n.x,r.x),y:y(t,n.y,r.y)}}function m(t,n,r){return 0===t?n:1===t?r:{x:d(t,n.x,r.x),y:d(t,n.y,r.y)}}function p(t,n,r){var e=function(t,n,r){return Math.round(y(t,n,r))}(t,n,r);return e<=0?0:e>=255?255:e}function b(t,n,r){return 0===t?n:1===t?r:{r:p(t,n.r,r.r),g:p(t,n.g,r.g),b:p(t,n.b,r.b),a:y(t,null==n.a?1:n.a,null==r.a?1:r.a)}}function w(t,n,r){if(0===t)return n;if(1===t)return r;var e=n.length;if(e!==r.length)return h(t,n,r);for(var i=[],u=0;u<e;u++)i.push(b(t,n[u],r[u]));return i}function A(t,n,r){var e=n.length;if(e!==r.length)return h(t,n,r);for(var i=new Array(e),u=0;u<e;u++)i[u]=y(t,n[u],r[u]);return i}function x(t,n){for(var r=[],e=0;e<t;e++)r.push(n);return r}function k(t,n){if(--n<=0)return t;var r=(t=Object.assign([],t)).length;do{for(var e=0;e<r;e++)t.push(t[e])}while(--n>0);return t}var S=/\.0+$/g;function _(t){return Number.isInteger(t)?t+"":t.toFixed(6).replace(S,"")}function M(t){var n=arguments.length>1&&void 0!==arguments[1]?arguments[1]:" ";return t&&t.length?t.map(_).join(n):""}function I(t){return _(t.x)+","+_(t.y)}function E(t){return t?null==t.a||t.a>=1?"rgb("+t.r+","+t.g+","+t.b+")":"rgba("+t.r+","+t.g+","+t.b+","+t.a+")":"transparent"}var F={f:null,i:m,u:function(t,n){return function(r){var e=n(r);t.setAttribute("rx",_(e.x)),t.setAttribute("ry",_(e.y))}}},B={f:null,i:function(t,n,r){return 0===t?n:1===t?r:{width:d(t,n.width,r.width),height:d(t,n.height,r.height)}},u:function(t,n){return function(r){var e=n(r);t.setAttribute("width",_(e.width)),t.setAttribute("height",_(e.height))}}},j=Math.sin,q=Math.cos,P=Math.acos,O=Math.asin,z=Math.tan,L=Math.atan2,C=Math.PI/180,R=180/Math.PI,T=Math.sqrt,V=function(){function t(){var r=arguments.length>0&&void 0!==arguments[0]?arguments[0]:1,e=arguments.length>1&&void 0!==arguments[1]?arguments[1]:0,i=arguments.length>2&&void 0!==arguments[2]?arguments[2]:0,u=arguments.length>3&&void 0!==arguments[3]?arguments[3]:1,o=arguments.length>4&&void 0!==arguments[4]?arguments[4]:0,a=arguments.length>5&&void 0!==arguments[5]?arguments[5]:0;n(this,t),this.m=[r,e,i,u,o,a],this.i=null,this.w=null,this.s=null}return e(t,[{key:"point",value:function(t,n){var r=this.m;return{x:r[0]*t+r[2]*n+r[4],y:r[1]*t+r[3]*n+r[5]}}},{key:"translateSelf",value:function(){var t=arguments.length>0&&void 0!==arguments[0]?arguments[0]:0,n=arguments.length>1&&void 0!==arguments[1]?arguments[1]:0;if(!t&&!n)return this;var r=this.m;return r[4]+=r[0]*t+r[2]*n,r[5]+=r[1]*t+r[3]*n,this.w=this.s=this.i=null,this}},{key:"rotateSelf",value:function(){var t=arguments.length>0&&void 0!==arguments[0]?arguments[0]:0;if(t%=360){var n=j(t*=C),r=q(t),e=this.m,i=e[0],u=e[1];e[0]=i*r+e[2]*n,e[1]=u*r+e[3]*n,e[2]=e[2]*r-i*n,e[3]=e[3]*r-u*n,this.w=this.s=this.i=null}return this}},{key:"scaleSelf",value:function(){var t=arguments.length>0&&void 0!==arguments[0]?arguments[0]:1,n=arguments.length>1&&void 0!==arguments[1]?arguments[1]:1;if(1!==t||1!==n){var r=this.m;r[0]*=t,r[1]*=t,r[2]*=n,r[3]*=n,this.w=this.s=this.i=null}return this}},{key:"skewSelf",value:function(t,n){if(n%=360,(t%=360)||n){var r=this.m,e=r[0],i=r[1],u=r[2],o=r[3];t&&(t=z(t*C),r[2]+=e*t,r[3]+=i*t),n&&(n=z(n*C),r[0]+=u*n,r[1]+=o*n),this.w=this.s=this.i=null}return this}},{key:"resetSelf",value:function(){var t=arguments.length>0&&void 0!==arguments[0]?arguments[0]:1,n=arguments.length>1&&void 0!==arguments[1]?arguments[1]:0,r=arguments.length>2&&void 0!==arguments[2]?arguments[2]:0,e=arguments.length>3&&void 0!==arguments[3]?arguments[3]:1,i=arguments.length>4&&void 0!==arguments[4]?arguments[4]:0,u=arguments.length>5&&void 0!==arguments[5]?arguments[5]:0,o=this.m;return o[0]=t,o[1]=n,o[2]=r,o[3]=e,o[4]=i,o[5]=u,this.w=this.s=this.i=null,this}},{key:"recomposeSelf",value:function(){var t=arguments.length>0&&void 0!==arguments[0]?arguments[0]:null,n=arguments.length>1&&void 0!==arguments[1]?arguments[1]:null,r=arguments.length>2&&void 0!==arguments[2]?arguments[2]:null,e=arguments.length>3&&void 0!==arguments[3]?arguments[3]:null,i=arguments.length>4&&void 0!==arguments[4]?arguments[4]:null;return this.isIdentity||this.resetSelf(),t&&(t.x||t.y)&&this.translateSelf(t.x,t.y),n&&this.rotateSelf(n),r&&(r.x&&this.skewSelf(r.x,0),r.y&&this.skewSelf(0,r.y)),!e||1===e.x&&1===e.y||this.scaleSelf(e.x,e.y),i&&(i.x||i.y)&&this.translateSelf(i.x,i.y),this}},{key:"decompose",value:function(){var t=arguments.length>0&&void 0!==arguments[0]?arguments[0]:0,n=arguments.length>1&&void 0!==arguments[1]?arguments[1]:0,r=this.m,e=r[0]*r[0]+r[1]*r[1],i=[[r[0],r[1]],[r[2],r[3]]],u=T(e);if(0===u)return{origin:{x:r[4],y:r[5]},translate:{x:t,y:n},scale:{x:0,y:0},skew:{x:0,y:0},rotate:0};i[0][0]/=u,i[0][1]/=u;var o=r[0]*r[3]-r[1]*r[2]<0;o&&(u=-u);var a=i[0][0]*i[1][0]+i[0][1]*i[1][1];i[1][0]-=i[0][0]*a,i[1][1]-=i[0][1]*a;var l=T(i[1][0]*i[1][0]+i[1][1]*i[1][1]);if(0===l)return{origin:{x:r[4],y:r[5]},translate:{x:t,y:n},scale:{x:u,y:0},skew:{x:0,y:0},rotate:0};i[1][0]/=l,i[1][1]/=l,a/=l;var f=0;return i[1][1]<0?(f=P(i[1][1])*R,i[0][1]<0&&(f=360-f)):f=O(i[0][1])*R,o&&(f=-f),a=L(a,T(i[0][0]*i[0][0]+i[0][1]*i[0][1]))*R,{origin:{x:r[4],y:r[5]},translate:{x:t,y:n},scale:{x:u,y:l},skew:{x:a,y:0},rotate:f}}},{key:"toString",value:function(){return null===this.s&&(this.s="matrix("+this.m.map(N).join(" ")+")"),this.s}},{key:"determinant",get:function(){var t=this.m;return t[0]*t[3]-t[1]*t[2]}},{key:"isIdentity",get:function(){if(null===this.i){var t=this.m;this.i=1===t[0]&&0===t[1]&&0===t[2]&&1===t[3]&&0===t[4]&&0===t[5]}return this.i}}]),t}(),D=/\.0+$/;function N(t){return Number.isInteger(t)?t:t.toFixed(14).replace(D,"")}Object.freeze({M:2,L:2,Z:0,H:1,V:1,C:6,Q:4,T:2,S:4,A:7});function G(t,n,r){return t+(n-t)*r}function $(t,n,r){var e=arguments.length>3&&void 0!==arguments[3]&&arguments[3],i={x:G(t.x,n.x,r),y:G(t.y,n.y,r)};return e&&(i.a=H(t,n)),i}function H(t,n){return Math.atan2(n.y-t.y,n.x-t.x)}function Q(t,n,r,e){var i=1-e;return i*i*t+2*i*e*n+e*e*r}function U(t,n,r,e){return 2*(1-e)*(n-t)+2*e*(r-n)}function Y(t,n,r,e){var i=arguments.length>4&&void 0!==arguments[4]&&arguments[4],u={x:Q(t.x,n.x,r.x,e),y:Q(t.y,n.y,r.y,e)};return i&&(u.a=Z(t,n,r,e)),u}function Z(t,n,r,e){return Math.atan2(U(t.y,n.y,r.y,e),U(t.x,n.x,r.x,e))}function J(t,n,r,e,i){var u=i*i;return i*u*(e-t+3*(n-r))+3*u*(t+r-2*n)+3*i*(n-t)+t}function K(t,n,r,e,i){var u=1-i;return 3*(u*u*(n-t)+2*u*i*(r-n)+i*i*(e-r))}function W(t,n,r,e,i){var u=arguments.length>5&&void 0!==arguments[5]&&arguments[5],o={x:J(t.x,n.x,r.x,e.x,i),y:J(t.y,n.y,r.y,e.y,i)};return u&&(o.a=X(t,n,r,e,i)),o}function X(t,n,r,e,i){return Math.atan2(K(t.y,n.y,r.y,e.y,i),K(t.x,n.x,r.x,e.x,i))}function tt(t,n,r){var e=arguments.length>3&&void 0!==arguments[3]&&arguments[3];if(rt(n)){if(et(r))return Y(n,r.start,r,t,e)}else if(rt(r)){if(n.end)return Y(n,n.end,r,t,e)}else{if(n.end)return r.start?W(n,n.end,r.start,r,t,e):Y(n,n.end,r,t,e);if(r.start)return Y(n,r.start,r,t,e)}return $(n,r,t,e)}function nt(t,n,r){var e=tt(t,n,r,!0);return e.a=function(t){var n=arguments.length>1&&void 0!==arguments[1]&&arguments[1];return n?t+Math.PI:t}(e.a)/v,e}function rt(t){return!t.type||"corner"===t.type}function et(t){return null!=t.start&&!rt(t)}var it=new V;var ut={f:function(t){return t?t.join(" "):""},i:function(n,r,e){if(0===n)return r;if(1===n)return e;var i=r.length;if(i!==e.length)return h(n,r,e);for(var u,o=new Array(i),a=0;a<i;a++){if((u=t(r[a]))!==t(e[a]))return h(n,r,e);if("number"===u)o[a]=y(n,r[a],e[a]);else{if(r[a]!==e[a])return h(n,r,e);o[a]=r[a]}}return o}},ot={f:null,i:A,u:function(t,n){return function(r){var e=n(r);t.setAttribute("x1",_(e[0])),t.setAttribute("y1",_(e[1])),t.setAttribute("x2",_(e[2])),t.setAttribute("y2",_(e[3]))}}},at={f:_,i:y},lt={f:_,i:function(t,n,r){var e=y(t,n,r);return e<=0?0:e>=1?1:e}},ft={f:M,i:function(t,n,r){var e,i,u,o=n.length,a=r.length;if(o!==a)if(0===o)n=x(o=a,0);else if(0===a)a=o,r=x(o,0);else{var l=(u=(e=o)*(i=a)/function(t,n){for(var r;n;)r=n,n=t%n,t=r;return t||1}(e,i))<0?-u:u;n=k(n,Math.floor(l/o)),r=k(r,Math.floor(l/a)),o=a=l}for(var f=[],s=0;s<o;s++)f.push(c(d(t,n[s],r[s]),6));return f}};function st(t,n,r,e,i,u,o,a){return n=function(t,n,r){for(var e,i,u,o=t.length-1,a={},l=0;l<=o;l++)(e=t[l]).e&&(e.e=n(e.e)),e.v&&"g"===(i=e.v).t&&i.r&&(u=r.getElementById(i.r))&&(a[i.r]=u.querySelectorAll("stop"));return a}(t,e,a),function(e){var i,u=r(e,t,ct);return u?"c"===u.t?E(u.v):"g"===u.t?(n[u.r]&&function(t,n){for(var r=0,e=t.length;r<e;r++)t[r].setAttribute("stop-color",E(n[r]))}(n[u.r],u.v),(i=u.r)?"url(#"+i+")":"none"):"none":"none"}}function ct(t,n,r){if(0===t)return n;if(1===t)return r;if(n&&r){var e=n.t;if(e===r.t)switch(n.t){case"c":return{t:e,v:b(t,n.v,r.v)};case"g":if(n.r===r.r)return{t:e,v:w(t,n.v,r.v),r:n.r}}}return h(t,n,r)}var vt={blur:m,brightness:d,contrast:d,"drop-shadow":function(t,n,r){return 0===t?n:1===t?r:{blur:m(t,n.blur,r.blur),offset:g(t,n.offset,r.offset),color:b(t,n.color,r.color)}},grayscale:d,"hue-rotate":y,invert:d,opacity:d,saturate:d,sepia:d};function ht(t,n,r){if(0===t)return n;if(1===t)return r;var e=n.length;if(e!==r.length)return h(t,n,r);for(var i,u=[],o=0;o<e;o++){if(n[o].type!==r[o].type)return n;if(!(i=vt[n[o].type]))return h(t,n,r);u.push({type:n.type,value:i(t,n[o].value,r[o].value)})}return u}var yt={blur:function(t){return t?function(n){t.setAttribute("stdDeviation",I(n))}:null},brightness:function(t,n,r){return(t=gt(r,n))?function(n){n=_(n),t.map((function(t){return t.setAttribute("slope",n)}))}:null},contrast:function(t,n,r){return(t=gt(r,n))?function(n){var r=_((1-n)/2);n=_(n),t.map((function(t){t.setAttribute("slope",n),t.setAttribute("intercept",r)}))}:null},"drop-shadow":function(t,n,r){var e=r.getElementById(n+"-blur");if(!e)return null;var i=r.getElementById(n+"-offset");if(!i)return null;var u=r.getElementById(n+"-flood");return u?function(t){e.setAttribute("stdDeviation",I(t.blur)),i.setAttribute("dx",_(t.offset.x)),i.setAttribute("dy",_(t.offset.y)),u.setAttribute("flood-color",E(t.color))}:null},grayscale:function(t){return t?function(n){t.setAttribute("values",M(function(t){return[.2126+.7874*(t=1-t),.7152-.7152*t,.0722-.0722*t,0,0,.2126-.2126*t,.7152+.2848*t,.0722-.0722*t,0,0,.2126-.2126*t,.7152-.7152*t,.0722+.9278*t,0,0,0,0,0,1,0]}(n)))}:null},"hue-rotate":function(t){return t?function(n){return t.setAttribute("values",_(n))}:null},invert:function(t,n,r){return(t=gt(r,n))?function(n){n=_(n)+" "+_(1-n),t.map((function(t){return t.setAttribute("tableValues",n)}))}:null},opacity:function(t,n,r){return(t=r.getElementById(n+"-A"))?function(n){return t.setAttribute("tableValues","0 "+_(n))}:null},saturate:function(t){return t?function(n){return t.setAttribute("values",_(n))}:null},sepia:function(t){return t?function(n){return t.setAttribute("values",M(function(t){return[.393+.607*(t=1-t),.769-.769*t,.189-.189*t,0,0,.349-.349*t,.686+.314*t,.168-.168*t,0,0,.272-.272*t,.534-.534*t,.131+.869*t,0,0,0,0,0,1,0]}(n)))}:null}};var dt=["R","G","B"];function gt(t,n){var r=dt.map((function(r){return t.getElementById(n+"-"+r)||null}));return-1!==r.indexOf(null)?null:r}var mt={fill:st,"fill-opacity":lt,stroke:st,"stroke-opacity":lt,"stroke-width":at,"stroke-dashoffset":{f:_,i:y},"stroke-dasharray":ft,opacity:lt,transform:function(n,r,e,i){if(!(n=function(n,r){if(!n||"object"!==t(n))return null;var e=!1;for(var i in n)n.hasOwnProperty(i)&&(n[i]&&n[i].length?(n[i].forEach((function(t){t.e&&(t.e=r(t.e))})),e=!0):delete n[i]);return e?n:null}(n,i)))return null;var u=function(t,i,u){var o=arguments.length>3&&void 0!==arguments[3]?arguments[3]:null;return n[t]?e(i,n[t],u):r&&r[t]?r[t]:o};return r&&r.a&&n.o?function(t){var r=e(t,n.o,nt);return it.recomposeSelf(r,u("r",t,y,0)+r.a,u("k",t,g),u("s",t,g),u("t",t,g)).toString()}:function(t){return it.recomposeSelf(u("o",t,tt,null),u("r",t,y,0),u("k",t,g),u("s",t,g),u("t",t,g)).toString()}},"#filter":function(t,n,r,e,i,u,o,a){if(!n.items||!t||!t.length)return null;var l=function(t,n){var r=(t=t.map((function(t){return t&&yt[t[0]]?(n.getElementById(t[1]),yt[t[0]](n.getElementById(t[1]),t[1],n)):null}))).length;return function(n){for(var e=0;e<r;e++)t[e]&&t[e](n[e].value)}}(n.items,a);return l?(t=function(t,n){return t.map((function(t){return t.e=n(t.e),t}))}(t,e),function(n){l(r(n,t,ht))}):null},"#line":ot,points:{f:M,i:A},d:ut,r:at,"#size":B,"#radius":F,_:function(t,n){if(Array.isArray(t))for(var r=0;r<t.length;r++)this[t[r]]=n;else this[t]=n}},pt=function(){function t(r){n(this,t),this.list=r,this.length=r.length}return e(t,[{key:"setAttribute",value:function(t,n){for(var r=this.list,e=0;e<this.length;e++)r[e].setAttribute(t,n)}},{key:"removeAttribute",value:function(t){for(var n=this.list,r=0;r<this.length;r++)n[r].removeAttribute(t)}},{key:"style",value:function(t,n){for(var r=this.list,e=0;e<this.length;e++)r[e].style[t]=n}}]),t}(),bt=/-./g,wt=function(t,n){return n.toUpperCase()};function At(t){return"function"==typeof t?t:h}function xt(t){return t?"function"==typeof t?t:Array.isArray(t)?function(t){var n=arguments.length>1&&void 0!==arguments[1]?arguments[1]:u;if(!Array.isArray(t))return n;switch(t.length){case 1:return s(t[0])||n;case 2:return s(t[0],t[1])||n;case 4:return a(t[0],t[1],t[2],t[3])||n}return n}(t,null):function(t,n){var r=arguments.length>2&&void 0!==arguments[2]?arguments[2]:u;switch(t){case"linear":return u;case"steps":return s(n.steps||1,n.jump||0)||r;case"bezier":case"cubic-bezier":return a(n.x1||0,n.y1||0,n.x2||0,n.y2||0)||r}return r}(t.type,t.value,null):null}function kt(t,n,r){var e=arguments.length>3&&void 0!==arguments[3]&&arguments[3],i=n.length-1;if(t<=n[0].t)return e?[0,0,n[0].v]:n[0].v;if(t>=n[i].t)return e?[i,1,n[i].v]:n[i].v;var u,o=n[0],a=null;for(u=1;u<=i;u++){if(!(t>n[u].t)){a=n[u];break}o=n[u]}return null==a?e?[i,1,n[i].v]:n[i].v:o.t===a.t?e?[u,1,a.v]:a.v:(t=(t-o.t)/(a.t-o.t),o.e&&(t=o.e(t)),e?[u,t,r(t,o.v,a.v)]:r(t,o.v,a.v))}function St(t,n){var r=arguments.length>2&&void 0!==arguments[2]?arguments[2]:null;return t&&t.length?"function"!=typeof n?null:("function"!=typeof r&&(r=null),function(e){var i=kt(e,t,n);return null!=i&&r&&(i=r(i)),i}):null}function _t(t,n){return t.t-n.t}function Mt(n,r,e,i,u){var o,a="@"===e[0],l="#"===e[0],f=mt[e],s=h;switch(a?(o=e.substr(1),e=o.replace(bt,wt)):l&&(e=e.substr(1)),t(f)){case"function":if(s=f(i,u,kt,xt,e,a,r,n),l)return s;break;case"string":s=St(i,At(f));break;case"object":if((s=St(i,At(f.i),f.f))&&"function"==typeof f.u)return f.u(r,s,e,a,n)}return s?function(t,n,r){var e=arguments.length>3&&void 0!==arguments[3]&&arguments[3];if(e)return t instanceof pt?function(e){return t.style(n,r(e))}:function(e){return t.style[n]=r(e)};if(Array.isArray(n)){var i=n.length;return function(e){var u=r(e);if(null==u)for(var o=0;o<i;o++)t[o].removeAttribute(n);else for(var a=0;a<i;a++)t[a].setAttribute(n,u)}}return function(e){var i=r(e);null==i?t.removeAttribute(n):t.setAttribute(n,i)}}(r,e,s,a):null}function It(n,r,e,i){if(!i||"object"!==t(i))return null;var u=null,o=null;return Array.isArray(i)?o=function(t){if(!t||!t.length)return null;for(var n=0;n<t.length;n++)t[n].e&&(t[n].e=xt(t[n].e));return t.sort(_t)}(i):(o=i.keys,u=i.data||null),o?Mt(n,r,e,o,u):null}function Et(t,n,r){if(!r)return null;var e=[];for(var i in r)if(r.hasOwnProperty(i)){var u=It(t,n,i,r[i]);u&&e.push(u)}return e.length?e:null}function Ft(t,n){if(!n.duration||n.duration<0)return null;var r=function(t,n){if(!n)return null;var r=[];if(Array.isArray(n))for(var e=n.length,i=0;i<e;i++){var u=n[i];if(2===u.length){var o=null;if("string"==typeof u[0])o=t.getElementById(u[0]);else if(Array.isArray(u[0])){o=[];for(var a=0;a<u[0].length;a++)if("string"==typeof u[0][a]){var l=t.getElementById(u[0][a]);l&&o.push(l)}o=o.length?1===o.length?o[0]:new pt(o):null}if(o){var f=Et(t,o,u[1]);f&&(r=r.concat(f))}}}else for(var s in n)if(n.hasOwnProperty(s)){var c=t.getElementById(s);if(c){var v=Et(t,c,n[s]);v&&(r=r.concat(v))}}return r.length?r:null}(t,n.elements);return r?function(t,n){var r=arguments.length>2&&void 0!==arguments[2]?arguments[2]:1/0,e=arguments.length>3&&void 0!==arguments[3]?arguments[3]:1,i=arguments.length>4&&void 0!==arguments[4]&&arguments[4],u=arguments.length>5&&void 0!==arguments[5]?arguments[5]:1,o=t.length,a=e>0?n:0;i&&r%2==0&&(a=n-a);var l=null;return function(f,s){var c=f%n,v=1+(f-c)/n;s*=e,i&&v%2==0&&(s=-s);var h=!1;if(v>r)c=a,h=!0,-1===u&&(c=e>0?0:n);else if(s<0&&(c=n-c),c===l)return!1;l=c;for(var y=0;y<o;y++)t[y](c);return h}}(r,n.duration,n.iterations||1/0,n.direction||1,!!n.alternate,n.fill||1):null}var Bt=function(){function t(r){var e=arguments.length>1&&void 0!==arguments[1]?arguments[1]:{};n(this,t),this._id=0,this._running=!1,this._animations=r,this.direction=e.direction||1,this.speed=e.speed||1,this.fps=e.fps||100,this.offset=e.offset||0}return e(t,[{key:"_start",value:function(){var t=this,n=arguments.length>0&&void 0!==arguments[0]?arguments[0]:0,r=-1/0,e=null,i={},u=function u(o){t._running=!0,null==e&&(e=o);var a=Math.round((o-e+n)*t.speed),l=t.fps?1e3/t.fps:0;if(a>r+l){t.offset=a,r=a;for(var f=t._animations,s=f.length,c=0,v=0;v<s;v++)i[v]?c++:(i[v]=f[v](a,t.direction),i[v]&&c++);if(c===s)return void t._stop()}t._id=window.requestAnimationFrame(u)};this._id=window.requestAnimationFrame(u)}},{key:"_stop",value:function(){this._id&&window.cancelAnimationFrame(this._id),this._running=!1}},{key:"play",value:function(){this._running||this._start(this.offset)}},{key:"stop",value:function(){this._stop(),this.offset=0;var t=this.direction,n=this._animations;requestAnimationFrame((function(){for(var r=0;r<n.length;r++)n[r](0,t)}))}},{key:"restart",value:function(){this._stop(),this.offset=0,this._start()}},{key:"pause",value:function(){this._stop()}},{key:"reverse",value:function(){this.direction=-this.direction}}],[{key:"build",value:function(n){if(!(n=function(t){if(!t||!t.root||!Array.isArray(t.animations))return null;var n=window.document.getElementById(t.root);if(!n)return null;var r=t.animations.map((function(t){return Ft(n,t)})).filter((function(t){return!!t}));return r.length?{element:n,animations:r,options:t.options||void 0}:null}(n)))return null;var r=n.element,e=n.options||{},i=new t(n.animations,n.options);return function(t,n,r){var e=arguments.length>3&&void 0!==arguments[3]?arguments[3]:null;if("click"===r){var i=function r(){n.removeEventListener("click",r),t.play()};return void n.addEventListener("click",i)}if("hover"===r)return n.addEventListener("mouseenter",(function(){return t.play()})),void n.addEventListener("mouseleave","freeze"===e?function(){return t.pause()}:function(){return t.stop()});t.play()}(i,r,e.start,e.hover),i}}]),t}();return function(){for(var t=0,n=["ms","moz","webkit","o"],r=0;r<n.length&&!window.requestAnimationFrame;++r)window.requestAnimationFrame=window[n[r]+"RequestAnimationFrame"],window.cancelAnimationFrame=window[n[r]+"CancelAnimationFrame"]||window[n[r]+"CancelRequestAnimationFrame"];window.requestAnimationFrame||(window.requestAnimationFrame=function(n){var r=Date.now(),e=Math.max(0,16-(r-t)),i=window.setTimeout((function(){n(r+e)}),e);return t=r+e,i},window.cancelAnimationFrame=window.clearTimeout)}(),Bt}));
__SVGATOR_PLAYER__.build({"root":"ec2qct9dcafi1","animations":[{"duration":6000,"direction":1,"iterations":0,"fill":1,"alternate":false,"elements":{"ec2qct9dcafi3":{"opacity":[{"t":0,"v":0},{"t":3000,"v":1},{"t":6000,"v":0}]},"ec2qct9dcafi9":{"opacity":[{"t":0,"v":0},{"t":3000,"v":1},{"t":4000,"v":1},{"t":6000,"v":0}]},"ec2qct9dcafi15":{"opacity":[{"t":0,"v":0},{"t":3000,"v":1},{"t":4000,"v":1},{"t":6000,"v":1}]},"ec2qct9dcafi21":{"opacity":[{"t":0,"v":0},{"t":3000,"v":1},{"t":4000,"v":1},{"t":6000,"v":0}]},"ec2qct9dcafi27":{"opacity":[{"t":0,"v":0},{"t":3000,"v":1},{"t":4000,"v":1},{"t":6000,"v":0}]},"ec2qct9dcafi33":{"opacity":[{"t":0,"v":0},{"t":3000,"v":1},{"t":4000,"v":1},{"t":6000,"v":0}]},"ec2qct9dcafi45":{"opacity":[{"t":0,"v":0},{"t":3000,"v":1},{"t":4000,"v":1},{"t":6000,"v":0}]},"ec2qct9dcafi46":{"transform":{"keys":{"o":[{"t":0,"v":{"x":0,"y":0,"type":"corner"}},{"t":2000,"v":{"x":0,"y":20,"type":"corner"}},{"t":3000,"v":{"x":0,"y":15,"type":"corner"}},{"t":4400,"v":{"x":0,"y":20,"type":"corner"}},{"t":6000,"v":{"x":0,"y":0,"type":"corner"}}]}},"opacity":[{"t":0,"v":0},{"t":2000,"v":1},{"t":3000,"v":1},{"t":4700,"v":1},{"t":6000,"v":0}]},"ec2qct9dcafi50":{"transform":{"keys":{"o":[{"t":0,"v":{"x":0,"y":0,"type":"corner"}},{"t":2000,"v":{"x":0,"y":20,"type":"corner"}},{"t":3200,"v":{"x":0,"y":15,"type":"corner"}},{"t":4000,"v":{"x":0,"y":20,"type":"corner"}},{"t":4600,"v":{"x":0,"y":15,"type":"corner"}},{"t":5300,"v":{"x":0,"y":20,"type":"corner"}},{"t":6000,"v":{"x":0,"y":0,"type":"corner"}}]}},"opacity":[{"t":0,"v":0},{"t":2000,"v":1},{"t":3000,"v":1},{"t":5500,"v":1},{"t":6000,"v":0}]},"ec2qct9dcafi54":{"transform":{"keys":{"o":[{"t":0,"v":{"x":0,"y":0,"type":"corner"}},{"t":2000,"v":{"x":0,"y":20,"type":"corner"}},{"t":3000,"v":{"x":0,"y":15,"type":"corner"}},{"t":4400,"v":{"x":0,"y":20,"type":"corner"}},{"t":6000,"v":{"x":0,"y":0,"type":"corner"}}]}},"opacity":[{"t":0,"v":0},{"t":2000,"v":1},{"t":3000,"v":1},{"t":5500,"v":1},{"t":6000,"v":0}]},"ec2qct9dcafi58":{"transform":{"keys":{"o":[{"t":0,"v":{"x":0,"y":0,"type":"corner"}},{"t":2000,"v":{"x":0,"y":20,"type":"corner"}},{"t":3000,"v":{"x":0,"y":15,"type":"corner"}},{"t":4400,"v":{"x":0,"y":20,"type":"corner"}},{"t":6000,"v":{"x":0,"y":0,"type":"corner"}}]}},"opacity":[{"t":0,"v":0},{"t":2000,"v":1},{"t":3000,"v":1},{"t":5500,"v":1},{"t":6000,"v":0}]},"ec2qct9dcafi62":{"transform":{"keys":{"o":[{"t":0,"v":{"x":0,"y":0,"type":"corner"}},{"t":2000,"v":{"x":0,"y":20,"type":"corner"}},{"t":3200,"v":{"x":0,"y":15,"type":"corner"}},{"t":4000,"v":{"x":0,"y":20,"type":"corner"}},{"t":4600,"v":{"x":0,"y":15,"type":"corner"}},{"t":5300,"v":{"x":0,"y":20,"type":"corner"}},{"t":6000,"v":{"x":0,"y":0,"type":"corner"}}]}},"opacity":[{"t":0,"v":0},{"t":2000,"v":1},{"t":3000,"v":1},{"t":5500,"v":1},{"t":6000,"v":0}]},"ec2qct9dcafi66":{"transform":{"keys":{"o":[{"t":0,"v":{"x":0,"y":0,"type":"corner"}},{"t":2000,"v":{"x":0,"y":20,"type":"corner"}},{"t":3200,"v":{"x":0,"y":15,"type":"corner"}},{"t":4000,"v":{"x":0,"y":20,"type":"corner"}},{"t":4600,"v":{"x":0,"y":15,"type":"corner"}},{"t":5300,"v":{"x":0,"y":20,"type":"corner"}},{"t":6000,"v":{"x":0,"y":0,"type":"corner"}}]}},"opacity":[{"t":0,"v":0},{"t":2000,"v":1},{"t":3000,"v":1},{"t":5500,"v":1},{"t":6000,"v":0}]}}}],"options":{"start":"load","hover":"freeze"}})]]></script></svg>