<svg id="eblz14e7aajg1" xmlns="http://www.w3.org/2000/svg" xmlns:xlink="http://www.w3.org/1999/xlink" viewBox="0 0 4096 2198" shape-rendering="geometricPrecision" text-rendering="geometricPrecision"><g id="eblz14e7aajg2"><path id="eblz14e7aajg3" d="M4096,0L0,0L0,2198L4096,2198L4096,0Z" fill="rgb(255,255,255)" stroke="none" stroke-width="1"/><path id="eblz14e7aajg4" d="M1931.500000,1726L2050.500000,1812.500000L2122.500000,1795.500000L2224.500000,1671.500000L2343.500000,1574.500000L2407.500000,1451.500000L2452,1325L2364.500000,1332.500000L2311,1360L2253,1344.500000L2158,1391.500000L2061,1325L1989,1391.500000L1913.500000,1391.500000L1814,1485.500000L1814,1574.500000L1931.500000,1726Z" fill="rgb(167,224,183)" stroke="none" stroke-width="1"/><path id="eblz14e7aajg5" d="M2025,1961L2000,2198L0,2198L0,0L3625,0L3628,19L3617,19L3577,96.500000L3561.500000,140L3561.500000,166.500000L3537,216L3532.500000,243L3546.500000,270L3487.500000,299.500000L3456.500000,243L3405,299.500000L3416,309.500000L3430,293L3448,293L3464,312.500000L3495.500000,335L3477,362.500000L3456.500000,355L3440,396.500000L3419,445.500000L3397,475.500000L3383,471L3346.500000,528.500000L3312.500000,499L3278,521.500000L3238.500000,573.500000L3207,622L3207,644.500000L3181,660L3140.500000,725L3160,738.500000L3146.500000,753.500000L3126.500000,738.500000L3092,753.500000L3050.500000,826.500000L3030,847.500000L2986,875L2971.500000,908L2948.500000,921.500000L2911,958.500000L2936.500000,989.500000L2911,1010.500000L2868,1046L2854,1089.500000L2811,1149.500000L2811,1197.500000L2782,1226.500000L2758.500000,1277L2746.500000,1338L2758.500000,1380.500000L2782,1393.500000L2746.500000,1460.500000L2694.500000,1438L2705,1356L2705,1341L2681,1338L2678.500000,1321.500000L2705,1320.500000L2705,1297L2694.500000,1292.500000L2705,1263L2694.500000,1256L2681,1263L2675.500000,1311L2659.500000,1311L2665,1249.500000L2694.500000,1233.500000L2700,1186.500000L2684.500000,1127L2656,1109L2637.500000,1114L2664,1205.500000L2621,1268L2599,1252L2627.500000,1192L2611.500000,1139L2533,1277L2624.500000,1338L2605,1366L2525.500000,1315.500000L2510.500000,1323L2507,1444L2582,1478L2558,1522L2494,1491L2444,1573.500000L2507,1610L2483.500000,1657L2398,1616L2379,1657L2438.500000,1714.500000L2323,1941.500000L2259,1906.500000L2073,2054L2065,2051L2058.500000,1963L2025,1961Z" fill="rgb(229,233,236)" stroke="none" stroke-width="1"/><path id="eblz14e7aajg6" d="M310,1940L204,1933L191,1929.500000L146.500000,1944L133,1944L108,1938.500000L88,1921.500000L75,1908.500000L70,1890.500000L70,1868L64,1844.500000L66.500000,1827L59.500000,1813.500000L53,1790.500000L53,1759L56,1743.500000L65.500000,1729.500000L69,1718L79,1704.500000L89,1687.500000L93,1669.500000L93,1648L97.500000,1630L99.500000,1610L105.500000,1596.500000L105.500000,1584.500000L97.500000,1566.500000L86.500000,1538.500000L76,1519.500000L64,1506L52,1491L41.500000,1478.500000L27,1463.500000L0,1456.500000L0,1447L30.500000,1456.500000L47,1472L58,1487.500000L75,1507L91,1532.500000L106.500000,1560L113.500000,1591L106.500000,1617L99,1648L99,1674.500000L91,1702L75,1726L61.500000,1751L61.500000,1781L66.500000,1804.500000L82,1828.500000L75,1850.500000L78,1871L78,1894.500000L84.500000,1907L108,1924L158,1929.500000L204,1909.500000L243,1904.500000L322.500000,1904.500000L366,1919.500000L463.500000,1960.500000L543.500000,1993L619.500000,2017L680,2023L742,2034.500000L793.500000,2043L852.500000,2063.500000L837.500000,2084.500000L804.500000,2081L718,2063.500000L651,2052L575,2043L496,2017L413.500000,1976L310,1940Z" fill="rgb(127,199,255)" stroke="none" stroke-width="1"/><path id="eblz14e7aajg7" d="M2162,128.968000L2162,0L2152,0L2152,124.032000L1897.390000,319.086000L1521.840000,628.950000L1379.560000,980.375000L1363.620000,1231.900000L1240.580000,1363.750000L844.746000,1363.750000L520.793000,1396.690000L319.773000,1029.480000L94.465400,885L0,885L0,895L91.534500,895L312.227000,1036.520000L515.207000,1407.310000L845.254000,1373.750000L1231.240000,1373.750000L1112,1501.530000L1112,1786.120000L724.992000,1834.960000L455.837000,1801.810000L276.869000,1543.030000L209.673000,1394.490000L39.850400,1335L0,1335L0,1345L38.149500,1345L202.327000,1402.510000L268.131000,1547.970000L450.163000,1811.190000L725.008000,1845.040000L1112,1796.200000L1112,1893.530000L917,2198L928,2198L1122,1896.470000L1122,1794.930000L1190.080000,1786.340000L1502.170000,1613.500000L1616.660000,1867.530000L1770.880000,2077.880000L1972,2087.270000L1972,2198L1982,2198L1982,2077.730000L1776.120000,2068.120000L1625.340000,1862.470000L1510.520000,1607.680000L1789.760000,1342.320000L2003.830000,1051.730000L2184.710000,864.476000L2434.040000,1092.820000L2632.750000,906.215000L2760.460000,919.845000L2876.900000,679.883000L3085.900000,331.218000L3436,17.232000L3436,0L3426,0L3426,12.767900L3081.920000,321.354000L2794,75.196400L2794,0L2784,0L2784,79.803500L3075.540000,329.054000L2868.100000,675.119000L2754.540000,909.155000L2629.250000,895.785000L2433.960000,1079.180000L2187.910000,853.839000L2187.880000,853.813000L1754.100000,450.276000L1903.680000,326.857000L2162,128.968000ZM1746.320000,456.696000L1530.160000,635.051000L1389.440000,982.625000L1373.380000,1236.100000L1122,1505.470000L1122,1784.850000L1186.920000,1776.660000L1501.520000,1602.440000L1782.240000,1335.680000L1996.170000,1045.270000L2177.360000,857.691000L1746.320000,456.696000Z" clip-rule="evenodd" fill="rgb(242,243,247)" fill-rule="evenodd" stroke="none" stroke-width="1"/><path id="eblz14e7aajg8" d="M3254,4.959110L3415.710000,197.243000L3419.190000,160.657000L3521,0.000176L3538,0.000176L3432.810000,165.343000L3427.830000,217.600000L3360.300000,340.807000L3318.470000,354.302000L3354.460000,394.015000L3117.490000,653.865000L3027.890000,784.019000L2787.660000,1020.730000L2602.470000,1116.810000L2491.870000,1298.990000L2442.460000,1442.750000L2371.590000,1580.940000L2245.460000,1687.970000L2133.180000,1819.890000L1958.320000,1887.700000L1986.910000,1942.520000L1852,2198L1836,2198L1971.090000,1942.480000L1945.480000,1893.350000L1446.780000,2143.690000L1317.040000,2129.110000L1311.320000,2159.810000L1250,2198L1227,2198L1298.680000,2151.190000L1303.090000,2127.540000L1141.030000,2109.330000L1050,2198L1031,2198L1123.170000,2107.270000L1024.120000,2095.770000L915.907000,2027.770000L771,2198L753,2198L903.930000,2020.250000L876.115000,2002.770000L503.869000,1959.240000L291.314000,1804.980000L214.733000,1855.600000L83,2198L68.500000,2198L203.267000,1846.400000L279.212000,1796.200000L175.729000,1721.100000L128.184000,1502.890000L0,1399L0,1381L140.816000,1495.110000L188.271000,1712.900000L292.339000,1788.430000L496.458000,1697.320000L251.230000,1285.360000L152.807000,1313.040000L0,1306L0,1292L151.193000,1298.960000L244.875000,1272.610000L191.826000,1150.890000L63.048800,1259L0,1259L0,1245L57.951100,1245L191.820000,1132.610000L435.341000,1121.980000L757.469000,1167.570000L825.617000,1096.390000L991.011000,1102.460000L1108.360000,1064.140000L1205.210000,904.871000L1254.480000,780.462000L1254.490000,780.423000L1325.890000,596.894000L1405.410000,501.674000L1663.260000,261.951000L1750.710000,247.045000L1787.880000,200.935000L1868,0L1883,0L1801.530000,204.499000L1834.880000,288.591000L1902.080000,314.885000L2029.290000,419.095000L2089.690000,386.106000L2194.800000,306.508000L2284.330000,324.820000L2351.430000,307.688000L2489.530000,171.058000L2514.140000,40.729400L2491,0L2507,0L2527.490000,35.866600L2591.940000,135.530000L2692,232.538000L2692,0.000401L2706,0.000401L2706,246.112000L2778.420000,316.322000L3023.030000,74.999600L2947.100000,0.065960L2967,0.066074L3032.790000,64.962300L3093,4.959110L3112,4.959110L3042.710000,74.859300L3100.290000,133.069000L3186.780000,47.326100L3254,4.959110ZM3090.350000,142.925000L3032.940000,84.893000L2788.470000,326.070000L2847.690000,383.492000L3090.350000,142.925000ZM2857.750000,393.239000L3100.190000,152.878000L3293.020000,347.802000L2931.260000,464.509000L2857.750000,393.239000ZM2837.750000,393.350000L2778.500000,335.904000L2705.820000,407.601000L2700.680000,492.233000L2719.470000,510.614000L2837.750000,393.350000ZM2703.520000,518.472000L2686.320000,497.768000L2692,404.289000L2692,252.038000L2581.060000,144.471000L2525.130000,58.001100L2502.470000,177.943000L2358.570000,320.313000L2290.500000,337.692000L2254.610000,518.052000L2382.820000,641.531000L2657.220000,551.062000L2666.330000,558.315000L2703.520000,518.472000ZM2669.220000,580.210000L2493.560000,757.171000L2628.400000,898.289000L2691.500000,842.351000L2691.500000,596.548000L2669.220000,580.210000ZM2622.360000,912.235000L2483.700000,767.111000L2010.810000,1243.500000L2383.330000,1243.500000L2482.680000,1253.010000L2488.420000,1277.690000L2591.580000,1107.760000L2668.270000,991.270000L2622.360000,912.235000ZM2478.230000,1295.630000L2471.320000,1265.990000L2382.670000,1257.500000L1996.900000,1257.500000L1746.200000,1508.200000L1951.640000,1875.280000L2124.820000,1808.110000L2235.540000,1678.030000L2360.410000,1572.070000L2429.540000,1437.250000L2478.230000,1295.630000ZM1938.820000,1881.030000L1735.920000,1518.520000L1485.960000,1769.940000L1485.920000,1769.980000L1361.470000,1890.590000L1319.610000,2115.310000L1444.220000,2129.310000L1938.820000,1881.030000ZM1305.660000,2113.740000L1344.090000,1907.430000L1323.940000,1926.960000L1323.870000,1927.030000L1153.760000,2096.670000L1305.660000,2113.740000ZM1135.950000,2094.660000L1028.880000,2082.230000L922.002000,2015.070000L939.159000,1878.670000L864.645000,1677.640000L873.487000,1600.660000L1164.650000,1498.660000L1383.230000,1434.090000L1348.230000,1883.930000L1314.090000,1917.010000L1135.950000,2094.660000ZM1363.410000,1869.210000L1397.500000,1431.200000L1572.190000,1422.880000L1665.970000,1344.380000L1689.450000,1427.050000L1728.980000,1505.640000L1476.130000,1759.970000L1476.040000,1760.070000L1363.410000,1869.210000ZM1739.400000,1495.200000L1977.600000,1257L1652.850000,1246.960000L1702.550000,1421.950000L1739.400000,1495.200000ZM1638.170000,1246.510000L1661.780000,1329.630000L1566.810000,1409.120000L1389.830000,1417.550000L1160.350000,1485.340000L875.263000,1585.200000L881.356000,1532.160000L935.988000,1387.130000L1012.860000,1210.510000L1217,1233.490000L1638.170000,1246.510000ZM998.300000,1208.870000L923.011000,1381.870000L867.644000,1528.840000L860.610000,1590.080000L518.269000,1689.780000L540.171000,1634.430000L705.491000,1411.350000L887.204000,1196.360000L998.300000,1208.870000ZM870.465000,1194.480000L762.702000,1182.340000L741.926000,1204.040000L580.824000,1229.630000L700.440000,1395.640000L870.465000,1194.480000ZM691.330000,1406.940000L565.241000,1231.950000L345.381000,1258.880000L265.186000,1281.440000L505.231000,1684.680000L527.829000,1627.570000L691.330000,1406.940000ZM508.916000,1707.090000L305.419000,1797.920000L509.130000,1945.760000L880.885000,1989.230000L908.925000,2006.850000L924.841000,1880.330000L850.355000,1679.360000L858.877000,1605.170000L508.916000,1707.090000ZM258.479000,1268.780000L342.619000,1245.120000L567.527000,1217.570000L735.074000,1190.960000L745.547000,1180.020000L434.659000,1136.020000L204.990000,1146.050000L258.479000,1268.780000ZM774.879000,1169.630000L1005.410000,1195.580000L1093.240000,1083.810000L992.988000,1116.540000L831.383000,1110.610000L774.879000,1169.630000ZM1117.190000,1075.990000L1021.760000,1197.420000L1218,1219.510000L1634.450000,1232.380000L1576.960000,1003.720000L1580.240000,924.785000L1117.190000,1075.990000ZM1594.450000,920.146000L1591.040000,1002.280000L1649,1232.830000L1977.340000,1242.980000L1858.190000,1116.070000L1681.920000,891.586000L1594.450000,920.146000ZM1696.080000,886.960000L1858.530000,1093.830000L1890.270000,823.551000L1696.080000,886.960000ZM1904.940000,818.674000L1870.830000,1109.080000L1994.140000,1240.420000L2474.020000,756.985000L2378.990000,657.531000L2187.300000,720.613000L2187.190000,720.650000L1904.940000,818.674000ZM2393.720000,652.678000L2483.890000,747.045000L2658.420000,571.221000L2653.780000,566.938000L2393.720000,652.678000ZM2367.780000,646.483000L2182.760000,707.369000L1932.040000,794.442000L2246.680000,529.852000L2367.780000,646.483000ZM2240.610000,516.663000L2276.280000,337.463000L2198.200000,321.493000L2097.310000,397.895000L2033.270000,432.871000L1998.040000,482.399000L1879.370000,503.192000L1809.610000,541.946000L1694.210000,686.921000L1721.120000,742.765000L1639.110000,814.402000L1686.880000,875.238000L1895.040000,807.268000L2240.610000,516.663000ZM1631.400000,827.256000L1672.710000,879.864000L1599.910000,903.634000L1631.400000,827.256000ZM1582.410000,909.348000L1623.660000,809.311000L1703.880000,739.236000L1681.600000,693L1566.860000,693L1410.660000,517.224000L1338.110000,604.107000L1267.520000,785.558000L1267.510000,785.578000L1217.790000,911.130000L1128.810000,1057.460000L1582.410000,909.348000ZM1420.280000,506.967000L1573.140000,679L1682.620000,679L1800.390000,531.055000L1874.630000,489.809000L1989.960000,469.601000L2019.010000,428.771000L1894.920000,327.116000L1824.120000,299.410000L1791.920000,218.237000L1758.290000,259.956000L1669.740000,275.050000L1420.280000,506.967000ZM2636.930000,909.438000L2684.730000,991.731000L2618.110000,1092.920000L2779.340000,1009.270000L3017.110000,774.982000L3102.880000,650.406000L2927.550000,480.415000L2731.990000,543.504000L2725.380000,537.411000L2692.250000,579.202000L2705.500000,589.453000L2705.500000,848.649000L2636.930000,909.438000ZM2729.330000,520.554000L2847.800000,403.097000L2916.160000,469.378000L2736.010000,527.496000L2729.330000,520.554000ZM2942.640000,475.547000L3111.690000,639.451000L3335.540000,393.986000L3303.850000,359.019000L2942.640000,475.547000ZM2706,265.612000L2706,387.762000L2768.450000,326.157000L2706,265.612000ZM3307.950000,342.986000L3110.140000,143.021000L3196.220000,57.675800L3252.930000,15.043600L3412.660000,216.160000L3350.700000,329.194000L3307.950000,342.986000Z" clip-rule="evenodd" fill="rgb(165,182,212)" fill-rule="evenodd" stroke="none" stroke-width="1"/><path id="eblz14e7aajg9" d="M174.500000,2130L201,2198L742,2198L820.500000,2099.500000L714.500000,2073L582.500000,2059L483.500000,2027.500000L313,1947.500000L201,1947.500000L141,2088.500000L174.500000,2130Z" fill="rgb(167,224,183)" stroke="none" stroke-width="1"/><path id="eblz14e7aajg10" d="M0,332.500000L0,0L904.500000,0L1858,0L1778.500000,198.500000L1744.500000,236L1659,248L1511,374L1330.500000,526.500000L1306,608.500000L1261.500000,732.500000L1238.500000,679L1172.500000,633L1135.500000,726.500000L1092.500000,776.500000L1130,853.500000L1123.500000,916.500000L1155,916.500000L1172.500000,940L1148,966L1086,966L1067.500000,923.500000L1025,971L1025,1014L996.500000,1034L974,1002L946.500000,1014L926.500000,977.500000L918.500000,916.500000L892,916.500000L877,879.500000L844,879.500000L799,911.500000L758,901L728,911.500000L717,863.500000L672,901L617.500000,923.500000L542,940.500000L500.500000,975L482,964.500000L434.500000,1004L372.500000,1020L366,1004L380,975L372.500000,940.500000L324,893.500000L267,857L230.500000,806.500000L256.500000,762.500000L300.500000,762.500000L311,750.500000L286,727L286,681L300.500000,662L352.500000,681L372.500000,671L343.500000,632L393,620L424.500000,590L380,590L372.500000,555.500000L332,608.500000L286,632L273,590L241,498L206,445L193,498L206,552L184.500000,579.500000L150,579.500000L163,632L139.500000,702.500000L106.500000,715.500000L106.500000,662L67.500000,620L0,608.500000L0,555.500000L32,568L50,552L20.500000,526.500000L20.500000,491L0,498L0,381.500000L50,397.500000L0,332.500000Z" fill="rgb(167,224,183)" stroke="none" stroke-width="1"/><path id="eblz14e7aajg11" d="M1172.720000,186.136000C1141.400000,219.148000,1113.410000,254.136000,1109.880000,290.421000C1107.040000,319.650000,1123.240000,341.849000,1133.820000,369.211000L1134.410000,370.730000C1144.740000,397.433000,1157.050000,429.255000,1153.400000,470.694000C1143.390000,584.377000,1110.540000,700.424000,987.188000,740.289000C861.169000,781.014000,767.098000,698.969000,691.655000,612.428000C644.688000,558.551000,640.749000,500.432000,639.168000,447.995000C639.062000,444.476000,638.965000,440.986000,638.869000,437.524000C637.503000,388.342000,636.291000,344.649000,610.839000,300.482000C564.242000,219.620000,462.589000,150.383000,368.250000,100.483000C321.748000,75.886700,278.274000,56.624400,246.415000,43.512600C230.502000,36.963000,217.526000,31.964000,208.568000,28.616300C204.090000,26.942800,200.619000,25.683000,198.290000,24.849400C197.126000,24.432700,196.248000,24.122500,195.672000,23.920600C195.384000,23.819700,195.172000,23.745800,195.038000,23.699100L194.895000,23.649600L187,0L272,0C304.918000,13.548200,343.358000,30.753500,391.628000,56.285100C486.831000,106.642000,590.928000,133.404000,645.161000,227.518000C677.183000,283.086000,687.606000,386.887000,688.825000,434.645000C688.927000,438.651000,689.028000,442.600000,689.145000,446.488000C690.692000,497.792000,694.778000,539.920000,729.345000,579.572000C805.183000,666.568000,878.767000,686.781000,971.813000,656.711000C1063.480000,627.088000,1093.780000,577.723000,1103.600000,466.306000C1106.180000,436.970000,1097.810000,414.712000,1087.190000,387.243000L1086.860000,386.384000C1076.440000,359.440000,1064.050000,327.407000,1068.120000,285.578000C1073.130000,234.076000,1100.920000,189.170000,1136.450000,151.721000C1172.080000,114.168000,1217.200000,82.286300,1260.710000,56.625100C1304.360000,30.877900,1341.050000,13.563300,1373,0.000189L1482,0.000345L1449.020000,23.677200L1448.890000,23.723900C1448.800000,23.754800,1448.670000,23.798600,1448.510000,23.855200L1448.270000,23.939000C1447.700000,24.136200,1446.830000,24.440900,1445.680000,24.851500C1443.380000,25.672700,1439.950000,26.917000,1435.550000,28.572200C1426.750000,31.883900,1414.080000,36.833100,1398.800000,43.321800C1368.170000,56.324900,1327.320000,75.386600,1286.110000,99.692300C1244.750000,124.084000,1203.940000,153.229000,1172.720000,186.136000Z" fill="rgb(127,199,255)" stroke="none" stroke-width="1"/><path id="eblz14e7aajg12" d="M2025.500000,1505.500000L2041,1470L2051.500000,1461.500000L2053,1439.500000L2087.500000,1439.500000L2087.500000,1470L2074,1513L2053,1540.500000L2053,1576L2041,1594.500000L2002.500000,1594.500000L1985,1550.500000L2013.500000,1534L2025.500000,1505.500000Z" fill="rgb(127,199,255)" stroke="none" stroke-width="1"/><path id="eblz14e7aajg13" d="M2529.500000,196L2537,130L2654.500000,275L2654.500000,489L2587.500000,543L2390,566.500000L2327.500000,467.500000L2364,411.500000L2384.500000,338L2466.500000,265.500000L2529.500000,196Z" fill="rgb(167,224,183)" stroke="none" stroke-width="1"/><path id="eblz14e7aajg14" d="M1624.500000,967.500000L1676,945L1780.500000,1087.500000L1862.500000,1167L1803,1205L1697,1189.500000L1661.500000,1131L1624.500000,967.500000Z" fill="rgb(127,199,255)" stroke="none" stroke-width="1"/></g><circle id="eblz14e7aajg15" r="10" transform="matrix(1 0 0 1 196.18006700000001 1141.99310900000000)" fill="rgb(0,0,0)" stroke="none" stroke-width="1"/><circle id="eblz14e7aajg16" r="10" transform="matrix(1 0 0 1 1371.35763199999997 1681.31388599999991)" fill="rgb(0,0,0)" stroke="none" stroke-width="1"/><circle id="eblz14e7aajg17" r="10" transform="matrix(1 0 0 1 2484.17459400000007 757.42756099999997)" fill="rgb(0,0,0)" stroke="none" stroke-width="1"/><circle id="eblz14e7aajg18" r="10" transform="matrix(1 0 0 1 1987.71146499999986 1251.52672300000017)" fill="rgb(0,0,0)" stroke="none" stroke-width="1"/><circle id="eblz14e7aajg19" r="10" transform="matrix(1 0 0 1 1116.68497400000024 1507.46398099999942)" fill="rgb(0,0,0)" stroke="none" stroke-width="1"/><circle id="eblz14e7aajg20" r="10" transform="matrix(1 0 0 1 1525.96624599999996 635.50004300000001)" fill="rgb(0,0,0)" stroke="none" stroke-width="1"/><circle id="eblz14e7aajg21" r="10" transform="matrix(1 0 0 1 206.53926899999999 1399.96747600000003)" fill="rgb(0,0,0)" stroke="none" stroke-width="1"/><circle id="eblz14e7aajg22" r="10" transform="matrix(1 0 0 1 1116.82510600000001 1068.32789999999977)" fill="rgb(0,0,0)" stroke="none" stroke-width="1"/><circle id="eblz14e7aajg23" r="10" transform="matrix(1 0 0 1 2927.97621200000003 472.39278899999994)" fill="rgb(0,0,0)" stroke="none" stroke-width="1"/><script><![CDATA[!function(t,n){"object"==typeof exports&&"undefined"!=typeof module?module.exports=n():"function"==typeof define&&define.amd?define(n):(t=t||self).__SVGATOR_PLAYER__=n()}(this,(function(){"use strict";function t(n){return(t="function"==typeof Symbol&&"symbol"==typeof Symbol.iterator?function(t){return typeof t}:function(t){return t&&"function"==typeof Symbol&&t.constructor===Symbol&&t!==Symbol.prototype?"symbol":typeof t})(n)}function n(t,n){if(!(t instanceof n))throw new TypeError("Cannot call a class as a function")}function r(t,n){for(var r=0;r<n.length;r++){var e=n[r];e.enumerable=e.enumerable||!1,e.configurable=!0,"value"in e&&(e.writable=!0),Object.defineProperty(t,e.key,e)}}function e(t,n,e){return n&&r(t.prototype,n),e&&r(t,e),t}var i=Math.abs;function u(t){return t}function o(t,n,r){var e=1-r;return 3*r*e*(t*e+n*r)+r*r*r}function a(){var t=arguments.length>0&&void 0!==arguments[0]?arguments[0]:0,n=arguments.length>1&&void 0!==arguments[1]?arguments[1]:0,r=arguments.length>2&&void 0!==arguments[2]?arguments[2]:1,e=arguments.length>3&&void 0!==arguments[3]?arguments[3]:1;return t<0||t>1||r<0||r>1?null:i(t-n)<=1e-5&&i(r-e)<=1e-5?u:function(u){if(u<=0)return t>0?u*n/t:0===n&&r>0?u*e/r:0;if(u>=1)return r<1?1+(u-1)*(e-1)/(r-1):1===r&&t<1?1+(u-1)*(n-1)/(t-1):1;for(var a,l=0,f=1;l<f;){var s=o(t,r,a=(l+f)/2);if(i(u-s)<1e-5)break;s<u?l=a:f=a}return o(n,e,a)}}function l(){return 1}function f(t){return 1===t?1:0}function s(){var t=arguments.length>0&&void 0!==arguments[0]?arguments[0]:1,n=arguments.length>1&&void 0!==arguments[1]?arguments[1]:0;if(1===t){if(0===n)return f;if(1===n)return l}var r=1/t;return function(t){return t>=1?1:(t+=n*r)-t%r}}function c(t){var n=arguments.length>1&&void 0!==arguments[1]?arguments[1]:2;if(Number.isInteger(t))return t;var r=Math.pow(10,n);return Math.round(t*r)/r}var v=Math.PI/180;function h(t,n,r){return t>=.5?r:n}function y(t,n,r){return 0===t||n===r?n:t*(r-n)+n}function d(t,n,r){var e=y(t,n,r);return e<=0?0:e}function g(t,n,r){return 0===t?n:1===t?r:{x:y(t,n.x,r.x),y:y(t,n.y,r.y)}}function m(t,n,r){return 0===t?n:1===t?r:{x:d(t,n.x,r.x),y:d(t,n.y,r.y)}}function p(t,n,r){var e=function(t,n,r){return Math.round(y(t,n,r))}(t,n,r);return e<=0?0:e>=255?255:e}function b(t,n,r){return 0===t?n:1===t?r:{r:p(t,n.r,r.r),g:p(t,n.g,r.g),b:p(t,n.b,r.b),a:y(t,null==n.a?1:n.a,null==r.a?1:r.a)}}function w(t,n,r){if(0===t)return n;if(1===t)return r;var e=n.length;if(e!==r.length)return h(t,n,r);for(var i=[],u=0;u<e;u++)i.push(b(t,n[u],r[u]));return i}function A(t,n,r){var e=n.length;if(e!==r.length)return h(t,n,r);for(var i=new Array(e),u=0;u<e;u++)i[u]=y(t,n[u],r[u]);return i}function x(t,n){for(var r=[],e=0;e<t;e++)r.push(n);return r}function k(t,n){if(--n<=0)return t;var r=(t=Object.assign([],t)).length;do{for(var e=0;e<r;e++)t.push(t[e])}while(--n>0);return t}var S=/\.0+$/g;function _(t){return Number.isInteger(t)?t+"":t.toFixed(6).replace(S,"")}function M(t){var n=arguments.length>1&&void 0!==arguments[1]?arguments[1]:" ";return t&&t.length?t.map(_).join(n):""}function I(t){return _(t.x)+","+_(t.y)}function E(t){return t?null==t.a||t.a>=1?"rgb("+t.r+","+t.g+","+t.b+")":"rgba("+t.r+","+t.g+","+t.b+","+t.a+")":"transparent"}var F={f:null,i:m,u:function(t,n){return function(r){var e=n(r);t.setAttribute("rx",_(e.x)),t.setAttribute("ry",_(e.y))}}},B={f:null,i:function(t,n,r){return 0===t?n:1===t?r:{width:d(t,n.width,r.width),height:d(t,n.height,r.height)}},u:function(t,n){return function(r){var e=n(r);t.setAttribute("width",_(e.width)),t.setAttribute("height",_(e.height))}}},j=Math.sin,q=Math.cos,P=Math.acos,O=Math.asin,z=Math.tan,L=Math.atan2,C=Math.PI/180,R=180/Math.PI,T=Math.sqrt,V=function(){function t(){var r=arguments.length>0&&void 0!==arguments[0]?arguments[0]:1,e=arguments.length>1&&void 0!==arguments[1]?arguments[1]:0,i=arguments.length>2&&void 0!==arguments[2]?arguments[2]:0,u=arguments.length>3&&void 0!==arguments[3]?arguments[3]:1,o=arguments.length>4&&void 0!==arguments[4]?arguments[4]:0,a=arguments.length>5&&void 0!==arguments[5]?arguments[5]:0;n(this,t),this.m=[r,e,i,u,o,a],this.i=null,this.w=null,this.s=null}return e(t,[{key:"point",value:function(t,n){var r=this.m;return{x:r[0]*t+r[2]*n+r[4],y:r[1]*t+r[3]*n+r[5]}}},{key:"translateSelf",value:function(){var t=arguments.length>0&&void 0!==arguments[0]?arguments[0]:0,n=arguments.length>1&&void 0!==arguments[1]?arguments[1]:0;if(!t&&!n)return this;var r=this.m;return r[4]+=r[0]*t+r[2]*n,r[5]+=r[1]*t+r[3]*n,this.w=this.s=this.i=null,this}},{key:"rotateSelf",value:function(){var t=arguments.length>0&&void 0!==arguments[0]?arguments[0]:0;if(t%=360){var n=j(t*=C),r=q(t),e=this.m,i=e[0],u=e[1];e[0]=i*r+e[2]*n,e[1]=u*r+e[3]*n,e[2]=e[2]*r-i*n,e[3]=e[3]*r-u*n,this.w=this.s=this.i=null}return this}},{key:"scaleSelf",value:function(){var t=arguments.length>0&&void 0!==arguments[0]?arguments[0]:1,n=arguments.length>1&&void 0!==arguments[1]?arguments[1]:1;if(1!==t||1!==n){var r=this.m;r[0]*=t,r[1]*=t,r[2]*=n,r[3]*=n,this.w=this.s=this.i=null}return this}},{key:"skewSelf",value:function(t,n){if(n%=360,(t%=360)||n){var r=this.m,e=r[0],i=r[1],u=r[2],o=r[3];t&&(t=z(t*C),r[2]+=e*t,r[3]+=i*t),n&&(n=z(n*C),r[0]+=u*n,r[1]+=o*n),this.w=this.s=this.i=null}return this}},{key:"resetSelf",value:function(){var t=arguments.length>0&&void 0!==arguments[0]?arguments[0]:1,n=arguments.length>1&&void 0!==arguments[1]?arguments[1]:0,r=arguments.length>2&&void 0!==arguments[2]?arguments[2]:0,e=arguments.length>3&&void 0!==arguments[3]?arguments[3]:1,i=arguments.length>4&&void 0!==arguments[4]?arguments[4]:0,u=arguments.length>5&&void 0!==arguments[5]?arguments[5]:0,o=this.m;return o[0]=t,o[1]=n,o[2]=r,o[3]=e,o[4]=i,o[5]=u,this.w=this.s=this.i=null,this}},{key:"recomposeSelf",value:function(){var t=arguments.length>0&&void 0!==arguments[0]?arguments[0]:null,n=arguments.length>1&&void 0!==arguments[1]?arguments[1]:null,r=arguments.length>2&&void 0!==arguments[2]?arguments[2]:null,e=arguments.length>3&&void 0!==arguments[3]?arguments[3]:null,i=arguments.length>4&&void 0!==arguments[4]?arguments[4]:null;return this.isIdentity||this.resetSelf(),t&&(t.x||t.y)&&this.translateSelf(t.x,t.y),n&&this.rotateSelf(n),r&&(r.x&&this.skewSelf(r.x,0),r.y&&this.skewSelf(0,r.y)),!e||1===e.x&&1===e.y||this.scaleSelf(e.x,e.y),i&&(i.x||i.y)&&this.translateSelf(i.x,i.y),this}},{key:"decompose",value:function(){var t=arguments.length>0&&void 0!==arguments[0]?arguments[0]:0,n=arguments.length>1&&void 0!==arguments[1]?arguments[1]:0,r=this.m,e=r[0]*r[0]+r[1]*r[1],i=[[r[0],r[1]],[r[2],r[3]]],u=T(e);if(0===u)return{origin:{x:r[4],y:r[5]},translate:{x:t,y:n},scale:{x:0,y:0},skew:{x:0,y:0},rotate:0};i[0][0]/=u,i[0][1]/=u;var o=r[0]*r[3]-r[1]*r[2]<0;o&&(u=-u);var a=i[0][0]*i[1][0]+i[0][1]*i[1][1];i[1][0]-=i[0][0]*a,i[1][1]-=i[0][1]*a;var l=T(i[1][0]*i[1][0]+i[1][1]*i[1][1]);if(0===l)return{origin:{x:r[4],y:r[5]},translate:{x:t,y:n},scale:{x:u,y:0},skew:{x:0,y:0},rotate:0};i[1][0]/=l,i[1][1]/=l,a/=l;var f=0;return i[1][1]<0?(f=P(i[1][1])*R,i[0][1]<0&&(f=360-f)):f=O(i[0][1])*R,o&&(f=-f),a=L(a,T(i[0][0]*i[0][0]+i[0][1]*i[0][1]))*R,{origin:{x:r[4],y:r[5]},translate:{x:t,y:n},scale:{x:u,y:l},skew:{x:a,y:0},rotate:f}}},{key:"toString",value:function(){return null===this.s&&(this.s="matrix("+this.m.map(N).join(" ")+")"),this.s}},{key:"determinant",get:function(){var t=this.m;return t[0]*t[3]-t[1]*t[2]}},{key:"isIdentity",get:function(){if(null===this.i){var t=this.m;this.i=1===t[0]&&0===t[1]&&0===t[2]&&1===t[3]&&0===t[4]&&0===t[5]}return this.i}}]),t}(),D=/\.0+$/;function N(t){return Number.isInteger(t)?t:t.toFixed(14).replace(D,"")}Object.freeze({M:2,L:2,Z:0,H:1,V:1,C:6,Q:4,T:2,S:4,A:7});function G(t,n,r){return t+(n-t)*r}function $(t,n,r){var e=arguments.length>3&&void 0!==arguments[3]&&arguments[3],i={x:G(t.x,n.x,r),y:G(t.y,n.y,r)};return e&&(i.a=H(t,n)),i}function H(t,n){return Math.atan2(n.y-t.y,n.x-t.x)}function Q(t,n,r,e){var i=1-e;return i*i*t+2*i*e*n+e*e*r}function U(t,n,r,e){return 2*(1-e)*(n-t)+2*e*(r-n)}function Y(t,n,r,e){var i=arguments.length>4&&void 0!==arguments[4]&&arguments[4],u={x:Q(t.x,n.x,r.x,e),y:Q(t.y,n.y,r.y,e)};return i&&(u.a=Z(t,n,r,e)),u}function Z(t,n,r,e){return Math.atan2(U(t.y,n.y,r.y,e),U(t.x,n.x,r.x,e))}function J(t,n,r,e,i){var u=i*i;return i*u*(e-t+3*(n-r))+3*u*(t+r-2*n)+3*i*(n-t)+t}function K(t,n,r,e,i){var u=1-i;return 3*(u*u*(n-t)+2*u*i*(r-n)+i*i*(e-r))}function W(t,n,r,e,i){var u=arguments.length>5&&void 0!==arguments[5]&&arguments[5],o={x:J(t.x,n.x,r.x,e.x,i),y:J(t.y,n.y,r.y,e.y,i)};return u&&(o.a=X(t,n,r,e,i)),o}function X(t,n,r,e,i){return Math.atan2(K(t.y,n.y,r.y,e.y,i),K(t.x,n.x,r.x,e.x,i))}function tt(t,n,r){var e=arguments.length>3&&void 0!==arguments[3]&&arguments[3];if(rt(n)){if(et(r))return Y(n,r.start,r,t,e)}else if(rt(r)){if(n.end)return Y(n,n.end,r,t,e)}else{if(n.end)return r.start?W(n,n.end,r.start,r,t,e):Y(n,n.end,r,t,e);if(r.start)return Y(n,r.start,r,t,e)}return $(n,r,t,e)}function nt(t,n,r){var e=tt(t,n,r,!0);return e.a=function(t){var n=arguments.length>1&&void 0!==arguments[1]&&arguments[1];return n?t+Math.PI:t}(e.a)/v,e}function rt(t){return!t.type||"corner"===t.type}function et(t){return null!=t.start&&!rt(t)}var it=new V;var ut={f:function(t){return t?t.join(" "):""},i:function(n,r,e){if(0===n)return r;if(1===n)return e;var i=r.length;if(i!==e.length)return h(n,r,e);for(var u,o=new Array(i),a=0;a<i;a++){if((u=t(r[a]))!==t(e[a]))return h(n,r,e);if("number"===u)o[a]=y(n,r[a],e[a]);else{if(r[a]!==e[a])return h(n,r,e);o[a]=r[a]}}return o}},ot={f:null,i:A,u:function(t,n){return function(r){var e=n(r);t.setAttribute("x1",_(e[0])),t.setAttribute("y1",_(e[1])),t.setAttribute("x2",_(e[2])),t.setAttribute("y2",_(e[3]))}}},at={f:_,i:y},lt={f:_,i:function(t,n,r){var e=y(t,n,r);return e<=0?0:e>=1?1:e}},ft={f:M,i:function(t,n,r){var e,i,u,o=n.length,a=r.length;if(o!==a)if(0===o)n=x(o=a,0);else if(0===a)a=o,r=x(o,0);else{var l=(u=(e=o)*(i=a)/function(t,n){for(var r;n;)r=n,n=t%n,t=r;return t||1}(e,i))<0?-u:u;n=k(n,Math.floor(l/o)),r=k(r,Math.floor(l/a)),o=a=l}for(var f=[],s=0;s<o;s++)f.push(c(d(t,n[s],r[s]),6));return f}};function st(t,n,r,e,i,u,o,a){return n=function(t,n,r){for(var e,i,u,o=t.length-1,a={},l=0;l<=o;l++)(e=t[l]).e&&(e.e=n(e.e)),e.v&&"g"===(i=e.v).t&&i.r&&(u=r.getElementById(i.r))&&(a[i.r]=u.querySelectorAll("stop"));return a}(t,e,a),function(e){var i,u=r(e,t,ct);return u?"c"===u.t?E(u.v):"g"===u.t?(n[u.r]&&function(t,n){for(var r=0,e=t.length;r<e;r++)t[r].setAttribute("stop-color",E(n[r]))}(n[u.r],u.v),(i=u.r)?"url(#"+i+")":"none"):"none":"none"}}function ct(t,n,r){if(0===t)return n;if(1===t)return r;if(n&&r){var e=n.t;if(e===r.t)switch(n.t){case"c":return{t:e,v:b(t,n.v,r.v)};case"g":if(n.r===r.r)return{t:e,v:w(t,n.v,r.v),r:n.r}}}return h(t,n,r)}var vt={blur:m,brightness:d,contrast:d,"drop-shadow":function(t,n,r){return 0===t?n:1===t?r:{blur:m(t,n.blur,r.blur),offset:g(t,n.offset,r.offset),color:b(t,n.color,r.color)}},grayscale:d,"hue-rotate":y,invert:d,opacity:d,saturate:d,sepia:d};function ht(t,n,r){if(0===t)return n;if(1===t)return r;var e=n.length;if(e!==r.length)return h(t,n,r);for(var i,u=[],o=0;o<e;o++){if(n[o].type!==r[o].type)return n;if(!(i=vt[n[o].type]))return h(t,n,r);u.push({type:n.type,value:i(t,n[o].value,r[o].value)})}return u}var yt={blur:function(t){return t?function(n){t.setAttribute("stdDeviation",I(n))}:null},brightness:function(t,n,r){return(t=gt(r,n))?function(n){n=_(n),t.map((function(t){return t.setAttribute("slope",n)}))}:null},contrast:function(t,n,r){return(t=gt(r,n))?function(n){var r=_((1-n)/2);n=_(n),t.map((function(t){t.setAttribute("slope",n),t.setAttribute("intercept",r)}))}:null},"drop-shadow":function(t,n,r){var e=r.getElementById(n+"-blur");if(!e)return null;var i=r.getElementById(n+"-offset");if(!i)return null;var u=r.getElementById(n+"-flood");return u?function(t){e.setAttribute("stdDeviation",I(t.blur)),i.setAttribute("dx",_(t.offset.x)),i.setAttribute("dy",_(t.offset.y)),u.setAttribute("flood-color",E(t.color))}:null},grayscale:function(t){return t?function(n){t.setAttribute("values",M(function(t){return[.2126+.7874*(t=1-t),.7152-.7152*t,.0722-.0722*t,0,0,.2126-.2126*t,.7152+.2848*t,.0722-.0722*t,0,0,.2126-.2126*t,.7152-.7152*t,.0722+.9278*t,0,0,0,0,0,1,0]}(n)))}:null},"hue-rotate":function(t){return t?function(n){return t.setAttribute("values",_(n))}:null},invert:function(t,n,r){return(t=gt(r,n))?function(n){n=_(n)+" "+_(1-n),t.map((function(t){return t.setAttribute("tableValues",n)}))}:null},opacity:function(t,n,r){return(t=r.getElementById(n+"-A"))?function(n){return t.setAttribute("tableValues","0 "+_(n))}:null},saturate:function(t){return t?function(n){return t.setAttribute("values",_(n))}:null},sepia:function(t){return t?function(n){return t.setAttribute("values",M(function(t){return[.393+.607*(t=1-t),.769-.769*t,.189-.189*t,0,0,.349-.349*t,.686+.314*t,.168-.168*t,0,0,.272-.272*t,.534-.534*t,.131+.869*t,0,0,0,0,0,1,0]}(n)))}:null}};var dt=["R","G","B"];function gt(t,n){var r=dt.map((function(r){return t.getElementById(n+"-"+r)||null}));return-1!==r.indexOf(null)?null:r}var mt={fill:st,"fill-opacity":lt,stroke:st,"stroke-opacity":lt,"stroke-width":at,"stroke-dashoffset":{f:_,i:y},"stroke-dasharray":ft,opacity:lt,transform:function(n,r,e,i){if(!(n=function(n,r){if(!n||"object"!==t(n))return null;var e=!1;for(var i in n)n.hasOwnProperty(i)&&(n[i]&&n[i].length?(n[i].forEach((function(t){t.e&&(t.e=r(t.e))})),e=!0):delete n[i]);return e?n:null}(n,i)))return null;var u=function(t,i,u){var o=arguments.length>3&&void 0!==arguments[3]?arguments[3]:null;return n[t]?e(i,n[t],u):r&&r[t]?r[t]:o};return r&&r.a&&n.o?function(t){var r=e(t,n.o,nt);return it.recomposeSelf(r,u("r",t,y,0)+r.a,u("k",t,g),u("s",t,g),u("t",t,g)).toString()}:function(t){return it.recomposeSelf(u("o",t,tt,null),u("r",t,y,0),u("k",t,g),u("s",t,g),u("t",t,g)).toString()}},"#filter":function(t,n,r,e,i,u,o,a){if(!n.items||!t||!t.length)return null;var l=function(t,n){var r=(t=t.map((function(t){return t&&yt[t[0]]?(n.getElementById(t[1]),yt[t[0]](n.getElementById(t[1]),t[1],n)):null}))).length;return function(n){for(var e=0;e<r;e++)t[e]&&t[e](n[e].value)}}(n.items,a);return l?(t=function(t,n){return t.map((function(t){return t.e=n(t.e),t}))}(t,e),function(n){l(r(n,t,ht))}):null},"#line":ot,points:{f:M,i:A},d:ut,r:at,"#size":B,"#radius":F,_:function(t,n){if(Array.isArray(t))for(var r=0;r<t.length;r++)this[t[r]]=n;else this[t]=n}},pt=function(){function t(r){n(this,t),this.list=r,this.length=r.length}return e(t,[{key:"setAttribute",value:function(t,n){for(var r=this.list,e=0;e<this.length;e++)r[e].setAttribute(t,n)}},{key:"removeAttribute",value:function(t){for(var n=this.list,r=0;r<this.length;r++)n[r].removeAttribute(t)}},{key:"style",value:function(t,n){for(var r=this.list,e=0;e<this.length;e++)r[e].style[t]=n}}]),t}(),bt=/-./g,wt=function(t,n){return n.toUpperCase()};function At(t){return"function"==typeof t?t:h}function xt(t){return t?"function"==typeof t?t:Array.isArray(t)?function(t){var n=arguments.length>1&&void 0!==arguments[1]?arguments[1]:u;if(!Array.isArray(t))return n;switch(t.length){case 1:return s(t[0])||n;case 2:return s(t[0],t[1])||n;case 4:return a(t[0],t[1],t[2],t[3])||n}return n}(t,null):function(t,n){var r=arguments.length>2&&void 0!==arguments[2]?arguments[2]:u;switch(t){case"linear":return u;case"steps":return s(n.steps||1,n.jump||0)||r;case"bezier":case"cubic-bezier":return a(n.x1||0,n.y1||0,n.x2||0,n.y2||0)||r}return r}(t.type,t.value,null):null}function kt(t,n,r){var e=arguments.length>3&&void 0!==arguments[3]&&arguments[3],i=n.length-1;if(t<=n[0].t)return e?[0,0,n[0].v]:n[0].v;if(t>=n[i].t)return e?[i,1,n[i].v]:n[i].v;var u,o=n[0],a=null;for(u=1;u<=i;u++){if(!(t>n[u].t)){a=n[u];break}o=n[u]}return null==a?e?[i,1,n[i].v]:n[i].v:o.t===a.t?e?[u,1,a.v]:a.v:(t=(t-o.t)/(a.t-o.t),o.e&&(t=o.e(t)),e?[u,t,r(t,o.v,a.v)]:r(t,o.v,a.v))}function St(t,n){var r=arguments.length>2&&void 0!==arguments[2]?arguments[2]:null;return t&&t.length?"function"!=typeof n?null:("function"!=typeof r&&(r=null),function(e){var i=kt(e,t,n);return null!=i&&r&&(i=r(i)),i}):null}function _t(t,n){return t.t-n.t}function Mt(n,r,e,i,u){var o,a="@"===e[0],l="#"===e[0],f=mt[e],s=h;switch(a?(o=e.substr(1),e=o.replace(bt,wt)):l&&(e=e.substr(1)),t(f)){case"function":if(s=f(i,u,kt,xt,e,a,r,n),l)return s;break;case"string":s=St(i,At(f));break;case"object":if((s=St(i,At(f.i),f.f))&&"function"==typeof f.u)return f.u(r,s,e,a,n)}return s?function(t,n,r){var e=arguments.length>3&&void 0!==arguments[3]&&arguments[3];if(e)return t instanceof pt?function(e){return t.style(n,r(e))}:function(e){return t.style[n]=r(e)};if(Array.isArray(n)){var i=n.length;return function(e){var u=r(e);if(null==u)for(var o=0;o<i;o++)t[o].removeAttribute(n);else for(var a=0;a<i;a++)t[a].setAttribute(n,u)}}return function(e){var i=r(e);null==i?t.removeAttribute(n):t.setAttribute(n,i)}}(r,e,s,a):null}function It(n,r,e,i){if(!i||"object"!==t(i))return null;var u=null,o=null;return Array.isArray(i)?o=function(t){if(!t||!t.length)return null;for(var n=0;n<t.length;n++)t[n].e&&(t[n].e=xt(t[n].e));return t.sort(_t)}(i):(o=i.keys,u=i.data||null),o?Mt(n,r,e,o,u):null}function Et(t,n,r){if(!r)return null;var e=[];for(var i in r)if(r.hasOwnProperty(i)){var u=It(t,n,i,r[i]);u&&e.push(u)}return e.length?e:null}function Ft(t,n){if(!n.duration||n.duration<0)return null;var r=function(t,n){if(!n)return null;var r=[];if(Array.isArray(n))for(var e=n.length,i=0;i<e;i++){var u=n[i];if(2===u.length){var o=null;if("string"==typeof u[0])o=t.getElementById(u[0]);else if(Array.isArray(u[0])){o=[];for(var a=0;a<u[0].length;a++)if("string"==typeof u[0][a]){var l=t.getElementById(u[0][a]);l&&o.push(l)}o=o.length?1===o.length?o[0]:new pt(o):null}if(o){var f=Et(t,o,u[1]);f&&(r=r.concat(f))}}}else for(var s in n)if(n.hasOwnProperty(s)){var c=t.getElementById(s);if(c){var v=Et(t,c,n[s]);v&&(r=r.concat(v))}}return r.length?r:null}(t,n.elements);return r?function(t,n){var r=arguments.length>2&&void 0!==arguments[2]?arguments[2]:1/0,e=arguments.length>3&&void 0!==arguments[3]?arguments[3]:1,i=arguments.length>4&&void 0!==arguments[4]&&arguments[4],u=arguments.length>5&&void 0!==arguments[5]?arguments[5]:1,o=t.length,a=e>0?n:0;i&&r%2==0&&(a=n-a);var l=null;return function(f,s){var c=f%n,v=1+(f-c)/n;s*=e,i&&v%2==0&&(s=-s);var h=!1;if(v>r)c=a,h=!0,-1===u&&(c=e>0?0:n);else if(s<0&&(c=n-c),c===l)return!1;l=c;for(var y=0;y<o;y++)t[y](c);return h}}(r,n.duration,n.iterations||1/0,n.direction||1,!!n.alternate,n.fill||1):null}var Bt=function(){function t(r){var e=arguments.length>1&&void 0!==arguments[1]?arguments[1]:{};n(this,t),this._id=0,this._running=!1,this._animations=r,this.direction=e.direction||1,this.speed=e.speed||1,this.fps=e.fps||100,this.offset=e.offset||0}return e(t,[{key:"_start",value:function(){var t=this,n=arguments.length>0&&void 0!==arguments[0]?arguments[0]:0,r=-1/0,e=null,i={},u=function u(o){t._running=!0,null==e&&(e=o);var a=Math.round((o-e+n)*t.speed),l=t.fps?1e3/t.fps:0;if(a>r+l){t.offset=a,r=a;for(var f=t._animations,s=f.length,c=0,v=0;v<s;v++)i[v]?c++:(i[v]=f[v](a,t.direction),i[v]&&c++);if(c===s)return void t._stop()}t._id=window.requestAnimationFrame(u)};this._id=window.requestAnimationFrame(u)}},{key:"_stop",value:function(){this._id&&window.cancelAnimationFrame(this._id),this._running=!1}},{key:"play",value:function(){this._running||this._start(this.offset)}},{key:"stop",value:function(){this._stop(),this.offset=0;var t=this.direction,n=this._animations;requestAnimationFrame((function(){for(var r=0;r<n.length;r++)n[r](0,t)}))}},{key:"restart",value:function(){this._stop(),this.offset=0,this._start()}},{key:"pause",value:function(){this._stop()}},{key:"reverse",value:function(){this.direction=-this.direction}}],[{key:"build",value:function(n){if(!(n=function(t){if(!t||!t.root||!Array.isArray(t.animations))return null;var n=window.document.getElementById(t.root);if(!n)return null;var r=t.animations.map((function(t){return Ft(n,t)})).filter((function(t){return!!t}));return r.length?{element:n,animations:r,options:t.options||void 0}:null}(n)))return null;var r=n.element,e=n.options||{},i=new t(n.animations,n.options);return function(t,n,r){var e=arguments.length>3&&void 0!==arguments[3]?arguments[3]:null;if("click"===r){var i=function r(){n.removeEventListener("click",r),t.play()};return void n.addEventListener("click",i)}if("hover"===r)return n.addEventListener("mouseenter",(function(){return t.play()})),void n.addEventListener("mouseleave","freeze"===e?function(){return t.pause()}:function(){return t.stop()});t.play()}(i,r,e.start,e.hover),i}}]),t}();return function(){for(var t=0,n=["ms","moz","webkit","o"],r=0;r<n.length&&!window.requestAnimationFrame;++r)window.requestAnimationFrame=window[n[r]+"RequestAnimationFrame"],window.cancelAnimationFrame=window[n[r]+"CancelAnimationFrame"]||window[n[r]+"CancelRequestAnimationFrame"];window.requestAnimationFrame||(window.requestAnimationFrame=function(n){var r=Date.now(),e=Math.max(0,16-(r-t)),i=window.setTimeout((function(){n(r+e)}),e);return t=r+e,i},window.cancelAnimationFrame=window.clearTimeout)}(),Bt}));
__SVGATOR_PLAYER__.build({"root":"eblz14e7aajg1","animations":[{"duration":23000,"direction":1,"iterations":0,"fill":1,"alternate":false,"elements":{"eblz14e7aajg15":{"transform":{"data":{"t":{"x":197,"y":1137}},"keys":{"o":[{"t":0,"v":{"x":-0.8199329999999918,"y":4.993109000000004,"type":"corner"}},{"t":2600,"v":{"x":57.49951999999999,"y":140.28453200000013,"type":"corner"}},{"t":4300,"v":{"x":147.56599899999998,"y":114.38693300000023,"type":"corner"}},{"t":5300,"v":{"x":232.86017199999998,"y":105.35472300000015,"type":"corner"}},{"t":8700,"v":{"x":321.959847,"y":264.1845790000002,"type":"corner"}},{"t":11310,"v":{"x":525.2962120000001,"y":244.8887790000001,"type":"corner"}},{"t":14900,"v":{"x":683.057105,"y":52.67760000000021,"type":"corner"}},{"t":20100,"v":{"x":237.80650199999997,"y":-7.035307999999759,"type":"corner"}},{"t":21000,"v":{"x":172.392783,"y":-3.8106879999998,"type":"corner"}},{"t":23000,"v":{"x":-0.8943950000000314,"y":4.930184000000054,"type":"corner"}}]}}},"eblz14e7aajg16":{"transform":{"data":{"t":{"x":1361,"y":1671}},"keys":{"o":[{"t":0,"v":{"x":10.357631999999967,"y":10.313885999999911,"type":"corner"}},{"t":2900,"v":{"x":28.843834000000015,"y":-245.118602,"type":"corner"}},{"t":4700,"v":{"x":208.26560699999982,"y":-255.69586800000002,"type":"corner"}},{"t":6200,"v":{"x":307.3785069999999,"y":-336.00473999999986,"type":"corner"}},{"t":7600,"v":{"x":335.681456,"y":-245.63990299999978,"type":"corner"}},{"t":13300,"v":{"x":585.5920080000001,"y":211.77688100000023,"type":"corner"}},{"t":15700,"v":{"x":357.95792800000027,"y":329.0255910000001,"type":"corner"}},{"t":17500,"v":{"x":261.5082590000002,"y":198.67240200000015,"type":"corner"}},{"t":19700,"v":{"x":184.86727200000018,"y":28.47655500000019,"type":"corner"}},{"t":20900,"v":{"x":142.87944700000025,"y":-63.13324399999988,"type":"corner"}},{"t":23000,"v":{"x":10.155832999999802,"y":10.240129000000024,"type":"corner"}}]}}},"eblz14e7aajg17":{"transform":{"data":{"t":{"x":2461,"y":741}},"keys":{"o":[{"t":0,"v":{"x":23.17459400000007,"y":16.42756099999997,"type":"corner"}},{"t":5600,"v":{"x":386.7927659999996,"y":-347.571924,"type":"corner"}},{"t":6700,"v":{"x":318.07919799999945,"y":-415.04400200000003,"type":"corner"}},{"t":8300,"v":{"x":239.1096579999994,"y":-341.12023000000005,"type":"corner"}},{"t":9800,"v":{"x":237.8763689999996,"y":-493.824381,"type":"corner"}},{"t":11900,"v":{"x":125.94082899999967,"y":-600.5125829999998,"type":"corner"}},{"t":13500,"v":{"x":61.43781199999967,"y":-699.7479949999995,"type":"corner"}},{"t":15100,"v":{"x":33.02039799999966,"y":-566.6823299999995,"type":"corner"}},{"t":17200,"v":{"x":-104.54107300000032,"y":-429.1208589999994,"type":"corner"}},{"t":18100,"v":{"x":-177.4742180000003,"y":-407.88362099999944,"type":"corner"}},{"t":20200,"v":{"x":-215.00109200000043,"y":-218.70705099999947,"type":"corner"}},{"t":21700,"v":{"x":-79.54888500000061,"y":-90.09586499999949,"type":"corner"}},{"t":23000,"v":{"x":22.962252999998782,"y":16.4547060000005,"type":"corner"}}]}}},"eblz14e7aajg18":{"transform":{"data":{"t":{"x":2461,"y":741}},"keys":{"o":[{"t":0,"v":{"x":-473.28853500000014,"y":510.5267230000002,"type":"corner"}},{"t":3300,"v":{"x":-75.72464300000024,"y":510.2973770000001,"type":"corner"}},{"t":4300,"v":{"x":15.898154999999633,"y":519.5720770000003,"type":"corner"}},{"t":4800,"v":{"x":25.453906999999845,"y":552.4551060000001,"type":"corner"}},{"t":6900,"v":{"x":-25.07201000000009,"y":697.9453970000002,"type":"corner"}},{"t":8800,"v":{"x":-93.8491190000002,"y":835.1524320000003,"type":"corner"}},{"t":10600,"v":{"x":-220.0097900000003,"y":942.9435550000003,"type":"corner"}},{"t":12400,"v":{"x":-331.6585150000003,"y":1072.2210260000004,"type":"corner"}},{"t":14800,"v":{"x":-512.6478450000004,"y":1141.9600340000004,"type":"corner"}},{"t":18400,"v":{"x":-723.4516490000003,"y":766.0256270000004,"type":"corner"}},{"t":23000,"v":{"x":-473.4629730000006,"y":510.51793800000087,"type":"corner"}}]}}},"eblz14e7aajg19":{"transform":{"data":{"t":{"x":2461,"y":741}},"keys":{"o":[{"t":0,"v":{"x":-1344.3150259999998,"y":766.4639809999995,"type":"corner"}},{"t":3100,"v":{"x":-1220.0736609999997,"y":629.4639469999996,"type":"corner"}},{"t":5900,"v":{"x":-1525.997706,"y":628.6426739999996,"type":"corner"}},{"t":8600,"v":{"x":-1587.4745030000001,"y":790.8731099999994,"type":"corner"}},{"t":10600,"v":{"x":-1602.1418089999997,"y":937.7063899999995,"type":"corner"}},{"t":12500,"v":{"x":-1555.7794730000005,"y":1074.2177139999994,"type":"corner"}},{"t":15100,"v":{"x":-1270.9423960000006,"y":1040.3085379999995,"type":"corner"}},{"t":17100,"v":{"x":-1090.2171970000006,"y":940.9096779999995,"type":"corner"}},{"t":19900,"v":{"x":-1072.5074470000004,"y":685.1021869999997,"type":"corner"}},{"t":23000,"v":{"x":-1344.3720810000007,"y":766.5109569999997,"type":"corner"}}]}}},"eblz14e7aajg20":{"transform":{"data":{"t":{"x":1739,"y":438}},"keys":{"o":[{"t":0,"v":{"x":-213.03375400000004,"y":197.500043,"type":"corner"}},{"t":3900,"v":{"x":9.616106999999829,"y":13.314610000000073,"type":"corner"}},{"t":9000,"v":{"x":283.9336629999998,"y":270.681177,"type":"corner"}},{"t":11600,"v":{"x":160.59444799999983,"y":376.5517479999999,"type":"corner"}},{"t":15300,"v":{"x":125.76762199999985,"y":671.8243490000001,"type":"corner"}},{"t":19000,"v":{"x":-108.30115999999998,"y":375.71824200000003,"type":"corner"}},{"t":20000,"v":{"x":-27.57210400000008,"y":303.662555,"type":"corner"}},{"t":21000,"v":{"x":-53.019209000000046,"y":248.268551,"type":"corner"}},{"t":22000,"v":{"x":-168.897334,"y":246.51812599999994,"type":"corner"}},{"t":23000,"v":{"x":-212.86998200000016,"y":197.48406899999998,"type":"corner"}}]}}},"eblz14e7aajg21":{"transform":{"data":{"t":{"x":491,"y":1691}},"keys":{"o":[{"t":0,"v":{"x":-284.460731,"y":-291.03252399999997,"type":"corner"}},{"t":2300,"v":{"x":-216.301863,"y":-140.58429,"type":"corner"}},{"t":5200,"v":{"x":-39.979367199999956,"y":114.93735559999995,"type":"corner"}},{"t":8600,"v":{"x":234.37177500000004,"y":148.40289199999984,"type":"corner"}},{"t":10500,"v":{"x":417.71478000000013,"y":126.16670899999986,"type":"corner"}},{"t":12300,"v":{"x":366.1675950000001,"y":-13.2702790000003,"type":"corner"}},{"t":13400,"v":{"x":374.55072900000016,"y":-94.48189700000012,"type":"corner"}},{"t":17700,"v":{"x":15.217432000000144,"y":9.616804999999886,"type":"corner"}},{"t":19000,"v":{"x":-81.48816499999987,"y":52.967589999999745,"type":"corner"}},{"t":21200,"v":{"x":-218.01061399999986,"y":-140.94204600000057,"type":"corner"}},{"t":23000,"v":{"x":-284.4758330000001,"y":-291.0424010000006,"type":"corner"}}]}}},"eblz14e7aajg22":{"transform":{"data":{"t":{"x":1109,"y":1058}},"keys":{"o":[{"t":0,"v":{"x":7.825106000000005,"y":10.327899999999772,"type":"corner"}},{"t":2000,"v":{"x":-120.50571200000013,"y":52.211780999999974,"type":"corner"}},{"t":4000,"v":{"x":-280.4587610000001,"y":46.59353100000021,"type":"corner"}},{"t":6000,"v":{"x":-372.3854460000001,"y":139.9968170000002,"type":"corner"}},{"t":8400,"v":{"x":-538.6906170000001,"y":167.63284000000021,"type":"corner"}},{"t":12000,"v":{"x":-425.0234760000002,"y":326.81140800000026,"type":"corner"}},{"t":14000,"v":{"x":-262.68708400000014,"y":309.8335330000002,"type":"corner"}},{"t":16000,"v":{"x":-171.99573400000008,"y":309.8335330000002,"type":"corner"}},{"t":20000,"v":{"x":-100.1162680000001,"y":144.89582900000028,"type":"corner"}},{"t":23000,"v":{"x":7.790907999999831,"y":10.269239000000198,"type":"corner"}}]}}},"eblz14e7aajg23":{"transform":{"data":{"t":{"x":2461,"y":741}},"keys":{"o":[{"t":0,"v":{"x":466.97621200000003,"y":-268.60721100000006,"type":"corner"}},{"t":4000,"v":{"x":842.692837,"y":-391.46264700000006,"type":"corner"}},{"t":6000,"v":{"x":727.5393080000003,"y":-507.79723700000005,"type":"corner"}},{"t":8000,"v":{"x":618.7769240000002,"y":-414.1988400000001,"type":"corner"}},{"t":10500,"v":{"x":455.7806000000005,"y":-552.7011810000001,"type":"corner"}},{"t":12500,"v":{"x":314.9670240000005,"y":-414.7323230000001,"type":"corner"}},{"t":13700,"v":{"x":238.79364700000042,"y":-337.9774700000001,"type":"corner"}},{"t":14900,"v":{"x":233.3167200000007,"y":-246.0868020000001,"type":"corner"}},{"t":15600,"v":{"x":259.0655430000006,"y":-220.7111500000001,"type":"corner"}},{"t":19100,"v":{"x":530.1484450000003,"y":-488.9774720000001,"type":"corner"}},{"t":20500,"v":{"x":619.8007200000002,"y":-413.45517500000005,"type":"corner"}},{"t":22000,"v":{"x":511.4424100000001,"y":-226.20003000000008,"type":"corner"}},{"t":23000,"v":{"x":466.9424350000004,"y":-268.6677130000001,"type":"corner"}}]}}}}}],"options":{"start":"load","hover":"freeze"}})]]></script></svg>