<svg id="e2nix9k1lffy1" xmlns="http://www.w3.org/2000/svg" xmlns:xlink="http://www.w3.org/1999/xlink" viewBox="0 0 587 489" shape-rendering="geometricPrecision" text-rendering="geometricPrecision"><defs><linearGradient id="e2nix9k1lffy2-fill" x1="296" y1="220.764000" x2="406.141000" y2="218.395000" spreadMethod="pad" gradientUnits="userSpaceOnUse"><stop id="e2nix9k1lffy2-fill-0" offset="0%" stop-color="rgb(24,134,141)"/><stop id="e2nix9k1lffy2-fill-1" offset="100%" stop-color="rgb(116,182,187)"/></linearGradient><linearGradient id="e2nix9k1lffy3-fill" x1="230" y1="442.974000" x2="296.097000" y2="441.895000" spreadMethod="pad" gradientUnits="userSpaceOnUse"><stop id="e2nix9k1lffy3-fill-0" offset="0%" stop-color="rgb(24,134,141)"/><stop id="e2nix9k1lffy3-fill-1" offset="100%" stop-color="rgb(116,182,187)"/></linearGradient><linearGradient id="e2nix9k1lffy4-fill" x1="486.500000" y1="385.500000" x2="458.272000" y2="335.285000" spreadMethod="pad" gradientUnits="userSpaceOnUse"><stop id="e2nix9k1lffy4-fill-0" offset="0%" stop-color="rgb(24,134,141)"/><stop id="e2nix9k1lffy4-fill-1" offset="100%" stop-color="rgb(116,182,187)"/></linearGradient><linearGradient id="e2nix9k1lffy5-fill" x1="240" y1="318.355000" x2="355.145000" y2="315.827000" spreadMethod="pad" gradientUnits="userSpaceOnUse"><stop id="e2nix9k1lffy5-fill-0" offset="0%" stop-color="rgb(24,134,141)"/><stop id="e2nix9k1lffy5-fill-1" offset="100%" stop-color="rgb(116,182,187)"/></linearGradient><linearGradient id="e2nix9k1lffy6-fill" x1="48" y1="282" x2="587" y2="259.500000" spreadMethod="pad" gradientUnits="userSpaceOnUse"><stop id="e2nix9k1lffy6-fill-0" offset="0%" stop-color="rgb(24,134,141)"/><stop id="e2nix9k1lffy6-fill-1" offset="100%" stop-color="rgb(116,182,187)"/></linearGradient><linearGradient id="e2nix9k1lffy7-fill" x1="114" y1="384" x2="57.306900" y2="280.883000" spreadMethod="pad" gradientUnits="userSpaceOnUse"><stop id="e2nix9k1lffy7-fill-0" offset="0%" stop-color="rgb(24,134,141)"/><stop id="e2nix9k1lffy7-fill-1" offset="100%" stop-color="rgb(116,182,187)"/></linearGradient><linearGradient id="e2nix9k1lffy8-fill" x1="114" y1="384" x2="246.655000" y2="258.007000" spreadMethod="pad" gradientUnits="userSpaceOnUse"><stop id="e2nix9k1lffy8-fill-0" offset="0%" stop-color="rgb(24,134,141)"/><stop id="e2nix9k1lffy8-fill-1" offset="100%" stop-color="rgb(116,182,187)"/></linearGradient><linearGradient id="e2nix9k1lffy14-fill" x1="121.500000" y1="172" x2="121.500000" y2="298" spreadMethod="pad" gradientUnits="userSpaceOnUse"><stop id="e2nix9k1lffy14-fill-0" offset="0%" stop-color="rgba(255,255,255,0)"/><stop id="e2nix9k1lffy14-fill-1" offset="100%" stop-color="rgb(246,210,88)"/></linearGradient><linearGradient id="e2nix9k1lffy15-fill" x1="513" y1="159" x2="513" y2="289" spreadMethod="pad" gradientUnits="userSpaceOnUse"><stop id="e2nix9k1lffy15-fill-0" offset="0%" stop-color="rgba(255,255,255,0)"/><stop id="e2nix9k1lffy15-fill-1" offset="100%" stop-color="rgb(246,210,88)"/></linearGradient><linearGradient id="e2nix9k1lffy16-fill" x1="307.500000" y1="72" x2="307.500000" y2="190" spreadMethod="pad" gradientUnits="userSpaceOnUse"><stop id="e2nix9k1lffy16-fill-0" offset="0%" stop-color="rgba(255,255,255,0)"/><stop id="e2nix9k1lffy16-fill-1" offset="100%" stop-color="rgb(246,210,88)"/></linearGradient><linearGradient id="e2nix9k1lffy17-fill" x1="212" y1="211.409000" x2="271.001000" y2="210.305000" spreadMethod="pad" gradientUnits="userSpaceOnUse"><stop id="e2nix9k1lffy17-fill-0" offset="0%" stop-color="rgb(255,255,255)"/><stop id="e2nix9k1lffy17-fill-1" offset="15.618100%" stop-color="rgb(25,99,173)"/><stop id="e2nix9k1lffy17-fill-2" offset="54.166700%" stop-color="rgb(20,57,94)"/><stop id="e2nix9k1lffy17-fill-3" offset="100%" stop-color="rgb(20,57,94)"/></linearGradient><linearGradient id="e2nix9k1lffy18-fill" x1="211" y1="208.500000" x2="272" y2="208.500000" spreadMethod="pad" gradientUnits="userSpaceOnUse"><stop id="e2nix9k1lffy18-fill-0" offset="0%" stop-color="rgb(24,41,57)"/><stop id="e2nix9k1lffy18-fill-1" offset="100%" stop-color="rgb(24,41,57)"/></linearGradient><linearGradient id="e2nix9k1lffy19-fill" x1="299" y1="365.500000" x2="378" y2="364" spreadMethod="pad" gradientUnits="userSpaceOnUse"><stop id="e2nix9k1lffy19-fill-0" offset="0%" stop-color="rgb(255,255,255)"/><stop id="e2nix9k1lffy19-fill-1" offset="15.618100%" stop-color="rgb(25,99,173)"/><stop id="e2nix9k1lffy19-fill-2" offset="54.166700%" stop-color="rgb(20,57,94)"/><stop id="e2nix9k1lffy19-fill-3" offset="100%" stop-color="rgb(20,57,94)"/></linearGradient><linearGradient id="e2nix9k1lffy20-fill" x1="297" y1="361" x2="380" y2="361" spreadMethod="pad" gradientUnits="userSpaceOnUse"><stop id="e2nix9k1lffy20-fill-0" offset="0%" stop-color="rgb(24,41,57)"/><stop id="e2nix9k1lffy20-fill-1" offset="100%" stop-color="rgb(24,41,57)"/></linearGradient><linearGradient id="e2nix9k1lffy21-fill" x1="338" y1="316" x2="338" y2="369" spreadMethod="pad" gradientUnits="userSpaceOnUse"><stop id="e2nix9k1lffy21-fill-0" offset="0%" stop-color="rgba(255,255,255,0)"/><stop id="e2nix9k1lffy21-fill-1" offset="100%" stop-color="rgb(246,210,88)"/></linearGradient><linearGradient id="e2nix9k1lffy29-fill" x1="241.500000" y1="176" x2="241.500000" y2="214" spreadMethod="pad" gradientUnits="userSpaceOnUse"><stop id="e2nix9k1lffy29-fill-0" offset="0%" stop-color="rgba(255,255,255,0)"/><stop id="e2nix9k1lffy29-fill-1" offset="100%" stop-color="rgb(246,210,88)"/></linearGradient></defs><path id="e2nix9k1lffy2" d="M406,215L406,155L296,219L296,279L406,215Z" fill="url(#e2nix9k1lffy2-fill)" stroke="none" stroke-width="1"/><path id="e2nix9k1lffy3" d="M230,391L230,451L296,489L296,429L230,391Z" fill="url(#e2nix9k1lffy3-fill)" stroke="none" stroke-width="1"/><path id="e2nix9k1lffy4" d="M296,489L296,429L587,261L587,321L296,489Z" fill="url(#e2nix9k1lffy4-fill)" stroke="none" stroke-width="1"/><path id="e2nix9k1lffy5" d="M240,251L355,319L355,378L240,311L240,251Z" fill="url(#e2nix9k1lffy5-fill)" stroke="none" stroke-width="1"/><path id="e2nix9k1lffy6" d="M523,223L587,261L296,429L230,391L355,319L240,251L114,324L48,286L335,116L406,155L296,219L413,287L523,223Z" fill="url(#e2nix9k1lffy6-fill)" stroke="none" stroke-width="1"/><path id="e2nix9k1lffy7" d="M48,346L48,286L114,324L114,384L48,346Z" fill="url(#e2nix9k1lffy7-fill)" stroke="none" stroke-width="1"/><path id="e2nix9k1lffy8" d="M114,324L114,384L240,311L240,251L114,324Z" fill="url(#e2nix9k1lffy8-fill)" stroke="none" stroke-width="1"/><path id="e2nix9k1lffy9" d="M62,341L62,306L99,327L99,362L62,341Z" fill="rgb(255,255,255)" stroke="none" stroke-width="1"/><path id="e2nix9k1lffy10" d="M417,406L417,366L453,345L453,386L417,406Z" fill="rgb(255,255,255)" stroke="none" stroke-width="1"/><g id="e2nix9k1lffy11" opacity="0"><path id="e2nix9k1lffy12" d="M453,345L417,366L417,406L496,452L531,433L531,390L453,345Z" opacity="0.3" fill="rgb(255,255,255)" stroke="none" stroke-width="1"/><path id="e2nix9k1lffy13" d="M99,327L62,306L0,340L0,380L36,400L99,362L99,327Z" opacity="0.3" fill="rgb(255,255,255)" stroke="none" stroke-width="1"/></g><path id="e2nix9k1lffy14" d="M121,298L88,279L88,192L122,172L155,191L155,278L121,298Z" fill="url(#e2nix9k1lffy14-fill)" stroke="none" stroke-width="1"/><path id="e2nix9k1lffy15" d="M513,289L479,269L479,179L513,159L547,179L547,269L513,289Z" fill="url(#e2nix9k1lffy15-fill)" stroke="none" stroke-width="1"/><path id="e2nix9k1lffy16" d="M307,190L274,171L274,91L307,72L341,91L341,171L307,190Z" fill="url(#e2nix9k1lffy16-fill)" stroke="none" stroke-width="1"/><path id="e2nix9k1lffy17" d="M212,213.868000L212,208L240.430000,225.058000C241.394000,225.636000,242.600000,225.627000,243.556000,225.034000L271,208L271,213.887000C271,214.579000,270.642000,215.222000,270.055000,215.587000L243.556000,232.034000C242.600000,232.627000,241.394000,232.636000,240.430000,232.058000L212.971000,215.583000C212.369000,215.221000,212,214.570000,212,213.868000Z" fill="url(#e2nix9k1lffy17-fill)" stroke="none" stroke-width="1"/><path id="e2nix9k1lffy18" d="M240.469000,225.111000L212.532000,208.890000C211.859000,208.499000,211.871000,207.522000,212.554000,207.148000L240.534000,191.804000C241.445000,191.304000,242.551000,191.312000,243.455000,191.825000L270.508000,207.155000C271.175000,207.532000,271.186000,208.488000,270.530000,208.882000L243.518000,225.089000C242.582000,225.651000,241.413000,225.659000,240.469000,225.111000Z" fill="url(#e2nix9k1lffy18-fill)" stroke="none" stroke-width="1"/><path id="e2nix9k1lffy19" d="M299,369.264000L299,361L339,384L378,361L378,368.324000C378,369.365000,377.460000,370.333000,376.572000,370.879000L341.534000,392.441000C339.972000,393.402000,338.010000,393.431000,336.421000,392.517000L300.505000,371.865000C299.574000,371.330000,299,370.338000,299,369.264000Z" fill="url(#e2nix9k1lffy19-fill)" stroke="none" stroke-width="1"/><path id="e2nix9k1lffy20" d="M336.489000,383.565000L300.039000,362.736000C298.695000,361.969000,298.695000,360.031000,300.039000,359.264000L336.489000,338.435000C338.042000,337.547000,339.952000,337.557000,341.496000,338.461000L377.051000,359.274000C378.371000,360.046000,378.371000,361.954000,377.051000,362.726000L341.496000,383.539000C339.952000,384.443000,338.042000,384.453000,336.489000,383.565000Z" fill="url(#e2nix9k1lffy20-fill)" stroke="none" stroke-width="1"/><path id="e2nix9k1lffy21" d="M338,369L323,360L323,324L338,316L353,325L353,361L338,369Z" fill="url(#e2nix9k1lffy21-fill)" stroke="none" stroke-width="1"/><g id="e2nix9k1lffy22"><path id="e2nix9k1lffy23" d="M366.997000,337.882000C374.118000,333.801000,378,328.465000,378,323C378,317.535000,374.118000,312.200000,366.997000,308.118000C359.931000,304.069000,350.037000,301.500000,339,301.500000C327.963000,301.500000,318.069000,304.069000,311.003000,308.118000C303.882000,312.200000,300,317.535000,300,323C300,328.465000,303.882000,333.801000,311.003000,337.882000C318.069000,341.932000,327.963000,344.500000,339,344.500000C350.037000,344.500000,359.931000,341.932000,366.997000,337.882000ZM338.500000,338.500000C355.345000,338.500000,369,331.561000,369,323C369,314.440000,355.345000,307.500000,338.500000,307.500000C321.655000,307.500000,308,314.440000,308,323C308,331.561000,321.655000,338.500000,338.500000,338.500000Z" clip-rule="evenodd" fill="rgb(255,255,255)" fill-rule="evenodd" stroke="none" stroke-width="1"/><path id="e2nix9k1lffy24" d="M378,323C378,328.465000,374.118000,333.801000,366.997000,337.882000C359.931000,341.932000,350.037000,344.500000,339,344.500000C327.963000,344.500000,318.069000,341.932000,311.003000,337.882000C303.882000,333.801000,300,328.465000,300,323C300,317.535000,303.882000,312.200000,311.003000,308.118000C318.069000,304.069000,327.963000,301.500000,339,301.500000C350.037000,301.500000,359.931000,304.069000,366.997000,308.118000C374.118000,312.200000,378,317.535000,378,323ZM338.500000,338.500000C355.345000,338.500000,369,331.561000,369,323C369,314.440000,355.345000,307.500000,338.500000,307.500000C321.655000,307.500000,308,314.440000,308,323C308,331.561000,321.655000,338.500000,338.500000,338.500000Z" clip-rule="evenodd" fill="rgb(255,255,255)" fill-rule="evenodd" stroke="none" stroke-width="1"/><path id="e2nix9k1lffy25" d="M337.500000,223.500000C321.208000,223.500000,308,236.708000,308,253C308,262.817000,312.793000,271.515000,320.176000,276.880000C321.021000,277.494000,321.670000,278.477000,322.184000,279.430000C322.729000,280.440000,323.259000,281.682000,323.775000,283.062000C324.588000,285.233000,325.415000,287.871000,326.251000,290.726000C327.575000,289.092000,329.858000,287.790000,332.661000,287.083000L334.643000,286.697000C335.561000,286.568000,336.517000,286.500000,337.500000,286.500000C338.608000,286.500000,339.682000,286.587000,340.705000,286.749000L342.672000,287.170000C345.322000,287.894000,347.477000,289.156000,348.747000,290.724000C349.583000,287.871000,350.409000,285.233000,351.222000,283.063000C351.739000,281.683000,352.268000,280.442000,352.813000,279.431000C353.327000,278.479000,353.976000,277.496000,354.821000,276.882000C362.206000,271.517000,367,262.818000,367,253C367,236.708000,353.792000,223.500000,337.500000,223.500000Z" fill="rgb(255,255,255)" stroke="none" stroke-width="1"/><path id="e2nix9k1lffy26" d="M357.263000,220.035000C356.730000,219.890000,356.181000,220.204000,356.035000,220.737000C355.890000,221.269000,356.203000,221.818000,356.734000,221.964000L356.920000,222.024000C357.058000,222.071000,357.268000,222.149000,357.537000,222.264000C358.076000,222.494000,358.854000,222.874000,359.770000,223.466000C361.601000,224.647000,363.994000,226.673000,366.159000,230.041000C368.363000,233.469000,369.706000,236.525000,370.497000,238.715000C370.892000,239.810000,371.149000,240.687000,371.306000,241.285000C371.385000,241.585000,371.438000,241.814000,371.472000,241.965000C371.488000,242.041000,371.500000,242.097000,371.507000,242.133000L371.515000,242.172000L371.516000,242.180000C371.615000,242.723000,372.136000,243.083000,372.679000,242.984000C373.222000,242.885000,373.583000,242.365000,373.484000,241.821000L373.468000,241.740000C373.459000,241.692000,373.444000,241.623000,373.425000,241.535000C373.386000,241.359000,373.326000,241.103000,373.241000,240.778000C373.070000,240.126000,372.795000,239.191000,372.378000,238.036000C371.544000,235.725000,370.137000,232.531000,367.841000,228.959000C365.506000,225.327000,362.899000,223.104000,360.855000,221.785000C359.834000,221.126000,358.955000,220.694000,358.322000,220.424000C358.006000,220.289000,357.751000,220.195000,357.570000,220.133000L357.263000,220.035000ZM374,247C374,246.448000,373.552000,246,373,246C372.448000,246,372,246.448000,372,247L372,255.500000C372,256.053000,372.448000,256.500000,373,256.500000C373.552000,256.500000,374,256.053000,374,255.500000L374,247ZM308.382000,274.714000C308.816000,274.373000,309.445000,274.448000,309.786000,274.882000L315.286000,281.882000C315.628000,282.317000,315.552000,282.945000,315.118000,283.287000C314.684000,283.628000,314.055000,283.552000,313.714000,283.118000L308.214000,276.118000C307.873000,275.684000,307.948000,275.055000,308.382000,274.714000ZM317.894000,287.053000C317.647000,286.559000,317.048000,286.361000,316.553000,286.606000C315.748000,287.053000,316.170000,288.077000,316.170000,288.077000C316.212000,288.163000,316.274000,288.288000,316.351000,288.447000C316.506000,288.764000,316.723000,289.212000,316.970000,289.739000C317.467000,290.794000,318.082000,292.149000,318.572000,293.372000C319.045000,294.556000,319.407000,295.877000,319.652000,296.917000C319.773000,297.434000,319.864000,297.874000,319.925000,298.184000C319.955000,298.339000,319.978000,298.461000,319.992000,298.543000C320,298.585000,320.005000,298.616000,320.009000,298.636000L320.013000,298.659000L320.014000,298.665000C320.105000,299.210000,320.620000,299.578000,321.164000,299.487000C321.709000,299.396000,322.077000,298.880000,321.986000,298.336000L321.961000,298.190000C321.944000,298.098000,321.920000,297.966000,321.888000,297.801000C321.823000,297.470000,321.727000,297.005000,321.598000,296.459000C321.343000,295.374000,320.955000,293.945000,320.429000,292.629000C319.918000,291.352000,319.283000,289.956000,318.780000,288.887000C318.527000,288.351000,318.307000,287.893000,318.149000,287.570000C318.070000,287.408000,318.007000,287.279000,317.963000,287.191000L317.913000,287.089000L317.894000,287.053000ZM308,253C308,236.708000,321.208000,223.500000,337.500000,223.500000C353.792000,223.500000,367,236.708000,367,253C367,262.818000,362.206000,271.517000,354.821000,276.882000C353.976000,277.496000,353.327000,278.479000,352.813000,279.431000C352.268000,280.442000,351.739000,281.683000,351.222000,283.063000C350.409000,285.233000,349.583000,287.871000,348.747000,290.724000C347.477000,289.156000,345.322000,287.894000,342.672000,287.170000L343.773000,276.712000C343.904000,275.462000,344.296000,274.253000,344.924000,273.163000L351.765000,261.281000C352.744000,259.581000,350.943000,257.634000,349.172000,258.478000L343.637000,261.113000C343.090000,261.374000,342.439000,261.092000,342.255000,260.515000L339.923000,253.230000C339.327000,251.365000,336.683000,251.380000,336.107000,253.252000L333.824000,260.673000C333.628000,261.308000,332.880000,261.579000,332.323000,261.217000L327.700000,258.213000C325.981000,257.095000,323.894000,258.981000,324.832000,260.805000L331.130000,273.051000C331.712000,274.182000,332.047000,275.424000,332.114000,276.694000L332.661000,287.083000C329.858000,287.790000,327.575000,289.092000,326.251000,290.726000C325.415000,287.871000,324.588000,285.233000,323.775000,283.062000C323.259000,281.682000,322.729000,280.440000,322.184000,279.430000C321.670000,278.477000,321.021000,277.494000,320.176000,276.880000C312.793000,271.515000,308,262.817000,308,253ZM341.784000,276.502000L340.705000,286.749000C339.682000,286.587000,338.608000,286.500000,337.500000,286.500000C336.517000,286.500000,335.561000,286.568000,334.643000,286.697000L334.111000,276.589000C334.029000,275.036000,333.620000,273.519000,332.909000,272.136000L326.610000,259.890000L331.233000,262.894000C332.903000,263.980000,335.149000,263.166000,335.735000,261.261000L338.019000,253.840000L340.350000,261.125000C340.903000,262.855000,342.856000,263.700000,344.497000,262.919000L350.032000,260.283000L343.190000,272.165000C342.424000,273.497000,341.944000,274.974000,341.784000,276.502000ZM337.500000,288.500000C336.542000,288.500000,335.621000,288.571000,334.749000,288.703000L334.810000,289.861000C334.888000,291.340000,336.110000,292.500000,337.592000,292.500000C339.017000,292.500000,340.213000,291.424000,340.362000,290.006000L340.495000,288.741000C339.552000,288.585000,338.548000,288.500000,337.500000,288.500000ZM332.812000,289.966000L332.768000,289.124000C331.594000,289.452000,330.554000,289.894000,329.690000,290.412000C327.749000,291.577000,327,292.908000,327,294C327,295.093000,327.749000,296.424000,329.690000,297.589000C331.592000,298.730000,334.348000,299.500000,337.500000,299.500000C340.652000,299.500000,343.408000,298.730000,345.310000,297.589000C347.251000,296.424000,348,295.093000,348,294C348,292.908000,347.251000,291.577000,345.310000,290.412000C344.502000,289.927000,343.540000,289.509000,342.459000,289.189000L342.351000,290.215000C342.095000,292.651000,340.041000,294.500000,337.592000,294.500000C335.046000,294.500000,332.946000,292.508000,332.812000,289.966000ZM355.997000,278.500000C354.137000,279.852000,352.123000,286.137000,349.986000,293.647000C349.995000,293.764000,350,293.882000,350,294L350,294.500000L350,299L350,304L350,309L350,309.500000L349.973000,309.500000C349.726000,311.749000,347.828000,313.726000,345,315.001000L345,316.500000C345,318.157000,343.657000,319.500000,342,319.500000L341.973000,319.500000C341.991000,319.664000,342,319.831000,342,320C342,322.486000,339.985000,324.500000,337.500000,324.500000C335.015000,324.500000,333,322.486000,333,320C333,319.831000,333.009000,319.664000,333.027000,319.500000L333,319.500000C331.343000,319.500000,330,318.157000,330,316.500000L330,315.001000C327.172000,313.726000,325.274000,311.749000,325.027000,309.500000L325,309.500000L325,309L325,304L325,299L325,294.500000L325,294C325,293.882000,325.005000,293.764000,325.014000,293.647000L325.012000,293.648000C322.875000,286.136000,320.861000,279.850000,319,278.498000C311.122000,272.772000,306,263.484000,306,253C306,235.603000,320.103000,221.500000,337.500000,221.500000C354.897000,221.500000,369,235.603000,369,253C369,263.486000,363.877000,272.775000,355.997000,278.500000ZM327,304L327,303.071000C329.227000,305.135000,333.098000,306.500000,337.500000,306.500000C341.902000,306.500000,345.773000,305.135000,348,303.071000L348,304C348,305.093000,347.251000,306.424000,345.310000,307.589000C343.408000,308.730000,340.652000,309.500000,337.500000,309.500000C334.348000,309.500000,331.592000,308.730000,329.690000,307.589000C327.749000,306.424000,327,305.093000,327,304ZM327,309L327,308.071000C329.227000,310.135000,333.098000,311.500000,337.500000,311.500000C341.902000,311.500000,345.773000,310.135000,348,308.071000L348,309C348,310.093000,347.251000,311.424000,345.310000,312.589000C343.408000,313.730000,340.652000,314.500000,337.500000,314.500000C334.348000,314.500000,331.592000,313.730000,329.690000,312.589000C327.749000,311.424000,327,310.093000,327,309ZM327,299L327,298.071000C329.227000,300.135000,333.098000,301.500000,337.500000,301.500000C341.902000,301.500000,345.773000,300.135000,348,298.071000L348,299C348,300.093000,347.251000,301.424000,345.310000,302.589000C343.408000,303.730000,340.652000,304.500000,337.500000,304.500000C334.348000,304.500000,331.592000,303.730000,329.690000,302.589000C327.749000,301.424000,327,300.093000,327,299ZM340,320C340,319.829000,339.983000,319.662000,339.950000,319.500000L335.050000,319.500000C335.017000,319.662000,335,319.829000,335,320C335,321.381000,336.119000,322.500000,337.500000,322.500000C338.881000,322.500000,340,321.381000,340,320Z" clip-rule="evenodd" fill="rgb(41,48,94)" fill-rule="evenodd" stroke="none" stroke-width="1"/><path id="e2nix9k1lffy27" d="M337.500000,288.500000C336.542000,288.500000,335.621000,288.571000,334.749000,288.703000L334.810000,289.861000C334.888000,291.340000,336.110000,292.500000,337.592000,292.500000C339.017000,292.500000,340.213000,291.424000,340.362000,290.006000L340.495000,288.741000C339.552000,288.585000,338.548000,288.500000,337.500000,288.500000ZM332.812000,289.966000L332.768000,289.124000C331.594000,289.452000,330.554000,289.894000,329.690000,290.412000C327.749000,291.577000,327,292.908000,327,294C327,295.093000,327.749000,296.424000,329.690000,297.589000C331.592000,298.730000,334.348000,299.500000,337.500000,299.500000C340.652000,299.500000,343.408000,298.730000,345.310000,297.589000C347.251000,296.424000,348,295.093000,348,294C348,292.908000,347.251000,291.577000,345.310000,290.412000C344.502000,289.927000,343.540000,289.509000,342.459000,289.189000L342.351000,290.215000C342.095000,292.651000,340.041000,294.500000,337.592000,294.500000C335.046000,294.500000,332.946000,292.508000,332.812000,289.966000ZM327,304L327,303.071000C329.227000,305.135000,333.098000,306.500000,337.500000,306.500000C341.902000,306.500000,345.773000,305.135000,348,303.071000L348,304C348,305.093000,347.251000,306.424000,345.310000,307.589000C343.408000,308.730000,340.652000,309.500000,337.500000,309.500000C334.348000,309.500000,331.592000,308.730000,329.690000,307.589000C327.749000,306.424000,327,305.093000,327,304ZM327,309L327,308.071000C329.227000,310.135000,333.098000,311.500000,337.500000,311.500000C341.902000,311.500000,345.773000,310.135000,348,308.071000L348,309C348,310.093000,347.251000,311.424000,345.310000,312.589000C343.408000,313.730000,340.652000,314.500000,337.500000,314.500000C334.348000,314.500000,331.592000,313.730000,329.690000,312.589000C327.749000,311.424000,327,310.093000,327,309ZM327,299L327,298.071000C329.227000,300.135000,333.098000,301.500000,337.500000,301.500000C341.902000,301.500000,345.773000,300.135000,348,298.071000L348,299C348,300.093000,347.251000,301.424000,345.310000,302.589000C343.408000,303.730000,340.652000,304.500000,337.500000,304.500000C334.348000,304.500000,331.592000,303.730000,329.690000,302.589000C327.749000,301.424000,327,300.093000,327,299Z" clip-rule="evenodd" fill="rgb(27,110,212)" fill-rule="evenodd" stroke="none" stroke-width="1"/><path id="e2nix9k1lffy28" d="M378,323C378,328.465000,374.118000,333.801000,366.997000,337.882000C359.931000,341.932000,350.037000,344.500000,339,344.500000C327.963000,344.500000,318.069000,341.932000,311.003000,337.882000C303.882000,333.801000,300,328.465000,300,323C300,317.535000,303.882000,312.200000,311.003000,308.118000C318.069000,304.069000,327.963000,301.500000,339,301.500000C350.037000,301.500000,359.931000,304.069000,366.997000,308.118000C374.118000,312.200000,378,317.535000,378,323ZM379.991000,322.500000C379.527000,309.752000,361.352000,299.500000,339,299.500000C316.648000,299.500000,298.473000,309.752000,298.009000,322.500000L298,322.500000L298,323L298,332L298,332.500000L298.009000,332.500000C298.473000,345.248000,316.648000,355.500000,339,355.500000C361.352000,355.500000,379.527000,345.248000,379.991000,332.500000L380,332.500000L380,332L380,323L380,322.500000L379.991000,322.500000ZM300,332L300,330.271000C301.374000,332.693000,303.415000,334.943000,306,336.949000L306,343.362000C302.084000,339.939000,300,336.005000,300,332ZM311.003000,346.882000C309.927000,346.266000,308.926000,345.620000,308,344.950000L308,338.381000C314.698000,342.812000,324.241000,345.793000,335,346.390000L335,353.387000C325.582000,352.849000,317.203000,350.436000,311.003000,346.882000ZM337,346.473000C337.663000,346.491000,338.329000,346.500000,339,346.500000C340.693000,346.500000,342.361000,346.441000,344,346.327000L344,353.322000C342.364000,353.440000,340.696000,353.500000,339,353.500000C338.329000,353.500000,337.662000,353.491000,337,353.472000L337,346.473000ZM366.997000,346.882000L366.997000,340.169000C367.687000,339.798000,368.355000,339.415000,369,339.018000L369,345.645000C368.364000,346.069000,367.696000,346.481000,366.997000,346.882000ZM372,336.949000L372,343.362000C372.731000,342.723000,373.398000,342.066000,374,341.395000L374,335.246000C373.376000,335.831000,372.708000,336.399000,372,336.949000ZM338.500000,338.500000C355.345000,338.500000,369,331.561000,369,323C369,314.440000,355.345000,307.500000,338.500000,307.500000C321.655000,307.500000,308,314.440000,308,323C308,331.561000,321.655000,338.500000,338.500000,338.500000ZM338.500000,336.500000C330.325000,336.500000,323.024000,334.812000,317.839000,332.177000C314.452000,330.456000,312.190000,328.462000,311,326.430000C311,326.430000,313,313.507000,338.500000,313.500000C364,313.493000,366,326.430000,366,326.430000C364.810000,328.462000,362.548000,330.456000,359.161000,332.177000C353.976000,334.812000,346.675000,336.500000,338.500000,336.500000Z" clip-rule="evenodd" fill="rgb(41,48,94)" fill-rule="evenodd" stroke="none" stroke-width="1"/></g><path id="e2nix9k1lffy29" d="M242,214L231,208L231,182L242,176L252,182L252,208L242,214Z" fill="url(#e2nix9k1lffy29-fill)" stroke="none" stroke-width="1"/><g id="e2nix9k1lffy30"><path id="e2nix9k1lffy31" d="M233.388000,146.013000C232.327000,145.526000,231.098000,145.525000,230.028000,146.024000L227.292000,147.301000L255.057000,163.167000C255.144000,162.920000,255.328000,162.708000,255.585000,162.590000L258.846000,161.103000L235.368000,147.163000L232.511000,148.860000C232.036000,149.142000,231.422000,148.986000,231.140000,148.511000C230.858000,148.036000,231.015000,147.422000,231.489000,147.140000L233.388000,146.013000ZM263,172.382000L259,174.382000L259,172C259.175000,172.001000,259.353000,171.955000,259.514000,171.858000L263,169.766000L263,172.382000ZM263,167.434000L259,169.834000L259,168.902000C259,167.077000,258.172000,165.371000,256.781000,164.243000L260.939000,162.346000L261.042000,162.407000C262.256000,163.128000,263,164.435000,263,165.846000L263,167.434000ZM256.813000,192.138000L256.955000,191.853000C256.984000,191.761000,257,191.661000,257,191.557000L257,191.554000L257,176L257,175.997000L257,168.902000C257,167.466000,256.231000,166.141000,254.985000,165.429000L225.496000,148.578000C224.829000,148.197000,224,148.679000,224,149.447000L224,171.229000C224,172.608000,224.710000,173.890000,225.880000,174.621000L229.070000,176.615000C230.838000,177.719000,232.255000,179.304000,233.157000,181.183000L236,187.106000L236,184.723000C236,183.188000,237.659000,182.225000,238.992000,182.987000L255.504000,192.422000C255.976000,192.692000,256.530000,192.529000,256.813000,192.138000Z" clip-rule="evenodd" fill="rgb(255,255,255)" fill-rule="evenodd" stroke="none" stroke-width="1"/><path id="e2nix9k1lffy32" d="M250.839000,177.446000C247.910000,180.375000,242.370000,179.583000,238.464000,175.678000C234.559000,171.773000,233.768000,166.232000,236.697000,163.304000C239.626000,160.375000,245.166000,161.166000,249.071000,165.071000C252.976000,168.977000,253.768000,174.517000,250.839000,177.446000Z" fill="rgb(27,110,212)" stroke="none" stroke-width="1"/><path id="e2nix9k1lffy33" d="M233.196000,132.020000C233.738000,132.128000,234.089000,132.655000,233.981000,133.196000L232.981000,138.196000C232.872000,138.738000,232.345000,139.089000,231.804000,138.981000C231.262000,138.872000,230.911000,138.346000,231.019000,137.804000L232.019000,132.804000C232.128000,132.263000,232.655000,131.911000,233.196000,132.020000ZM226.440000,132.659000C226.251000,132.139000,225.677000,131.872000,225.158000,132.060000C224.639000,132.249000,224.371000,132.823000,224.560000,133.342000L226.560000,138.842000C226.749000,139.361000,227.323000,139.629000,227.842000,139.440000C228.361000,139.251000,228.629000,138.678000,228.440000,138.159000L226.440000,132.659000ZM233.388000,146.013000C232.327000,145.526000,231.098000,145.525000,230.028000,146.024000L227.292000,147.301000L255.057000,163.167000C255.144000,162.920000,255.328000,162.708000,255.585000,162.590000L258.846000,161.103000L235.368000,147.163000L232.511000,148.860000C232.036000,149.142000,231.422000,148.986000,231.140000,148.511000C230.858000,148.036000,231.015000,147.422000,231.489000,147.140000L233.388000,146.013000ZM229.182000,144.212000L224.100000,146.583000C222.925000,146.957000,222,148.042000,222,149.447000L222,171.229000C222,173.298000,223.066000,175.221000,224.820000,176.317000L228.010000,178.311000C229.456000,179.215000,230.616000,180.511000,231.354000,182.048000L235.148000,189.952000C235.838000,191.391000,238,190.899000,238,189.303000L238,184.723000L254.512000,194.159000C255.628000,194.797000,256.897000,194.628000,257.800000,193.954000C257.841000,193.941000,257.880000,193.926000,257.919000,193.908000L262.095000,191.981000C263.866000,191.163000,265,189.391000,265,187.441000L265,165.846000C265,163.729000,263.884000,161.768000,262.063000,160.687000L234.783000,144.490000C233.077000,143.477000,230.980000,143.373000,229.182000,144.212000ZM256.813000,192.138000L256.955000,191.853000C256.984000,191.761000,257,191.661000,257,191.557000L257,191.554000L257,176L257,175.997000L257,168.902000C257,167.466000,256.231000,166.141000,254.985000,165.429000L225.496000,148.578000C224.829000,148.197000,224,148.679000,224,149.447000L224,171.229000C224,172.608000,224.710000,173.890000,225.880000,174.621000L229.070000,176.615000C230.838000,177.719000,232.255000,179.304000,233.157000,181.183000L236,187.106000L236,184.723000C236,183.188000,237.659000,182.225000,238.992000,182.987000L255.504000,192.422000C255.976000,192.692000,256.530000,192.529000,256.813000,192.138000ZM263,172.382000L259,174.382000L259,172C259.175000,172.001000,259.353000,171.955000,259.514000,171.858000L263,169.766000L263,172.382000ZM263,167.434000L259,169.834000L259,168.902000C259,167.077000,258.172000,165.371000,256.781000,164.243000L260.939000,162.346000L261.042000,162.407000C262.256000,163.128000,263,164.435000,263,165.846000L263,167.434000ZM246.839000,176.446000C245.980000,177.305000,244.532000,177.733000,242.597000,177.367000C240.673000,177.003000,238.487000,175.872000,236.586000,173.971000C234.685000,172.070000,233.554000,169.883000,233.190000,167.960000C232.824000,166.025000,233.252000,164.577000,234.111000,163.718000C234.970000,162.858000,236.418000,162.431000,238.353000,162.797000C240.276000,163.161000,242.463000,164.291000,244.364000,166.193000C246.265000,168.094000,247.396000,170.280000,247.760000,172.204000C248.126000,174.139000,247.698000,175.586000,246.839000,176.446000ZM248.253000,177.860000C245.324000,180.789000,239.467000,179.681000,235.172000,175.385000C230.876000,171.089000,229.768000,165.232000,232.697000,162.304000C235.626000,159.375000,241.482000,160.483000,245.778000,164.778000C250.074000,169.074000,251.182000,174.931000,248.253000,177.860000ZM241,166C241.552000,166,242,166.448000,242,167L242,171C242,171.379000,241.786000,171.725000,241.447000,171.895000L239.447000,172.895000C238.953000,173.142000,238.353000,172.941000,238.106000,172.447000C237.859000,171.953000,238.059000,171.353000,238.553000,171.106000L240,170.382000L240,167C240,166.448000,240.448000,166,241,166ZM220.555000,138.168000C220.095000,137.862000,219.474000,137.986000,219.168000,138.446000C218.862000,138.905000,218.986000,139.526000,219.445000,139.832000L222.445000,141.832000C222.905000,142.139000,223.526000,142.015000,223.832000,141.555000C224.139000,141.096000,224.014000,140.475000,223.555000,140.168000L220.555000,138.168000Z" clip-rule="evenodd" fill="rgb(41,48,94)" fill-rule="evenodd" stroke="none" stroke-width="1"/><path id="e2nix9k1lffy34" d="M264,187.441000C264,189.001000,263.093000,190.419000,261.676000,191.073000L257.500000,193L258,192L258,176L264,173L264,187.441000Z" fill="rgb(0,0,0)" stroke="none" stroke-width="1"/></g><g id="e2nix9k1lffy35"><path id="e2nix9k1lffy36" d="M82,209L82,212C82,212.552000,82.447700,213,83,213L85.670400,213C87.889500,213,90.106600,212.929000,92.311600,212.679000C97.843200,212.052000,109.863000,210.325000,125,206C146,200,154,191,154,191L154,188L82,209Z" clip-rule="evenodd" fill="rgb(41,48,94)" fill-rule="evenodd" stroke="none" stroke-width="1"/><path id="e2nix9k1lffy37" d="M82.500000,205C82,207,82,209,82,209C82,209.552000,82.447700,210,83,210C83,210,99.500000,210.500000,123,203C146.500000,195.500000,154,188,154,188L152.500000,186L85.305800,207.581000C84.660300,207.788000,84,207.306000,84,206.629000L84,201C84,201,83,203,82.500000,205Z" clip-rule="evenodd" fill="rgb(255,255,255)" fill-rule="evenodd" stroke="none" stroke-width="1"/><path id="e2nix9k1lffy38" d="M145.246000,141.157000L145.247000,141.157000L145.247000,141.158000L145.247000,141.158000L145.247000,141.158000L145.269000,141.183000L145.293000,141.207000L145.293000,141.207000L145.293000,141.207000L145.293000,141.207000L145.293000,141.207000L145.297000,141.211000L145.315000,141.229000C145.331000,141.246000,145.356000,141.271000,145.389000,141.306000C145.456000,141.375000,145.554000,141.479000,145.677000,141.613000C145.924000,141.882000,146.270000,142.274000,146.661000,142.756000C147.450000,143.726000,148.401000,145.037000,149.106000,146.447000L153.106000,154.447000L153.111000,154.457000L153.116000,154.468000C155.688000,159.330000,158.465000,164.926000,159.954000,168.581000L159.977000,168.637000L160.007000,168.691000L160.007000,168.691000L160.007000,168.691000L160.007000,168.691000L160.009000,168.694000L160.017000,168.709000L160.050000,168.768000C160.078000,168.821000,160.120000,168.898000,160.169000,168.993000C160.270000,169.185000,160.402000,169.446000,160.534000,169.729000C160.667000,170.014000,160.792000,170.306000,160.882000,170.561000C160.926000,170.689000,160.958000,170.797000,160.979000,170.882000C161,170.974000,161,171.008000,161,171C161,171.133000,160.961000,171.238000,160.808000,171.387000C160.620000,171.571000,160.349000,171.736000,159.948000,171.969000L159.944000,171.971000C159.855000,172.023000,159.760000,172.078000,159.667000,172.135000L159.639000,172.151000L159.613000,172.169000L157.431000,173.677000L157.416000,173.688000L157.400000,173.700000C153.291000,176.782000,150.589000,180.793000,151.484000,185.997000C151.453000,186.091000,151.380000,186.275000,151.210000,186.543000C150.849000,187.113000,150.057000,188.058000,148.344000,189.320000C144.911000,191.850000,137.906000,195.560000,123.699000,200.046000C101.805000,206.960000,89.480500,207,85.031500,207C85.018800,206.934000,85.007700,206.835000,85.002300,206.691000C84.997100,206.549000,84.998000,206.410000,84.999100,206.245000C84.999600,206.169000,85.000100,206.089000,85.000100,206L85.000100,206L85.000100,205.999000L85.000100,205.998000L85.000100,205.991000L85.000100,205.966000L85.000100,205.867000L85.000100,205.500000L85.000100,204.250000L85.000100,201.084000C85.251100,199.629000,85.915400,197.073000,86.536500,194.820000C86.850100,193.682000,87.148300,192.637000,87.368100,191.877000C87.478000,191.496000,87.568300,191.188000,87.631000,190.974000L87.703400,190.728000L87.722200,190.664000L87.727000,190.648000L87.728200,190.644000L87.728500,190.643000L87.728500,190.643000L86.769900,190.358000L87.728600,190.643000L87.733400,190.626000L87.737700,190.610000C91.983100,174.299000,102.492000,160.320000,116.981000,151.711000L128.464000,144.888000L139.414000,139.910000L139.431000,139.903000L139.447000,139.894000C139.549000,139.843000,139.650000,139.793000,139.746000,139.744000L139.747000,139.743000L139.295000,138.852000L139.747000,139.743000C140.650000,139.285000,141.246000,139,142,139C142.237000,139,142.554000,139.085000,142.940000,139.282000C143.317000,139.474000,143.700000,139.741000,144.054000,140.027000C144.404000,140.311000,144.707000,140.598000,144.922000,140.814000C145.028000,140.922000,145.112000,141.011000,145.168000,141.071000C145.196000,141.101000,145.217000,141.124000,145.230000,141.139000L145.244000,141.155000L145.246000,141.157000ZM84.946400,206.989000C84.946400,206.989000,84.947200,206.989000,84.948500,206.990000L84.946400,206.989000ZM121.504000,159.132000L121.445000,159.166000L121.390000,159.207000L116.954000,162.620000C115.535000,163.711000,114.213000,164.924000,113.003000,166.244000L110.261000,169.236000C109.508000,170.057000,108.937000,171.028000,108.584000,172.085000C108.197000,173.246000,108,174.462000,108,175.686000L108,181C108,183.761000,110.239000,186,113,186L114.452000,186C116.200000,186,117.968000,185.858000,119.713000,185.465000C122.818000,184.764000,128.337000,183.311000,133.427000,180.904000C138.252000,178.623000,142.136000,175.935000,144.141000,174.437000C145.251000,173.608000,146.121000,172.541000,146.773000,171.367000L146.854000,171.222000L145.980000,170.737000L146.854000,171.222000C147.943000,169.262000,148.407000,167.016000,148.184000,164.786000L148.178000,164.732000C148.045000,163.400000,147.670000,162.104000,147.072000,160.907000L145.895000,158.553000L145.854000,158.472000L145.800000,158.400000L142.800000,154.400000L142.697000,154.263000L142.555000,154.168000L141.512000,153.473000C140.024000,152.481000,138.172000,152.204000,136.460000,152.718000L131.998000,154.057000C129.742000,154.733000,127.571000,155.665000,125.526000,156.834000L121.504000,159.132000Z" fill="rgb(216,224,237)" stroke="rgb(41,48,94)" stroke-width="2"/><path id="e2nix9k1lffy39" d="M124.500000,178C129.194000,178,133,175.761000,133,173L133,170L124.500000,171L116,170L116,173C116,175.761000,119.806000,178,124.500000,178Z" clip-rule="evenodd" fill="rgb(255,255,255)" fill-rule="evenodd" stroke="none" stroke-width="1"/><path id="e2nix9k1lffy40" d="M126,175.910000L126,174L128,174L128,175.473000C128.566000,175.288000,129.069000,175.063000,129.496000,174.812000C130.723000,174.090000,131,173.382000,131,173L131,172.249000L124.500000,173.014000L118,172.249000L118,173C118,173.382000,118.277000,174.090000,119.504000,174.812000C120.684000,175.506000,122.446000,176,124.500000,176C125.020000,176,125.522000,175.968000,126,175.910000ZM116,173C116,175.761000,119.806000,178,124.500000,178C129.194000,178,133,175.761000,133,173L133,170L124.500000,171L116,170L116,173Z" clip-rule="evenodd" fill="rgb(41,48,94)" fill-rule="evenodd" stroke="none" stroke-width="1"/><path id="e2nix9k1lffy41" d="M145.981000,157.804000C146.089000,158.345000,145.738000,158.872000,145.196000,158.981000C145.196000,158.981000,145.196000,158.981000,145.196000,158.981000L145.193000,158.981000L145.179000,158.984000L145.119000,158.997000C145.065000,159.008000,144.982000,159.026000,144.871000,159.050000C144.650000,159.100000,144.317000,159.176000,143.879000,159.284000C143.003000,159.499000,141.706000,159.838000,140.034000,160.334000C136.690000,161.325000,131.849000,162.938000,125.885000,165.423000C120.988000,167.463000,116.687000,170.287000,113.602000,172.611000C112.062000,173.771000,110.831000,174.802000,109.987000,175.541000C109.565000,175.911000,109.240000,176.207000,109.022000,176.409000C108.913000,176.511000,108.831000,176.588000,108.777000,176.640000C108.750000,176.666000,108.730000,176.686000,108.717000,176.698000L108.702000,176.712000L108.699000,176.715000C108.305000,177.101000,107.671000,177.094000,107.285000,176.699000C106.899000,176.304000,106.906000,175.671000,107.301000,175.285000L108,176C107.301000,175.285000,107.301000,175.285000,107.301000,175.285000L107.303000,175.283000L107.309000,175.278000L107.327000,175.260000C107.343000,175.244000,107.366000,175.222000,107.396000,175.193000C107.457000,175.135000,107.546000,175.052000,107.661000,174.944000C107.892000,174.729000,108.232000,174.420000,108.669000,174.037000C109.544000,173.271000,110.813000,172.208000,112.398000,171.014000C115.563000,168.629000,120.012000,165.703000,125.115000,163.577000C131.151000,161.062000,136.060000,159.425000,139.466000,158.416000C141.169000,157.912000,142.497000,157.564000,143.402000,157.341000C143.855000,157.230000,144.202000,157.150000,144.437000,157.098000C144.555000,157.072000,144.645000,157.053000,144.706000,157.040000L144.777000,157.025000L144.796000,157.021000L144.803000,157.020000C144.803000,157.020000,144.804000,157.019000,145,158L144.803000,157.020000C145.344000,156.911000,145.872000,157.262000,145.981000,157.804000Z" clip-rule="evenodd" fill="rgb(41,48,94)" fill-rule="evenodd" stroke="none" stroke-width="1"/><path id="e2nix9k1lffy42" d="M132,170C132,170.882000,131.386000,171.860000,130.003000,172.674000C128.644000,173.473000,126.701000,174,124.500000,174C122.299000,174,120.356000,173.473000,118.997000,172.674000C117.614000,171.860000,117,170.882000,117,170C117,169.118000,117.614000,168.140000,118.997000,167.326000C120.356000,166.527000,122.299000,166,124.500000,166C126.701000,166,128.644000,166.527000,130.003000,167.326000C131.386000,168.140000,132,169.118000,132,170Z" fill="rgb(27,110,212)" stroke="rgb(41,48,94)" stroke-width="2"/></g><g id="e2nix9k1lffy43"><path id="e2nix9k1lffy44" d="M312,128.660000L246.502000,90.817200C243.166000,88.890200,243.166000,84.069400,246.501000,82.142400L286.370000,59.107900C287.130000,58.668900,287.991000,58.437800,288.869000,58.437800L291.128000,58.437800C291.927000,58.437800,292.403000,57.546300,291.960000,56.880800L291.836000,56.694800C291.289000,55.872300,290.997000,54.905800,290.997000,53.917200L290.997000,5.014960C290.997000,1.160900,295.162000,-1.248420,298.495000,0.677539L363.997000,38.521800C367.093000,40.310400,369,43.617500,369,47.196600L369,92.398500C369,94.295200,367.930000,96.029100,366.236000,96.877300L365.764000,97.113700C364.070000,97.961900,363,99.695800,363,101.593000L363,102.077000C363,103.866000,362.046000,105.520000,360.498000,106.414000L321.995000,128.660000C318.902000,130.447000,315.093000,130.447000,312,128.660000Z" fill="rgb(216,224,237)" stroke="none" stroke-width="1"/><path id="e2nix9k1lffy45" d="M296.969000,3.264560L292.997000,1.008120C294.507000,-0.120784,296.631000,-0.399468,298.495000,0.677539L363.997000,38.521800C367.093000,40.310400,369,43.617500,369,47.196600L369,92.398500C369,94.295200,367.930000,96.029100,366.236000,96.877300L366,96.995500L366,92.398500L366,47.196600C366,44.691200,364.665000,42.376300,362.498000,41.124300L296.996000,3.279990L296.969000,3.264560ZM358.999000,103.812000L320.496000,126.057000C318.331000,127.308000,315.664000,127.308000,313.499000,126.057000L248.001000,88.214700L244.025000,85.979000C243.843000,87.825300,244.669000,89.758200,246.502000,90.817200L312,128.660000C315.093000,130.447000,318.902000,130.447000,321.995000,128.660000L360.498000,106.414000C362.046000,105.520000,363,103.866000,363,102.077000L363,101.593000L358.999000,103.812000Z" clip-rule="evenodd" fill="rgb(41,48,94)" fill-rule="evenodd" stroke="none" stroke-width="1"/><path id="e2nix9k1lffy46" d="M295,53.146900L295,11.504900C295,9.956300,296.684000,8.995230,298.017000,9.783040L358.544000,45.548500C360.066000,46.448100,361,48.084900,361,49.853100L361,91.495100C361,93.043700,359.316000,94.004800,357.983000,93.217000L297.456000,57.451500C295.934000,56.551900,295,54.915100,295,53.146900Z" fill="rgb(47,128,237)" stroke="none" stroke-width="1"/><path id="e2nix9k1lffy47" d="M290.517000,64.337000L270.148000,75.304900C268.771000,76.046300,268.740000,78.010100,270.092000,78.795400L326.534000,111.568000C328.063000,112.456000,329.946000,112.470000,331.488000,111.607000L350.965000,100.700000C352.311000,99.945700,352.333000,98.016200,351.004000,97.232100L295.429000,64.433300C293.921000,63.543700,292.058000,63.507100,290.517000,64.337000Z" fill="rgb(47,128,237)" stroke="none" stroke-width="1"/><path id="e2nix9k1lffy48" d="M301.127000,25.511300C301.397000,25.029500,302.007000,24.857600,302.489000,25.127400L308.190000,28.320400C308.672000,28.590300,308.844000,29.199600,308.574000,29.681500C308.304000,30.163400,307.695000,30.335300,307.213000,30.065400L301.511000,26.872400C301.029000,26.602600,300.858000,25.993200,301.127000,25.511300ZM312.092000,31.651700C312.362000,31.169800,312.972000,30.997900,313.453000,31.267800L324.857000,37.653700C325.339000,37.923600,325.511000,38.533000,325.241000,39.014900C324.971000,39.496700,324.362000,39.668600,323.880000,39.398800L312.476000,33.012800C311.994000,32.742900,311.822000,32.133600,312.092000,31.651700ZM328.759000,40.985000C329.029000,40.503100,329.638000,40.331300,330.120000,40.601100L341.524000,46.987100C342.005000,47.256900,342.177000,47.866300,341.908000,48.348200C341.638000,48.830100,341.028000,49.001900,340.546000,48.732100L329.143000,42.346100C328.661000,42.076300,328.489000,41.466900,328.759000,40.985000ZM345.426000,50.318300C345.696000,49.836500,346.305000,49.664600,346.787000,49.934400L352.489000,53.127400C352.970000,53.397300,353.142000,54.006700,352.872000,54.488500C352.603000,54.970400,351.993000,55.142300,351.511000,54.872400L345.810000,51.679500C345.328000,51.409600,345.156000,50.800200,345.426000,50.318300ZM301.127000,35.511300C301.397000,35.029500,302.007000,34.857600,302.489000,35.127400L308.170000,38.309200C308.652000,38.579100,308.824000,39.188500,308.554000,39.670400C308.284000,40.152200,307.675000,40.324100,307.193000,40.054300L301.511000,36.872400C301.029000,36.602600,300.858000,35.993200,301.127000,35.511300ZM312.112000,41.662800C312.382000,41.181000,312.992000,41.009100,313.473000,41.278900L324.837000,47.642600C325.319000,47.912400,325.491000,48.521800,325.221000,49.003700C324.951000,49.485600,324.342000,49.657400,323.860000,49.387600L312.496000,43.024000C312.014000,42.754100,311.842000,42.144700,312.112000,41.662800ZM328.779000,50.996200C329.049000,50.514300,329.658000,50.342400,330.140000,50.612300L341.504000,56.975900C341.986000,57.245800,342.157000,57.855200,341.888000,58.337000C341.618000,58.818900,341.008000,58.990800,340.526000,58.720900L329.163000,52.357300C328.681000,52.087400,328.509000,51.478100,328.779000,50.996200ZM345.446000,60.329500C345.715000,59.847600,346.325000,59.675800,346.807000,59.945600L352.489000,63.127400C352.970000,63.397300,353.142000,64.006700,352.872000,64.488500C352.603000,64.970400,351.993000,65.142300,351.511000,64.872400L345.830000,61.690600C345.348000,61.420800,345.176000,60.811400,345.446000,60.329500ZM302.481000,45.123100C301.997000,44.857600,301.389000,45.034900,301.123000,45.519100C300.858000,46.003400,301.035000,46.611200,301.519000,46.876800L307.247000,50.018100C307.732000,50.283600,308.339000,50.106300,308.605000,49.622100C308.871000,49.137800,308.693000,48.530000,308.209000,48.264400L302.481000,45.123100ZM312.253000,50.481800C311.768000,50.216300,311.160000,50.393600,310.895000,50.877800C310.629000,51.362100,310.807000,51.969900,311.291000,52.235500L322.747000,58.518100C323.232000,58.783600,323.839000,58.606300,324.105000,58.122100C324.371000,57.637800,324.193000,57.030000,323.709000,56.764400L312.253000,50.481800ZM327.753000,58.981800C327.268000,58.716300,326.660000,58.893600,326.395000,59.377800C326.129000,59.862100,326.307000,60.469900,326.791000,60.735500L332.519000,63.876800C333.003000,64.142300,333.611000,63.965000,333.877000,63.480800C334.142000,62.996500,333.965000,62.388700,333.481000,62.123100L327.753000,58.981800Z" clip-rule="evenodd" fill="rgb(41,48,94)" fill-rule="evenodd" stroke="none" stroke-width="1"/></g><g id="e2nix9k1lffy49"><path id="e2nix9k1lffy50" d="M579.999000,220.535000L556,234.381000L555.018000,206.381000L554,177.381000L454,118.381000L479.012000,103.559000C480.242000,102.830000,481.768000,102.813000,483.013000,103.514000L577.923000,156.926000C580.442000,158.343000,582,161.008000,582,163.898000L582,190.381000L582,217.071000C582,218.500000,581.237000,219.821000,579.999000,220.535000Z" fill="rgb(216,224,237)" stroke="none" stroke-width="1"/><path id="e2nix9k1lffy51" d="M557.882000,230.986000L578.999000,218.803000C579.618000,218.446000,580,217.785000,580,217.071000L580,163.898000C580,161.731000,578.831000,159.732000,576.943000,158.669000L482.032000,105.257000C481.410000,104.906000,480.647000,104.915000,480.032000,105.279000L457.929000,118.377000L456.500000,119.381000L454,118.377000L455.859000,117.279000L479.012000,103.559000C480.242000,102.830000,481.767000,102.813000,483.013000,103.514000L577.923000,156.926000C580.442000,158.343000,582,161.008000,582,163.898000L582,217.071000C582,218.500000,581.237000,219.821000,579.999000,220.535000L557.882000,233.295000L556,234.381000L556,231.881000L557.882000,230.986000Z" fill="rgb(41,48,94)" stroke="none" stroke-width="1"/><path id="e2nix9k1lffy52" d="M555.018000,206.381000L556,234.381000L579.999000,220.535000C581.237000,219.821000,582,218.500000,582,217.071000L582,190.381000L555.018000,206.381000Z" clip-rule="evenodd" fill="rgb(41,48,94)" fill-rule="evenodd" stroke="none" stroke-width="1"/><path id="e2nix9k1lffy53" d="M453,171.761000L453,119.844000C453,118.305000,454.666000,117.342000,455.999000,118.112000L552.998000,174.072000C555.474000,175.501000,557,178.143000,557,181.002000L557,232.918000C557,234.458000,555.334000,235.420000,554.001000,234.651000L457.002000,178.690000C454.526000,177.261000,453,174.620000,453,171.761000Z" fill="rgb(255,255,255)" stroke="none" stroke-width="1"/><path id="e2nix9k1lffy54" d="M496.863000,117.876000C497.142000,118.352000,496.982000,118.965000,496.505000,119.244000L489.672000,123.244000C489.195000,123.523000,488.583000,123.363000,488.304000,122.886000C488.025000,122.410000,488.185000,121.797000,488.661000,121.518000L495.495000,117.518000C495.971000,117.239000,496.584000,117.399000,496.863000,117.876000ZM483.196000,125.876000C483.475000,126.352000,483.315000,126.965000,482.838000,127.244000L476.005000,131.244000C475.528000,131.523000,474.916000,131.363000,474.637000,130.886000C474.358000,130.410000,474.518000,129.797000,474.995000,129.518000L481.828000,125.518000C482.305000,125.239000,482.917000,125.399000,483.196000,125.876000Z" clip-rule="evenodd" fill="rgb(41,48,94)" fill-rule="evenodd" stroke="none" stroke-width="1"/><path id="e2nix9k1lffy55" d="M573.862000,182.874000C574.142000,183.350000,573.983000,183.963000,573.507000,184.243000L556.507000,194.243000C556.031000,194.523000,555.418000,194.364000,555.138000,193.888000C554.858000,193.412000,555.017000,192.799000,555.493000,192.519000L572.493000,182.519000C572.969000,182.239000,573.582000,182.398000,573.862000,182.874000Z" clip-rule="evenodd" fill="rgb(41,48,94)" fill-rule="evenodd" stroke="none" stroke-width="1"/><path id="e2nix9k1lffy56" d="M478.142000,153.867000C478.427000,153.393000,479.041000,153.239000,479.514000,153.524000L484.514000,156.524000C484.816000,156.704000,485,157.030000,485,157.381000L485,162.381000C485,162.741000,484.806000,163.074000,484.493000,163.251000C484.179000,163.429000,483.794000,163.424000,483.485000,163.239000L480,161.147000L480,163.815000L484.514000,166.524000C484.988000,166.808000,485.142000,167.422000,484.857000,167.896000C484.573000,168.369000,483.959000,168.523000,483.485000,168.239000L478.485000,165.239000C478.184000,165.058000,478,164.732000,478,164.381000L478,159.381000C478,159.021000,478.194000,158.688000,478.507000,158.511000C478.821000,158.333000,479.205000,158.338000,479.514000,158.524000L483,160.615000L483,157.947000L478.485000,155.239000C478.012000,154.954000,477.858000,154.340000,478.142000,153.867000Z" clip-rule="evenodd" fill="rgb(235,87,87)" fill-rule="evenodd" stroke="none" stroke-width="1"/><path id="e2nix9k1lffy57" d="M490.507000,160.511000C490.821000,160.333000,491.206000,160.338000,491.514000,160.524000L496.514000,163.524000C496.816000,163.704000,497,164.030000,497,164.381000L497,174.381000C497,174.741000,496.806000,175.074000,496.493000,175.251000C496.179000,175.429000,495.794000,175.424000,495.486000,175.239000L490.486000,172.239000C490.184000,172.058000,490,171.732000,490,171.381000L490,161.381000C490,161.021000,490.194000,160.688000,490.507000,160.511000ZM492,163.147000L492,165.815000L495,167.615000L495,164.947000L492,163.147000ZM495,169.947000L492,168.147000L492,170.815000L495,172.615000L495,169.947000Z" clip-rule="evenodd" fill="rgb(235,87,87)" fill-rule="evenodd" stroke="none" stroke-width="1"/><path id="e2nix9k1lffy58" d="M514.507000,174.511000C514.821000,174.333000,515.205000,174.338000,515.514000,174.524000L520.514000,177.524000C520.816000,177.704000,521,178.030000,521,178.381000L521,188.381000C521,188.741000,520.806000,189.074000,520.493000,189.251000C520.179000,189.429000,519.794000,189.424000,519.485000,189.239000L514.485000,186.239000C514.012000,185.954000,513.858000,185.340000,514.142000,184.867000C514.427000,184.393000,515.041000,184.239000,515.514000,184.524000L519,186.615000L519,183.947000L514.485000,181.239000C514.184000,181.058000,514,180.732000,514,180.381000L514,175.381000C514,175.021000,514.194000,174.688000,514.507000,174.511000ZM519,181.615000L519,178.947000L516,177.147000L516,179.815000L519,181.615000Z" clip-rule="evenodd" fill="rgb(235,87,87)" fill-rule="evenodd" stroke="none" stroke-width="1"/><path id="e2nix9k1lffy59" d="M526.507000,181.511000C526.821000,181.333000,527.205000,181.338000,527.514000,181.524000L532.514000,184.524000C532.988000,184.808000,533.142000,185.422000,532.857000,185.896000C532.573000,186.369000,531.959000,186.523000,531.485000,186.239000L528,184.147000L528,186.815000L532.514000,189.524000C532.816000,189.704000,533,190.030000,533,190.381000L533,195.381000C533,195.741000,532.806000,196.074000,532.493000,196.251000C532.179000,196.429000,531.794000,196.424000,531.485000,196.239000L526.485000,193.239000C526.012000,192.954000,525.858000,192.340000,526.142000,191.867000C526.427000,191.393000,527.041000,191.239000,527.514000,191.524000L531,193.615000L531,190.947000L526.485000,188.239000C526.184000,188.058000,526,187.732000,526,187.381000L526,182.381000C526,182.021000,526.194000,181.688000,526.507000,181.511000Z" clip-rule="evenodd" fill="rgb(235,87,87)" fill-rule="evenodd" stroke="none" stroke-width="1"/><path id="e2nix9k1lffy60" d="M502.507000,167.511000C502.821000,167.333000,503.206000,167.338000,503.514000,167.524000L508.514000,170.524000C508.816000,170.704000,509,171.030000,509,171.381000L509,181.381000C509,181.741000,508.806000,182.074000,508.493000,182.251000C508.179000,182.429000,507.794000,182.424000,507.486000,182.239000L502.486000,179.239000C502.184000,179.058000,502,178.732000,502,178.381000L502,168.381000C502,168.021000,502.194000,167.688000,502.507000,167.511000ZM504,170.147000L504,177.815000L507,179.615000L507,171.947000L504,170.147000Z" clip-rule="evenodd" fill="rgb(235,87,87)" fill-rule="evenodd" stroke="none" stroke-width="1"/><path id="e2nix9k1lffy61" d="M463,174.649000L463,133.003000C463,131.459000,464.674000,130.498000,466.008000,131.275000L544.519000,177.074000C546.055000,177.970000,547,179.614000,547,181.393000L547,223.039000C547,224.582000,545.326000,225.544000,543.992000,224.766000L465.481000,178.968000C463.945000,178.072000,463,176.427000,463,174.649000ZM545,181.393000C545,180.326000,544.433000,179.339000,543.512000,178.801000L470,135.920000L470,170.624000C470,172.416000,470.959000,174.071000,472.513000,174.962000L545,216.521000L545,181.393000Z" clip-rule="evenodd" fill="rgb(41,48,94)" fill-rule="evenodd" stroke="none" stroke-width="1"/><path id="e2nix9k1lffy62" d="M465.500000,177.387000C465.224000,176.909000,465.388000,176.297000,465.866000,176.021000L469.330000,174.021000C469.808000,173.745000,470.420000,173.909000,470.696000,174.387000C470.972000,174.865000,470.808000,175.477000,470.330000,175.753000L466.866000,177.753000C466.388000,178.029000,465.776000,177.865000,465.500000,177.387000Z" clip-rule="evenodd" fill="rgb(255,255,255)" fill-rule="evenodd" stroke="none" stroke-width="1"/><path id="e2nix9k1lffy63" d="M510.652000,122.556000C507.778000,120.880000,504.220000,120.902000,501.368000,122.613000C499.418000,123.783000,498.631000,125.936000,499,127.900000L499,134.854000C499,135.919000,499.564000,136.904000,500.483000,137.442000L528.494000,153.863000L528.608000,153.921000C528.634000,153.933000,528.669000,153.948000,528.711000,153.965000C528.796000,154,528.913000,154.045000,529.060000,154.092000C529.355000,154.187000,529.773000,154.295000,530.305000,154.366000C531.374000,154.509000,532.887000,154.501000,534.775000,153.962000C536.816000,153.378000,537.905000,152.177000,538.457000,151.072000C538.726000,150.534000,538.861000,150.034000,538.929000,149.666000C538.963000,149.480000,538.981000,149.326000,538.990000,149.212000C538.995000,149.155000,538.997000,149.108000,538.998000,149.072000L539,149L539,142.999000C539.373000,141.013000,538.563000,138.837000,536.579000,137.680000L510.652000,122.556000ZM528,146.790000C527.779000,146.684000,527.562000,146.569000,527.348000,146.444000L501.421000,131.320000C501.274000,131.234000,501.134000,131.143000,501,131.047000L501,134.854000C501,135.209000,501.188000,135.537000,501.494000,135.717000L528,151.255000L528,146.790000ZM502.397000,124.328000C504.623000,122.992000,507.401000,122.975000,509.644000,124.283000L535.571000,139.407000C537.580000,140.579000,537.597000,143.475000,535.603000,144.672000C533.376000,146.008000,530.599000,146.025000,528.356000,144.716000L502.429000,129.593000C500.420000,128.421000,500.402000,125.525000,502.397000,124.328000Z" clip-rule="evenodd" fill="rgb(41,48,94)" fill-rule="evenodd" stroke="none" stroke-width="1"/><path id="e2nix9k1lffy64" d="M502.397000,124.328000C504.623000,122.992000,507.401000,122.975000,509.644000,124.283000L535.571000,139.407000C537.580000,140.579000,537.597000,143.475000,535.603000,144.672000C533.376000,146.008000,530.599000,146.025000,528.356000,144.716000L502.429000,129.593000C500.420000,128.421000,500.402000,125.525000,502.397000,124.328000Z" clip-rule="evenodd" fill="rgb(27,110,212)" fill-rule="evenodd" stroke="none" stroke-width="1"/><path id="e2nix9k1lffy65" d="M455,119.844000L455,171.761000C455,173.905000,456.144000,175.886000,458.002000,176.958000L555,232.918000L555,181.002000C555,178.857000,553.856000,176.876000,551.998000,175.805000L455,119.844000L455,119.844000ZM453,119.844000L453,171.761000C453,174.620000,454.526000,177.261000,457.002000,178.690000L554.001000,234.651000C555.334000,235.420000,557,234.458000,557,232.918000L557,181.002000C557,178.143000,555.474000,175.501000,552.998000,174.072000L455.999000,118.112000C454.666000,117.342000,453,118.305000,453,119.844000Z" clip-rule="evenodd" fill="rgb(41,48,94)" fill-rule="evenodd" stroke="none" stroke-width="1"/><path id="e2nix9k1lffy66" d="M466,187.108000L466,183.500000L546,229L539.919000,231.606000C539.340000,231.854000,538.679000,231.815000,538.134000,231.501000L468.507000,191.442000C466.956000,190.550000,466,188.897000,466,187.108000Z" fill="rgb(41,48,94)" stroke="none" stroke-width="1"/><path id="e2nix9k1lffy67" d="M509.644000,124.283000C507.401000,122.975000,504.623000,122.992000,502.397000,124.328000C500.402000,125.525000,500.420000,128.421000,502.429000,129.593000L528.356000,144.716000C530.599000,146.025000,533.376000,146.008000,535.603000,144.672000C537.597000,143.475000,537.580000,140.579000,535.571000,139.407000L509.644000,124.283000Z" fill="rgb(27,110,212)" stroke="none" stroke-width="1"/></g><g id="e2nix9k1lffy68" transform="matrix(1 0 0 1 6.99999999999999 -2)"><path id="e2nix9k1lffy69" d="M25,225L25,207L40,215L40,233L25,225Z" fill="rgb(242,120,87)" stroke="none" stroke-width="1"/><path id="e2nix9k1lffy70" d="M40,233L40,215L55,207L55,224L40,233Z" fill="rgb(239,86,45)" stroke="none" stroke-width="1"/><path id="e2nix9k1lffy71" d="M40,215L25,207L40,198L55,207L40,215Z" fill="rgb(245,154,129)" stroke="none" stroke-width="1"/></g><g id="e2nix9k1lffy72"><path id="e2nix9k1lffy73" d="M168,190L168,178L178,184L178,196L168,190Z" fill="rgb(160,193,111)" stroke="none" stroke-width="1"/><path id="e2nix9k1lffy74" d="M178,196L178,184L188,178L188,190L178,196Z" fill="rgb(136,177,75)" stroke="none" stroke-width="1"/><path id="e2nix9k1lffy75" d="M178,184L168,178L178,173L188,178L178,184Z" fill="rgb(184,208,147)" stroke="none" stroke-width="1"/></g><g id="e2nix9k1lffy76"><path id="e2nix9k1lffy77" d="M239,47L239,38L247,42L247,51L239,47Z" fill="rgb(70,158,164)" stroke="none" stroke-width="1"/><path id="e2nix9k1lffy78" d="M247,51L247,42L254,38L254,47L247,51Z" fill="rgb(24,134,141)" stroke="none" stroke-width="1"/><path id="e2nix9k1lffy79" d="M247,42L239,38L247,34L254,38L247,42Z" fill="rgb(116,182,187)" stroke="none" stroke-width="1"/></g><g id="e2nix9k1lffy80"><path id="e2nix9k1lffy81" d="M394,175L394,155L411,165L411,185L394,175Z" fill="rgb(175,116,230)" stroke="none" stroke-width="1"/><path id="e2nix9k1lffy82" d="M411,165L411,185L429,175L429,155L411,165Z" fill="rgb(155,81,224)" stroke="none" stroke-width="1"/><path id="e2nix9k1lffy83" d="M411,165L394,155L411,145L429,155L411,165Z" fill="rgb(195,151,236)" stroke="none" stroke-width="1"/></g><g id="e2nix9k1lffy84"><path id="e2nix9k1lffy85" d="M497,101L497,92L505,96L505,106L497,101Z" fill="rgb(248,219,121)" stroke="none" stroke-width="1"/><path id="e2nix9k1lffy86" d="M505,106L505,96L513,92L513,101L505,106Z" fill="rgb(246,210,88)" stroke="none" stroke-width="1"/><path id="e2nix9k1lffy87" d="M505,96L497,92L505,88L513,92L505,96Z" fill="rgb(250,228,155)" stroke="none" stroke-width="1"/></g><g id="e2nix9k1lffy88"><path id="e2nix9k1lffy89" d="M379,430L379,416L392,409L392,423L379,430Z" fill="rgb(27,110,212)" stroke="none" stroke-width="1"/><path id="e2nix9k1lffy90" d="M379,416L367,409L379,402L392,409L379,416Z" fill="rgb(118,168,229)" stroke="none" stroke-width="1"/><path id="e2nix9k1lffy91" d="M367,423L367,409L379,416L379,430L367,423Z" fill="rgb(73,139,221)" stroke="none" stroke-width="1"/></g><script><![CDATA[!function(t,n){"object"==typeof exports&&"undefined"!=typeof module?module.exports=n():"function"==typeof define&&define.amd?define(n):(t=t||self).__SVGATOR_PLAYER__=n()}(this,(function(){"use strict";function t(n){return(t="function"==typeof Symbol&&"symbol"==typeof Symbol.iterator?function(t){return typeof t}:function(t){return t&&"function"==typeof Symbol&&t.constructor===Symbol&&t!==Symbol.prototype?"symbol":typeof t})(n)}function n(t,n){if(!(t instanceof n))throw new TypeError("Cannot call a class as a function")}function r(t,n){for(var r=0;r<n.length;r++){var e=n[r];e.enumerable=e.enumerable||!1,e.configurable=!0,"value"in e&&(e.writable=!0),Object.defineProperty(t,e.key,e)}}function e(t,n,e){return n&&r(t.prototype,n),e&&r(t,e),t}var i=Math.abs;function u(t){return t}function o(t,n,r){var e=1-r;return 3*r*e*(t*e+n*r)+r*r*r}function a(){var t=arguments.length>0&&void 0!==arguments[0]?arguments[0]:0,n=arguments.length>1&&void 0!==arguments[1]?arguments[1]:0,r=arguments.length>2&&void 0!==arguments[2]?arguments[2]:1,e=arguments.length>3&&void 0!==arguments[3]?arguments[3]:1;return t<0||t>1||r<0||r>1?null:i(t-n)<=1e-5&&i(r-e)<=1e-5?u:function(u){if(u<=0)return t>0?u*n/t:0===n&&r>0?u*e/r:0;if(u>=1)return r<1?1+(u-1)*(e-1)/(r-1):1===r&&t<1?1+(u-1)*(n-1)/(t-1):1;for(var a,l=0,f=1;l<f;){var s=o(t,r,a=(l+f)/2);if(i(u-s)<1e-5)break;s<u?l=a:f=a}return o(n,e,a)}}function l(){return 1}function f(t){return 1===t?1:0}function s(){var t=arguments.length>0&&void 0!==arguments[0]?arguments[0]:1,n=arguments.length>1&&void 0!==arguments[1]?arguments[1]:0;if(1===t){if(0===n)return f;if(1===n)return l}var r=1/t;return function(t){return t>=1?1:(t+=n*r)-t%r}}function c(t){var n=arguments.length>1&&void 0!==arguments[1]?arguments[1]:2;if(Number.isInteger(t))return t;var r=Math.pow(10,n);return Math.round(t*r)/r}var v=Math.PI/180;function h(t,n,r){return t>=.5?r:n}function y(t,n,r){return 0===t||n===r?n:t*(r-n)+n}function d(t,n,r){var e=y(t,n,r);return e<=0?0:e}function g(t,n,r){return 0===t?n:1===t?r:{x:y(t,n.x,r.x),y:y(t,n.y,r.y)}}function m(t,n,r){return 0===t?n:1===t?r:{x:d(t,n.x,r.x),y:d(t,n.y,r.y)}}function p(t,n,r){var e=function(t,n,r){return Math.round(y(t,n,r))}(t,n,r);return e<=0?0:e>=255?255:e}function b(t,n,r){return 0===t?n:1===t?r:{r:p(t,n.r,r.r),g:p(t,n.g,r.g),b:p(t,n.b,r.b),a:y(t,null==n.a?1:n.a,null==r.a?1:r.a)}}function w(t,n,r){if(0===t)return n;if(1===t)return r;var e=n.length;if(e!==r.length)return h(t,n,r);for(var i=[],u=0;u<e;u++)i.push(b(t,n[u],r[u]));return i}function A(t,n,r){var e=n.length;if(e!==r.length)return h(t,n,r);for(var i=new Array(e),u=0;u<e;u++)i[u]=y(t,n[u],r[u]);return i}function x(t,n){for(var r=[],e=0;e<t;e++)r.push(n);return r}function k(t,n){if(--n<=0)return t;var r=(t=Object.assign([],t)).length;do{for(var e=0;e<r;e++)t.push(t[e])}while(--n>0);return t}var S=/\.0+$/g;function _(t){return Number.isInteger(t)?t+"":t.toFixed(6).replace(S,"")}function M(t){var n=arguments.length>1&&void 0!==arguments[1]?arguments[1]:" ";return t&&t.length?t.map(_).join(n):""}function I(t){return _(t.x)+","+_(t.y)}function E(t){return t?null==t.a||t.a>=1?"rgb("+t.r+","+t.g+","+t.b+")":"rgba("+t.r+","+t.g+","+t.b+","+t.a+")":"transparent"}var F={f:null,i:m,u:function(t,n){return function(r){var e=n(r);t.setAttribute("rx",_(e.x)),t.setAttribute("ry",_(e.y))}}},B={f:null,i:function(t,n,r){return 0===t?n:1===t?r:{width:d(t,n.width,r.width),height:d(t,n.height,r.height)}},u:function(t,n){return function(r){var e=n(r);t.setAttribute("width",_(e.width)),t.setAttribute("height",_(e.height))}}},j=Math.sin,q=Math.cos,P=Math.acos,O=Math.asin,z=Math.tan,L=Math.atan2,C=Math.PI/180,R=180/Math.PI,T=Math.sqrt,V=function(){function t(){var r=arguments.length>0&&void 0!==arguments[0]?arguments[0]:1,e=arguments.length>1&&void 0!==arguments[1]?arguments[1]:0,i=arguments.length>2&&void 0!==arguments[2]?arguments[2]:0,u=arguments.length>3&&void 0!==arguments[3]?arguments[3]:1,o=arguments.length>4&&void 0!==arguments[4]?arguments[4]:0,a=arguments.length>5&&void 0!==arguments[5]?arguments[5]:0;n(this,t),this.m=[r,e,i,u,o,a],this.i=null,this.w=null,this.s=null}return e(t,[{key:"point",value:function(t,n){var r=this.m;return{x:r[0]*t+r[2]*n+r[4],y:r[1]*t+r[3]*n+r[5]}}},{key:"translateSelf",value:function(){var t=arguments.length>0&&void 0!==arguments[0]?arguments[0]:0,n=arguments.length>1&&void 0!==arguments[1]?arguments[1]:0;if(!t&&!n)return this;var r=this.m;return r[4]+=r[0]*t+r[2]*n,r[5]+=r[1]*t+r[3]*n,this.w=this.s=this.i=null,this}},{key:"rotateSelf",value:function(){var t=arguments.length>0&&void 0!==arguments[0]?arguments[0]:0;if(t%=360){var n=j(t*=C),r=q(t),e=this.m,i=e[0],u=e[1];e[0]=i*r+e[2]*n,e[1]=u*r+e[3]*n,e[2]=e[2]*r-i*n,e[3]=e[3]*r-u*n,this.w=this.s=this.i=null}return this}},{key:"scaleSelf",value:function(){var t=arguments.length>0&&void 0!==arguments[0]?arguments[0]:1,n=arguments.length>1&&void 0!==arguments[1]?arguments[1]:1;if(1!==t||1!==n){var r=this.m;r[0]*=t,r[1]*=t,r[2]*=n,r[3]*=n,this.w=this.s=this.i=null}return this}},{key:"skewSelf",value:function(t,n){if(n%=360,(t%=360)||n){var r=this.m,e=r[0],i=r[1],u=r[2],o=r[3];t&&(t=z(t*C),r[2]+=e*t,r[3]+=i*t),n&&(n=z(n*C),r[0]+=u*n,r[1]+=o*n),this.w=this.s=this.i=null}return this}},{key:"resetSelf",value:function(){var t=arguments.length>0&&void 0!==arguments[0]?arguments[0]:1,n=arguments.length>1&&void 0!==arguments[1]?arguments[1]:0,r=arguments.length>2&&void 0!==arguments[2]?arguments[2]:0,e=arguments.length>3&&void 0!==arguments[3]?arguments[3]:1,i=arguments.length>4&&void 0!==arguments[4]?arguments[4]:0,u=arguments.length>5&&void 0!==arguments[5]?arguments[5]:0,o=this.m;return o[0]=t,o[1]=n,o[2]=r,o[3]=e,o[4]=i,o[5]=u,this.w=this.s=this.i=null,this}},{key:"recomposeSelf",value:function(){var t=arguments.length>0&&void 0!==arguments[0]?arguments[0]:null,n=arguments.length>1&&void 0!==arguments[1]?arguments[1]:null,r=arguments.length>2&&void 0!==arguments[2]?arguments[2]:null,e=arguments.length>3&&void 0!==arguments[3]?arguments[3]:null,i=arguments.length>4&&void 0!==arguments[4]?arguments[4]:null;return this.isIdentity||this.resetSelf(),t&&(t.x||t.y)&&this.translateSelf(t.x,t.y),n&&this.rotateSelf(n),r&&(r.x&&this.skewSelf(r.x,0),r.y&&this.skewSelf(0,r.y)),!e||1===e.x&&1===e.y||this.scaleSelf(e.x,e.y),i&&(i.x||i.y)&&this.translateSelf(i.x,i.y),this}},{key:"decompose",value:function(){var t=arguments.length>0&&void 0!==arguments[0]?arguments[0]:0,n=arguments.length>1&&void 0!==arguments[1]?arguments[1]:0,r=this.m,e=r[0]*r[0]+r[1]*r[1],i=[[r[0],r[1]],[r[2],r[3]]],u=T(e);if(0===u)return{origin:{x:r[4],y:r[5]},translate:{x:t,y:n},scale:{x:0,y:0},skew:{x:0,y:0},rotate:0};i[0][0]/=u,i[0][1]/=u;var o=r[0]*r[3]-r[1]*r[2]<0;o&&(u=-u);var a=i[0][0]*i[1][0]+i[0][1]*i[1][1];i[1][0]-=i[0][0]*a,i[1][1]-=i[0][1]*a;var l=T(i[1][0]*i[1][0]+i[1][1]*i[1][1]);if(0===l)return{origin:{x:r[4],y:r[5]},translate:{x:t,y:n},scale:{x:u,y:0},skew:{x:0,y:0},rotate:0};i[1][0]/=l,i[1][1]/=l,a/=l;var f=0;return i[1][1]<0?(f=P(i[1][1])*R,i[0][1]<0&&(f=360-f)):f=O(i[0][1])*R,o&&(f=-f),a=L(a,T(i[0][0]*i[0][0]+i[0][1]*i[0][1]))*R,{origin:{x:r[4],y:r[5]},translate:{x:t,y:n},scale:{x:u,y:l},skew:{x:a,y:0},rotate:f}}},{key:"toString",value:function(){return null===this.s&&(this.s="matrix("+this.m.map(N).join(" ")+")"),this.s}},{key:"determinant",get:function(){var t=this.m;return t[0]*t[3]-t[1]*t[2]}},{key:"isIdentity",get:function(){if(null===this.i){var t=this.m;this.i=1===t[0]&&0===t[1]&&0===t[2]&&1===t[3]&&0===t[4]&&0===t[5]}return this.i}}]),t}(),D=/\.0+$/;function N(t){return Number.isInteger(t)?t:t.toFixed(14).replace(D,"")}Object.freeze({M:2,L:2,Z:0,H:1,V:1,C:6,Q:4,T:2,S:4,A:7});function G(t,n,r){return t+(n-t)*r}function $(t,n,r){var e=arguments.length>3&&void 0!==arguments[3]&&arguments[3],i={x:G(t.x,n.x,r),y:G(t.y,n.y,r)};return e&&(i.a=H(t,n)),i}function H(t,n){return Math.atan2(n.y-t.y,n.x-t.x)}function Q(t,n,r,e){var i=1-e;return i*i*t+2*i*e*n+e*e*r}function U(t,n,r,e){return 2*(1-e)*(n-t)+2*e*(r-n)}function Y(t,n,r,e){var i=arguments.length>4&&void 0!==arguments[4]&&arguments[4],u={x:Q(t.x,n.x,r.x,e),y:Q(t.y,n.y,r.y,e)};return i&&(u.a=Z(t,n,r,e)),u}function Z(t,n,r,e){return Math.atan2(U(t.y,n.y,r.y,e),U(t.x,n.x,r.x,e))}function J(t,n,r,e,i){var u=i*i;return i*u*(e-t+3*(n-r))+3*u*(t+r-2*n)+3*i*(n-t)+t}function K(t,n,r,e,i){var u=1-i;return 3*(u*u*(n-t)+2*u*i*(r-n)+i*i*(e-r))}function W(t,n,r,e,i){var u=arguments.length>5&&void 0!==arguments[5]&&arguments[5],o={x:J(t.x,n.x,r.x,e.x,i),y:J(t.y,n.y,r.y,e.y,i)};return u&&(o.a=X(t,n,r,e,i)),o}function X(t,n,r,e,i){return Math.atan2(K(t.y,n.y,r.y,e.y,i),K(t.x,n.x,r.x,e.x,i))}function tt(t,n,r){var e=arguments.length>3&&void 0!==arguments[3]&&arguments[3];if(rt(n)){if(et(r))return Y(n,r.start,r,t,e)}else if(rt(r)){if(n.end)return Y(n,n.end,r,t,e)}else{if(n.end)return r.start?W(n,n.end,r.start,r,t,e):Y(n,n.end,r,t,e);if(r.start)return Y(n,r.start,r,t,e)}return $(n,r,t,e)}function nt(t,n,r){var e=tt(t,n,r,!0);return e.a=function(t){var n=arguments.length>1&&void 0!==arguments[1]&&arguments[1];return n?t+Math.PI:t}(e.a)/v,e}function rt(t){return!t.type||"corner"===t.type}function et(t){return null!=t.start&&!rt(t)}var it=new V;var ut={f:function(t){return t?t.join(" "):""},i:function(n,r,e){if(0===n)return r;if(1===n)return e;var i=r.length;if(i!==e.length)return h(n,r,e);for(var u,o=new Array(i),a=0;a<i;a++){if((u=t(r[a]))!==t(e[a]))return h(n,r,e);if("number"===u)o[a]=y(n,r[a],e[a]);else{if(r[a]!==e[a])return h(n,r,e);o[a]=r[a]}}return o}},ot={f:null,i:A,u:function(t,n){return function(r){var e=n(r);t.setAttribute("x1",_(e[0])),t.setAttribute("y1",_(e[1])),t.setAttribute("x2",_(e[2])),t.setAttribute("y2",_(e[3]))}}},at={f:_,i:y},lt={f:_,i:function(t,n,r){var e=y(t,n,r);return e<=0?0:e>=1?1:e}},ft={f:M,i:function(t,n,r){var e,i,u,o=n.length,a=r.length;if(o!==a)if(0===o)n=x(o=a,0);else if(0===a)a=o,r=x(o,0);else{var l=(u=(e=o)*(i=a)/function(t,n){for(var r;n;)r=n,n=t%n,t=r;return t||1}(e,i))<0?-u:u;n=k(n,Math.floor(l/o)),r=k(r,Math.floor(l/a)),o=a=l}for(var f=[],s=0;s<o;s++)f.push(c(d(t,n[s],r[s]),6));return f}};function st(t,n,r,e,i,u,o,a){return n=function(t,n,r){for(var e,i,u,o=t.length-1,a={},l=0;l<=o;l++)(e=t[l]).e&&(e.e=n(e.e)),e.v&&"g"===(i=e.v).t&&i.r&&(u=r.getElementById(i.r))&&(a[i.r]=u.querySelectorAll("stop"));return a}(t,e,a),function(e){var i,u=r(e,t,ct);return u?"c"===u.t?E(u.v):"g"===u.t?(n[u.r]&&function(t,n){for(var r=0,e=t.length;r<e;r++)t[r].setAttribute("stop-color",E(n[r]))}(n[u.r],u.v),(i=u.r)?"url(#"+i+")":"none"):"none":"none"}}function ct(t,n,r){if(0===t)return n;if(1===t)return r;if(n&&r){var e=n.t;if(e===r.t)switch(n.t){case"c":return{t:e,v:b(t,n.v,r.v)};case"g":if(n.r===r.r)return{t:e,v:w(t,n.v,r.v),r:n.r}}}return h(t,n,r)}var vt={blur:m,brightness:d,contrast:d,"drop-shadow":function(t,n,r){return 0===t?n:1===t?r:{blur:m(t,n.blur,r.blur),offset:g(t,n.offset,r.offset),color:b(t,n.color,r.color)}},grayscale:d,"hue-rotate":y,invert:d,opacity:d,saturate:d,sepia:d};function ht(t,n,r){if(0===t)return n;if(1===t)return r;var e=n.length;if(e!==r.length)return h(t,n,r);for(var i,u=[],o=0;o<e;o++){if(n[o].type!==r[o].type)return n;if(!(i=vt[n[o].type]))return h(t,n,r);u.push({type:n.type,value:i(t,n[o].value,r[o].value)})}return u}var yt={blur:function(t){return t?function(n){t.setAttribute("stdDeviation",I(n))}:null},brightness:function(t,n,r){return(t=gt(r,n))?function(n){n=_(n),t.map((function(t){return t.setAttribute("slope",n)}))}:null},contrast:function(t,n,r){return(t=gt(r,n))?function(n){var r=_((1-n)/2);n=_(n),t.map((function(t){t.setAttribute("slope",n),t.setAttribute("intercept",r)}))}:null},"drop-shadow":function(t,n,r){var e=r.getElementById(n+"-blur");if(!e)return null;var i=r.getElementById(n+"-offset");if(!i)return null;var u=r.getElementById(n+"-flood");return u?function(t){e.setAttribute("stdDeviation",I(t.blur)),i.setAttribute("dx",_(t.offset.x)),i.setAttribute("dy",_(t.offset.y)),u.setAttribute("flood-color",E(t.color))}:null},grayscale:function(t){return t?function(n){t.setAttribute("values",M(function(t){return[.2126+.7874*(t=1-t),.7152-.7152*t,.0722-.0722*t,0,0,.2126-.2126*t,.7152+.2848*t,.0722-.0722*t,0,0,.2126-.2126*t,.7152-.7152*t,.0722+.9278*t,0,0,0,0,0,1,0]}(n)))}:null},"hue-rotate":function(t){return t?function(n){return t.setAttribute("values",_(n))}:null},invert:function(t,n,r){return(t=gt(r,n))?function(n){n=_(n)+" "+_(1-n),t.map((function(t){return t.setAttribute("tableValues",n)}))}:null},opacity:function(t,n,r){return(t=r.getElementById(n+"-A"))?function(n){return t.setAttribute("tableValues","0 "+_(n))}:null},saturate:function(t){return t?function(n){return t.setAttribute("values",_(n))}:null},sepia:function(t){return t?function(n){return t.setAttribute("values",M(function(t){return[.393+.607*(t=1-t),.769-.769*t,.189-.189*t,0,0,.349-.349*t,.686+.314*t,.168-.168*t,0,0,.272-.272*t,.534-.534*t,.131+.869*t,0,0,0,0,0,1,0]}(n)))}:null}};var dt=["R","G","B"];function gt(t,n){var r=dt.map((function(r){return t.getElementById(n+"-"+r)||null}));return-1!==r.indexOf(null)?null:r}var mt={fill:st,"fill-opacity":lt,stroke:st,"stroke-opacity":lt,"stroke-width":at,"stroke-dashoffset":{f:_,i:y},"stroke-dasharray":ft,opacity:lt,transform:function(n,r,e,i){if(!(n=function(n,r){if(!n||"object"!==t(n))return null;var e=!1;for(var i in n)n.hasOwnProperty(i)&&(n[i]&&n[i].length?(n[i].forEach((function(t){t.e&&(t.e=r(t.e))})),e=!0):delete n[i]);return e?n:null}(n,i)))return null;var u=function(t,i,u){var o=arguments.length>3&&void 0!==arguments[3]?arguments[3]:null;return n[t]?e(i,n[t],u):r&&r[t]?r[t]:o};return r&&r.a&&n.o?function(t){var r=e(t,n.o,nt);return it.recomposeSelf(r,u("r",t,y,0)+r.a,u("k",t,g),u("s",t,g),u("t",t,g)).toString()}:function(t){return it.recomposeSelf(u("o",t,tt,null),u("r",t,y,0),u("k",t,g),u("s",t,g),u("t",t,g)).toString()}},"#filter":function(t,n,r,e,i,u,o,a){if(!n.items||!t||!t.length)return null;var l=function(t,n){var r=(t=t.map((function(t){return t&&yt[t[0]]?(n.getElementById(t[1]),yt[t[0]](n.getElementById(t[1]),t[1],n)):null}))).length;return function(n){for(var e=0;e<r;e++)t[e]&&t[e](n[e].value)}}(n.items,a);return l?(t=function(t,n){return t.map((function(t){return t.e=n(t.e),t}))}(t,e),function(n){l(r(n,t,ht))}):null},"#line":ot,points:{f:M,i:A},d:ut,r:at,"#size":B,"#radius":F,_:function(t,n){if(Array.isArray(t))for(var r=0;r<t.length;r++)this[t[r]]=n;else this[t]=n}},pt=function(){function t(r){n(this,t),this.list=r,this.length=r.length}return e(t,[{key:"setAttribute",value:function(t,n){for(var r=this.list,e=0;e<this.length;e++)r[e].setAttribute(t,n)}},{key:"removeAttribute",value:function(t){for(var n=this.list,r=0;r<this.length;r++)n[r].removeAttribute(t)}},{key:"style",value:function(t,n){for(var r=this.list,e=0;e<this.length;e++)r[e].style[t]=n}}]),t}(),bt=/-./g,wt=function(t,n){return n.toUpperCase()};function At(t){return"function"==typeof t?t:h}function xt(t){return t?"function"==typeof t?t:Array.isArray(t)?function(t){var n=arguments.length>1&&void 0!==arguments[1]?arguments[1]:u;if(!Array.isArray(t))return n;switch(t.length){case 1:return s(t[0])||n;case 2:return s(t[0],t[1])||n;case 4:return a(t[0],t[1],t[2],t[3])||n}return n}(t,null):function(t,n){var r=arguments.length>2&&void 0!==arguments[2]?arguments[2]:u;switch(t){case"linear":return u;case"steps":return s(n.steps||1,n.jump||0)||r;case"bezier":case"cubic-bezier":return a(n.x1||0,n.y1||0,n.x2||0,n.y2||0)||r}return r}(t.type,t.value,null):null}function kt(t,n,r){var e=arguments.length>3&&void 0!==arguments[3]&&arguments[3],i=n.length-1;if(t<=n[0].t)return e?[0,0,n[0].v]:n[0].v;if(t>=n[i].t)return e?[i,1,n[i].v]:n[i].v;var u,o=n[0],a=null;for(u=1;u<=i;u++){if(!(t>n[u].t)){a=n[u];break}o=n[u]}return null==a?e?[i,1,n[i].v]:n[i].v:o.t===a.t?e?[u,1,a.v]:a.v:(t=(t-o.t)/(a.t-o.t),o.e&&(t=o.e(t)),e?[u,t,r(t,o.v,a.v)]:r(t,o.v,a.v))}function St(t,n){var r=arguments.length>2&&void 0!==arguments[2]?arguments[2]:null;return t&&t.length?"function"!=typeof n?null:("function"!=typeof r&&(r=null),function(e){var i=kt(e,t,n);return null!=i&&r&&(i=r(i)),i}):null}function _t(t,n){return t.t-n.t}function Mt(n,r,e,i,u){var o,a="@"===e[0],l="#"===e[0],f=mt[e],s=h;switch(a?(o=e.substr(1),e=o.replace(bt,wt)):l&&(e=e.substr(1)),t(f)){case"function":if(s=f(i,u,kt,xt,e,a,r,n),l)return s;break;case"string":s=St(i,At(f));break;case"object":if((s=St(i,At(f.i),f.f))&&"function"==typeof f.u)return f.u(r,s,e,a,n)}return s?function(t,n,r){var e=arguments.length>3&&void 0!==arguments[3]&&arguments[3];if(e)return t instanceof pt?function(e){return t.style(n,r(e))}:function(e){return t.style[n]=r(e)};if(Array.isArray(n)){var i=n.length;return function(e){var u=r(e);if(null==u)for(var o=0;o<i;o++)t[o].removeAttribute(n);else for(var a=0;a<i;a++)t[a].setAttribute(n,u)}}return function(e){var i=r(e);null==i?t.removeAttribute(n):t.setAttribute(n,i)}}(r,e,s,a):null}function It(n,r,e,i){if(!i||"object"!==t(i))return null;var u=null,o=null;return Array.isArray(i)?o=function(t){if(!t||!t.length)return null;for(var n=0;n<t.length;n++)t[n].e&&(t[n].e=xt(t[n].e));return t.sort(_t)}(i):(o=i.keys,u=i.data||null),o?Mt(n,r,e,o,u):null}function Et(t,n,r){if(!r)return null;var e=[];for(var i in r)if(r.hasOwnProperty(i)){var u=It(t,n,i,r[i]);u&&e.push(u)}return e.length?e:null}function Ft(t,n){if(!n.duration||n.duration<0)return null;var r=function(t,n){if(!n)return null;var r=[];if(Array.isArray(n))for(var e=n.length,i=0;i<e;i++){var u=n[i];if(2===u.length){var o=null;if("string"==typeof u[0])o=t.getElementById(u[0]);else if(Array.isArray(u[0])){o=[];for(var a=0;a<u[0].length;a++)if("string"==typeof u[0][a]){var l=t.getElementById(u[0][a]);l&&o.push(l)}o=o.length?1===o.length?o[0]:new pt(o):null}if(o){var f=Et(t,o,u[1]);f&&(r=r.concat(f))}}}else for(var s in n)if(n.hasOwnProperty(s)){var c=t.getElementById(s);if(c){var v=Et(t,c,n[s]);v&&(r=r.concat(v))}}return r.length?r:null}(t,n.elements);return r?function(t,n){var r=arguments.length>2&&void 0!==arguments[2]?arguments[2]:1/0,e=arguments.length>3&&void 0!==arguments[3]?arguments[3]:1,i=arguments.length>4&&void 0!==arguments[4]&&arguments[4],u=arguments.length>5&&void 0!==arguments[5]?arguments[5]:1,o=t.length,a=e>0?n:0;i&&r%2==0&&(a=n-a);var l=null;return function(f,s){var c=f%n,v=1+(f-c)/n;s*=e,i&&v%2==0&&(s=-s);var h=!1;if(v>r)c=a,h=!0,-1===u&&(c=e>0?0:n);else if(s<0&&(c=n-c),c===l)return!1;l=c;for(var y=0;y<o;y++)t[y](c);return h}}(r,n.duration,n.iterations||1/0,n.direction||1,!!n.alternate,n.fill||1):null}var Bt=function(){function t(r){var e=arguments.length>1&&void 0!==arguments[1]?arguments[1]:{};n(this,t),this._id=0,this._running=!1,this._animations=r,this.direction=e.direction||1,this.speed=e.speed||1,this.fps=e.fps||100,this.offset=e.offset||0}return e(t,[{key:"_start",value:function(){var t=this,n=arguments.length>0&&void 0!==arguments[0]?arguments[0]:0,r=-1/0,e=null,i={},u=function u(o){t._running=!0,null==e&&(e=o);var a=Math.round((o-e+n)*t.speed),l=t.fps?1e3/t.fps:0;if(a>r+l){t.offset=a,r=a;for(var f=t._animations,s=f.length,c=0,v=0;v<s;v++)i[v]?c++:(i[v]=f[v](a,t.direction),i[v]&&c++);if(c===s)return void t._stop()}t._id=window.requestAnimationFrame(u)};this._id=window.requestAnimationFrame(u)}},{key:"_stop",value:function(){this._id&&window.cancelAnimationFrame(this._id),this._running=!1}},{key:"play",value:function(){this._running||this._start(this.offset)}},{key:"stop",value:function(){this._stop(),this.offset=0;var t=this.direction,n=this._animations;requestAnimationFrame((function(){for(var r=0;r<n.length;r++)n[r](0,t)}))}},{key:"restart",value:function(){this._stop(),this.offset=0,this._start()}},{key:"pause",value:function(){this._stop()}},{key:"reverse",value:function(){this.direction=-this.direction}}],[{key:"build",value:function(n){if(!(n=function(t){if(!t||!t.root||!Array.isArray(t.animations))return null;var n=window.document.getElementById(t.root);if(!n)return null;var r=t.animations.map((function(t){return Ft(n,t)})).filter((function(t){return!!t}));return r.length?{element:n,animations:r,options:t.options||void 0}:null}(n)))return null;var r=n.element,e=n.options||{},i=new t(n.animations,n.options);return function(t,n,r){var e=arguments.length>3&&void 0!==arguments[3]?arguments[3]:null;if("click"===r){var i=function r(){n.removeEventListener("click",r),t.play()};return void n.addEventListener("click",i)}if("hover"===r)return n.addEventListener("mouseenter",(function(){return t.play()})),void n.addEventListener("mouseleave","freeze"===e?function(){return t.pause()}:function(){return t.stop()});t.play()}(i,r,e.start,e.hover),i}}]),t}();return function(){for(var t=0,n=["ms","moz","webkit","o"],r=0;r<n.length&&!window.requestAnimationFrame;++r)window.requestAnimationFrame=window[n[r]+"RequestAnimationFrame"],window.cancelAnimationFrame=window[n[r]+"CancelAnimationFrame"]||window[n[r]+"CancelRequestAnimationFrame"];window.requestAnimationFrame||(window.requestAnimationFrame=function(n){var r=Date.now(),e=Math.max(0,16-(r-t)),i=window.setTimeout((function(){n(r+e)}),e);return t=r+e,i},window.cancelAnimationFrame=window.clearTimeout)}(),Bt}));
__SVGATOR_PLAYER__.build({"root":"e2nix9k1lffy1","animations":[{"duration":4000,"direction":1,"iterations":0,"fill":1,"alternate":false,"elements":{"e2nix9k1lffy11":{"opacity":[{"t":0,"v":0},{"t":2000,"v":1},{"t":4000,"v":0}]},"e2nix9k1lffy22":{"transform":{"keys":{"o":[{"t":200,"v":{"x":0,"y":0,"type":"corner"},"e":[0.42,0,0.58,1]},{"t":1700,"v":{"x":0,"y":10,"type":"corner"},"e":[0.42,0,0.58,1]},{"t":3200,"v":{"x":0,"y":0,"type":"corner"},"e":[0.42,0,0.58,1]}]}}},"e2nix9k1lffy30":{"transform":{"keys":{"o":[{"t":0,"v":{"x":0,"y":0,"type":"corner"},"e":[0.42,0,0.58,1]},{"t":1500,"v":{"x":0,"y":10,"type":"corner"},"e":[0.42,0,0.58,1]},{"t":3400,"v":{"x":0,"y":0,"type":"corner"},"e":[0.42,0,0.58,1]}]}}},"e2nix9k1lffy35":{"transform":{"keys":{"o":[{"t":0,"v":{"x":0,"y":0,"type":"corner"},"e":[0.42,0,0.58,1]},{"t":1500,"v":{"x":0,"y":10,"type":"corner"},"e":[0.42,0,0.58,1]},{"t":3000,"v":{"x":0,"y":0,"type":"corner"},"e":[0.42,0,0.58,1]}]}}},"e2nix9k1lffy43":{"transform":{"keys":{"o":[{"t":200,"v":{"x":0,"y":0,"type":"corner"},"e":[0.42,0,0.58,1]},{"t":1700,"v":{"x":0,"y":10,"type":"corner"},"e":[0.42,0,0.58,1]},{"t":3200,"v":{"x":0,"y":0,"type":"corner"},"e":[0.42,0,0.58,1]}]}}},"e2nix9k1lffy49":{"transform":{"keys":{"o":[{"t":0,"v":{"x":0,"y":0,"type":"corner"},"e":[0.42,0,0.58,1]},{"t":1500,"v":{"x":0,"y":10,"type":"corner"},"e":[0.42,0,0.58,1]},{"t":3000,"v":{"x":0,"y":0,"type":"corner"},"e":[0.42,0,0.58,1]}]}}},"e2nix9k1lffy68":{"transform":{"keys":{"o":[{"t":400,"v":{"x":6.999999999999993,"y":-2,"type":"corner"}},{"t":1900,"v":{"x":6.999999999999993,"y":5,"type":"corner"}},{"t":3700,"v":{"x":6.999999999999993,"y":-2,"type":"corner"}}]}}},"e2nix9k1lffy72":{"transform":{"keys":{"o":[{"t":300,"v":{"x":0,"y":0,"type":"corner"},"e":[0.42,0,0.58,1]},{"t":2100,"v":{"x":0,"y":10,"type":"corner"},"e":[0.42,0,0.58,1]},{"t":3600,"v":{"x":0,"y":0,"type":"corner"},"e":[0.42,0,0.58,1]}]}}},"e2nix9k1lffy76":{"transform":{"keys":{"o":[{"t":200,"v":{"x":0,"y":0,"type":"corner"},"e":[0.42,0,0.58,1]},{"t":1600,"v":{"x":0,"y":10,"type":"corner"},"e":[0.42,0,0.58,1]},{"t":3900,"v":{"x":0,"y":0,"type":"corner"},"e":[0.42,0,0.58,1]}]}}},"e2nix9k1lffy80":{"transform":{"keys":{"o":[{"t":400,"v":{"x":0,"y":0,"type":"corner"},"e":[0.42,0,0.58,1]},{"t":2200,"v":{"x":0,"y":10,"type":"corner"},"e":[0.42,0,0.58,1]},{"t":3900,"v":{"x":0,"y":0,"type":"corner"},"e":[0.42,0,0.58,1]}]}}},"e2nix9k1lffy84":{"transform":{"keys":{"o":[{"t":0,"v":{"x":0,"y":0,"type":"corner"},"e":[0.42,0,0.58,1]},{"t":1500,"v":{"x":0,"y":10,"type":"corner"},"e":[0.42,0,0.58,1]},{"t":3600,"v":{"x":0,"y":0,"type":"corner"},"e":[0.42,0,0.58,1]}]}}},"e2nix9k1lffy88":{"transform":{"keys":{"o":[{"t":200,"v":{"x":0,"y":0,"type":"corner"},"e":[0.42,0,0.58,1]},{"t":1700,"v":{"x":0,"y":10,"type":"corner"},"e":[0.42,0,0.58,1]},{"t":4000,"v":{"x":0,"y":0,"type":"corner"},"e":[0.42,0,0.58,1]}]}}}}}],"options":{"start":"load","hover":"freeze"}})]]></script></svg>