<svg width="48" height="32" viewBox="0 0 48 32" fill="none" xmlns="http://www.w3.org/2000/svg">
<path fill-rule="evenodd" clip-rule="evenodd" d="M31.5695 20.952L21.8975 4.08228L28.8491 0L40.94 20.952H31.5695ZM20.8893 7.39459L13.8371 11.3833L19.2779 20.9515V22.9476H21.2913V20.9515H28.6485L20.8893 7.39459ZM12.6268 14.5565L5.67506 18.5938L6.985 20.9538H16.3556L12.6268 14.5565ZM14.0369 30.139C12.727 30.139 11.7185 29.0959 11.7185 27.8276C11.7185 26.6043 12.727 25.5161 14.0369 25.5161C15.2429 25.5161 16.3553 26.6043 16.3553 27.8276C16.3553 29.0959 15.2429 30.139 14.0369 30.139ZM9.8056 27.8276C9.8056 30.139 11.618 32 13.9364 32C14.8409 32 15.6484 31.7713 16.3553 31.3173V31.8163H18.3687V21.0249H16.3553V24.4245C15.6484 23.929 14.8409 23.7002 13.9364 23.7002C11.618 23.7002 9.8056 25.5161 9.8056 27.8276ZM19.2762 31.7452V23.6707H21.3104V31.7452H19.2762ZM2.44852 27.8276C2.44852 29.0959 3.55746 30.1391 4.76344 30.1391C6.07685 30.1391 7.08183 29.0959 7.08183 27.8276C7.08183 26.6043 6.07685 25.5161 4.76344 25.5161C3.55746 25.5161 2.44852 26.6043 2.44852 27.8276ZM4.66294 32C2.44852 32 0.535583 30.139 0.535583 27.8276C0.535583 25.5161 2.44852 23.7002 4.66294 23.7002C5.57089 23.7002 6.37834 23.929 7.08183 24.4245V23.7903H9.09873V31.8163H7.08183V31.3173C6.47884 31.7713 5.57089 32 4.66294 32ZM26.3288 30.1391C25.1194 30.1391 24.0104 29.0959 24.0104 27.8276C24.0104 26.6043 25.1194 25.5161 26.3288 25.5161C27.6387 25.5161 28.6472 26.6043 28.6472 27.8276C28.6472 29.0959 27.6387 30.1391 26.3288 30.1391ZM30.6606 21.0249H28.6472V24.4245C28.0407 23.929 27.2333 23.7002 26.3288 23.7002C24.0104 23.7002 22.0975 25.5161 22.0975 27.8276C22.0975 30.139 24.0104 32 26.3288 32C27.2333 32 28.0407 31.7713 28.6472 31.3173V31.8163H30.6606V21.0249ZM40.6306 29.2205C40.7311 30.8528 42.0445 31.986 44.259 31.986C46.2758 31.986 47.8873 31.2166 47.8873 29.2205C47.8873 28.1289 47.0798 27.3596 45.8704 27.0408C45.5131 26.9547 45.1258 26.8955 44.7515 26.8383C43.7538 26.6858 42.8485 26.5474 42.8485 25.9526C42.949 25.3635 43.4515 25.2283 44.259 25.2283C45.4684 25.2283 45.5689 25.911 45.5689 26.3165H47.5823C47.4853 24.7293 46.1754 23.6862 44.1585 23.6862C42.0445 23.6862 40.8316 24.8194 40.8316 26.2714C40.8316 27.0858 41.2371 27.8586 41.9406 28.2225C42.4465 28.4477 43.15 28.6314 44.058 28.7631C44.1531 28.7795 44.2482 28.7946 44.3422 28.8095L44.3423 28.8095C45.0431 28.9206 45.6813 29.0218 45.7699 29.5809C45.7699 29.9899 45.2674 30.5339 44.3595 30.5339C43.0495 30.4889 42.748 29.7646 42.748 29.2205H40.6306ZM35.5919 30.139C34.282 30.139 33.2736 29.0959 33.2736 27.8276C33.2736 26.6043 34.282 25.5161 35.5919 25.5161C36.8014 25.5161 37.9069 26.6043 37.9069 27.8276C37.9069 29.0959 36.8014 30.139 35.5919 30.139ZM31.3606 27.8276C31.3606 30.139 33.1731 32 35.488 32C36.3959 32 37.2034 31.7713 37.9069 31.3173V31.8163H39.8233V23.7903H37.9069V24.4245C37.2034 23.9289 36.3959 23.7002 35.488 23.7002C33.1731 23.7002 31.3606 25.5161 31.3606 27.8276Z" fill="#29305E"/>
</svg>
