<svg width="490" height="392" viewBox="0 0 490 392" fill="none" xmlns="http://www.w3.org/2000/svg">
<path d="M347 368L328.043 379.058C324.927 380.876 321.074 380.874 317.959 379.054L250.989 339.916C247.902 338.112 244.087 338.093 240.982 339.867L232 345M400 308L432.487 289.32C435.825 287.4 435.832 282.587 432.5 280.658L409.667 267.439C406.298 265.488 406.352 260.606 409.763 258.731L422 252M183 238L134 208M142 157L218 113M62 203L49.038 210.407C42.3544 214.226 42.3114 223.848 48.9607 227.727L79.5057 245.545C86.0493 249.362 86.1375 258.786 79.6665 262.725L71 268M418 171L386.832 188.315C383.825 189.986 380.171 189.994 377.157 188.336L366.913 182.702C363.861 181.024 360.156 181.054 357.132 182.782L327 200" stroke="#18868D" stroke-width="2" stroke-linecap="round" stroke-dasharray="5 5"/>
<path d="M316.006 349.465L384.002 388.694C386.476 390.121 389.524 390.121 391.998 388.694L459.994 349.465C462.663 347.925 462.663 344.075 459.994 342.535L389.999 302.153C388.762 301.44 387.238 301.44 386.001 302.153L316.006 342.535C313.337 344.075 313.337 347.925 316.006 349.465Z" stroke="#18868D" stroke-width="2"/>
<path d="M340 316V345.699C340 347.122 340.756 348.437 341.985 349.154L384.826 374.142C385.806 374.714 386.903 375 388 375V343.997L340 316Z" fill="#6883CB"/>
<path d="M391.174 374.142L434.015 349.154C435.244 348.437 436 347.122 436 345.699V316L388 343.997V375C389.097 375 390.194 374.714 391.174 374.142Z" fill="#5C72AD"/>
<path d="M384.002 343.694L342.006 319.465C339.337 317.925 339.337 314.075 342.006 312.535L384.002 288.306C386.476 286.879 389.524 286.879 391.998 288.306L433.994 312.535C436.663 314.075 436.663 317.925 433.994 319.465L391.998 343.694C389.524 345.121 386.476 345.121 384.002 343.694Z" fill="#38355A"/>
<path d="M414 316L388 331L362 316L388 301L414 316Z" fill="white"/>
<path d="M388 331L362 316V271L388 256L414 271V316L388 331Z" fill="url(#paint0_linear)"/>
<path d="M30.0056 183.465L98.0022 222.694C100.476 224.121 103.524 224.121 105.998 222.694L173.994 183.465C176.663 181.925 176.663 178.075 173.994 176.535L103.999 136.153C102.762 135.44 101.238 135.44 100.001 136.153L30.0056 176.535C27.3374 178.075 27.3374 181.925 30.0056 183.465Z" stroke="#18868D" stroke-width="2"/>
<path d="M54 150V179.699C54 181.122 54.7556 182.437 55.9845 183.154L98.8256 208.142C99.8064 208.714 100.903 209 102 209V177.997L54 150Z" fill="#6883CB"/>
<path d="M105.174 208.142L148.015 183.154C149.244 182.437 150 181.122 150 179.699V150L102 177.997V209C103.097 209 104.194 208.714 105.174 208.142Z" fill="#5C72AD"/>
<path d="M98.0022 177.694L56.0056 153.465C53.3374 151.925 53.3374 148.075 56.0056 146.535L98.0022 122.306C100.476 120.879 103.524 120.879 105.998 122.306L147.994 146.535C150.663 148.075 150.663 151.925 147.994 153.465L105.998 177.694C103.524 179.121 100.476 179.121 98.0022 177.694Z" fill="#38355A"/>
<path d="M128 150L102 165L76 150L102 135L128 150Z" fill="white"/>
<path d="M102 165L76 150V105L102 90L128 105V150L102 165Z" fill="url(#paint1_linear)"/>
<path d="M186.006 93.4647L254.002 132.694C256.476 134.121 259.524 134.121 261.998 132.694L329.994 93.4647C332.663 91.9254 332.663 88.0746 329.994 86.5353L259.999 46.1532C258.762 45.4395 257.238 45.4395 256.001 46.1532L186.006 86.5353C183.337 88.0746 183.337 91.9254 186.006 93.4647Z" stroke="#18868D" stroke-width="2"/>
<path d="M210 60V89.6993C210 91.1218 210.756 92.4372 211.985 93.154L254.826 118.142C255.806 118.714 256.903 119 258 119V87.9969L210 60Z" fill="#6883CB"/>
<path d="M261.174 118.142L304.015 93.154C305.244 92.4372 306 91.1218 306 89.6993V60L258 87.9969V119C259.097 119 260.194 118.714 261.174 118.142Z" fill="#5C72AD"/>
<path d="M254.002 87.6936L212.006 63.4647C209.337 61.9254 209.337 58.0746 212.006 56.5353L254.002 32.3064C256.476 30.8791 259.524 30.8791 261.998 32.3064L303.994 56.5353C306.663 58.0746 306.663 61.9254 303.994 63.4647L261.998 87.6936C259.524 89.1209 256.476 89.1209 254.002 87.6936Z" fill="#38355A"/>
<path d="M284 60L258 75L232 60L258 45L284 60Z" fill="white"/>
<path d="M258 75L232 60V15L258 0L284 15V60L258 75Z" fill="url(#paint2_linear)"/>
<path d="M435.986 180.672L395.966 157.46C393.308 155.919 393.308 152.081 395.966 150.54L435.986 127.328C438.468 125.888 441.532 125.888 444.014 127.328L484.034 150.54C486.692 152.081 486.692 155.919 484.034 157.46L444.014 180.672C441.532 182.112 438.468 182.112 435.986 180.672Z" stroke="#18868D" stroke-width="1.5"/>
<path d="M443.174 173.142L474.015 155.155C475.244 154.438 476 153.123 476 151.7V143L440 161.996V174C441.097 174 442.194 173.714 443.174 173.142Z" fill="#5C72AD"/>
<path d="M404 143V151.7C404 153.123 404.756 154.438 405.985 155.155L436.826 173.142C437.806 173.714 438.903 174 440 174V161.996L404 143Z" fill="#6883CB"/>
<path d="M437.052 122.663L405.478 140.474C403.511 141.584 403.511 144.416 405.478 145.526L437.052 163.337C438.882 164.369 441.118 164.369 442.948 163.337L474.522 145.526C476.489 144.416 476.489 141.584 474.522 140.474L442.948 122.663C441.118 121.631 438.882 121.631 437.052 122.663Z" fill="#38355A"/>
<path d="M440 152L424 143L440 134L456 143L440 152Z" fill="white"/>
<path d="M440 152L424 143V114L440 105L456 114V143L440 152Z" fill="url(#paint3_linear)"/>
<path d="M201.986 389.672L161.966 366.46C159.308 364.919 159.308 361.081 161.966 359.54L201.986 336.328C204.468 334.888 207.532 334.888 210.014 336.328L250.034 359.54C252.692 361.081 252.692 364.919 250.034 366.46L210.014 389.672C207.532 391.112 204.468 391.112 201.986 389.672Z" stroke="#18868D" stroke-width="1.5"/>
<path d="M209.174 382.142L240.015 364.155C241.244 363.438 242 362.123 242 360.7V352L206 370.996V383C207.097 383 208.194 382.714 209.174 382.142Z" fill="#5C72AD"/>
<path d="M170 352V360.7C170 362.123 170.756 363.438 171.985 364.155L202.826 382.142C203.806 382.714 204.903 383 206 383V370.996L170 352Z" fill="#6883CB"/>
<path d="M203.052 331.663L171.478 349.474C169.511 350.584 169.511 353.416 171.478 354.526L203.052 372.337C204.882 373.369 207.118 373.369 208.948 372.337L240.522 354.526C242.489 353.416 242.489 350.584 240.522 349.474L208.948 331.663C207.118 330.631 204.882 330.631 203.052 331.663Z" fill="#38355A"/>
<path d="M206 361L190 352L206 343L222 352L206 361Z" fill="white"/>
<path d="M206 361L190 352V323L206 314L222 323V352L206 361Z" fill="url(#paint4_linear)"/>
<path d="M45.9863 311.672L5.96573 288.46C3.30823 286.919 3.30823 283.081 5.96573 281.54L45.9863 258.328C48.4684 256.888 51.5316 256.888 54.0137 258.328L94.0343 281.54C96.6918 283.081 96.6918 286.919 94.0343 288.46L54.0137 311.672C51.5316 313.112 48.4684 313.112 45.9863 311.672Z" stroke="#18868D" stroke-width="1.5"/>
<path d="M47.0521 264.663L15.4776 282.474C13.5107 283.584 13.5107 286.416 15.4776 287.526L47.0521 305.337C48.8818 306.369 51.1182 306.369 52.9479 305.337L84.5224 287.526C86.4893 286.416 86.4893 283.584 84.5224 282.474L52.9479 264.663C51.1182 263.631 48.8818 263.631 47.0521 264.663Z" fill="#38355A"/>
<path d="M439.002 253.27L420.504 242.599C418.503 241.444 418.503 238.556 420.504 237.401L439.002 226.73C440.857 225.659 443.143 225.659 444.998 226.73L463.496 237.401C465.497 238.556 465.497 241.444 463.496 242.599L444.998 253.27C443.143 254.341 440.857 254.341 439.002 253.27Z" fill="#38355A"/>
<path d="M438.952 218.797L407.382 237.416C405.414 238.577 405.414 241.423 407.382 242.584L438.952 261.203C440.833 262.312 443.167 262.312 445.048 261.203L476.618 242.584C478.586 241.423 478.586 238.577 476.618 237.416L445.048 218.797C443.167 217.688 440.833 217.688 438.952 218.797Z" stroke="#18868D" stroke-width="1.5"/>
<path d="M254.002 313.694L160.006 259.465C157.337 257.925 157.337 254.075 160.006 252.535L258 196L355.994 252.535C358.663 254.075 358.663 257.925 355.994 259.465L261.998 313.694C259.524 315.121 256.476 315.121 254.002 313.694Z" stroke="#18868D" stroke-width="2"/>
<path d="M184 166L258 208.998V300C256.898 300 255.796 299.713 254.81 299.14L185.99 259.153C184.758 258.437 184 257.119 184 255.694V166Z" fill="#6883CB"/>
<path d="M258 208.998L332 166V255.694C332 257.119 331.242 258.437 330.01 259.153L261.19 299.14C260.204 299.713 259.102 300 258 300V208.998Z" fill="#5C72AD"/>
<path d="M254.002 208.694L186.006 169.465C183.337 167.925 183.337 164.075 186.006 162.535L254.002 123.306C256.476 121.879 259.524 121.879 261.998 123.306L329.994 162.535C332.663 164.075 332.663 167.925 329.994 169.465L261.998 208.694C259.524 210.121 256.476 210.121 254.002 208.694Z" fill="#38355A"/>
<path d="M206 231V211L232 226V246L206 231Z" fill="white"/>
<path d="M310 231V211L284 226V246L310 231Z" fill="white"/>
<path d="M258 181L232 166L258 151L284 166L258 181Z" fill="white"/>
<path d="M258 181L232 166V125L258 110L284 125V166L258 181Z" fill="url(#paint5_linear)"/>
<defs>
<linearGradient id="paint0_linear" x1="388" y1="256" x2="388" y2="331" gradientUnits="userSpaceOnUse">
<stop stop-color="white" stop-opacity="0.3"/>
<stop offset="1" stop-color="white" stop-opacity="0"/>
</linearGradient>
<linearGradient id="paint1_linear" x1="102" y1="90" x2="102" y2="165" gradientUnits="userSpaceOnUse">
<stop stop-color="white" stop-opacity="0.3"/>
<stop offset="1" stop-color="white" stop-opacity="0"/>
</linearGradient>
<linearGradient id="paint2_linear" x1="258" y1="0" x2="258" y2="75" gradientUnits="userSpaceOnUse">
<stop stop-color="white" stop-opacity="0.3"/>
<stop offset="1" stop-color="white" stop-opacity="0"/>
</linearGradient>
<linearGradient id="paint3_linear" x1="440" y1="105" x2="440" y2="152" gradientUnits="userSpaceOnUse">
<stop stop-color="white" stop-opacity="0.3"/>
<stop offset="1" stop-color="white" stop-opacity="0"/>
</linearGradient>
<linearGradient id="paint4_linear" x1="206" y1="314" x2="206" y2="361" gradientUnits="userSpaceOnUse">
<stop stop-color="white" stop-opacity="0.3"/>
<stop offset="1" stop-color="white" stop-opacity="0"/>
</linearGradient>
<linearGradient id="paint5_linear" x1="258" y1="110" x2="258" y2="181" gradientUnits="userSpaceOnUse">
<stop stop-color="white" stop-opacity="0.3"/>
<stop offset="1" stop-color="white" stop-opacity="0"/>
</linearGradient>
</defs>
</svg>
