<svg width="57" height="64" viewBox="0 0 57 64" fill="none" xmlns="http://www.w3.org/2000/svg">
<path d="M56.149 48C56.5952 47.2271 56.8725 46.3561 56.8725 45.574V18.426C56.8725 17.6439 56.5956 16.7731 56.1492 16.0001L28.4363 32.0001L56.149 48Z" fill="#00599C"/>
<path d="M30.8989 63.4134L54.4099 49.8395C55.0872 49.4484 55.7028 48.7732 56.149 48L28.4363 32.0001L0.723572 48.0002C1.16982 48.7732 1.78556 49.4486 2.46264 49.8395L25.9737 63.4134C27.328 64.1955 29.5446 64.1955 30.8989 63.4134Z" fill="#004482"/>
<path d="M56.1492 16C55.7027 15.2268 55.087 14.5516 54.4099 14.1605L30.8989 0.586568C29.5445 -0.195523 27.328 -0.195523 25.9736 0.586568L2.46262 14.1605C1.10809 14.9424 0 16.862 0 18.426V45.574C0 46.3561 0.277114 47.2271 0.723545 48L28.4363 32.0001L56.1492 16Z" fill="#659AD2"/>
<path d="M28.4363 50.9576C17.9831 50.9576 9.47876 42.4533 9.47876 32.0001C9.47876 21.5469 17.9831 13.0426 28.4363 13.0426C35.1814 13.0426 41.4722 16.6724 44.8533 22.5154L36.649 27.2629C34.9567 24.3383 31.8096 22.5213 28.4363 22.5213C23.2096 22.5213 18.9575 26.7734 18.9575 32.0001C18.9575 37.2266 23.2096 41.4788 28.4363 41.4788C31.81 41.4788 34.9571 39.6619 36.6495 36.7367L44.8538 41.484C41.4727 47.3276 35.1818 50.9576 28.4363 50.9576Z" fill="white"/>
<path d="M47.3938 30.9468H45.2872V28.8405H43.1811V30.9468H41.0746V33.0532H43.1811V35.1597H45.2872V33.0532H47.3938V30.9468Z" fill="white"/>
<path d="M55.2927 30.9468H53.1862V28.8405H51.0801V30.9468H48.9736V33.0532H51.0801V35.1597H53.1862V33.0532H55.2927V30.9468Z" fill="white"/>
</svg>
