<svg width="506" height="443" viewBox="0 0 506 443" fill="none" xmlns="http://www.w3.org/2000/svg">
<path fill-rule="evenodd" clip-rule="evenodd" d="M297 142L401 202L505 142L401 82L297 142Z" fill="#EB5757"/>
<path d="M505 142L401 202V222L505 162V142Z" fill="#EB5757"/>
<path d="M401 202L297 142V162L401 222V202Z" fill="#EB5757"/>
<path d="M297 142L401 202M297 142L401 82L505 142M297 142V162L401 222M401 202L505 142M401 202V222M505 142V162L401 222" stroke="#29305E" stroke-width="2"/>
<path fill-rule="evenodd" clip-rule="evenodd" d="M297 102L401 162L505 102L401 42L297 102Z" fill="#EB5757"/>
<path d="M505 102L401 162V182L505 122V102Z" fill="#EB5757"/>
<path d="M401 162L297 102V122L401 182V162Z" fill="#EB5757"/>
<path d="M297 102L401 162M297 102L401 42L505 102M297 102V122L401 182M401 162L505 102M401 162V182M505 102V122L401 182" stroke="#29305E" stroke-width="2"/>
<path fill-rule="evenodd" clip-rule="evenodd" d="M297 62L401 122L505 62L401 2L297 62Z" fill="#EB5757"/>
<path d="M505 62L401 122V142L505 82V62Z" fill="#EB5757"/>
<path d="M401 122L297 62V82L401 142V122Z" fill="#EB5757"/>
<path d="M297 62L401 122M297 62L401 2L505 62M297 62V82L401 142M401 122L505 62M401 122V142M505 62V82L401 142" stroke="#29305E" stroke-width="2"/>
<path d="M505 62L401 122V142L505 82V62Z" fill="#29305E" stroke="#29305E" stroke-width="2" stroke-linejoin="round"/>
<path d="M505 102L401 162V182L505 122V102Z" fill="#29305E" stroke="#29305E" stroke-width="2" stroke-linejoin="round"/>
<path d="M505 142L401 202V222L505 162V142Z" fill="#29305E" stroke="#29305E" stroke-width="2" stroke-linejoin="round"/>
<path d="M170.726 396.5C167.668 400.579 166.19 403.176 164.617 408C162.609 414.162 162.072 421.5 163.09 424.5C164.108 427.5 164.617 429.5 168.181 431C171.744 432.5 178.042 430.319 183.451 427.5C189.66 424.265 192.636 420.963 196.177 415C199.028 410.2 200.759 401.5 200.759 401.5C200.759 401.5 202.834 390.576 198.722 386C196.308 383.312 195.245 382.5 191.596 382.5C188.033 382.5 184.099 384.005 179.888 387.5C176.426 390.374 173.726 392.497 170.726 396.5Z" fill="#F2994A"/>
<path d="M367.863 280C367.458 281.148 366.915 282.312 366.193 283.5C362.642 289.347 357.962 292.24 352.631 295C352.631 295 349.569 298.719 348.377 301.5C346.135 306.732 346.341 312.5 346.341 316C346.341 319.5 347.429 323.872 350.922 326.5C354.71 329.35 359.067 328 363.139 326.5C367.211 325 371.939 321.077 375.865 316C381.226 309.065 383.5 299.5 383.5 295C383.5 290.5 383.656 285.311 379.428 282C375.842 279.192 367.863 280 367.863 280Z" fill="#F2994A"/>
<path d="M160.545 380C158.552 384.785 158 393 158 393L160.545 394.5C164.617 387.5 170.217 382.5 175.307 378C180.397 373.5 186.163 371.631 193.632 371.5C199.497 371.397 205.436 375.605 208.903 378.594C210.8 380.229 211.957 381.5 211.957 381.5C211.957 381.5 215.422 375.324 216.538 371C218.297 364.186 216.575 358.961 213.484 353.5C210.394 348.039 199.74 345.583 199.74 345.583C196.949 345.913 193.786 346.383 191.596 347C186.38 348.469 181.811 350.855 177.852 354.5C169.708 362 165.126 369 160.545 380Z" fill="#F2994A"/>
<path d="M300.528 84C299.276 69.5001 289.784 59 275.586 59C247.589 59.0001 245.044 86 245.044 86C245.044 86 245.998 86.5356 247.589 87.1564C249.073 87.7352 251.11 88.3881 253.443 88.75C258.279 89.5 263.878 89.5 263.878 89.5L281.185 88C281.185 88 287.293 89.5 286.784 98C286.275 106.5 274.72 112.838 263.878 113.5C259.22 113.784 253.042 111.558 249.625 110.134L250.643 117C250.643 117 251.605 120.321 252.652 122.25C253.883 124.517 256.661 127.5 256.661 127.5L249.116 139.5C249.116 139.5 245.84 152.579 240.972 159.5C234.619 168.532 226.723 169.486 218.575 177C212.217 182.862 209.974 187.484 203.304 193C201.702 194.324 200.095 194.862 198.723 195.814C197.957 196.344 197.264 197.004 196.686 198C195.631 199.818 194.688 202.025 194.509 204C194.339 205.894 194.872 207.576 196.686 208.5C198.495 209.421 199.626 208.258 200.759 206.658C201.991 204.916 203.226 202.657 205.34 202C208.941 200.881 212.408 204.688 215.011 202C216.84 200.113 215.52 198.5 216.539 195.5C217.557 192.5 243.903 182.011 255.734 167.5C260.594 161.538 262.984 157.85 266.423 151C268.671 150.101 269.885 149.267 271.514 147.5C273.844 144.973 275.077 139.5 275.077 139.5C278.636 147.859 286.392 149.412 289.33 158C291.491 164.318 289.33 172 290.857 175C292.384 178 296.341 181.522 300.528 185L311.731 192.336C312.257 192.68 312.338 193.419 311.9 193.869L302.055 204C298.454 208.006 293.747 210.807 289.33 216L271.005 229.909L266.932 233L276.095 238C273.035 242.571 271.195 245.159 269.987 250.5C269.377 253.195 269.582 256.592 271.106 259C271.106 259 264.115 259.933 259.806 259C258.553 258.729 257.525 258.275 256.595 257.747C256.595 257.747 255.266 265.342 257.261 269.5C259.058 273.247 260.824 272 261.842 277C262.86 282 258.984 288.073 255.225 293.5C253.349 296.208 250.893 298.803 248.607 300.952C248.607 300.952 249.5 307.16 250.643 311C252.417 316.956 257.261 325.5 257.261 325.5L279.658 333.5L294.929 349.5C294.929 349.5 307.878 343.28 314.272 337C318.853 332.5 320.889 329 320.889 323.5C320.889 321.566 319.74 319.839 318.344 318.454C316.193 316.319 313.459 315 313.459 315C314.196 311.737 314.537 308.429 314.272 304C313.817 296.372 311.727 284.594 311.727 284.594C312.855 283.916 313.798 283.064 314.272 282C315.601 279.016 315.184 275.219 314.419 271C314.419 271 323.944 254 348.377 239.5C358.391 233.846 372.872 228.693 375.5 214.5C375.677 213.542 375.8 212.543 375.865 211.5C376.883 195 356.42 181 356.42 181C356.527 175.016 355.783 169.186 355.381 166.516C355.307 166.039 355.226 165.533 355.135 165C353.373 154.576 348.366 133.794 335.142 119C331.091 114.468 327.107 110.864 323.359 108C323.359 108 317.175 107.429 313.763 109C311.205 110.178 308.164 113.5 308.164 113.5C308.164 113.5 303.16 117.988 301.546 122C299.933 126.012 300.366 128.689 300.528 133C300.633 135.782 301.363 139.337 302.014 142.026C302.407 143.648 300.839 144.995 299.426 144.107C297.235 142.729 294.719 140.644 293.911 138C292.384 133 292.809 127.772 293.402 122.5C294.079 116.48 297.152 112.702 301.037 108C305.273 102.875 312.745 101.314 312.745 101.314C305.038 97.457 299.877 97 299.877 97C300.732 93.205 300.959 88.9869 300.528 84Z" fill="#F2994A"/>
<path d="M231.3 260C235.082 259.943 237.762 258.073 240.463 256.416C240.463 256.416 246.673 266.347 247.589 273.5C248.362 279.534 246.062 289 246.062 289L242.022 306.361C242.001 306.453 241.966 306.542 241.92 306.624L228.246 331C223.665 335 217.557 339 207.885 339H207.87C207.391 339 195.565 338.98 190.578 338L173.271 330C171.58 328.128 170.107 326.105 168.87 324C166.22 319.487 164.656 314.596 164.358 310C164.155 306.88 164.426 303.576 165.126 300C167.672 287 172.554 279.737 180.397 268.5C188.297 257.182 205.009 243 205.009 243C205.697 245.122 206.691 247.124 208.016 249C209.551 251.172 211.531 253.175 213.993 255C219.058 258.752 223.323 259.887 229.264 259.998C229.921 260.011 230.599 260.011 231.3 260Z" fill="#F2994A"/>
<path d="M0 14V164L130 239V89L0 14Z" fill="white"/>
<path d="M136 249V99L6 24V174L136 249ZM136 249L166 306" stroke="#29305E" stroke-width="2"/>
<ellipse cx="202.5" cy="168" rx="11.5" ry="16" transform="rotate(-10 202.5 168)" fill="#D8E0ED"/>
<path d="M191.175 169.997C192.709 178.699 199.024 184.86 205.279 183.757C211.533 182.654 215.36 174.705 213.825 166.003C212.291 157.301 205.977 151.14 199.722 152.243C199.125 152.348 198.55 152.516 198 152.741" stroke="#29305E" stroke-width="2" stroke-linecap="round"/>
<path fill-rule="evenodd" clip-rule="evenodd" d="M160.5 68.4999C160.5 68.4999 169 66.6391 174.5 71.9999C180.656 78 180.5 84.4999 180.5 84.4999C180.5 84.4999 189.5 79.9999 196 85.4999C202.184 90.7326 202.5 96.9999 202.5 96.9999L200.833 115C200.833 115 197.468 118.295 195 120C190.993 122.768 184.906 124.417 180 125.361C180 125.361 191.185 117.621 192.5 110C193.635 103.418 194 100.5 188 93.4999C182 86.4998 173.5 89.4999 173.5 89.4999L168.5 81.4999C168.5 81.4999 165 76.9999 160.5 75.9999C157.964 75.4363 156.221 76.4611 155.184 77.9999L160.5 68.4999Z" fill="#F2F2F2"/>
<path d="M215 99C218.818 90.053 214.5 83.0001 210 78.0001C201.661 70.0001 192.5 72 192.5 72C192.5 72 192.221 65.5002 186 61.5C179.779 57.5 173.5 58.5 173.5 58.5L160.5 68.5C160.5 68.5 169 66.6393 174.5 72C180.656 78.0001 180.5 84.5001 180.5 84.5001C180.5 84.5001 189.5 80 196 85.5C202.184 90.7327 201.499 92.5001 202.5 97C203.5 101.5 200.833 115 200.833 115C200.833 115 211.938 106.175 215 99Z" fill="#29305E"/>
<path d="M173.5 89.5C173.5 89.5 182 86.4999 188 93.5C194 100.5 192.5 110 192.5 110M164.5 80.5001C164.5 80.5001 165 77.0001 160.5 76.0001C156 75.0001 154 79 154 82C154 85 155.342 95.9019 159 105C162.66 114.104 172 126.5 172 126.5C172 126.5 187.32 125.305 195 120C197.468 118.295 200.833 115 200.833 115M200.833 115C200.833 115 211.938 106.175 215 99C218.818 90.053 214.5 83.0001 210 78.0001C201.661 70.0001 192.5 72 192.5 72C192.5 72 192.221 65.5002 186 61.5C179.779 57.5 173.5 58.5 173.5 58.5L160.5 68.5C160.5 68.5 169 66.6393 174.5 72C180.656 78.0001 180.5 84.5001 180.5 84.5001C180.5 84.5001 189.5 80 196 85.5C202.184 90.7327 201.499 92.5001 202.5 97C203.5 101.5 200.833 115 200.833 115Z" stroke="#29305E" stroke-width="2" stroke-linecap="round" stroke-linejoin="round"/>
<path fill-rule="evenodd" clip-rule="evenodd" d="M382.6 229L404 243C404 243 407.171 245.5 405 249C402.83 252.5 398 250 398 250L377.303 237C379.172 233.995 381.024 231.249 382.6 229ZM367.072 268.517C366.854 264.607 366.629 260.546 368 256C369.011 252.649 370.598 249.048 372.434 245.5L384 251.5C384 251.5 389.042 256.072 389 261C388.957 266.016 386.636 268.823 383 271.808C382.522 272.201 382.021 272.596 381.5 273C376.29 277.038 366.141 280 366.141 280C367.493 276.102 367.286 272.383 367.072 268.517ZM342 280C342 280 339 282.5 336.5 279.5C334 276.5 338.5 273 338.5 273L352 265.5C352 265.5 355.5 264 357 266.5C358.5 269 356.5 271 356.5 271L342 280Z" fill="#F2F2F2"/>
<path fill-rule="evenodd" clip-rule="evenodd" d="M299.36 97C300.2 93.205 300.423 88.9869 300 84C300 84 306.5 85 312 87C317.5 89 322.5 92 322.5 92L341.5 105C341.5 105 351.667 116.5 357 126.5C357.153 126.787 357.308 127.076 357.463 127.368C362.737 137.244 369.443 149.801 367.5 160C366.395 165.802 362.541 168.704 359.314 170.138C356.789 171.261 354.296 169.248 353.88 166.516C353.737 165.552 353.639 165 353.639 165C351.907 154.576 346.99 133.794 334 119C330.02 114.468 326.107 110.864 322.426 108C318.647 105.06 315.112 102.9 312 101.314C304.43 97.457 299.36 97 299.36 97ZM253.75 88.75C258.5 89.5 264 89.5 264 89.5L281 88C281 88 287 89.5 286.5 98C286 106.5 274.649 112.838 264 113.5C259.424 113.784 253.356 111.558 250 110.134L248.5 102.5C248.5 102.5 248.5 97.5 248 95C247.5 92.5 248 87.1564 248 87.1564C249.457 87.7352 251.458 88.3881 253.75 88.75ZM326 122C320.5 112.5 307.5 113.5 307.5 113.5C307.5 113.5 302.585 117.988 301 122C299.641 125.439 299.76 127.897 299.922 131.244C299.949 131.802 299.977 132.384 300 133C300.178 137.822 302.201 144.966 302.471 145.898C302.491 145.968 302.514 146.033 302.542 146.1L307.5 158L317.5 159.5C317.5 159.5 321.558 158.907 324 158C326.046 157.24 329 155.5 329 155.5L330.934 153.566C331.931 152.569 332.462 151.206 332.353 149.8C331.921 144.253 330.402 129.603 326 122ZM264 125C264 125 267.185 125.319 271.5 124.684C271.5 124.684 272.706 134.015 275 139.5C275 139.5 273.789 144.973 271.5 147.5C269.9 149.267 268.708 150.101 266.5 151L260.5 147.5L253.934 142.725C251.262 140.781 250.059 137.395 250.908 134.201L251.919 130.395C252.962 126.466 256.787 123.944 260.809 124.533L264 125ZM332.603 199.555C331.914 199.532 331.253 199.834 330.836 200.382C329.511 202.123 326.458 206.042 324 208.5C321.208 211.292 316.53 214.852 315.303 215.774C315.1 215.926 314.887 216.045 314.653 216.143C312.852 216.897 304.474 220.521 300 224.5C292.993 230.731 289.966 235.953 287.5 245C287.198 246.109 287.071 247.081 287.007 248L296.5 254C296.5 254 299.343 256.627 298.5 260C297.5 264 293.5 262.5 293.5 262.5L285.065 257L286.601 276.368C286.856 279.588 288.651 282.487 291.421 284.151L292.627 284.875C293.861 285.616 295.241 286.082 296.671 286.241L303.5 287C303.5 287 307.944 286.461 311 284.594C312.108 283.916 313.034 283.064 313.5 282C314.806 279.016 314.395 275.219 313.644 271C313.494 270.156 313.33 269.295 313.163 268.42C311.931 261.946 310.555 254.717 313.5 248C317.122 239.741 322.708 237.263 328.745 234.584C333.636 232.414 338.823 230.113 343.5 224.5C351 215.5 349 196.531 349 196.531C343.651 199.611 335.533 199.653 332.603 199.555ZM243.1 303.875L246.5 289C246.5 289 248.759 279.534 248 273.5C247.1 266.347 241 256.416 241 256.416C243.506 254.851 246.03 253.476 249.5 254C251.829 254.352 253.374 255.421 254.94 256.505L254.941 256.505L254.941 256.505L254.941 256.505L254.941 256.505L254.941 256.505C255.557 256.931 256.175 257.359 256.846 257.747C256.846 257.747 255.541 265.342 257.5 269.5C258.236 271.062 258.967 271.756 259.641 272.397C260.584 273.293 261.417 274.084 262 277C263 282 259.192 288.073 255.5 293.5C253.657 296.208 251.245 298.803 249 300.952C247.351 302.53 245.792 303.869 244.614 304.835C243.897 305.423 242.893 304.779 243.1 303.875ZM290.5 175C292 178 295.887 181.522 300 185L311.009 192.339C311.526 192.684 311.607 193.412 311.178 193.862L301.5 204C299.915 205.795 298.113 207.347 296.215 208.982C293.877 210.996 291.395 213.133 289 216C289 216 279.5 215.5 273 221C270.278 223.303 271 229.909 271 229.909L267 233L241.5 217.5L244 209.5C244 209.5 246.555 205.98 248.5 204C251.938 200.5 254.5 199 254.5 199L265 190C265 190 271.601 183.918 276.5 181C281.611 177.956 290.5 175 290.5 175ZM320 323.5C320 329 318 332.5 313.5 337C307.22 343.28 294.5 349.5 294.5 349.5C294.5 349.5 309.715 345.657 318.5 341C324.96 337.576 334 330.5 334 330.5L335.5 324.5C334 312 339.5 301.5 339.5 301.5C337.704 302.697 335.844 304.011 334 305.361C325.577 311.53 317.5 318.454 317.5 318.454C318.87 319.839 320 321.566 320 323.5ZM140 368C140 368 138.074 371.527 137.5 374C137.056 375.911 137 379 137 379L146.857 385L140 398.5C140 398.5 137.624 406.64 137.5 412C137.403 416.189 138.606 421.892 139.378 425.083C139.754 426.637 140.786 427.937 142.183 428.713L162.5 440C156.5 436.5 155 430 155 422.5C155 418 155 415.5 155.5 412C156.418 405.574 159.28 400.136 162.5 394.5L160 393C160 393 160.543 384.785 162.5 380C167 369 171.5 362 179.5 354.5C183.388 350.855 187.877 348.469 193 347C195.151 346.383 198.259 345.913 201 345.583C202.522 345.401 203.93 345.261 205 345.165C206.221 345.055 207 345 207 345L192 338L175 330C175 330 172.907 330.644 170 331.932C167.784 332.914 165.095 334.27 162.5 336C156.5 340 153 346.5 153 346.5L140 368ZM366.756 366.182C383.423 359.931 395.085 351.568 402.62 344.694C406.385 341.259 409.117 338.199 410.931 335.961C411.838 334.842 412.516 333.928 412.979 333.274C413.211 332.948 413.389 332.686 413.515 332.496C413.578 332.401 413.628 332.325 413.666 332.267C413.684 332.238 413.7 332.213 413.712 332.194L413.728 332.168L413.735 332.158L413.738 332.154C413.739 332.152 413.74 332.15 409.5 329.5C405.26 326.85 405.261 326.848 405.262 326.846L405.26 326.849C405.249 326.867 405.225 326.904 405.188 326.959C405.116 327.068 404.994 327.248 404.821 327.491C404.476 327.978 403.927 328.72 403.163 329.664C401.633 331.551 399.24 334.241 395.88 337.306C389.165 343.432 378.576 351.069 363.244 356.818C346.895 362.949 332.131 370.718 321.481 376.931C316.146 380.043 311.823 382.776 308.825 384.738C307.325 385.719 306.156 386.508 305.356 387.055C304.956 387.329 304.648 387.543 304.437 387.69C304.332 387.763 304.251 387.82 304.195 387.86L304.129 387.906L304.103 387.925C304.102 387.926 304.101 387.926 307 392C309.899 396.074 309.898 396.074 309.898 396.074L309.899 396.074L309.909 396.067L309.956 396.033C310.001 396.002 310.069 395.954 310.162 395.889C310.348 395.759 310.63 395.563 311.003 395.308C311.75 394.797 312.862 394.047 314.3 393.106C317.177 391.224 321.353 388.582 326.519 385.569C336.868 379.532 351.105 372.051 366.756 366.182Z" fill="#F2F2F2"/>
<path d="M314 386C314 386 340 367.5 372 355.5C404 343.5 416.5 323.5 416.5 323.5" stroke="#29305E" stroke-width="2" stroke-linecap="round"/>
<path fill-rule="evenodd" clip-rule="evenodd" d="M313.5 282C313.035 283.064 312.109 283.916 311 284.594C311 284.594 313.053 296.372 313.5 304C313.76 308.429 313.425 311.737 312.701 315C312.701 315 315.387 316.319 317.5 318.454C317.5 318.454 325.577 311.53 334 305.361C335.844 304.011 337.704 302.697 339.5 301.5C343.598 298.768 347.543 296.916 351.178 295C356.415 292.24 361.012 289.347 364.5 283.5C365.209 282.312 365.742 281.148 366.141 280C368.861 272.159 365.273 265.041 368 256C369.844 249.887 373.608 242.939 377.303 237C379.172 233.995 381.024 231.249 382.6 229C383.237 228.092 383.829 227.265 384.359 226.534C385.747 224.621 385.271 221.9 383.277 220.631L373.642 214.5C371.06 228.693 356.836 233.846 347 239.5C323 254 313.644 271 313.644 271C314.395 275.219 314.806 279.016 313.5 282ZM342 280C342 280 339 282.5 336.5 279.5C334 276.5 338.5 273 338.5 273L352 265.5C352 265.5 355.5 264 357 266.5C358.5 269 356.5 271 356.5 271L342 280Z" fill="#29305E"/>
<path d="M287.007 248C286.851 250.238 287.064 252.164 286 255C285.735 255.706 285.423 256.376 285.065 257L293.5 262.5C293.5 262.5 297.5 264 298.5 260C299.343 256.627 296.5 254 296.5 254L287.007 248Z" fill="#29305E"/>
<path d="M313 109C316.352 107.429 322.426 108 322.426 108C318.647 105.06 315.112 102.9 312 101.314C312 101.314 304.66 102.875 300.5 108C296.683 112.702 293.665 116.48 293 122.5C292.418 127.772 292 133 293.5 138C294.287 140.622 296.724 142.695 298.864 144.073C300.268 144.977 301.843 143.64 301.457 142.015C300.818 139.327 300.103 135.778 300 133C299.841 128.689 299.415 126.012 301 122C302.585 117.988 307.5 113.5 307.5 113.5C307.5 113.5 310.487 110.178 313 109Z" fill="#29305E"/>
<path d="M198 198C198.568 197.004 199.248 196.344 200 195.814L195 193C195 193 189.401 191 187 193C184 195.5 187 199 187 199L195.862 204C196.037 202.025 196.964 199.818 198 198Z" fill="#29305E"/>
<path d="M270 250.5C271.187 245.159 272.995 242.571 276 238L267 233L216 202C213.443 204.688 210.037 200.881 206.5 202C204.424 202.657 203.211 204.916 202 206.658C202 206.658 201.077 210.993 202 213.5C203.003 216.224 205.673 216.418 207 219C209.879 224.6 205 228.703 205 235C205 237.827 205.378 240.497 206.175 243C206.851 245.122 207.827 247.124 209.129 249C210.637 251.172 212.581 253.175 215 255C219.975 258.752 224.164 259.887 230 259.998C230.645 260.011 231.311 260.011 232 260C235.715 259.943 238.347 258.073 241 256.416C243.506 254.851 246.03 253.476 249.5 254C252.745 254.49 254.467 256.372 256.846 257.747C257.759 258.275 258.77 258.729 260 259C264.233 259.933 271.1 259 271.1 259C269.602 256.592 269.401 253.195 270 250.5Z" fill="#29305E"/>
<path d="M209 339C208.995 339 208.99 339 208.985 339C208.515 339 196.898 338.98 192 338L207 345C207 345 206.221 345.055 205 345.165C203.93 345.261 202.522 345.401 201 345.583C201 345.583 211.464 348.039 214.5 353.5C217.536 358.961 219.227 364.186 217.5 371C216.404 375.324 213 381.5 213 381.5L231 391V333L229 331C224.5 335 218.5 339 209 339Z" fill="#29305E"/>
<path fill-rule="evenodd" clip-rule="evenodd" d="M195 371.5C187.664 371.631 182 373.5 177 378C172 382.5 166.5 387.5 162.5 394.5C159.28 400.136 156.418 405.574 155.5 412C155 415.5 155 418 155 422.5C155 430 156.152 437.179 162.5 440C167 442 172 442 173 442C179.812 442 189 435 189 435C189 435 197.728 428.099 202 422.5C206.188 417.012 208.45 413.592 210.5 407C211.968 402.279 212.399 399.443 212.5 394.5C212.628 388.213 210 378.594 210 378.594C206.594 375.605 200.761 371.397 195 371.5ZM166.5 408C168.044 403.176 169.497 400.579 172.5 396.5C175.447 392.497 178.099 390.374 181.5 387.5C185.636 384.005 189.5 382.5 193 382.5C196.585 382.5 197.628 383.312 200 386C204.039 390.576 202 401.5 202 401.5C202 401.5 200.3 410.2 197.5 415C194.021 420.963 191.099 424.265 185 427.5C179.686 430.319 173.5 432.5 170 431C166.5 429.5 166 427.5 165 424.5C164 421.5 164.527 414.162 166.5 408Z" fill="#29305E"/>
<path d="M294.5 349.5L311.5 357.5L331.501 345.944C333.048 345.05 334 343.4 334 341.614V330.5C334 330.5 324.96 337.576 318.5 341C309.715 345.657 294.5 349.5 294.5 349.5Z" fill="#29305E"/>
<path d="M381.5 273C376.29 277.038 366.141 280 366.141 280C366.141 280 373.978 279.192 377.5 282C381.654 285.311 381.5 290.5 381.5 295C381.5 299.5 379.266 309.065 374 316C370.145 321.077 365.5 325 361.5 326.5C357.5 328 353.22 329.35 349.5 326.5C346.069 323.872 345 319.5 345 316C345 312.5 344.798 306.732 347 301.5C348.171 298.719 351.178 295 351.178 295C347.543 296.916 343.598 298.768 339.5 301.5C339.5 301.5 334 312 335.5 324.5C336.542 333.186 342.483 339.537 351.178 340.5C358.409 341.301 364.526 337.29 370 332.5C374 329 377.293 325.156 381.5 319C388.402 308.901 390.5 301.232 390.5 289C390.5 278 383 271.808 383 271.808C382.522 272.201 382.021 272.596 381.5 273Z" fill="#29305E"/>
<path d="M170 331.932C172.907 330.644 175 330 175 330C173.339 328.128 171.892 326.105 170.678 324L170 331.932Z" fill="#29305E"/>
<path d="M264 125C264 125 267.185 125.319 271.5 124.684M300 84C298.77 69.5001 289.446 59 275.5 59C248 59.0001 245.5 86 245.5 86C245.5 86 246.437 86.5356 248 87.1564M300 84C300.423 88.9869 300.201 93.205 299.36 97M300 84C300 84 306.5 85 312 87C317.5 89 322.5 92 322.5 92M264 89.5C264 89.5 258.5 89.5 253.75 88.75C251.458 88.3881 249.457 87.7352 248 87.1564M248.5 102.5C248.5 102.5 248.5 97.5 248 95C247.5 92.5 248 87.1564 248 87.1564M299.36 97C297.756 104.239 293.905 109.939 288 116.5C283.147 121.892 276.55 123.941 271.5 124.684M299.36 97C299.36 97 304.43 97.457 312 101.314M341.5 105C341.5 105 351.667 116.5 357 126.5C362.333 136.5 369.5 149.5 367.5 160C366.399 165.78 362.571 168.682 359.351 170.122C356.808 171.26 354.294 169.231 353.874 166.476C353.803 166.011 353.725 165.518 353.639 165M353.639 165C351.907 154.576 346.99 133.794 334 119C330.02 114.468 326.107 110.864 322.426 108M353.639 165C353.639 165 355.044 172.857 354.9 181M331.5 199.5C331.5 199.5 333.5 185 332.5 173.5C331.5 162 329 155.5 329 155.5M331.5 199.5C331.5 199.5 327.235 205.265 324 208.5C321.208 211.292 316.531 214.852 315.303 215.774C315.1 215.926 314.887 216.045 314.653 216.143C312.852 216.897 304.474 220.521 300 224.5C292.993 230.731 289.966 235.953 287.5 245C287.198 246.109 287.072 247.081 287.007 248M331.5 199.5C331.5 199.5 342.374 200.346 349 196.531M329 155.5L330.934 153.566C331.931 152.569 332.462 151.206 332.353 149.8C331.921 144.253 330.402 129.603 326 122C320.5 112.5 307.5 113.5 307.5 113.5M329 155.5C329 155.5 326.047 157.24 324 158C321.558 158.907 317.5 159.5 317.5 159.5M307.5 113.5C307.5 113.5 310.487 110.178 313 109C316.352 107.429 322.426 108 322.426 108M307.5 113.5C307.5 113.5 302.585 117.988 301 122C299.415 126.012 299.841 128.689 300 133C300.103 135.778 300.818 139.327 301.457 142.015C301.843 143.64 300.268 144.977 298.864 144.073C296.724 142.695 294.287 140.622 293.5 138C292 133 292.418 127.772 293 122.5C293.665 116.48 296.683 112.702 300.5 108C304.66 102.875 312 101.314 312 101.314M271.5 124.684C271.5 124.684 272.706 134.015 275 139.5M275 139.5C278.496 147.859 286.114 149.412 289 158C291.123 164.318 289 172 290.5 175M275 139.5C275 139.5 273.789 144.973 271.5 147.5C269.9 149.267 268.708 150.101 266.5 151M290.5 175C292 178 295.887 181.522 300 185L312 193M290.5 175C290.5 175 281.611 177.956 276.5 181C271.601 183.918 265 190 265 190M312 193C312 193 308.272 181.277 307.5 173.5C306.902 167.476 307.5 158 307.5 158M312 193L301.5 204C297.963 208.006 293.339 210.807 289 216M276 238C272.995 242.571 271.187 245.159 270 250.5C269.401 253.195 269.602 256.592 271.1 259M276 238C281.482 229.661 282.602 223.658 289 216M276 238L267 233M289 216L271 229.909M289 216C289 216 279.5 215.5 273 221C270.278 223.303 271 229.909 271 229.909M266.5 151C264.157 149.633 260.5 147.5 260.5 147.5M266.5 151C263.122 157.85 260.774 161.538 256 167.5C244.379 182.011 218.5 192.5 217.5 195.5C216.5 198.5 217.796 200.113 216 202M216 202C213.443 204.688 210.037 200.881 206.5 202C204.424 202.657 203.211 204.916 202 206.658M216 202L267 233M250.5 137.5C250.5 137.5 246.282 152.579 241.5 159.5C235.26 168.532 227.504 169.486 219.5 177C213.256 182.862 211.053 187.484 204.5 193C202.927 194.324 201.349 194.862 200 195.814M254.5 199C254.5 199 251.938 200.5 248.5 204C246.556 205.98 244 209.5 244 209.5M349 196.531C351.197 195.266 352.926 193.489 353.639 191C354.495 188.007 354.839 184.478 354.9 181M349 196.531C349 196.531 351 215.5 343.5 224.5C333.05 237.04 320.056 233.05 313.5 248C310.157 255.624 312.382 263.909 313.644 271M303.5 287C303.5 287 307.944 286.461 311 284.594M311 284.594C312.109 283.916 313.034 283.064 313.5 282C314.806 279.016 314.395 275.219 313.644 271M311 284.594C311 284.594 313.053 296.372 313.5 304C313.76 308.429 313.425 311.737 312.701 315M294.5 320.5C293 324.5 293.111 328.301 296.5 330C298.969 331.237 301.03 330.235 303.5 329C305.5 328 310.027 324.409 311.5 319.5C311.967 317.943 312.374 316.476 312.701 315M294.5 320.5C296 316.5 296.254 312.017 296.5 306.5C296.859 298.464 294.5 286 294.5 286M294.5 320.5C294.5 320.5 292.26 326.5 287.5 330C284.753 332.02 279.5 333.5 279.5 333.5L294.5 349.5M312.701 315C312.701 315 315.387 316.319 317.5 318.454M294.5 349.5C294.5 349.5 307.22 343.28 313.5 337C318 332.5 320 329 320 323.5C320 321.566 318.871 319.839 317.5 318.454M294.5 349.5L311.5 357.5L331.501 345.944C333.048 345.05 334 343.4 334 341.614V330.5M294.5 349.5C294.5 349.5 309.715 345.657 318.5 341C324.96 337.576 334 330.5 334 330.5M354.9 181C354.9 181 375 195 374 211.5C373.937 212.543 373.816 213.542 373.642 214.5M313.644 271C313.644 271 323 254 347 239.5C356.836 233.846 371.06 228.693 373.642 214.5M373.642 214.5L383.277 220.631C385.271 221.9 385.747 224.621 384.359 226.534C383.829 227.265 383.237 228.092 382.6 229M339.5 301.5C337.704 302.697 335.844 304.011 334 305.361C325.577 311.53 317.5 318.454 317.5 318.454M339.5 301.5C343.598 298.768 347.543 296.916 351.178 295M339.5 301.5C339.5 301.5 334 312 335.5 324.5M366.141 280C368.861 272.159 365.273 265.041 368 256C369.844 249.886 373.608 242.939 377.303 237M366.141 280C365.742 281.148 365.209 282.312 364.5 283.5C361.012 289.347 356.415 292.24 351.178 295M366.141 280C366.141 280 376.29 277.038 381.5 273C382.021 272.596 382.522 272.201 383 271.808M366.141 280C366.141 280 373.978 279.192 377.5 282C381.653 285.311 381.5 290.5 381.5 295C381.5 299.5 379.266 309.065 374 316C370.145 321.077 365.5 325 361.5 326.5C357.5 328 353.22 329.35 349.5 326.5C346.069 323.872 345 319.5 345 316C345 312.5 344.798 306.731 347 301.5C348.171 298.719 351.178 295 351.178 295M384 251.5C384 251.5 389.042 256.072 389 261C388.957 266.016 386.636 268.823 383 271.808M382.6 229L404 243C404 243 407.171 245.5 405 249C402.829 252.5 398 250 398 250L377.303 237M382.6 229C381.024 231.249 379.172 233.995 377.303 237M267 233L271 229.909M287.007 248C286.851 250.238 287.064 252.164 286 255C285.735 255.706 285.423 256.376 285.065 257M287.007 248L296.5 254C296.5 254 299.343 256.627 298.5 260C297.5 264 293.5 262.5 293.5 262.5L285.065 257M285.065 257C283.164 260.322 279.995 262.377 276 262C273.686 261.781 272.102 260.612 271.1 259M322.426 108C318.647 105.06 315.112 102.9 312 101.314M200 195.814C199.248 196.344 198.568 197.004 198 198C196.964 199.818 196.037 202.025 195.862 204M200 195.814L195 193C195 193 189.401 191 187 193C184 195.5 187 199 187 199L195.862 204M195.862 204C195.694 205.894 196.218 207.576 198 208.5C199.777 209.421 200.887 208.258 202 206.658M202 206.658C202 206.658 201.077 210.993 202 213.5C203.003 216.224 205.673 216.418 207 219C209.879 224.6 205 228.703 205 235C205 237.827 205.378 240.497 206.175 243M271.1 259C271.1 259 264.233 259.933 260 259C258.77 258.729 257.759 258.275 256.846 257.747M241 256.416C238.347 258.073 235.715 259.943 232 260C231.311 260.011 230.645 260.011 230 259.998M241 256.416C243.506 254.851 246.03 253.476 249.5 254C252.745 254.49 254.467 256.372 256.846 257.747M241 256.416C241 256.416 247.1 266.347 248 273.5C248.759 279.534 246.5 289 246.5 289M246.5 289L243.1 303.875C242.893 304.779 243.897 305.423 244.614 304.835C245.792 303.869 247.351 302.53 249 300.952M246.5 289C246.5 289 252.285 286.074 255.5 283.5C258.302 281.256 262 277 262 277M262 277C263 282 259.193 288.073 255.5 293.5C253.657 296.208 251.245 298.803 249 300.952M262 277C261 272 259.266 273.247 257.5 269.5C255.541 265.342 256.846 257.747 256.846 257.747M262 277C262 277 270.811 279.04 276 281.5C281.726 284.214 289.5 290.5 289.5 290.5M230 259.998C224.164 259.887 219.975 258.752 215 255C212.581 253.175 210.637 251.172 209.129 249M230 259.998C230 259.998 203.5 320.5 202 324.5C200.501 328.498 199.501 338.989 208.985 339M209 339C218.5 339 224.5 335 229 331L231 333V391L213 381.5M209 339C208.995 339 208.99 339 208.985 339M209 339C209 339 208.995 339 208.985 339M206.175 243C206.175 243 189.76 257.182 182 268.5C174.295 279.737 169.5 287 167 300C166.312 303.576 166.046 306.88 166.245 310M206.175 243C206.851 245.122 207.827 247.124 209.129 249M175 330L192 338M175 330C175 330 172.907 330.644 170 331.932M175 330C173.339 328.128 171.892 326.105 170.678 324M192 338L207 345C207 345 206.221 345.055 205 345.165C203.93 345.261 202.522 345.401 201 345.583M192 338C196.898 338.98 208.515 339 208.985 339M166.245 310C166.245 310 170.5 310 175.5 305C180.5 300 209.129 249 209.129 249M166.245 310C166.538 314.596 168.074 319.487 170.678 324M247.5 109C247.5 109 248.467 109.483 250 110.134M281 88C281 88 287 89.5 286.5 98C286 106.5 274.65 112.838 264 113.5C259.424 113.784 253.356 111.558 250 110.134M250 110.134L251 117M140 368C140 368 138.074 371.527 137.5 374C137.056 375.911 137 379 137 379L160 393C160 393 160.543 384.785 162.5 380C167 369 171.5 362 179.5 354.5C183.388 350.855 187.877 348.469 193 347C195.151 346.383 198.259 345.913 201 345.583M153 346.5C153 346.5 156.5 340 162.5 336C165.095 334.27 167.784 332.914 170 331.932M213 381.5C213 381.5 216.404 375.324 217.5 371C219.227 364.186 217.536 358.961 214.5 353.5C211.464 348.039 201 345.583 201 345.583M213 381.5C213 381.5 211.863 380.229 210 378.594M162.5 440C156.152 437.179 155 430 155 422.5C155 418 155 415.5 155.5 412C156.418 405.574 159.28 400.136 162.5 394.5C166.5 387.5 172 382.5 177 378C182 373.5 187.664 371.631 195 371.5C200.761 371.397 206.594 375.605 210 378.594M162.5 440C167 442 172 442 173 442C179.812 442 189 435 189 435C189 435 197.728 428.099 202 422.5C206.188 417.012 208.45 413.592 210.5 407C211.968 402.279 212.399 399.443 212.5 394.5C212.628 388.213 210 378.594 210 378.594M162.5 440L142.183 428.713C140.786 427.937 139.754 426.637 139.378 425.083C138.606 421.892 137.403 416.189 137.5 412C137.624 406.64 140 398.5 140 398.5M249 300.952C249 300.952 249.877 307.16 251 311C252.742 316.956 257.5 325.5 257.5 325.5M334 330.5L335.5 324.5M383 271.808C383 271.808 390.5 278 390.5 289C390.5 301.232 388.402 308.901 381.5 319C377.293 325.156 374 329 370 332.5C364.526 337.29 358.409 341.301 351.178 340.5C342.483 339.537 336.542 333.186 335.5 324.5M170 331.932L170.678 324M336.5 279.5C339 282.5 342 280 342 280L356.5 271C356.5 271 358.5 269 357 266.5C355.5 264 352 265.5 352 265.5L338.5 273C338.5 273 334 276.5 336.5 279.5ZM172.5 396.5C169.497 400.579 168.044 403.176 166.5 408C164.527 414.162 164 421.5 165 424.5C166 427.5 166.5 429.5 170 431C173.5 432.5 179.686 430.319 185 427.5C191.099 424.265 194.021 420.963 197.5 415C200.3 410.2 202 401.5 202 401.5C202 401.5 204.039 390.576 200 386C197.628 383.312 196.585 382.5 193 382.5C189.5 382.5 185.636 384.005 181.5 387.5C178.099 390.374 175.447 392.497 172.5 396.5Z" stroke="#29305E" stroke-width="2" stroke-linecap="round" stroke-linejoin="round"/>
<ellipse rx="13.0363" ry="17.7034" transform="matrix(0.965926 0.258819 -0.267326 0.963606 306 230.372)" fill="#D8E0ED"/>
<path d="M293.408 226.998C290.794 236.419 294.313 245.567 301.267 247.431C308.221 249.294 315.978 243.167 318.592 233.746C321.205 224.324 317.687 215.176 310.732 213.313C310.069 213.135 309.398 213.03 308.725 212.993" stroke="#29305E" stroke-width="2" stroke-linecap="round"/>
<rect x="194" y="407" width="16" height="8" rx="4" transform="rotate(30 194 407)" fill="#F2F2F2" stroke="#29305E" stroke-width="2"/>
<rect x="202" y="271" width="18" height="8" rx="4" transform="rotate(30 202 271)" fill="#F2F2F2" stroke="#29305E" stroke-width="2"/>
<path d="M237 305V390L313 434V349L237 305Z" fill="white"/>
<path d="M231 394V309L307 353V438L231 394ZM231 394L211 408" stroke="#29305E" stroke-width="2"/>
<path d="M386.697 50.7247C369.103 60.3018 366.086 69.576 366.086 69.576L376.141 71.5922C376.141 71.5922 385.692 61.3098 397.254 63.326C408.816 65.3422 405.298 77.4394 405.298 77.4394L443 85L435.359 71.5922C435.359 71.5922 420.881 73.911 415.351 65.8462C409.822 57.7814 424.616 52.7409 424.616 52.7409L418.008 41.1476C418.008 41.1476 404.292 41.1476 386.697 50.7247Z" fill="#F2994A"/>
<path d="M397.254 63.326C385.692 61.3098 376.141 71.5922 376.141 71.5922L405.298 77.4394C405.298 77.4394 408.816 65.3422 397.254 63.326Z" fill="#F2994A"/>
<path d="M379.157 41.1476C357.038 51.7325 350 66.3501 350 66.3501L366.086 69.576C366.086 69.576 369.103 60.3018 386.697 50.7247C404.292 41.1476 418.008 41.1476 418.008 41.1476L412.838 32.0747C412.838 32.0747 401.276 30.5627 379.157 41.1476Z" fill="#F2994A"/>
<path d="M366.086 69.576L350 66.3501C350 66.3501 357.038 51.7325 379.157 41.1476C401.276 30.5627 412.838 32.0747 412.838 32.0747L418.008 41.1476M366.086 69.576C366.086 69.576 369.103 60.3018 386.697 50.7247C404.292 41.1476 418.008 41.1476 418.008 41.1476M366.086 69.576L376.141 71.5922M418.008 41.1476L424.616 52.7409M376.141 71.5922C376.141 71.5922 385.692 61.3098 397.254 63.326C408.816 65.3422 405.298 77.4394 405.298 77.4394M376.141 71.5922L405.298 77.4394M405.298 77.4394L443 85L435.359 71.5922M424.616 52.7409C424.616 52.7409 409.822 57.7814 415.351 65.8462C420.881 73.911 435.359 71.5922 435.359 71.5922M424.616 52.7409L435.359 71.5922" stroke="#29305E" stroke-width="2" stroke-linecap="round" stroke-linejoin="round"/>
<path d="M379.157 41.1476C357.038 51.7325 350 66.3501 350 66.3501L366.086 69.576C366.086 69.576 369.103 60.3018 386.697 50.7247C404.292 41.1476 418.008 41.1476 418.008 41.1476L412.838 32.0747C412.838 32.0747 401.276 30.5627 379.157 41.1476Z" fill="#29305E"/>
<path d="M397.254 63.326C385.692 61.3098 376.141 71.5923 376.141 71.5923L405.298 77.4394C405.298 77.4394 408.816 65.3422 397.254 63.326Z" fill="#29305E"/>
<path d="M424.616 52.7409C424.616 52.7409 409.822 57.7814 415.351 65.8462C420.881 73.911 435.359 71.5923 435.359 71.5923L424.616 52.7409Z" fill="#29305E"/>
<path d="M366.086 69.576L350 66.3501C350 66.3501 357.038 51.7325 379.157 41.1476C401.276 30.5627 412.838 32.0747 412.838 32.0747L418.008 41.1476M366.086 69.576C366.086 69.576 369.103 60.3018 386.697 50.7247C404.292 41.1476 418.008 41.1476 418.008 41.1476M366.086 69.576L376.141 71.5922M418.008 41.1476L424.616 52.7409M376.141 71.5922C376.141 71.5922 385.692 61.3098 397.254 63.326C408.816 65.3422 405.298 77.4394 405.298 77.4394M376.141 71.5922L405.298 77.4394M405.298 77.4394L443 85L435.359 71.5922M424.616 52.7409C424.616 52.7409 409.822 57.7814 415.351 65.8462C420.881 73.911 435.359 71.5922 435.359 71.5922M424.616 52.7409L435.359 71.5922" stroke="#29305E" stroke-width="2" stroke-linecap="round" stroke-linejoin="round"/>
<path fill-rule="evenodd" clip-rule="evenodd" d="M66.7175 179C66.7175 179 87.4556 152.699 92.1217 140.292C99.6279 110.912 85.9003 80.2461 61.5329 74.7875C42.0921 68.781 37.2266 79.314 33.5365 85.705C31.9984 89.8464 31.4625 92.1561 33.5365 108.036C35.6104 123.916 66.7175 179 66.7175 179ZM47.5349 96.6227C48.5718 94.1414 54.2748 87.1939 66.1992 95.6302C78.1236 104.066 80.7159 124.413 74.4945 131.856C70.0506 134.834 59.1979 131.078 53.7563 123.916C45.4611 112.999 46.498 99.1039 47.5349 96.6227Z" fill="#EB5757"/>
<path d="M96.1217 146.292C91.4556 158.699 70.7175 185 70.7175 185C70.7175 185 39.6104 129.916 37.5365 114.036C35.4625 98.1561 35.9984 95.8464 37.5365 91.705C41.2266 85.314 46.0921 74.781 65.5329 80.7875C89.9003 86.2461 103.628 116.912 96.1217 146.292Z" stroke="#29305E" stroke-width="2"/>
<path d="M282.251 394L276.148 368.703L297 384.387C297 384.387 297 370.221 290.897 357.573C286.515 348.49 283.267 342.901 271.571 340.371C263.748 338.679 255.296 342.901 253.771 350.49C251.149 363.54 255.337 373.127 264.451 382.869C270.045 388.849 282.251 394 282.251 394Z" fill="#1B6ED4"/>
<path d="M277.251 399L271.148 373.703L292 389.387C292 389.387 292 375.221 285.897 362.573C281.515 353.49 278.267 347.901 266.571 345.371C258.748 343.679 250.296 347.901 248.771 355.49C246.149 368.54 250.337 378.127 259.451 387.869C265.045 393.849 277.251 399 277.251 399Z" stroke="#29305E" stroke-width="2" stroke-linecap="round" stroke-linejoin="round"/>
</svg>
