<svg width="118" height="32" viewBox="0 0 118 32" fill="none" xmlns="http://www.w3.org/2000/svg">
<path fill-rule="evenodd" clip-rule="evenodd" d="M3.53102 0H25.1548C26.9783 0 28.463 1.48461 28.4791 3.30812V32L24.9935 28.9824L23.0409 27.1911L20.9753 25.287L21.8306 28.2401H3.53102C1.70752 28.2401 0.2229 26.7554 0.2229 24.9319V3.30812C0.2229 1.48461 1.70752 0 3.53102 0ZM17.8608 19.6067C18.3449 20.2037 18.9259 20.8976 18.9259 20.8976C22.3046 20.7906 23.699 18.6992 23.8364 18.4933C23.844 18.4818 23.8477 18.4762 23.8477 18.4771C23.8477 13.3293 21.524 9.14977 21.524 9.14977C19.2164 7.4231 17.0056 7.47152 17.0056 7.47152L16.7796 7.72971C19.523 8.5527 20.7978 9.76299 20.7978 9.76299C19.1195 8.85931 17.4735 8.40746 15.9405 8.22996C14.7786 8.10085 13.6652 8.13314 12.6808 8.26222C12.5963 8.26222 12.5242 8.27452 12.4428 8.28834L12.4065 8.29451C11.8417 8.35906 10.47 8.5527 8.74333 9.31114C8.14625 9.56935 7.79124 9.76299 7.79124 9.76299C7.79124 9.76299 9.11448 8.48815 12.0192 7.66516L11.8578 7.47152C11.8578 7.47152 9.66315 7.4231 7.33939 9.14977C7.33939 9.14977 5.01564 13.3293 5.01564 18.4771C5.01564 18.4771 6.37116 20.8008 9.93748 20.9138C9.93748 20.9138 10.5346 20.2037 11.0187 19.5905C8.96925 18.9773 8.19467 17.7025 8.19467 17.7025C8.19467 17.7025 8.35604 17.8154 8.64651 17.9768C8.65648 17.9768 8.66646 17.983 8.68024 17.9915C8.68876 17.9967 8.69873 18.0029 8.71105 18.0091C8.75947 18.0414 8.80788 18.0575 8.85629 18.0898C9.25972 18.3157 9.66315 18.4932 10.0343 18.6384C10.6959 18.9128 11.4866 19.1548 12.4065 19.3323C13.6168 19.5582 15.0368 19.6389 16.586 19.3485C17.3444 19.2032 18.119 18.9934 18.9259 18.6546C19.4907 18.4448 20.12 18.1382 20.7817 17.7025C20.7817 17.7025 19.9748 19.0096 17.8608 19.6067ZM37.9355 6.90672H43.293C46.1654 6.90672 48.8603 8.3752 48.8442 11.7317V16.5406C48.8442 19.8326 46.1493 21.2688 43.2769 21.2527H37.9193V17.8477H43.406C44.6485 17.8477 45.2133 17.2184 45.2133 16.2824V11.8124C45.2133 10.8765 44.6163 10.2955 43.406 10.2955H41.5018V16.1372L37.9355 12.9259V6.90672ZM71.3717 11.6026V16.5406C71.3717 18.2673 74.6153 18.7514 75.3899 16.7665L78.5527 18.2189C77.3586 20.5426 75.1962 21.4302 73.3888 21.4302C70.581 21.4302 67.7408 19.8003 67.7408 16.5406V11.6026C67.7408 8.3752 70.581 6.71306 73.4534 6.71306C75.2123 6.71306 77.3263 7.45537 78.4882 10.005L75.5351 11.1992C74.5669 9.42411 71.3717 9.82754 71.3717 11.6026ZM59.7045 10.941C59.7529 11.6349 60.4952 12.0383 61.6087 12.2804C64.1584 12.7484 66.7081 13.6359 66.5467 17.1377C66.4337 19.9133 63.5129 21.4302 60.8825 21.4302C59.172 21.4302 57.3485 20.5588 56.0091 18.8321L58.3006 16.6858C59.7368 18.4286 62.8997 18.5093 62.9965 16.9763C63.0288 16.1694 61.7217 15.7015 60.5437 15.5401C58.236 15.1851 56.1382 13.7166 56.1382 10.9894C56.1382 8.18154 58.6879 6.69693 61.3182 6.69693C63.0449 6.69693 64.7232 7.18104 66.2078 8.9884L63.8356 10.8119C62.3349 9.21432 59.7691 9.27887 59.7045 10.941ZM54.4115 21.2365H50.7968V6.90672H54.4115V21.2365ZM106.389 6.90672H111.747C114.619 6.90672 117.314 8.3752 117.314 11.7317V16.5406C117.314 19.8326 114.619 21.2688 111.747 21.2527H106.373V17.8477H111.86C113.102 17.8477 113.667 17.2184 113.667 16.2824V11.8124C113.667 10.8765 113.07 10.2955 111.86 10.2955H109.956V16.1372L106.389 12.9259V6.90672ZM79.5371 11.6349C79.5371 8.32678 82.4902 6.71306 85.4594 6.71306C88.4287 6.71306 91.4141 8.34291 91.4141 11.6349V16.5245C91.4141 19.8003 88.461 21.4463 85.4917 21.4463C82.5063 21.4463 79.5371 19.8003 79.5371 16.5245V11.6349ZM85.4756 18.0898C86.6213 18.0898 87.7832 17.5573 87.7832 16.5245V11.6349C87.7832 10.5214 86.5891 10.0212 85.411 10.0212C84.2814 10.0212 83.1518 10.586 83.1518 11.6349V16.5245C83.1518 17.5895 84.3137 18.0898 85.4756 18.0898ZM99.0631 6.92285C102.016 6.92285 104.308 8.27838 104.388 11.6349C104.388 14.2814 103.307 15.7822 101.58 16.3308L105.486 21.2527H100.967L97.643 16.702H96.9975V21.2527H93.3344V6.92285H99.0631ZM96.9975 13.5714H99.1276C101.403 13.5714 101.403 10.2955 99.1276 10.2955H96.9975V13.5714ZM15.6662 15.2012C15.6662 14.2168 16.3923 13.4261 17.3122 13.4261C18.2158 13.4261 18.9582 14.2168 18.9582 15.2012C18.9582 16.1856 18.232 16.9763 17.3122 16.9763C16.4085 16.9763 15.6662 16.1856 15.6662 15.2012ZM9.7761 15.2012C9.7761 14.2168 10.5023 13.4261 11.4221 13.4261C12.3419 13.4261 13.0842 14.2168 13.0681 15.2012C13.0681 16.1856 12.3419 16.9763 11.4221 16.9763C10.5184 16.9763 9.7761 16.1856 9.7761 15.2012Z" fill="#29305E"/>
</svg>
