<svg width="81" height="32" viewBox="0 0 81 32" fill="none" xmlns="http://www.w3.org/2000/svg">
<path fill-rule="evenodd" clip-rule="evenodd" d="M20.9566 15.2011V0H25.0292V10.0361C25.0292 10.0361 26.7555 7.03621 32.3109 7.03621C38.2434 7.03621 41.7561 11.2263 41.7561 16.436C41.7561 17.0733 41.7066 17.6887 41.6105 18.2789C42.5702 15.585 45.891 14.2542 51.3559 14.2542H56.3013V13.3815C56.3013 10.9296 54.1422 9.65432 51.3559 9.65432C47.0681 9.65432 46.8469 12.3633 46.8469 12.3633H42.6288C42.6288 11.6219 43.1723 6.98165 51.6468 6.98165C54.5334 6.98165 57.6925 7.58432 59.3017 9.9601L58.1025 7.70964H62.8479L69.6581 21.3535L76.4528 7.70964H80.7514L68.375 32H63.866L67.4374 25.2287L59.8533 10.9953C60.1863 11.8115 60.3739 12.7842 60.3739 13.9406V22.7086C60.3739 23.723 60.5194 25.3085 60.5194 25.3085H56.7695C56.7695 25.3085 56.6694 24.0294 56.6694 22.7313C56.6694 22.7313 54.7668 25.9949 48.8605 25.9949C44.5267 25.9949 41.3198 23.9079 41.3198 20.0723C41.3198 19.8572 41.3304 19.6481 41.3514 19.4451C40.2289 23.387 36.8562 25.9449 32.3018 25.9449C26.9553 25.9449 24.989 22.8687 24.989 22.8687C24.989 24.0338 24.8462 25.3085 24.8462 25.3085H20.8664C20.8664 25.3085 20.9566 23.5336 20.9566 22.2695V17.5233H5.01307C5.01307 20.8784 7.5617 23.2722 11.1052 23.2722C15.4559 23.2722 16.3506 20.2177 16.3506 20.2177H20.5232C20.5232 20.2177 19.9712 25.8903 11.3598 25.8903C4.04365 25.8903 0.887268 22.2933 0.887268 16.5814C0.887268 9.37147 5.58127 6.98165 11.2143 6.98165C18.688 6.98165 20.8663 11.8806 20.9566 15.2011ZM37.538 16.436C37.538 12.6282 35.1069 9.79069 31.2836 9.79069C27.0044 9.79069 25.0292 13.1813 25.0292 16.4724C25.0292 20.0043 27.2304 23.1904 31.3109 23.1904C34.7301 23.1904 37.538 20.5192 37.538 16.436ZM16.7415 14.836C16.7415 11.7389 14.4419 9.6725 11.0689 9.6725C8.10684 9.6725 5.10536 11.5481 5.10536 14.836H16.7415ZM56.3013 16.8723V18.0359C56.3013 19.5536 55.3648 23.3267 49.8514 23.3267C46.8323 23.3267 45.5379 21.82 45.5379 20.0723C45.5379 16.8928 49.897 16.8723 56.3013 16.8723Z" fill="#29305E"/>
</svg>
