<svg width="95" height="36" viewBox="0 0 95 36" fill="none" xmlns="http://www.w3.org/2000/svg">
<path fill-rule="evenodd" clip-rule="evenodd" d="M55.0911 11.1948L55.0757 11.1989C53.9916 11.491 52.892 11.7871 51.6194 12.1202L51.5429 12.1411C50.9213 12.3103 50.8565 12.328 50.2781 11.651C49.5843 10.8535 49.0755 10.3374 48.1041 9.86832C45.1902 8.41387 42.3687 8.83615 39.7322 10.572C36.5869 12.6363 34.968 15.6857 35.0143 19.4859C35.0605 23.2391 37.6045 26.3355 41.2586 26.8515C44.4038 27.2738 47.0403 26.1479 49.1217 23.7552C49.4302 23.3727 49.7133 22.9646 50.0274 22.5117C50.1372 22.3533 50.2508 22.1895 50.3706 22.0193H41.4436C40.4723 22.0193 40.241 21.4093 40.5648 20.6119C41.1661 19.1574 42.2761 16.7179 42.9237 15.4981C43.0625 15.2166 43.3862 14.7475 44.0801 14.7475H58.9652C59.6338 12.5992 60.7185 10.5692 62.1653 8.64842C65.5419 4.14458 69.6122 1.79886 75.1165 0.813657C79.8344 -0.0309178 84.2747 0.438336 88.2988 3.20621C91.9529 5.73965 94.2193 9.16451 94.8207 13.6684C95.607 20.0018 93.8031 25.1625 89.5014 29.5726C86.4487 32.7159 82.7021 34.6863 78.4005 35.5777C77.5799 35.7318 76.7594 35.805 75.9519 35.877C75.5305 35.9144 75.1126 35.9517 74.7001 36C70.4911 35.9061 66.652 34.6863 63.4142 31.8715C61.137 29.875 59.5684 27.421 58.7889 24.5643C58.248 25.6723 57.6012 26.7334 56.8461 27.7429C53.5159 32.1998 49.168 34.9678 43.6638 35.7185C39.1309 36.3284 34.9218 35.437 31.2214 32.6221C27.7987 29.9949 25.856 26.5232 25.3472 22.2069C24.7459 17.0932 26.226 12.4956 29.2788 8.46083C32.5628 4.09775 36.9107 1.32974 42.2299 0.34454C46.5778 -0.453068 50.7406 0.0630153 54.4872 2.64329C56.9387 4.28534 58.6963 6.53726 59.8527 9.2583C60.1302 9.68059 59.9452 9.91515 59.3901 10.0559C57.7754 10.4717 56.4447 10.8302 55.0911 11.1948ZM7.16944 10.9003C6.98443 10.9003 6.93816 10.8066 7.0307 10.6658L8.00201 9.39907C8.09452 9.2583 8.32581 9.16451 8.51082 9.16451H25.0235C25.2085 9.16451 25.2547 9.30527 25.1622 9.44603L24.3759 10.6658C24.2834 10.8066 24.0521 10.9473 23.9134 10.9473L7.16944 10.9003ZM0.185018 15.2166C2.51219e-06 15.2166 -0.0462683 15.1228 0.0462733 14.982L1.01759 13.7153C1.1101 13.5746 1.34138 13.4808 1.5264 13.4808H22.6182C22.8032 13.4808 22.8957 13.6215 22.8495 13.7623L22.4794 14.8882C22.4332 15.0758 22.2481 15.1698 22.0631 15.1698L0.185018 15.2166ZM11.2397 19.2513C11.1471 19.3921 11.1934 19.5329 11.3784 19.5329L21.4618 19.5798C21.6006 19.5798 21.7856 19.4391 21.7856 19.2513L21.8781 18.1254C21.8781 17.9378 21.7856 17.797 21.6006 17.797H12.3498C12.1648 17.797 11.9797 17.9378 11.8872 18.0785L11.2397 19.2513ZM85.6765 16.5443C85.6855 16.702 85.6951 16.8681 85.7086 17.0462C85.4773 21.081 83.4884 24.0835 79.8344 26.007C77.3829 27.2737 74.8389 27.4145 72.2949 26.2885C68.9647 24.7872 67.207 21.081 68.0396 17.4216C69.0572 13.0115 71.8324 10.2435 76.134 9.2583C80.5282 8.22614 84.7373 10.8534 85.5698 15.498C85.6353 15.8302 85.6545 16.1623 85.6765 16.5443Z" fill="#00ACD7"/>
</svg>
