<svg width="587" height="489" viewBox="0 0 587 489" fill="none" xmlns="http://www.w3.org/2000/svg">
<path d="M406 215V155L296 219V279L406 215Z" fill="url(#paint0_linear)"/>
<path d="M230 391V451L296 489V429L230 391Z" fill="url(#paint1_linear)"/>
<path d="M296 489V429L587 261V321L296 489Z" fill="url(#paint2_linear)"/>
<path d="M240 251L355 319V378L240 311V251Z" fill="url(#paint3_linear)"/>
<path d="M523 223L587 261L296 429L230 391L355 319L240 251L114 324L48 286L335 116L406 155L296 219L413 287L523 223Z" fill="url(#paint4_linear)"/>
<path d="M48 346V286L114 324V384L48 346Z" fill="url(#paint5_linear)"/>
<path d="M114 324V384L240 311V251L114 324Z" fill="url(#paint6_linear)"/>
<path d="M62 341V306L99 327V362L62 341Z" fill="white"/>
<path opacity="0.3" d="M99 327L62 306L0 340V380L36 400L99 362V327Z" fill="white"/>
<path d="M417 406V366L453 345V386L417 406Z" fill="white"/>
<path opacity="0.3" d="M453 345L417 366V406L496 452L531 433V390L453 345Z" fill="white"/>
<path d="M121 298L88 279V192L122 172L155 191V278L121 298Z" fill="url(#paint7_linear)"/>
<path d="M513 289L479 269V179L513 159L547 179V269L513 289Z" fill="url(#paint8_linear)"/>
<path d="M307 190L274 171V91L307 72L341 91V171L307 190Z" fill="url(#paint9_linear)"/>
<path d="M212 213.868V208L240.43 225.058C241.394 225.636 242.6 225.627 243.556 225.034L271 208V213.887C271 214.579 270.642 215.222 270.055 215.587L243.556 232.034C242.6 232.627 241.394 232.636 240.43 232.058L212.971 215.583C212.369 215.221 212 214.57 212 213.868Z" fill="url(#paint10_linear)"/>
<path d="M240.469 225.111L212.532 208.89C211.859 208.499 211.871 207.522 212.554 207.148L240.534 191.804C241.445 191.304 242.551 191.312 243.455 191.825L270.508 207.155C271.175 207.532 271.186 208.488 270.53 208.882L243.518 225.089C242.582 225.651 241.413 225.659 240.469 225.111Z" fill="url(#paint11_linear)"/>
<path d="M299 369.264V361L339 384L378 361V368.324C378 369.365 377.46 370.333 376.572 370.879L341.534 392.441C339.972 393.402 338.01 393.431 336.421 392.517L300.505 371.865C299.574 371.33 299 370.338 299 369.264Z" fill="url(#paint12_linear)"/>
<path d="M336.489 383.565L300.039 362.736C298.695 361.969 298.695 360.031 300.039 359.264L336.489 338.435C338.042 337.547 339.952 337.557 341.496 338.461L377.051 359.274C378.371 360.046 378.371 361.954 377.051 362.726L341.496 383.539C339.952 384.443 338.042 384.453 336.489 383.565Z" fill="url(#paint13_linear)"/>
<path d="M338 369L323 360V324L338 316L353 325V361L338 369Z" fill="url(#paint14_linear)"/>
<path fill-rule="evenodd" clip-rule="evenodd" d="M378 323C378 328.465 374.118 333.801 366.997 337.882C359.931 341.932 350.037 344.5 339 344.5C327.963 344.5 318.069 341.932 311.003 337.882C303.882 333.801 300 328.465 300 323C300 317.535 303.882 312.2 311.003 308.118C318.069 304.069 327.963 301.5 339 301.5C350.037 301.5 359.931 304.069 366.997 308.118C374.118 312.2 378 317.535 378 323ZM379.991 322.5C379.527 309.752 361.352 299.5 339 299.5C316.648 299.5 298.473 309.752 298.009 322.5H298V323V332V332.5H298.009C298.473 345.248 316.648 355.5 339 355.5C361.352 355.5 379.527 345.248 379.991 332.5H380V332V323V322.5H379.991ZM300 332V330.271C301.374 332.693 303.415 334.943 306 336.949V343.362C302.084 339.939 300 336.005 300 332ZM311.003 346.882C309.927 346.266 308.926 345.62 308 344.95V338.381C314.698 342.812 324.241 345.793 335 346.39V353.387C325.582 352.849 317.203 350.436 311.003 346.882ZM337 346.473C337.663 346.491 338.329 346.5 339 346.5C340.693 346.5 342.361 346.441 344 346.327V353.322C342.364 353.44 340.696 353.5 339 353.5C338.329 353.5 337.662 353.491 337 353.472V346.473ZM366.997 346.882V340.169C367.687 339.798 368.355 339.415 369 339.018V345.645C368.364 346.069 367.696 346.481 366.997 346.882ZM372 336.949V343.362C372.731 342.723 373.398 342.066 374 341.395V335.246C373.376 335.831 372.708 336.399 372 336.949ZM338.5 338.5C355.345 338.5 369 331.561 369 323C369 314.44 355.345 307.5 338.5 307.5C321.655 307.5 308 314.44 308 323C308 331.561 321.655 338.5 338.5 338.5ZM338.5 336.5C330.325 336.5 323.024 334.812 317.839 332.177C314.452 330.456 312.19 328.462 311 326.43C311 326.43 313 313.507 338.5 313.5C364 313.493 366 326.43 366 326.43C364.81 328.462 362.548 330.456 359.161 332.177C353.976 334.812 346.675 336.5 338.5 336.5Z" fill="#29305E"/>
<path fill-rule="evenodd" clip-rule="evenodd" d="M366.997 337.882C374.118 333.801 378 328.465 378 323C378 317.535 374.118 312.2 366.997 308.118C359.931 304.069 350.037 301.5 339 301.5C327.963 301.5 318.069 304.069 311.003 308.118C303.882 312.2 300 317.535 300 323C300 328.465 303.882 333.801 311.003 337.882C318.069 341.932 327.963 344.5 339 344.5C350.037 344.5 359.931 341.932 366.997 337.882ZM338.5 338.5C355.345 338.5 369 331.561 369 323C369 314.44 355.345 307.5 338.5 307.5C321.655 307.5 308 314.44 308 323C308 331.561 321.655 338.5 338.5 338.5Z" fill="white"/>
<path fill-rule="evenodd" clip-rule="evenodd" d="M378 323C378 328.465 374.118 333.801 366.997 337.882C359.931 341.932 350.037 344.5 339 344.5C327.963 344.5 318.069 341.932 311.003 337.882C303.882 333.801 300 328.465 300 323C300 317.535 303.882 312.2 311.003 308.118C318.069 304.069 327.963 301.5 339 301.5C350.037 301.5 359.931 304.069 366.997 308.118C374.118 312.2 378 317.535 378 323ZM338.5 338.5C355.345 338.5 369 331.561 369 323C369 314.44 355.345 307.5 338.5 307.5C321.655 307.5 308 314.44 308 323C308 331.561 321.655 338.5 338.5 338.5Z" fill="white"/>
<path d="M337.5 223.5C321.208 223.5 308 236.708 308 253C308 262.817 312.793 271.515 320.176 276.88C321.021 277.494 321.67 278.477 322.184 279.43C322.729 280.44 323.259 281.682 323.775 283.062C324.588 285.233 325.415 287.871 326.251 290.726C327.575 289.092 329.858 287.79 332.661 287.083L334.643 286.697C335.561 286.568 336.517 286.5 337.5 286.5C338.608 286.5 339.682 286.587 340.705 286.749L342.672 287.17C345.322 287.894 347.477 289.156 348.747 290.724C349.583 287.871 350.409 285.233 351.222 283.063C351.739 281.683 352.268 280.442 352.813 279.431C353.327 278.479 353.976 277.496 354.821 276.882C362.206 271.517 367 262.818 367 253C367 236.708 353.792 223.5 337.5 223.5Z" fill="white"/>
<path fill-rule="evenodd" clip-rule="evenodd" d="M357.263 220.035C356.73 219.89 356.181 220.204 356.035 220.737C355.89 221.269 356.203 221.818 356.734 221.964L356.92 222.024C357.058 222.071 357.268 222.149 357.537 222.264C358.076 222.494 358.854 222.874 359.77 223.466C361.601 224.647 363.994 226.673 366.159 230.041C368.363 233.469 369.706 236.525 370.497 238.715C370.892 239.81 371.149 240.687 371.306 241.285C371.385 241.585 371.438 241.814 371.472 241.965C371.488 242.041 371.5 242.097 371.507 242.133L371.515 242.172L371.516 242.18C371.615 242.723 372.136 243.083 372.679 242.984C373.222 242.885 373.583 242.365 373.484 241.821L373.468 241.74C373.459 241.692 373.444 241.623 373.425 241.535C373.386 241.359 373.326 241.103 373.241 240.778C373.07 240.126 372.795 239.191 372.378 238.036C371.544 235.725 370.137 232.531 367.841 228.959C365.506 225.327 362.899 223.104 360.855 221.785C359.834 221.126 358.955 220.694 358.322 220.424C358.006 220.289 357.751 220.195 357.57 220.133L357.263 220.035ZM374 247C374 246.448 373.552 246 373 246C372.448 246 372 246.448 372 247V255.5C372 256.053 372.448 256.5 373 256.5C373.552 256.5 374 256.053 374 255.5V247ZM308.382 274.714C308.816 274.373 309.445 274.448 309.786 274.882L315.286 281.882C315.628 282.317 315.552 282.945 315.118 283.287C314.684 283.628 314.055 283.552 313.714 283.118L308.214 276.118C307.873 275.684 307.948 275.055 308.382 274.714ZM317.894 287.053C317.647 286.559 317.048 286.361 316.553 286.606C315.748 287.053 316.17 288.077 316.17 288.077C316.212 288.163 316.274 288.288 316.351 288.447C316.506 288.764 316.723 289.212 316.97 289.739C317.467 290.794 318.082 292.149 318.572 293.372C319.045 294.556 319.407 295.877 319.652 296.917C319.773 297.434 319.864 297.874 319.925 298.184C319.955 298.339 319.978 298.461 319.992 298.543C320 298.585 320.005 298.616 320.009 298.636L320.013 298.659L320.014 298.665C320.105 299.21 320.62 299.578 321.164 299.487C321.709 299.396 322.077 298.88 321.986 298.336L321.961 298.19C321.944 298.098 321.92 297.966 321.888 297.801C321.823 297.47 321.727 297.005 321.598 296.459C321.343 295.374 320.955 293.945 320.429 292.629C319.918 291.352 319.283 289.956 318.78 288.887C318.527 288.351 318.307 287.893 318.149 287.57C318.07 287.408 318.007 287.279 317.963 287.191L317.913 287.089L317.894 287.053ZM308 253C308 236.708 321.208 223.5 337.5 223.5C353.792 223.5 367 236.708 367 253C367 262.818 362.206 271.517 354.821 276.882C353.976 277.496 353.327 278.479 352.813 279.431C352.268 280.442 351.739 281.683 351.222 283.063C350.409 285.233 349.583 287.871 348.747 290.724C347.477 289.156 345.322 287.894 342.672 287.17L343.773 276.712C343.904 275.462 344.296 274.253 344.924 273.163L351.765 261.281C352.744 259.581 350.943 257.634 349.172 258.478L343.637 261.113C343.09 261.374 342.439 261.092 342.255 260.515L339.923 253.23C339.327 251.365 336.683 251.38 336.107 253.252L333.824 260.673C333.628 261.308 332.88 261.579 332.323 261.217L327.7 258.213C325.981 257.095 323.894 258.981 324.832 260.805L331.13 273.051C331.712 274.182 332.047 275.424 332.114 276.694L332.661 287.083C329.858 287.79 327.575 289.092 326.251 290.726C325.415 287.871 324.588 285.233 323.775 283.062C323.259 281.682 322.729 280.44 322.184 279.43C321.67 278.477 321.021 277.494 320.176 276.88C312.793 271.515 308 262.817 308 253ZM341.784 276.502L340.705 286.749C339.682 286.587 338.608 286.5 337.5 286.5C336.517 286.5 335.561 286.568 334.643 286.697L334.111 276.589C334.029 275.036 333.62 273.519 332.909 272.136L326.61 259.89L331.233 262.894C332.903 263.98 335.149 263.166 335.735 261.261L338.019 253.84L340.35 261.125C340.903 262.855 342.856 263.7 344.497 262.919L350.032 260.283L343.19 272.165C342.424 273.497 341.944 274.974 341.784 276.502ZM337.5 288.5C336.542 288.5 335.621 288.571 334.749 288.703L334.81 289.861C334.888 291.34 336.11 292.5 337.592 292.5C339.017 292.5 340.213 291.424 340.362 290.006L340.495 288.741C339.552 288.585 338.548 288.5 337.5 288.5ZM332.812 289.966L332.768 289.124C331.594 289.452 330.554 289.894 329.69 290.412C327.749 291.577 327 292.908 327 294C327 295.093 327.749 296.424 329.69 297.589C331.592 298.73 334.348 299.5 337.5 299.5C340.652 299.5 343.408 298.73 345.31 297.589C347.251 296.424 348 295.093 348 294C348 292.908 347.251 291.577 345.31 290.412C344.502 289.927 343.54 289.509 342.459 289.189L342.351 290.215C342.095 292.651 340.041 294.5 337.592 294.5C335.046 294.5 332.946 292.508 332.812 289.966ZM355.997 278.5C354.137 279.852 352.123 286.137 349.986 293.647C349.995 293.764 350 293.882 350 294V294.5V299V304V309V309.5H349.973C349.726 311.749 347.828 313.726 345 315.001V316.5C345 318.157 343.657 319.5 342 319.5H341.973C341.991 319.664 342 319.831 342 320C342 322.486 339.985 324.5 337.5 324.5C335.015 324.5 333 322.486 333 320C333 319.831 333.009 319.664 333.027 319.5H333C331.343 319.5 330 318.157 330 316.5V315.001C327.172 313.726 325.274 311.749 325.027 309.5H325V309V304V299V294.5V294C325 293.882 325.005 293.764 325.014 293.647L325.012 293.648C322.875 286.136 320.861 279.85 319 278.498C311.122 272.772 306 263.484 306 253C306 235.603 320.103 221.5 337.5 221.5C354.897 221.5 369 235.603 369 253C369 263.486 363.877 272.775 355.997 278.5ZM327 304V303.071C329.227 305.135 333.098 306.5 337.5 306.5C341.902 306.5 345.773 305.135 348 303.071V304C348 305.093 347.251 306.424 345.31 307.589C343.408 308.73 340.652 309.5 337.5 309.5C334.348 309.5 331.592 308.73 329.69 307.589C327.749 306.424 327 305.093 327 304ZM327 309V308.071C329.227 310.135 333.098 311.5 337.5 311.5C341.902 311.5 345.773 310.135 348 308.071V309C348 310.093 347.251 311.424 345.31 312.589C343.408 313.73 340.652 314.5 337.5 314.5C334.348 314.5 331.592 313.73 329.69 312.589C327.749 311.424 327 310.093 327 309ZM327 299V298.071C329.227 300.135 333.098 301.5 337.5 301.5C341.902 301.5 345.773 300.135 348 298.071V299C348 300.093 347.251 301.424 345.31 302.589C343.408 303.73 340.652 304.5 337.5 304.5C334.348 304.5 331.592 303.73 329.69 302.589C327.749 301.424 327 300.093 327 299ZM340 320C340 319.829 339.983 319.662 339.95 319.5H335.05C335.017 319.662 335 319.829 335 320C335 321.381 336.119 322.5 337.5 322.5C338.881 322.5 340 321.381 340 320Z" fill="#29305E"/>
<path fill-rule="evenodd" clip-rule="evenodd" d="M337.5 288.5C336.542 288.5 335.621 288.571 334.749 288.703L334.81 289.861C334.888 291.34 336.11 292.5 337.592 292.5C339.017 292.5 340.213 291.424 340.362 290.006L340.495 288.741C339.552 288.585 338.548 288.5 337.5 288.5ZM332.812 289.966L332.768 289.124C331.594 289.452 330.554 289.894 329.69 290.412C327.749 291.577 327 292.908 327 294C327 295.093 327.749 296.424 329.69 297.589C331.592 298.73 334.348 299.5 337.5 299.5C340.652 299.5 343.408 298.73 345.31 297.589C347.251 296.424 348 295.093 348 294C348 292.908 347.251 291.577 345.31 290.412C344.502 289.927 343.54 289.509 342.459 289.189L342.351 290.215C342.095 292.651 340.041 294.5 337.592 294.5C335.046 294.5 332.946 292.508 332.812 289.966ZM327 304V303.071C329.227 305.135 333.098 306.5 337.5 306.5C341.902 306.5 345.773 305.135 348 303.071V304C348 305.093 347.251 306.424 345.31 307.589C343.408 308.73 340.652 309.5 337.5 309.5C334.348 309.5 331.592 308.73 329.69 307.589C327.749 306.424 327 305.093 327 304ZM327 309V308.071C329.227 310.135 333.098 311.5 337.5 311.5C341.902 311.5 345.773 310.135 348 308.071V309C348 310.093 347.251 311.424 345.31 312.589C343.408 313.73 340.652 314.5 337.5 314.5C334.348 314.5 331.592 313.73 329.69 312.589C327.749 311.424 327 310.093 327 309ZM327 299V298.071C329.227 300.135 333.098 301.5 337.5 301.5C341.902 301.5 345.773 300.135 348 298.071V299C348 300.093 347.251 301.424 345.31 302.589C343.408 303.73 340.652 304.5 337.5 304.5C334.348 304.5 331.592 303.73 329.69 302.589C327.749 301.424 327 300.093 327 299Z" fill="#1B6ED4"/>
<path d="M242 214L231 208V182L242 176L252 182V208L242 214Z" fill="url(#paint15_linear)"/>
<path d="M264 187.441C264 189.001 263.093 190.419 261.676 191.073L257.5 193L258 192V176L264 173V187.441Z" fill="black"/>
<path fill-rule="evenodd" clip-rule="evenodd" d="M233.388 146.013C232.327 145.526 231.098 145.525 230.028 146.024L227.292 147.301L255.057 163.167C255.144 162.92 255.328 162.708 255.585 162.59L258.846 161.103L235.368 147.163L232.511 148.86C232.036 149.142 231.422 148.986 231.14 148.511C230.858 148.036 231.015 147.422 231.489 147.14L233.388 146.013ZM263 172.382L259 174.382V172C259.175 172.001 259.353 171.955 259.514 171.858L263 169.766V172.382ZM263 167.434L259 169.834V168.902C259 167.077 258.172 165.371 256.781 164.243L260.939 162.346L261.042 162.407C262.256 163.128 263 164.435 263 165.846V167.434ZM256.813 192.138L256.955 191.853C256.984 191.761 257 191.661 257 191.557L257 191.554L257 176L257 175.997V168.902C257 167.466 256.231 166.141 254.985 165.429L225.496 148.578C224.829 148.197 224 148.679 224 149.447V171.229C224 172.608 224.71 173.89 225.88 174.621L229.07 176.615C230.838 177.719 232.255 179.304 233.157 181.183L236 187.106V184.723C236 183.188 237.659 182.225 238.992 182.987L255.504 192.422C255.976 192.692 256.53 192.529 256.813 192.138Z" fill="white"/>
<path d="M250.839 177.446C247.91 180.375 242.37 179.583 238.464 175.678C234.559 171.773 233.768 166.232 236.697 163.304C239.626 160.375 245.166 161.166 249.071 165.071C252.976 168.977 253.768 174.517 250.839 177.446Z" fill="#1B6ED4"/>
<path fill-rule="evenodd" clip-rule="evenodd" d="M233.196 132.02C233.738 132.128 234.089 132.655 233.981 133.196L232.981 138.196C232.872 138.738 232.345 139.089 231.804 138.981C231.262 138.872 230.911 138.346 231.019 137.804L232.019 132.804C232.128 132.263 232.655 131.911 233.196 132.02ZM226.44 132.659C226.251 132.139 225.677 131.872 225.158 132.06C224.639 132.249 224.371 132.823 224.56 133.342L226.56 138.842C226.749 139.361 227.323 139.629 227.842 139.44C228.361 139.251 228.629 138.678 228.44 138.159L226.44 132.659ZM233.388 146.013C232.327 145.526 231.098 145.525 230.028 146.024L227.292 147.301L255.057 163.167C255.144 162.92 255.328 162.708 255.585 162.59L258.846 161.103L235.368 147.163L232.511 148.86C232.036 149.142 231.422 148.986 231.14 148.511C230.858 148.036 231.015 147.422 231.489 147.14L233.388 146.013ZM229.182 144.212L224.1 146.583C222.925 146.957 222 148.042 222 149.447V171.229C222 173.298 223.066 175.221 224.82 176.317L228.01 178.311C229.456 179.215 230.616 180.511 231.354 182.048L235.148 189.952C235.838 191.391 238 190.899 238 189.303V184.723L254.512 194.159C255.628 194.797 256.897 194.628 257.8 193.954C257.841 193.941 257.88 193.926 257.919 193.908L262.095 191.981C263.866 191.163 265 189.391 265 187.441V165.846C265 163.729 263.884 161.768 262.063 160.687L234.783 144.49C233.077 143.477 230.98 143.373 229.182 144.212ZM256.813 192.138L256.955 191.853C256.984 191.761 257 191.661 257 191.557V191.554V176V175.997V168.902C257 167.466 256.231 166.141 254.985 165.429L225.496 148.578C224.829 148.197 224 148.679 224 149.447V171.229C224 172.608 224.71 173.89 225.88 174.621L229.07 176.615C230.838 177.719 232.255 179.304 233.157 181.183L236 187.106V184.723C236 183.188 237.659 182.225 238.992 182.987L255.504 192.422C255.976 192.692 256.53 192.529 256.813 192.138ZM263 172.382L259 174.382V172C259.175 172.001 259.353 171.955 259.514 171.858L263 169.766V172.382ZM263 167.434L259 169.834V168.902C259 167.077 258.172 165.371 256.781 164.243L260.939 162.346L261.042 162.407C262.256 163.128 263 164.435 263 165.846V167.434ZM246.839 176.446C245.98 177.305 244.532 177.733 242.597 177.367C240.673 177.003 238.487 175.872 236.586 173.971C234.685 172.07 233.554 169.883 233.19 167.96C232.824 166.025 233.252 164.577 234.111 163.718C234.97 162.858 236.418 162.431 238.353 162.797C240.276 163.161 242.463 164.291 244.364 166.193C246.265 168.094 247.396 170.28 247.76 172.204C248.126 174.139 247.698 175.586 246.839 176.446ZM248.253 177.86C245.324 180.789 239.467 179.681 235.172 175.385C230.876 171.089 229.768 165.232 232.697 162.304C235.626 159.375 241.482 160.483 245.778 164.778C250.074 169.074 251.182 174.931 248.253 177.86ZM241 166C241.552 166 242 166.448 242 167V171C242 171.379 241.786 171.725 241.447 171.895L239.447 172.895C238.953 173.142 238.353 172.941 238.106 172.447C237.859 171.953 238.059 171.353 238.553 171.106L240 170.382V167C240 166.448 240.448 166 241 166ZM220.555 138.168C220.095 137.862 219.474 137.986 219.168 138.446C218.862 138.905 218.986 139.526 219.445 139.832L222.445 141.832C222.905 142.139 223.526 142.015 223.832 141.555C224.139 141.096 224.014 140.475 223.555 140.168L220.555 138.168Z" fill="#29305E"/>
<path fill-rule="evenodd" clip-rule="evenodd" d="M82 209V212C82 212.552 82.4477 213 83 213H85.6704C87.8895 213 90.1066 212.929 92.3116 212.679C97.8432 212.052 109.863 210.325 125 206C146 200 154 191 154 191V188L82 209Z" fill="#29305E"/>
<path fill-rule="evenodd" clip-rule="evenodd" d="M82.5 205C82 207 82 209 82 209C82 209.552 82.4477 210 83 210C83 210 99.5 210.5 123 203C146.5 195.5 154 188 154 188L152.5 186L85.3058 207.581C84.6603 207.788 84 207.306 84 206.629L84 201C84 201 83 203 82.5 205Z" fill="white"/>
<path d="M145.246 141.157L145.247 141.157L145.247 141.158L145.247 141.158L145.247 141.158L145.269 141.183L145.293 141.207L145.293 141.207L145.293 141.207L145.293 141.207L145.293 141.207L145.297 141.211L145.315 141.229C145.331 141.246 145.356 141.271 145.389 141.306C145.456 141.375 145.554 141.479 145.677 141.613C145.924 141.882 146.27 142.274 146.661 142.756C147.45 143.726 148.401 145.037 149.106 146.447L153.106 154.447L153.111 154.457L153.116 154.468C155.688 159.33 158.465 164.926 159.954 168.581L159.977 168.637L160.007 168.691L160.007 168.691L160.007 168.691L160.007 168.691L160.009 168.694L160.017 168.709L160.05 168.768C160.078 168.821 160.12 168.898 160.169 168.993C160.27 169.185 160.402 169.446 160.534 169.729C160.667 170.014 160.792 170.306 160.882 170.561C160.926 170.689 160.958 170.797 160.979 170.882C161 170.974 161 171.008 161 171C161 171.133 160.961 171.238 160.808 171.387C160.62 171.571 160.349 171.736 159.948 171.969L159.944 171.971C159.855 172.023 159.76 172.078 159.667 172.135L159.639 172.151L159.613 172.169L157.431 173.677L157.416 173.688L157.4 173.7C153.291 176.782 150.589 180.793 151.484 185.997C151.453 186.091 151.38 186.275 151.21 186.543C150.849 187.113 150.057 188.058 148.344 189.32C144.911 191.85 137.906 195.56 123.699 200.046C101.805 206.96 89.4805 207 85.0315 207C85.0188 206.934 85.0077 206.835 85.0023 206.691C84.9971 206.549 84.998 206.41 84.9991 206.245C84.9996 206.169 85.0001 206.089 85.0001 206V206V205.999V205.998L85.0001 205.991L85.0001 205.966L85.0001 205.867L85.0001 205.5L85.0001 204.25L85.0001 201.084C85.2511 199.629 85.9154 197.073 86.5365 194.82C86.8501 193.682 87.1483 192.637 87.3681 191.877C87.478 191.496 87.5683 191.188 87.631 190.974L87.7034 190.728L87.7222 190.664L87.727 190.648L87.7282 190.644L87.7285 190.643L87.7285 190.643L86.7699 190.358L87.7286 190.643L87.7334 190.626L87.7377 190.61C91.9831 174.299 102.492 160.32 116.981 151.711L128.464 144.888L139.414 139.91L139.431 139.903L139.447 139.894C139.549 139.843 139.65 139.793 139.746 139.744L139.747 139.743L139.295 138.852L139.747 139.743C140.65 139.285 141.246 139 142 139C142.237 139 142.554 139.085 142.94 139.282C143.317 139.474 143.7 139.741 144.054 140.027C144.404 140.311 144.707 140.598 144.922 140.814C145.028 140.922 145.112 141.011 145.168 141.071C145.196 141.101 145.217 141.124 145.23 141.139L145.244 141.155L145.246 141.157ZM84.9464 206.989C84.9464 206.989 84.9472 206.989 84.9485 206.99L84.9464 206.989ZM121.504 159.132L121.445 159.166L121.39 159.207L116.954 162.62C115.535 163.711 114.213 164.924 113.003 166.244L110.261 169.236C109.508 170.057 108.937 171.028 108.584 172.085C108.197 173.246 108 174.462 108 175.686V181C108 183.761 110.239 186 113 186H114.452C116.2 186 117.968 185.858 119.713 185.465C122.818 184.764 128.337 183.311 133.427 180.904C138.252 178.623 142.136 175.935 144.141 174.437C145.251 173.608 146.121 172.541 146.773 171.367L146.854 171.222L145.98 170.737L146.854 171.222C147.943 169.262 148.407 167.016 148.184 164.786L148.178 164.732C148.045 163.4 147.67 162.104 147.072 160.907L145.895 158.553L145.854 158.472L145.8 158.4L142.8 154.4L142.697 154.263L142.555 154.168L141.512 153.473C140.024 152.481 138.172 152.204 136.46 152.718L131.998 154.057C129.742 154.733 127.571 155.665 125.526 156.834L121.504 159.132Z" fill="#D8E0ED" stroke="#29305E" stroke-width="2"/>
<path fill-rule="evenodd" clip-rule="evenodd" d="M124.5 178C129.194 178 133 175.761 133 173V170L124.5 171L116 170V173C116 175.761 119.806 178 124.5 178Z" fill="white"/>
<path fill-rule="evenodd" clip-rule="evenodd" d="M126 175.91V174H128V175.473C128.566 175.288 129.069 175.063 129.496 174.812C130.723 174.09 131 173.382 131 173V172.249L124.5 173.014L118 172.249V173C118 173.382 118.277 174.09 119.504 174.812C120.684 175.506 122.446 176 124.5 176C125.02 176 125.522 175.968 126 175.91ZM116 173C116 175.761 119.806 178 124.5 178C129.194 178 133 175.761 133 173V170L124.5 171L116 170V173Z" fill="#29305E"/>
<path fill-rule="evenodd" clip-rule="evenodd" d="M145.981 157.804C146.089 158.345 145.738 158.872 145.196 158.981C145.196 158.981 145.196 158.981 145.196 158.981L145.193 158.981L145.179 158.984L145.119 158.997C145.065 159.008 144.982 159.026 144.871 159.05C144.65 159.1 144.317 159.176 143.879 159.284C143.003 159.499 141.706 159.838 140.034 160.334C136.69 161.325 131.849 162.938 125.885 165.423C120.988 167.463 116.687 170.287 113.602 172.611C112.062 173.771 110.831 174.802 109.987 175.541C109.565 175.911 109.24 176.207 109.022 176.409C108.913 176.511 108.831 176.588 108.777 176.64C108.75 176.666 108.73 176.686 108.717 176.698L108.702 176.712L108.699 176.715C108.305 177.101 107.671 177.094 107.285 176.699C106.899 176.304 106.906 175.671 107.301 175.285L108 176C107.301 175.285 107.301 175.285 107.301 175.285L107.303 175.283L107.309 175.278L107.327 175.26C107.343 175.244 107.366 175.222 107.396 175.193C107.457 175.135 107.546 175.052 107.661 174.944C107.892 174.729 108.232 174.42 108.669 174.037C109.544 173.271 110.813 172.208 112.398 171.014C115.563 168.629 120.012 165.703 125.115 163.577C131.151 161.062 136.06 159.425 139.466 158.416C141.169 157.912 142.497 157.564 143.402 157.341C143.855 157.23 144.202 157.15 144.437 157.098C144.555 157.072 144.645 157.053 144.706 157.04L144.777 157.025L144.796 157.021L144.803 157.02C144.803 157.02 144.804 157.019 145 158L144.803 157.02C145.344 156.911 145.872 157.262 145.981 157.804Z" fill="#29305E"/>
<path d="M132 170C132 170.882 131.386 171.86 130.003 172.674C128.644 173.473 126.701 174 124.5 174C122.299 174 120.356 173.473 118.997 172.674C117.614 171.86 117 170.882 117 170C117 169.118 117.614 168.14 118.997 167.326C120.356 166.527 122.299 166 124.5 166C126.701 166 128.644 166.527 130.003 167.326C131.386 168.14 132 169.118 132 170Z" fill="#1B6ED4" stroke="#29305E" stroke-width="2"/>
<path d="M312 128.66L246.502 90.8172C243.166 88.8902 243.166 84.0694 246.501 82.1424L286.37 59.1079C287.13 58.6689 287.991 58.4378 288.869 58.4378H291.128C291.927 58.4378 292.403 57.5463 291.96 56.8808L291.836 56.6948C291.289 55.8723 290.997 54.9058 290.997 53.9172V5.01496C290.997 1.1609 295.162 -1.24842 298.495 0.677539L363.997 38.5218C367.093 40.3104 369 43.6175 369 47.1966V92.3985C369 94.2952 367.93 96.0291 366.236 96.8773L365.764 97.1137C364.07 97.9619 363 99.6958 363 101.593V102.077C363 103.866 362.046 105.52 360.498 106.414L321.995 128.66C318.902 130.447 315.093 130.447 312 128.66Z" fill="#D8E0ED"/>
<path fill-rule="evenodd" clip-rule="evenodd" d="M296.969 3.26456L292.997 1.00812C294.507 -0.120784 296.631 -0.399468 298.495 0.677539L363.997 38.5218C367.093 40.3104 369 43.6175 369 47.1966V92.3985C369 94.2952 367.93 96.0291 366.236 96.8773L366 96.9955V92.3985V47.1966C366 44.6912 364.665 42.3763 362.498 41.1243L296.996 3.27999L296.969 3.26456ZM358.999 103.812L320.496 126.057C318.331 127.308 315.664 127.308 313.499 126.057L248.001 88.2147L244.025 85.979C243.843 87.8253 244.669 89.7582 246.502 90.8172L312 128.66C315.093 130.447 318.902 130.447 321.995 128.66L360.498 106.414C362.046 105.52 363 103.866 363 102.077V101.593L358.999 103.812Z" fill="#29305E"/>
<path d="M295 53.1469V11.5049C295 9.9563 296.684 8.99523 298.017 9.78304L358.544 45.5485C360.066 46.4481 361 48.0849 361 49.8531V91.4951C361 93.0437 359.316 94.0048 357.983 93.217L297.456 57.4515C295.934 56.5519 295 54.9151 295 53.1469Z" fill="#2F80ED"/>
<path d="M290.517 64.337L270.148 75.3049C268.771 76.0463 268.74 78.0101 270.092 78.7954L326.534 111.568C328.063 112.456 329.946 112.47 331.488 111.607L350.965 100.7C352.311 99.9457 352.333 98.0162 351.004 97.2321L295.429 64.4333C293.921 63.5437 292.058 63.5071 290.517 64.337Z" fill="#2F80ED"/>
<path fill-rule="evenodd" clip-rule="evenodd" d="M301.127 25.5113C301.397 25.0295 302.007 24.8576 302.489 25.1274L308.19 28.3204C308.672 28.5903 308.844 29.1996 308.574 29.6815C308.304 30.1634 307.695 30.3353 307.213 30.0654L301.511 26.8724C301.029 26.6026 300.858 25.9932 301.127 25.5113ZM312.092 31.6517C312.362 31.1698 312.972 30.9979 313.453 31.2678L324.857 37.6537C325.339 37.9236 325.511 38.533 325.241 39.0149C324.971 39.4967 324.362 39.6686 323.88 39.3988L312.476 33.0128C311.994 32.7429 311.822 32.1336 312.092 31.6517ZM328.759 40.985C329.029 40.5031 329.638 40.3313 330.12 40.6011L341.524 46.9871C342.005 47.2569 342.177 47.8663 341.908 48.3482C341.638 48.8301 341.028 49.0019 340.546 48.7321L329.143 42.3461C328.661 42.0763 328.489 41.4669 328.759 40.985ZM345.426 50.3183C345.696 49.8365 346.305 49.6646 346.787 49.9344L352.489 53.1274C352.97 53.3973 353.142 54.0067 352.872 54.4885C352.603 54.9704 351.993 55.1423 351.511 54.8724L345.81 51.6795C345.328 51.4096 345.156 50.8002 345.426 50.3183ZM301.127 35.5113C301.397 35.0295 302.007 34.8576 302.489 35.1274L308.17 38.3092C308.652 38.5791 308.824 39.1885 308.554 39.6704C308.284 40.1522 307.675 40.3241 307.193 40.0543L301.511 36.8724C301.029 36.6026 300.858 35.9932 301.127 35.5113ZM312.112 41.6628C312.382 41.181 312.992 41.0091 313.473 41.2789L324.837 47.6426C325.319 47.9124 325.491 48.5218 325.221 49.0037C324.951 49.4856 324.342 49.6574 323.86 49.3876L312.496 43.024C312.014 42.7541 311.842 42.1447 312.112 41.6628ZM328.779 50.9962C329.049 50.5143 329.658 50.3424 330.14 50.6123L341.504 56.9759C341.986 57.2458 342.157 57.8552 341.888 58.337C341.618 58.8189 341.008 58.9908 340.526 58.7209L329.163 52.3573C328.681 52.0874 328.509 51.4781 328.779 50.9962ZM345.446 60.3295C345.715 59.8476 346.325 59.6758 346.807 59.9456L352.489 63.1274C352.97 63.3973 353.142 64.0067 352.872 64.4885C352.603 64.9704 351.993 65.1423 351.511 64.8724L345.83 61.6906C345.348 61.4208 345.176 60.8114 345.446 60.3295ZM302.481 45.1231C301.997 44.8576 301.389 45.0349 301.123 45.5191C300.858 46.0034 301.035 46.6112 301.519 46.8768L307.247 50.0181C307.732 50.2836 308.339 50.1063 308.605 49.6221C308.871 49.1378 308.693 48.53 308.209 48.2644L302.481 45.1231ZM312.253 50.4818C311.768 50.2163 311.16 50.3936 310.895 50.8778C310.629 51.3621 310.807 51.9699 311.291 52.2355L322.747 58.5181C323.232 58.7836 323.839 58.6063 324.105 58.1221C324.371 57.6378 324.193 57.03 323.709 56.7644L312.253 50.4818ZM327.753 58.9818C327.268 58.7163 326.66 58.8936 326.395 59.3778C326.129 59.8621 326.307 60.4699 326.791 60.7355L332.519 63.8768C333.003 64.1423 333.611 63.965 333.877 63.4808C334.142 62.9965 333.965 62.3887 333.481 62.1231L327.753 58.9818Z" fill="#29305E"/>
<path d="M466 187.108V183.5L546 229L539.919 231.606C539.34 231.854 538.679 231.815 538.134 231.501L468.507 191.442C466.956 190.55 466 188.897 466 187.108Z" fill="#29305E"/>
<path d="M579.999 220.535L556 234.381L555.018 206.381L554 177.381L454 118.381L479.012 103.559C480.242 102.83 481.768 102.813 483.013 103.514L577.923 156.926C580.442 158.343 582 161.008 582 163.898V190.381V217.071C582 218.5 581.237 219.821 579.999 220.535Z" fill="#D8E0ED"/>
<path fill-rule="evenodd" clip-rule="evenodd" d="M555.018 206.381L556 234.381L579.999 220.535C581.237 219.821 582 218.5 582 217.071V190.381L555.018 206.381Z" fill="#29305E"/>
<path d="M557.882 230.986L578.999 218.803C579.618 218.446 580 217.785 580 217.071V163.898C580 161.731 578.831 159.732 576.943 158.669L482.032 105.257C481.41 104.906 480.647 104.915 480.032 105.279L457.929 118.377L456.5 119.381L454 118.377L455.859 117.279L479.012 103.559C480.242 102.83 481.767 102.813 483.013 103.514L577.923 156.926C580.442 158.343 582 161.008 582 163.898V217.071C582 218.5 581.237 219.821 579.999 220.535L557.882 233.295L556 234.381V231.881L557.882 230.986Z" fill="#29305E"/>
<path d="M453 171.761V119.844C453 118.305 454.666 117.342 455.999 118.112L552.998 174.072C555.474 175.501 557 178.143 557 181.002V232.918C557 234.458 555.334 235.42 554.001 234.651L457.002 178.69C454.526 177.261 453 174.62 453 171.761Z" fill="white"/>
<path fill-rule="evenodd" clip-rule="evenodd" d="M455 119.844V171.761C455 173.905 456.144 175.886 458.002 176.958L555 232.918L555 181.002C555 178.857 553.856 176.876 551.998 175.805L455 119.844L455 119.844ZM453 119.844V171.761C453 174.62 454.526 177.261 457.002 178.69L554.001 234.651C555.334 235.42 557 234.458 557 232.918V181.002C557 178.143 555.474 175.501 552.998 174.072L455.999 118.112C454.666 117.342 453 118.305 453 119.844Z" fill="#29305E"/>
<path fill-rule="evenodd" clip-rule="evenodd" d="M496.863 117.876C497.142 118.352 496.982 118.965 496.505 119.244L489.672 123.244C489.195 123.523 488.583 123.363 488.304 122.886C488.025 122.41 488.185 121.797 488.661 121.518L495.495 117.518C495.971 117.239 496.584 117.399 496.863 117.876ZM483.196 125.876C483.475 126.352 483.315 126.965 482.838 127.244L476.005 131.244C475.528 131.523 474.916 131.363 474.637 130.886C474.358 130.41 474.518 129.797 474.995 129.518L481.828 125.518C482.305 125.239 482.917 125.399 483.196 125.876Z" fill="#29305E"/>
<path fill-rule="evenodd" clip-rule="evenodd" d="M573.862 182.874C574.142 183.35 573.983 183.963 573.507 184.243L556.507 194.243C556.031 194.523 555.418 194.364 555.138 193.888C554.858 193.412 555.017 192.799 555.493 192.519L572.493 182.519C572.969 182.239 573.582 182.398 573.862 182.874Z" fill="#29305E"/>
<path fill-rule="evenodd" clip-rule="evenodd" d="M478.142 153.867C478.427 153.393 479.041 153.239 479.514 153.524L484.514 156.524C484.816 156.704 485 157.03 485 157.381V162.381C485 162.741 484.806 163.074 484.493 163.251C484.179 163.429 483.794 163.424 483.485 163.239L480 161.147V163.815L484.514 166.524C484.988 166.808 485.142 167.422 484.857 167.896C484.573 168.369 483.959 168.523 483.485 168.239L478.485 165.239C478.184 165.058 478 164.732 478 164.381V159.381C478 159.021 478.194 158.688 478.507 158.511C478.821 158.333 479.205 158.338 479.514 158.524L483 160.615V157.947L478.485 155.239C478.012 154.954 477.858 154.34 478.142 153.867Z" fill="#EB5757"/>
<path fill-rule="evenodd" clip-rule="evenodd" d="M490.507 160.511C490.821 160.333 491.206 160.338 491.514 160.524L496.514 163.524C496.816 163.704 497 164.03 497 164.381V174.381C497 174.741 496.806 175.074 496.493 175.251C496.179 175.429 495.794 175.424 495.486 175.239L490.486 172.239C490.184 172.058 490 171.732 490 171.381V161.381C490 161.021 490.194 160.688 490.507 160.511ZM492 163.147V165.815L495 167.615V164.947L492 163.147ZM495 169.947L492 168.147V170.815L495 172.615V169.947Z" fill="#EB5757"/>
<path fill-rule="evenodd" clip-rule="evenodd" d="M514.507 174.511C514.821 174.333 515.205 174.338 515.514 174.524L520.514 177.524C520.816 177.704 521 178.03 521 178.381V188.381C521 188.741 520.806 189.074 520.493 189.251C520.179 189.429 519.794 189.424 519.485 189.239L514.485 186.239C514.012 185.954 513.858 185.34 514.142 184.867C514.427 184.393 515.041 184.239 515.514 184.524L519 186.615V183.947L514.485 181.239C514.184 181.058 514 180.732 514 180.381V175.381C514 175.021 514.194 174.688 514.507 174.511ZM519 181.615V178.947L516 177.147V179.815L519 181.615Z" fill="#EB5757"/>
<path fill-rule="evenodd" clip-rule="evenodd" d="M526.507 181.511C526.821 181.333 527.205 181.338 527.514 181.524L532.514 184.524C532.988 184.808 533.142 185.422 532.857 185.896C532.573 186.369 531.959 186.523 531.485 186.239L528 184.147V186.815L532.514 189.524C532.816 189.704 533 190.03 533 190.381V195.381C533 195.741 532.806 196.074 532.493 196.251C532.179 196.429 531.794 196.424 531.485 196.239L526.485 193.239C526.012 192.954 525.858 192.34 526.142 191.867C526.427 191.393 527.041 191.239 527.514 191.524L531 193.615V190.947L526.485 188.239C526.184 188.058 526 187.732 526 187.381V182.381C526 182.021 526.194 181.688 526.507 181.511Z" fill="#EB5757"/>
<path fill-rule="evenodd" clip-rule="evenodd" d="M502.507 167.511C502.821 167.333 503.206 167.338 503.514 167.524L508.514 170.524C508.816 170.704 509 171.03 509 171.381V181.381C509 181.741 508.806 182.074 508.493 182.251C508.179 182.429 507.794 182.424 507.486 182.239L502.486 179.239C502.184 179.058 502 178.732 502 178.381V168.381C502 168.021 502.194 167.688 502.507 167.511ZM504 170.147V177.815L507 179.615V171.947L504 170.147Z" fill="#EB5757"/>
<path fill-rule="evenodd" clip-rule="evenodd" d="M463 174.649V133.003C463 131.459 464.674 130.498 466.008 131.275L544.519 177.074C546.055 177.97 547 179.614 547 181.393V223.039C547 224.582 545.326 225.544 543.992 224.766L465.481 178.968C463.945 178.072 463 176.427 463 174.649ZM545 181.393C545 180.326 544.433 179.339 543.512 178.801L470 135.92V170.624C470 172.416 470.959 174.071 472.513 174.962L545 216.521L545 181.393Z" fill="#29305E"/>
<path fill-rule="evenodd" clip-rule="evenodd" d="M465.5 177.387C465.224 176.909 465.388 176.297 465.866 176.021L469.33 174.021C469.808 173.745 470.42 173.909 470.696 174.387C470.972 174.865 470.808 175.477 470.33 175.753L466.866 177.753C466.388 178.029 465.776 177.865 465.5 177.387Z" fill="white"/>
<path fill-rule="evenodd" clip-rule="evenodd" d="M510.652 122.556C507.778 120.88 504.22 120.902 501.368 122.613C499.418 123.783 498.631 125.936 499 127.9V134.854C499 135.919 499.564 136.904 500.483 137.442L528.494 153.863L528.608 153.921C528.634 153.933 528.669 153.948 528.711 153.965C528.796 154 528.913 154.045 529.06 154.092C529.355 154.187 529.773 154.295 530.305 154.366C531.374 154.509 532.887 154.501 534.775 153.962C536.816 153.378 537.905 152.177 538.457 151.072C538.726 150.534 538.861 150.034 538.929 149.666C538.963 149.48 538.981 149.326 538.99 149.212C538.995 149.155 538.997 149.108 538.998 149.072L539 149V142.999C539.373 141.013 538.563 138.837 536.579 137.68L510.652 122.556ZM528 146.79C527.779 146.684 527.562 146.569 527.348 146.444L501.421 131.32C501.274 131.234 501.134 131.143 501 131.047V134.854C501 135.209 501.188 135.537 501.494 135.717L528 151.255V146.79ZM502.397 124.328C504.623 122.992 507.401 122.975 509.644 124.283L535.571 139.407C537.58 140.579 537.597 143.475 535.603 144.672C533.376 146.008 530.599 146.025 528.356 144.716L502.429 129.593C500.42 128.421 500.402 125.525 502.397 124.328Z" fill="#29305E"/>
<path fill-rule="evenodd" clip-rule="evenodd" d="M502.397 124.328C504.623 122.992 507.401 122.975 509.644 124.283L535.571 139.407C537.58 140.579 537.597 143.475 535.603 144.672C533.376 146.008 530.599 146.025 528.356 144.716L502.429 129.593C500.42 128.421 500.402 125.525 502.397 124.328Z" fill="#1B6ED4"/>
<path d="M509.644 124.283C507.401 122.975 504.623 122.992 502.397 124.328C500.402 125.525 500.42 128.421 502.429 129.593L528.356 144.716C530.599 146.025 533.376 146.008 535.603 144.672C537.597 143.475 537.58 140.579 535.571 139.407L509.644 124.283Z" fill="#1B6ED4"/>
<defs>
<linearGradient id="paint0_linear" x1="296" y1="220.764" x2="406.141" y2="218.395" gradientUnits="userSpaceOnUse">
<stop stop-color="#18868D"/>
<stop offset="1" stop-color="#74B6BB"/>
</linearGradient>
<linearGradient id="paint1_linear" x1="230" y1="442.974" x2="296.097" y2="441.895" gradientUnits="userSpaceOnUse">
<stop stop-color="#18868D"/>
<stop offset="1" stop-color="#74B6BB"/>
</linearGradient>
<linearGradient id="paint2_linear" x1="486.5" y1="385.5" x2="458.272" y2="335.285" gradientUnits="userSpaceOnUse">
<stop stop-color="#18868D"/>
<stop offset="1" stop-color="#74B6BB"/>
</linearGradient>
<linearGradient id="paint3_linear" x1="240" y1="318.355" x2="355.145" y2="315.827" gradientUnits="userSpaceOnUse">
<stop stop-color="#18868D"/>
<stop offset="1" stop-color="#74B6BB"/>
</linearGradient>
<linearGradient id="paint4_linear" x1="48" y1="282" x2="587" y2="259.5" gradientUnits="userSpaceOnUse">
<stop stop-color="#18868D"/>
<stop offset="1" stop-color="#74B6BB"/>
</linearGradient>
<linearGradient id="paint5_linear" x1="114" y1="384" x2="57.3069" y2="280.883" gradientUnits="userSpaceOnUse">
<stop stop-color="#18868D"/>
<stop offset="1" stop-color="#74B6BB"/>
</linearGradient>
<linearGradient id="paint6_linear" x1="114" y1="384" x2="246.655" y2="258.007" gradientUnits="userSpaceOnUse">
<stop stop-color="#18868D"/>
<stop offset="1" stop-color="#74B6BB"/>
</linearGradient>
<linearGradient id="paint7_linear" x1="121.5" y1="172" x2="121.5" y2="298" gradientUnits="userSpaceOnUse">
<stop stop-color="white" stop-opacity="0"/>
<stop offset="1" stop-color="#F6D258"/>
</linearGradient>
<linearGradient id="paint8_linear" x1="513" y1="159" x2="513" y2="289" gradientUnits="userSpaceOnUse">
<stop stop-color="white" stop-opacity="0"/>
<stop offset="1" stop-color="#F6D258"/>
</linearGradient>
<linearGradient id="paint9_linear" x1="307.5" y1="72" x2="307.5" y2="190" gradientUnits="userSpaceOnUse">
<stop stop-color="white" stop-opacity="0"/>
<stop offset="1" stop-color="#F6D258"/>
</linearGradient>
<linearGradient id="paint10_linear" x1="212" y1="211.409" x2="271.001" y2="210.305" gradientUnits="userSpaceOnUse">
<stop stop-color="white"/>
<stop offset="0.156181" stop-color="#1963AD"/>
<stop offset="0.541667" stop-color="#14395E"/>
<stop offset="1" stop-color="#14395E"/>
</linearGradient>
<linearGradient id="paint11_linear" x1="211" y1="208.5" x2="272" y2="208.5" gradientUnits="userSpaceOnUse">
<stop stop-color="#182939"/>
<stop offset="1" stop-color="#182939"/>
</linearGradient>
<linearGradient id="paint12_linear" x1="299" y1="365.5" x2="378" y2="364" gradientUnits="userSpaceOnUse">
<stop stop-color="white"/>
<stop offset="0.156181" stop-color="#1963AD"/>
<stop offset="0.541667" stop-color="#14395E"/>
<stop offset="1" stop-color="#14395E"/>
</linearGradient>
<linearGradient id="paint13_linear" x1="297" y1="361" x2="380" y2="361" gradientUnits="userSpaceOnUse">
<stop stop-color="#182939"/>
<stop offset="1" stop-color="#182939"/>
</linearGradient>
<linearGradient id="paint14_linear" x1="338" y1="316" x2="338" y2="369" gradientUnits="userSpaceOnUse">
<stop stop-color="white" stop-opacity="0"/>
<stop offset="1" stop-color="#F6D258"/>
</linearGradient>
<linearGradient id="paint15_linear" x1="241.5" y1="176" x2="241.5" y2="214" gradientUnits="userSpaceOnUse">
<stop stop-color="white" stop-opacity="0"/>
<stop offset="1" stop-color="#F6D258"/>
</linearGradient>
</defs>
</svg>
