<svg width="49" height="32" viewBox="0 0 49 32" fill="none" xmlns="http://www.w3.org/2000/svg">
<path fill-rule="evenodd" clip-rule="evenodd" d="M14.6112 21.4094V13.5732L16.6725 13.5732C17.4053 13.5732 17.7091 13.9344 17.7091 14.5213V21.4094H20.1991V14.5084C20.1991 13.1073 19.454 11.5648 17.2666 11.5648L12.1168 11.5597V21.4094H14.6112ZM29.7852 14.4889C30.0608 13.8938 30.7207 13.4555 31.5733 13.4555C32.8504 13.4555 33.3349 14.4889 33.3842 15.5573H29.5465C29.5658 15.1199 29.6219 14.8461 29.7852 14.4889ZM31.7558 19.47C30.3397 19.47 29.5465 18.5309 29.5465 17.255H35.8741V16.3565C35.8741 13.5417 34.3388 11.3928 31.6814 11.3928C29.0596 11.3928 27.0644 13.2283 27.0644 16.4706C27.0644 20.2653 29.3496 21.5673 31.7375 21.5673C33.5613 21.5673 34.5964 20.9759 35.5829 20.002L34.0422 18.5309C33.4052 19.1647 32.8576 19.47 31.7558 19.47ZM22.0643 18.5853C22.0643 19.9825 22.9265 21.3971 24.9587 21.3971H26.4324V19.319H25.4192C24.8251 19.319 24.5549 19.0014 24.5549 18.4292V13.5732H26.4324V11.5597H24.5549V8.87609H22.0643V18.5853ZM7.3857 10.1985H9.89728V7.81273H7.3857V10.1985ZM7.38302 18.875C7.38302 20.1914 8.02277 21.3322 9.9036 21.5129L9.90362 11.5597H7.38574L7.38302 18.875ZM37.3245 18.6678C37.3245 19.9825 37.9612 21.1215 39.8382 21.3025V7.4732H37.3245V18.6678ZM10.8922 5.74126C24.7885 -2.71843 46.3477 -2.01533 48.6257 9.09105C49.8458 15.041 45.6437 19.9017 41.5464 21.4007V18.7486C44.9505 16.7216 46.8565 13.195 46.2564 9.81246C44.4626 -0.417 24.7744 -0.459041 10.8922 6.67522V5.74126ZM2.38238 20.5232C3.78076 28.0174 13.7748 29.4095 23.3655 28.5229C29.2599 27.9772 36.3371 25.8712 40.6139 23.3245V26.9997C35.9006 29.5866 29.1209 31.2522 23.941 31.7577C10.849 33.03 2.2716 29.1987 0.668754 22.4379C-0.587046 17.1656 1.5943 12.7035 5.61356 9.17901V10.4798C3.38088 12.9125 1.69789 16.8287 2.38238 20.5232ZM42.5099 8.05593C42.6727 8.05593 42.7438 8.09466 42.7438 8.21655V8.23666C42.7438 8.35074 42.6727 8.40509 42.5099 8.40509C42.5002 8.40509 42.4684 8.40409 42.4356 8.40308C42.4007 8.40199 42.3647 8.40087 42.3529 8.40087V8.05593H42.5099ZM42.8027 9.07185H42.9888C43.0185 9.07185 43.029 9.05233 43.029 9.03492C43.029 9.02442 43.0229 9.01212 43.0212 9.00309L42.7579 8.55789C42.8966 8.51135 42.9861 8.41648 42.9861 8.23666V8.21655C42.9861 7.92595 42.7991 7.83467 42.4898 7.83467C42.4028 7.83467 42.2413 7.84008 42.1818 7.84789C42.129 7.856 42.1047 7.88212 42.1047 7.94456V9.02442C42.1047 9.04724 42.1257 9.07185 42.1467 9.07185H42.3151C42.3451 9.07185 42.3607 9.04724 42.3607 9.02442V8.59752H42.4748C42.4835 8.59752 42.5054 8.60804 42.5099 8.61675L42.7639 9.04724C42.7711 9.06133 42.7858 9.07185 42.8027 9.07185ZM41.7183 8.47353C41.7183 8.01811 42.0887 7.63983 42.5469 7.63983C43.0026 7.63983 43.3767 8.01811 43.3767 8.47353C43.3767 8.92954 43.0026 9.30182 42.5469 9.30182C42.0887 9.30182 41.7183 8.92954 41.7183 8.47353ZM41.5463 8.47353C41.5463 9.02442 41.9903 9.47354 42.5469 9.47354C43.0975 9.47354 43.5499 9.02442 43.5499 8.47353C43.5499 7.92353 43.0975 7.47322 42.5469 7.47322C41.9903 7.47322 41.5463 7.92353 41.5463 8.47353Z" fill="#29305E"/>
</svg>
