<svg width="64" height="64" viewBox="0 0 64 64" fill="none" xmlns="http://www.w3.org/2000/svg">
<path d="M4.28738 48L31.9999 64L59.7124 48V16L31.9999 0.00125122L4.28738 16.0013V48Z" fill="url(#paint0_linear)"/>
<path d="M29.1393 3.85498L9.04681 15.4557C9.08697 15.8125 9.08697 16.1726 9.04681 16.5294L29.1406 28.1302C30.8348 26.88 33.1459 26.88 34.8402 28.1302L54.9339 16.5293C54.8938 16.1725 54.8936 15.8126 54.9338 15.4558L34.8413 3.85503C33.1471 5.10516 30.8358 5.10516 29.1414 3.85503L29.1393 3.85498ZM56.8631 19.7337L36.7481 31.4637C36.9836 33.5561 35.8279 35.5576 33.8982 36.3999L33.9208 59.4724C34.2498 59.616 34.5616 59.7959 34.8505 60.0091L54.9443 48.4085C54.7088 46.3161 55.8644 44.3145 57.7941 43.4722V20.271C57.4651 20.1274 57.1531 19.9474 56.8642 19.7342L56.8631 19.7337ZM7.13681 19.8627C6.84791 20.0758 6.53614 20.256 6.20706 20.3996V43.6008C8.13681 44.4431 9.29244 46.4446 9.05694 48.537L29.1494 60.1377C29.4383 59.9245 29.7503 59.7444 30.0794 59.6008V36.3995C28.1496 35.5573 26.994 33.5558 27.2295 31.4634L7.13699 19.8622L7.13681 19.8627Z" fill="url(#paint1_linear)"/>
<path d="M32.0002 64L59.7127 48V16L32.0002 32V64Z" fill="black" fill-opacity="0.25098"/>
<path d="M32.0002 64V32L4.28767 16V48L32.0002 64Z" fill="black" fill-opacity="0.039216"/>
<path d="M4.28738 16L31.9999 32L59.7124 16L31.9999 0L4.28738 16Z" fill="black" fill-opacity="0.13018"/>
<path d="M12.8863 23.25H9.23634V40.9H12.8863V23.25Z" fill="white"/>
<path d="M19.2464 40.9V34.425C20.1464 34.5 21.0464 34.5 21.7964 34.5C26.9964 34.5 28.4964 31.925 28.4964 28.75C28.4964 24.9 25.7464 23.25 21.4964 23.25H15.5964V40.9H19.2464ZM21.2214 31.925C20.5464 31.925 19.5464 31.925 19.2464 31.9V25.9H21.5214C23.7214 25.9 24.9714 26.95 24.9714 28.875V28.925C24.9714 30.425 24.4214 31.925 21.2214 31.925Z" fill="white"/>
<path d="M40.9939 23.25H29.9189V40.9H33.5689V33.125H40.4939V30.475H33.5439V25.925H40.7439L40.9939 23.25Z" fill="white"/>
<path d="M52.9389 26.7L53.8889 24.25C52.4639 23.225 50.5389 22.85 48.1139 22.85C44.5889 22.85 41.6889 24.5 41.6889 27.875C41.6889 30.9 43.9139 32.1 46.1389 32.825L48.3639 33.575C49.8889 34.1 51.1389 34.6 51.1389 36.25C51.1389 37.75 49.8389 38.35 47.8639 38.35C45.8639 38.35 43.7139 37.75 42.4889 36.975L41.5389 39.625C43.1389 40.65 45.1639 41.15 47.8889 41.15C51.7639 41.15 54.7639 39.45 54.7639 35.825C54.7639 32.45 52.1889 31.375 49.5889 30.5L47.1639 29.7C46.1139 29.35 45.3139 28.875 45.3139 27.525C45.3139 26.15 46.4389 25.6 48.1139 25.6C50.1639 25.6 51.7639 25.975 52.9389 26.7Z" fill="white"/>
<defs>
<linearGradient id="paint0_linear" x1="4.28738" y1="32" x2="59.713" y2="32" gradientUnits="userSpaceOnUse">
<stop stop-color="#4A9EA1"/>
</linearGradient>
<linearGradient id="paint1_linear" x1="6.20744" y1="31.9962" x2="57.7931" y2="31.9962" gradientUnits="userSpaceOnUse">
<stop stop-color="#63D3D7"/>
</linearGradient>
</defs>
</svg>
