<svg width="35" height="64" viewBox="0 0 35 64" fill="none" xmlns="http://www.w3.org/2000/svg">
<path d="M32.9615 50.4688H32.7204V50.3339H33.3695V50.4688H33.13V51.1418H32.9615V50.4688ZM34.2562 50.5039H34.2524L34.0135 51.1419H33.9042L33.6668 50.5039H33.6639V51.1419H33.5051V50.334H33.7387L33.9588 50.9061L34.1782 50.334H34.411V51.1419H34.256V50.5039H34.2562Z" fill="#E76F00"/>
<path d="M11.377 33.9488C11.377 33.9488 9.6995 34.9243 12.5709 35.2544C16.0495 35.6513 17.8274 35.5944 21.6609 34.8688C21.6609 34.8688 22.6687 35.5008 24.0762 36.0481C15.4826 39.7312 4.62722 35.8348 11.377 33.9488Z" fill="#5382A1"/>
<path d="M10.3269 29.1427C10.3269 29.1427 8.44535 30.5355 11.3189 30.8327C15.0348 31.216 17.9694 31.2474 23.0474 30.2696C23.0474 30.2696 23.7497 30.9816 24.8541 31.371C14.4639 34.4093 2.89116 31.6106 10.3269 29.1427Z" fill="#5382A1"/>
<path d="M19.1796 20.9901C21.297 23.428 18.6232 25.6218 18.6232 25.6218C18.6232 25.6218 23.9998 22.8462 21.5306 19.3706C19.2244 16.1293 17.4559 14.5189 27.03 8.96622C27.03 8.96622 12.0018 12.7196 19.1796 20.9901Z" fill="#E76F00"/>
<path d="M30.5453 37.5039C30.5453 37.5039 31.7867 38.5268 29.1781 39.3182C24.2178 40.8208 8.53266 41.2746 4.17539 39.378C2.60907 38.6966 5.54637 37.751 6.47033 37.5526C7.43393 37.3436 7.9846 37.3826 7.9846 37.3826C6.24269 36.1554 -3.27441 39.792 3.15039 40.8335C20.6717 43.675 35.0901 39.554 30.5453 37.5039Z" fill="#5382A1"/>
<path d="M12.1838 24.163C12.1838 24.163 4.20536 26.058 9.35844 26.7462C11.5342 27.0375 15.8716 26.9716 19.9118 26.6331C23.2136 26.3545 26.5291 25.7624 26.5291 25.7624C26.5291 25.7624 25.3648 26.261 24.5225 26.8361C16.4205 28.9669 0.768985 27.9757 5.27486 25.7961C9.08548 23.9541 12.1838 24.163 12.1838 24.163Z" fill="#5382A1"/>
<path d="M26.4961 32.163C34.7321 27.8833 30.9241 23.7705 28.2661 24.3246C27.6147 24.4602 27.3242 24.5777 27.3242 24.5777C27.3242 24.5777 27.566 24.1988 28.028 24.0348C33.2862 22.1862 37.3302 29.4871 26.3305 32.3787C26.3305 32.3789 26.458 32.2649 26.4961 32.163Z" fill="#5382A1"/>
<path d="M21.5305 0C21.5305 0 26.0917 4.56278 17.2043 11.5791C10.0776 17.2073 15.5792 20.4164 17.2014 24.0829C13.0414 20.3296 9.98846 17.0255 12.0366 13.9503C15.0428 9.43628 23.3708 7.24771 21.5305 0Z" fill="#E76F00"/>
<path d="M12.9931 43.7605C20.8987 44.2665 33.0386 43.4797 33.3261 39.739C33.3261 39.739 32.7734 41.1571 26.7926 42.2832C20.045 43.5531 11.7228 43.4048 6.78687 42.591C6.78698 42.5909 7.79732 43.4273 12.9931 43.7605Z" fill="#5382A1"/>
<path d="M11.6974 58.0538C10.9517 58.7007 10.164 59.0638 9.45715 59.0638C8.44824 59.0638 7.90313 58.4588 7.90313 57.4885C7.90313 56.4388 8.48716 55.6714 10.8303 55.6714H11.6973V58.0538H11.6974ZM13.7553 60.3756V53.1886C13.7553 51.3526 12.7081 50.1411 10.1834 50.1411C8.70949 50.1411 7.41838 50.5051 6.36899 50.9692L6.67189 52.2414C7.49812 51.9382 8.56762 51.6559 9.61736 51.6559C11.0718 51.6559 11.6974 52.2414 11.6974 53.4521V54.3604H10.9715C7.4379 54.3604 5.84389 55.7321 5.84389 57.791C5.84389 59.5678 6.89434 60.5778 8.87218 60.5778C10.1435 60.5778 11.0926 60.0529 11.9797 59.2848L12.1408 60.3757H13.7553V60.3756Z" fill="#E76F00"/>
<path d="M20.6229 60.3755H18.0563L14.9675 50.323H17.2088L19.1255 56.4993L19.5516 58.3568C20.5212 55.6712 21.207 52.9465 21.55 50.323H23.7303C23.1461 53.6332 22.095 57.2666 20.6229 60.3755Z" fill="#E76F00"/>
<path d="M30.4688 58.0538C29.7216 58.7007 28.9325 59.0638 28.2257 59.0638C27.2185 59.0638 26.672 58.4588 26.672 57.4885C26.672 56.4388 27.2575 55.6714 29.6003 55.6714H30.4688V58.0538ZM32.5264 60.3756V53.1886C32.5264 51.3526 31.4767 50.1411 28.9549 50.1411C27.4799 50.1411 26.1883 50.5051 25.1394 50.9692L25.4418 52.2414C26.2684 51.9382 27.3399 51.6559 28.3888 51.6559C29.8422 51.6559 30.4688 52.2414 30.4688 53.4521V54.3604H29.7417C26.207 54.3604 24.6137 55.7321 24.6137 57.791C24.6137 59.5678 25.6633 60.5778 27.6408 60.5778C28.9129 60.5778 29.8616 60.0529 30.7503 59.2848L30.9119 60.3757H32.5264V60.3756Z" fill="#E76F00"/>
<path d="M3.58747 62.0825C3.00084 62.939 2.05333 63.6166 1.01602 64L0 62.8044C0.789551 62.3992 1.4667 61.7449 1.78131 61.1355C2.05345 60.5934 2.16609 59.8949 2.16609 58.2243V46.7478H4.35241V58.067C4.35229 60.3005 4.17375 61.2027 3.58747 62.0825Z" fill="#E76F00"/>
</svg>
