<svg width="95" height="64" viewBox="0 0 95 64" fill="none" xmlns="http://www.w3.org/2000/svg">
<path d="M22.6564 58.3043H19.0202C18.8916 52.1666 18.5375 46.3964 17.9585 40.9895H17.9261L12.3899 58.3043H9.62146L4.11826 40.9895H4.08665C3.6784 46.1807 3.42123 51.9523 3.31443 58.3043H0C0.213607 50.58 0.750436 43.3384 1.60838 36.5789H6.11521L11.3605 52.5425H11.3929L16.6705 36.5789H20.9827C21.9271 44.4964 22.485 51.7387 22.6564 58.3043ZM38.4261 42.2753C36.9456 50.3095 34.9922 56.1471 32.5681 59.7911C30.6793 62.5961 28.61 64 26.3566 64C25.7558 64 25.0145 63.8187 24.1362 63.459V61.5218C24.5655 61.5836 25.0693 61.6187 25.6483 61.6187C26.7009 61.6187 27.5469 61.3292 28.1919 60.7488C28.9635 60.042 29.3492 59.2473 29.3492 58.3682C29.3492 57.7654 29.0485 56.5329 28.4484 54.6666L24.458 42.2746H28.0303L30.8944 51.5426C31.538 53.6471 31.8064 55.1163 31.6989 55.9532C33.2651 51.7703 34.3592 47.2094 34.9824 42.2739H38.4261V42.2753Z" fill="#5D87A1"/>
<path d="M86.8289 58.3042H76.4999V36.5788H79.9745V55.6299H86.8289V58.3042ZM73.7961 58.8291L69.8022 56.8582C70.1563 56.5673 70.495 56.2525 70.7999 55.8878C72.4976 53.8937 73.3443 50.9446 73.3443 47.0386C73.3443 39.8511 70.5238 36.2556 64.8808 36.2556C62.1137 36.2556 59.9551 37.1677 58.4114 38.9925C56.7152 40.988 55.8685 43.9265 55.8685 47.8115C55.8685 51.6304 56.6189 54.4319 58.1205 56.2089C59.4942 57.8187 61.5649 58.6247 64.3341 58.6247C65.367 58.6247 66.3149 58.4982 67.1784 58.2431L72.3781 61.2702L73.7961 58.8291ZM60.8581 53.9569C59.9783 52.5418 59.5385 50.2694 59.5385 47.1362C59.5385 41.6661 61.2003 38.9278 64.5273 38.9278C66.2664 38.9278 67.541 39.5827 68.3561 40.8896C69.2344 42.3069 69.6764 44.5589 69.6764 47.6485C69.6764 53.1636 68.0132 55.9215 64.6882 55.9215C62.9485 55.9222 61.6738 55.2695 60.8581 53.9569ZM54.3543 52.2825C54.3543 54.1248 53.6783 55.6363 52.3278 56.8202C50.9759 57.9993 49.1631 58.5902 46.8914 58.5902C44.7665 58.5902 42.7064 57.9115 40.7122 56.561L41.6461 54.6954C43.3619 55.5548 44.9155 55.982 46.3103 55.982C47.6193 55.982 48.6424 55.6918 49.3844 55.1163C50.1257 54.5387 50.5677 53.7285 50.5677 52.7041C50.5677 51.4133 49.6676 50.3101 48.0163 49.3861C46.4937 48.55 43.4484 46.8018 43.4484 46.8018C41.7978 45.5988 40.9715 44.3073 40.9715 42.1797C40.9715 40.4188 41.5877 38.9974 42.8209 37.916C44.0555 36.8304 45.6484 36.2893 47.6011 36.2893C49.6177 36.2893 51.4509 36.8297 53.1021 37.8991L52.2646 39.7654C50.8522 39.1653 49.4582 38.8653 48.0831 38.8653C46.9694 38.8653 46.1093 39.133 45.5114 39.6705C44.9085 40.2059 44.5368 40.891 44.5368 41.7314C44.5368 43.0159 45.4558 44.1331 47.1521 45.0753C48.6951 45.9129 51.8163 47.6913 51.8163 47.6913C53.509 48.8922 54.3543 50.1717 54.3543 52.2825Z" fill="#F8981D"/>
<path d="M91.1907 29.3022C89.0898 29.2488 87.4631 29.4603 86.0978 30.0378C85.7037 30.1952 85.0769 30.1952 85.0221 30.6934C85.235 30.9042 85.2596 31.2443 85.4444 31.5352C85.7592 32.0601 86.3079 32.7663 86.8089 33.1345C87.3591 33.556 87.9114 33.9734 88.4904 34.3409C89.5113 34.9726 90.6686 35.3401 91.6636 35.9697C92.2433 36.3357 92.8194 36.8093 93.3998 37.2035C93.6851 37.4136 93.8678 37.7544 94.2381 37.8858V37.8057C94.0526 37.5696 93.9999 37.2281 93.8179 36.9653L93.0295 36.2051C92.2679 35.182 91.3214 34.2889 90.3004 33.5553C89.4601 32.9764 87.6219 32.1894 87.2811 31.2211L87.2277 31.1677C87.8053 31.1136 88.4904 30.9042 89.0392 30.7433C89.9322 30.5079 90.7466 30.5613 91.6629 30.3259C92.0845 30.2205 92.5026 30.0884 92.9256 29.9584V29.7217C92.4506 29.2488 92.1119 28.6206 91.6123 28.1737C90.2758 27.0192 88.8031 25.8901 87.2811 24.945C86.466 24.4187 85.4177 24.08 84.5499 23.6324C84.2372 23.4743 83.7102 23.3963 83.5261 23.1336C83.0553 22.556 82.7904 21.7957 82.449 21.112C81.6901 19.6695 80.953 18.0688 80.2981 16.5433C79.8245 15.5203 79.5364 14.4986 78.9589 13.5521C76.2536 9.09028 73.3158 6.38786 68.8006 3.73534C67.8302 3.18305 66.6757 2.94766 65.4426 2.65816L63.473 2.55417C63.0528 2.37008 62.632 1.87049 62.2652 1.6344C60.7671 0.690026 56.9102 -1.35681 55.8085 1.3456C55.0988 3.05376 56.8582 4.73311 57.4625 5.59948C57.9087 6.20096 58.487 6.88534 58.799 7.56832C58.9838 8.01451 59.0358 8.4881 59.2206 8.95958C59.6408 10.1147 60.0335 11.3999 60.5858 12.4778C60.8739 13.0273 61.188 13.6048 61.5562 14.1023C61.767 14.3932 62.1338 14.5218 62.2139 14.9961C61.8478 15.5189 61.819 16.308 61.6089 16.9642C60.6645 19.9301 61.0334 23.6043 62.372 25.784C62.7908 26.4403 63.7899 27.8849 65.1264 27.3312C66.3097 26.859 66.0476 25.3631 66.3877 24.0512C66.4656 23.7343 66.4144 23.5263 66.5718 23.3183V23.3696C66.9378 24.1039 67.3074 24.8115 67.6468 25.5479C68.4612 26.833 69.8792 28.1723 71.0603 29.0626C71.6892 29.5376 72.1874 30.3498 72.9751 30.64V30.5613H72.9231C72.7636 30.3259 72.5303 30.2205 72.3209 30.0378C71.8473 29.565 71.3231 28.9874 70.9556 28.4632C69.8553 26.9925 68.8814 25.3645 68.0171 23.6844C67.5941 22.8694 67.2294 21.9784 66.8886 21.1647C66.7298 20.8506 66.7298 20.377 66.4664 20.2189C66.0715 20.7958 65.496 21.2954 65.2079 22.0023C64.7083 23.1328 64.6563 24.5234 64.4708 25.9695L64.3675 26.0201C63.5314 25.81 63.2405 24.945 62.9229 24.2107C62.1366 22.3459 62.0045 19.3526 62.6868 17.201C62.8695 16.6508 63.6599 14.9181 63.3445 14.3939C63.1864 13.8915 62.6608 13.6055 62.3727 13.2099C62.034 12.7125 61.663 12.0829 61.4269 11.5306C60.7973 10.0613 60.4804 8.43329 59.8024 6.96474C59.4855 6.28036 58.9353 5.57208 58.4898 4.9418C57.9895 4.23352 57.4393 3.73463 57.0437 2.89496C56.913 2.60617 56.7297 2.13398 56.9397 1.8199C56.991 1.6091 57.0978 1.5304 57.3072 1.4777C57.6473 1.19032 58.6191 1.5557 58.9599 1.71379C59.9331 2.10728 60.7467 2.47477 61.559 3.02565C61.9265 3.28915 62.3207 3.78803 62.7922 3.91943H63.3445C64.1827 4.10212 65.1278 3.97002 65.9169 4.20752C67.3074 4.65441 68.5673 5.30999 69.6972 6.01756C73.1353 8.1979 75.9705 11.2959 77.8845 14.9961C78.1986 15.599 78.3321 16.1513 78.6188 16.7801C79.1718 18.0674 79.8555 19.38 80.4042 20.6398C80.9558 21.873 81.4814 23.1321 82.2691 24.1566C82.6619 24.7075 84.24 24.9963 84.9476 25.2851C85.4711 25.5205 86.2862 25.7299 86.7583 26.0187C87.6514 26.5688 88.541 27.2005 89.3807 27.8055C89.7987 28.1203 91.1127 28.7766 91.1907 29.3022ZM64.4153 6.49115C64.0529 6.48739 63.6916 6.53181 63.3409 6.62325V6.67595H63.3915C63.603 7.09543 63.9705 7.38634 64.2326 7.75242C64.4441 8.17331 64.6275 8.59069 64.8348 9.01088L64.8854 8.95888C65.2557 8.69679 65.4398 8.2766 65.4398 7.64632C65.2803 7.46082 65.2557 7.27953 65.1229 7.09543C64.9683 6.83264 64.6275 6.70195 64.4153 6.49115Z" fill="#5D87A1"/>
<path d="M93.691 58.3008H94.2349V55.6391H93.4191L92.7537 57.4555L92.0306 55.6391H91.2451V58.3008H91.7587V56.2757H91.7875L92.545 58.3008H92.9364L93.691 56.2757V58.3008ZM89.3099 58.3008H89.8854V56.0902H90.6387V55.6384H88.5251V56.0902H89.3085L89.3099 58.3008Z" fill="#F8981D"/>
</svg>
