<svg width="65" height="64" viewBox="0 0 65 64" fill="none" xmlns="http://www.w3.org/2000/svg">
<path d="M31.9129 64C14.7172 64 0.134823 49.4762 0.000809455 32.1717C-0.0290954 27.9973 0.769891 23.8585 2.35145 19.9951C3.93301 16.1318 6.26569 12.6209 9.21426 9.66576C12.1822 6.62597 15.7246 4.20616 19.6356 2.54686C23.5465 0.887566 27.7482 0.0218564 31.9966 1.25434e-05C36.1682 -0.00370307 40.2993 0.818096 44.1518 2.41806C48.0044 4.01802 51.5023 6.36452 54.4439 9.32235C57.4347 12.2378 59.8189 15.7163 61.4591 19.5574C63.0994 23.3985 63.9632 27.5262 64.0008 31.7027C64.0389 40.199 60.7126 48.3651 54.7489 54.4168C48.7851 60.4685 40.6685 63.9138 32.1725 64H31.9129ZM32.0134 1.67519C27.9875 1.69877 24.0065 2.52165 20.3012 4.09607C16.5959 5.6705 13.2402 7.96511 10.4288 10.8468C7.63229 13.6425 5.41864 16.9656 3.91615 20.6234C2.41366 24.2811 1.65222 28.2007 1.67598 32.155C1.80162 48.5549 15.6218 62.3081 31.9045 62.3081H32.1222C40.1783 62.2351 47.8779 58.9755 53.5376 53.242C59.1974 47.5085 62.3569 39.7674 62.3256 31.711C62.288 27.7543 61.4679 23.8442 59.9125 20.2058C58.3571 16.5675 56.0972 13.2728 53.2629 10.5117C50.4819 7.70603 47.1716 5.48025 43.5239 3.96339C39.8763 2.44653 35.9638 1.66877 32.0134 1.67519Z" fill="#F1592A"/>
<path d="M7.17932 41.36V22.665H11.7274V24.3402H9.31517V39.7183H11.7274V41.3935L7.17932 41.36Z" fill="#F1592A"/>
<path d="M22.6161 31.8281C22.6161 35.237 20.5472 37.1802 17.7413 37.1802C14.9354 37.1802 13.0676 34.9941 13.0676 32.004C13.0676 28.8798 15.0275 26.6769 17.8921 26.6769C20.7566 26.6769 22.6161 28.9719 22.6161 31.8281ZM15.0275 31.9788C15.0275 34.0477 16.0661 35.6893 17.8502 35.6893C19.6342 35.6893 20.6561 34.0142 20.6561 31.9035C20.6561 29.9854 19.7096 28.1762 17.8502 28.1762C15.9907 28.1762 15.0108 29.9267 15.0108 32.0207L15.0275 31.9788Z" fill="#F1592A"/>
<path d="M24.1907 27.0291C25.0814 26.8753 25.9839 26.7996 26.8878 26.803C27.9031 26.7038 28.9238 26.9296 29.8026 27.4479C30.132 27.6419 30.4036 27.9206 30.5892 28.2549C30.7747 28.5892 30.8675 28.967 30.8579 29.3492C30.8459 29.8459 30.6775 30.3262 30.3767 30.7217C30.076 31.1172 29.6582 31.4077 29.1828 31.5521C29.7621 31.6699 30.283 31.9845 30.657 32.4425C31.031 32.9004 31.2351 33.4736 31.2348 34.0648C31.2412 34.4654 31.1562 34.8621 30.9864 35.2249C30.8166 35.5877 30.5664 35.9071 30.2549 36.1588C29.5345 36.7954 28.3368 37.1053 26.4857 37.1053C25.7242 37.109 24.9633 37.0643 24.2075 36.9713L24.1907 27.0291ZM26.0334 31.0412H26.9799C28.2614 31.0412 28.9817 30.4381 28.9817 29.5754C28.9817 28.7127 28.2614 28.185 27.0804 28.185C26.727 28.1729 26.3732 28.1982 26.025 28.2604L26.0334 31.0412ZM26.0334 35.7149C26.359 35.7485 26.6862 35.7625 27.0134 35.7568C28.2028 35.7568 29.2581 35.3045 29.2581 34.0816C29.2581 32.8587 28.2363 32.4064 26.9548 32.4064H26.0334V35.7149Z" fill="#F1592A"/>
<path d="M34.895 26.8952H36.7461V33.5038C36.7461 36.3097 35.3892 37.2478 33.3958 37.2478C32.8626 37.2434 32.3337 37.1529 31.8295 36.9797L32.0556 35.4888C32.4273 35.6049 32.8138 35.667 33.2031 35.6731C34.2585 35.6731 34.8783 35.1873 34.8783 33.4284L34.895 26.8952Z" fill="#F1592A"/>
<path d="M42.0145 32.3977V33.6792H38.1616V32.3977H42.0145Z" fill="#F1592A"/>
<path d="M51.0102 36.7536C50.1775 37.0857 49.2844 37.2397 48.3886 37.2059C45.1639 37.2059 43.2039 35.1873 43.2039 32.0967C43.1658 31.3765 43.2806 30.6565 43.5406 29.9839C43.8007 29.3113 44.2002 28.7014 44.7129 28.1943C45.2256 27.6871 45.8398 27.2942 46.5152 27.0415C47.1906 26.7887 47.9118 26.6818 48.6315 26.7277C49.4921 26.6921 50.35 26.8465 51.1442 27.18L50.7338 28.6542C50.1038 28.386 49.425 28.252 48.7404 28.2605C46.6715 28.2605 45.1806 29.5588 45.1806 32.0045C45.1806 34.2325 46.4956 35.6731 48.7236 35.6731C49.4149 35.6831 50.1011 35.555 50.7422 35.2962L51.0102 36.7536Z" fill="#F1592A"/>
<path d="M56.8231 22.6147V41.3599H52.275V39.6847H54.6872V24.2899H52.275V22.6147H56.8231Z" fill="#F1592A"/>
</svg>
