<svg width="435" height="461" viewBox="0 0 435 461" fill="none" xmlns="http://www.w3.org/2000/svg">
<path d="M0 182.929V317.34C0 321.189 4.16642 323.595 7.49976 321.671L216.878 200.802C218.914 199.627 220.561 197.879 221.612 195.776L227.138 184.724C227.619 183.762 228.775 183.352 229.755 183.798L237.13 187.15C238.304 187.683 239.663 187.618 240.781 186.975L298.988 153.462C302.707 151.32 305 147.355 305 143.062V8.64831C305 4.80197 300.839 2.39601 297.505 4.3152L241.512 36.5535C239.861 37.5042 238.46 38.8343 237.425 40.4339L229.164 53.2005C228.535 54.1735 227.212 54.4094 226.285 53.714L222.113 50.5845C220.831 49.6235 219.1 49.5195 217.713 50.3203L6.0006 172.536C2.28745 174.68 0 178.641 0 182.929Z" fill="url(#paint0_linear)"/>
<path d="M26 191L73 164" stroke="#29305E" stroke-width="2" stroke-linecap="round" stroke-linejoin="round"/>
<path d="M75 186L122 159" stroke="#29305E" stroke-width="2" stroke-linecap="round" stroke-linejoin="round"/>
<path d="M159 186L206 159" stroke="#29305E" stroke-width="2" stroke-linecap="round" stroke-linejoin="round"/>
<path d="M159 137L206 110" stroke="#29305E" stroke-width="2" stroke-linecap="round" stroke-linejoin="round"/>
<path d="M253 60L286 41" stroke="#29305E" stroke-width="2" stroke-linecap="round" stroke-linejoin="round"/>
<path d="M253 90L286 71" stroke="#29305E" stroke-width="2" stroke-linecap="round" stroke-linejoin="round"/>
<path d="M132 130L206 88" stroke="#29305E" stroke-width="2" stroke-linecap="round" stroke-linejoin="round"/>
<path d="M75 234L122 207" stroke="#29305E" stroke-width="2" stroke-linecap="round" stroke-linejoin="round"/>
<path d="M228 76V162" stroke="#718CAE" stroke-width="2" stroke-linecap="round" stroke-linejoin="round" stroke-dasharray="5 5"/>
<path d="M147 151V181L206 147V117L147 151Z" fill="url(#paint1_linear)"/>
<path d="M74 193V223L133 189V159L74 193Z" fill="url(#paint2_linear)"/>
<path d="M147 198V211L206 177V164L147 198Z" fill="url(#paint3_linear)"/>
<path d="M74 240V253L133 219V206L74 240Z" fill="url(#paint4_linear)"/>
<path fill-rule="evenodd" clip-rule="evenodd" d="M26 291L52 276V272L26 287V291ZM52 266V258L26 273V281L52 266ZM26 261V269L52 254V246L26 261ZM52 243V239L26 254V258L52 243ZM26 238V251L52 236V223L26 238ZM26 244L52 229V219L26 234V244ZM26 228L52 213V209L26 224V228ZM52 204V196L26 211V219L52 204Z" fill="#29305E"/>
<path fill-rule="evenodd" clip-rule="evenodd" d="M253 150V130L256 128.273V148.273L253 150ZM259 146.545V126.545L263 124.242V144.242L259 146.545ZM267 141.939L273 138.485V118.485L267 121.939V141.939ZM279 135.03L277 136.182V116.182L279 115.03V135.03ZM281 133.879L286 131V111L281 113.879V133.879Z" fill="#29305E"/>
<path d="M253 100V115L286 96V81L253 100Z" fill="url(#paint5_linear)"/>
<path d="M253 69V84L286 65V50L253 69Z" fill="url(#paint6_linear)"/>
<path d="M130 317.929V452.34C130 456.189 134.166 458.595 137.5 456.671L346.878 335.802C348.914 334.627 350.561 332.879 351.612 330.776L357.138 319.724C357.619 318.762 358.775 318.352 359.755 318.798L367.13 322.15C368.304 322.683 369.663 322.618 370.781 321.975L428.988 288.462C432.707 286.32 435 282.355 435 278.062V143.648C435 139.802 430.839 137.396 427.505 139.315L371.512 171.553C369.861 172.504 368.46 173.834 367.425 175.434L359.164 188.2C358.535 189.174 357.212 189.409 356.285 188.714L352.113 185.585C350.831 184.623 349.1 184.519 347.713 185.32L136.001 307.536C132.287 309.68 130 313.641 130 317.929Z" fill="url(#paint7_linear)"/>
<path d="M156 326L203 299" stroke="#29305E" stroke-width="2" stroke-linecap="round" stroke-linejoin="round"/>
<path d="M205 321L252 294" stroke="#29305E" stroke-width="2" stroke-linecap="round" stroke-linejoin="round"/>
<path d="M289 321L336 294" stroke="#29305E" stroke-width="2" stroke-linecap="round" stroke-linejoin="round"/>
<path d="M289 272L336 245" stroke="#29305E" stroke-width="2" stroke-linecap="round" stroke-linejoin="round"/>
<path d="M383 195L416 176" stroke="#29305E" stroke-width="2" stroke-linecap="round" stroke-linejoin="round"/>
<path d="M383 225L416 206" stroke="#29305E" stroke-width="2" stroke-linecap="round" stroke-linejoin="round"/>
<path d="M262 265L336 223" stroke="#29305E" stroke-width="2" stroke-linecap="round" stroke-linejoin="round"/>
<path d="M205 369L252 342" stroke="#29305E" stroke-width="2" stroke-linecap="round" stroke-linejoin="round"/>
<path d="M358 211V297" stroke="#718CAE" stroke-width="2" stroke-linecap="round" stroke-linejoin="round" stroke-dasharray="5 5"/>
<path d="M277 286V316L336 282V252L277 286Z" fill="url(#paint8_linear)"/>
<path d="M204 328V358L263 324V294L204 328Z" fill="url(#paint9_linear)"/>
<path d="M277 333V346L336 312V299L277 333Z" fill="url(#paint10_linear)"/>
<path d="M204 375V388L263 354V341L204 375Z" fill="url(#paint11_linear)"/>
<path fill-rule="evenodd" clip-rule="evenodd" d="M156 426L182 411V407L156 422V426ZM182 401V393L156 408V416L182 401ZM156 396V404L182 389V381L156 396ZM182 378V374L156 389V393L182 378ZM156 373V386L182 371V358L156 373ZM156 379L182 364V354L156 369V379ZM156 363L182 348V344L156 359V363ZM182 339V331L156 346V354L182 339Z" fill="#29305E"/>
<path fill-rule="evenodd" clip-rule="evenodd" d="M383 285V265L386 263.273V283.273L383 285ZM389 281.545V261.545L393 259.242V279.242L389 281.545ZM397 276.939L403 273.485V253.485L397 256.939V276.939ZM409 270.03L407 271.182V251.182L409 250.03V270.03ZM411 268.879L416 266V246L411 248.879V268.879Z" fill="#29305E"/>
<path d="M383 235V250L416 231V216L383 235Z" fill="url(#paint12_linear)"/>
<path d="M383 204V219L416 200V185L383 204Z" fill="url(#paint13_linear)"/>
<defs>
<linearGradient id="paint0_linear" x1="7.0932e-06" y1="245" x2="303" y2="80.5" gradientUnits="userSpaceOnUse">
<stop stop-color="#B5CDF1"/>
<stop offset="1" stop-color="#F1F6FA"/>
</linearGradient>
<linearGradient id="paint1_linear" x1="147" y1="164" x2="206" y2="131" gradientUnits="userSpaceOnUse">
<stop stop-color="#1B6ED4"/>
<stop offset="1" stop-color="#74B6BB"/>
</linearGradient>
<linearGradient id="paint2_linear" x1="74" y1="206" x2="133" y2="173" gradientUnits="userSpaceOnUse">
<stop stop-color="#1B6ED4"/>
<stop offset="1" stop-color="#74B6BB"/>
</linearGradient>
<linearGradient id="paint3_linear" x1="147" y1="194" x2="206" y2="161" gradientUnits="userSpaceOnUse">
<stop stop-color="#1B6ED4"/>
<stop offset="1" stop-color="#74B6BB"/>
</linearGradient>
<linearGradient id="paint4_linear" x1="74" y1="236" x2="133" y2="203" gradientUnits="userSpaceOnUse">
<stop stop-color="#1B6ED4"/>
<stop offset="1" stop-color="#74B6BB"/>
</linearGradient>
<linearGradient id="paint5_linear" x1="253" y1="105.969" x2="285.168" y2="87.0255" gradientUnits="userSpaceOnUse">
<stop stop-color="#1B6ED4"/>
<stop offset="1" stop-color="#74B6BB"/>
</linearGradient>
<linearGradient id="paint6_linear" x1="253" y1="74.9687" x2="285.168" y2="56.0255" gradientUnits="userSpaceOnUse">
<stop stop-color="#1B6ED4"/>
<stop offset="1" stop-color="#74B6BB"/>
</linearGradient>
<linearGradient id="paint7_linear" x1="130" y1="380" x2="433" y2="215.5" gradientUnits="userSpaceOnUse">
<stop stop-color="#B5CDF1"/>
<stop offset="1" stop-color="#F1F6FA"/>
</linearGradient>
<linearGradient id="paint8_linear" x1="277" y1="299" x2="336" y2="266" gradientUnits="userSpaceOnUse">
<stop stop-color="#F2994A"/>
<stop offset="1" stop-color="#F6D258"/>
</linearGradient>
<linearGradient id="paint9_linear" x1="204" y1="341" x2="263" y2="308" gradientUnits="userSpaceOnUse">
<stop stop-color="#F2994A"/>
<stop offset="1" stop-color="#F6D258"/>
</linearGradient>
<linearGradient id="paint10_linear" x1="277" y1="333.516" x2="326.021" y2="296.18" gradientUnits="userSpaceOnUse">
<stop stop-color="#F2994A"/>
<stop offset="1" stop-color="#F6D258"/>
</linearGradient>
<linearGradient id="paint11_linear" x1="204" y1="375.516" x2="253.021" y2="338.18" gradientUnits="userSpaceOnUse">
<stop stop-color="#F2994A"/>
<stop offset="1" stop-color="#F6D258"/>
</linearGradient>
<linearGradient id="paint12_linear" x1="383" y1="240.969" x2="415.168" y2="222.025" gradientUnits="userSpaceOnUse">
<stop stop-color="#F2994A"/>
<stop offset="1" stop-color="#F6D258"/>
</linearGradient>
<linearGradient id="paint13_linear" x1="383" y1="209.969" x2="415.168" y2="191.025" gradientUnits="userSpaceOnUse">
<stop stop-color="#F2994A"/>
<stop offset="1" stop-color="#F6D258"/>
</linearGradient>
</defs>
</svg>
