<svg width="92" height="48" viewBox="0 0 92 48" fill="none" xmlns="http://www.w3.org/2000/svg">
<path d="M0 24C0 37.2547 20.427 48 45.6241 48C70.8211 48 91.2483 37.2547 91.2483 24C91.2483 10.7455 70.8211 3.8147e-06 45.6241 3.8147e-06C20.427 3.8147e-06 0 10.7455 0 24Z" fill="url(#paint0_radial)"/>
<path d="M45.6241 46.2181C69.837 46.2181 89.466 36.2706 89.466 23.9999C89.466 11.7294 69.837 1.7818 45.6241 1.7818C21.4112 1.7818 1.78223 11.7294 1.78223 23.9999C1.78223 36.2706 21.4112 46.2181 45.6241 46.2181Z" fill="#777BB3"/>
<path d="M24.788 26.7547C26.779 26.7547 28.2653 26.3875 29.2057 25.6638C30.1361 24.9474 30.7787 23.7063 31.1155 21.9751C31.4295 20.3569 31.3098 19.2271 30.76 18.6173C30.1978 17.9946 28.9823 17.6787 27.1473 17.6787H23.9656L22.2017 26.7547H24.788ZM14.3815 37.9346C14.2338 37.9346 14.0936 37.8686 13.9997 37.7544C13.9056 37.6404 13.8675 37.4902 13.8957 37.3452L18.5703 13.2937C18.6155 13.0612 18.8193 12.8932 19.0563 12.8932H29.1313C32.2976 12.8932 34.6544 13.7529 36.1358 15.4488C37.6251 17.1536 38.085 19.5366 37.5026 22.5316C37.2657 23.7517 36.8581 24.8849 36.2912 25.8994C35.7237 26.9151 34.9737 27.8549 34.0617 28.6931C32.9699 29.7149 31.7343 30.4559 30.3924 30.8918C29.0717 31.322 27.3757 31.5402 25.3514 31.5402H21.2718L20.1068 37.534C20.0616 37.7666 19.858 37.9346 19.621 37.9346H14.3815Z" fill="black"/>
<path d="M24.3737 18.1737H27.1473C29.362 18.1737 30.1313 18.6597 30.3927 18.9493C30.8264 19.4302 30.9082 20.444 30.6295 21.8812C30.3163 23.4901 29.7358 24.6308 28.9038 25.2714C28.0519 25.9272 26.6671 26.2596 24.788 26.2596H22.8022L24.3737 18.1737ZM29.1313 12.3981H19.0562C18.5822 12.3981 18.1748 12.7341 18.0844 13.1992L13.4098 37.2507C13.3533 37.541 13.4296 37.8412 13.6175 38.0694C13.8056 38.2976 14.0858 38.4296 14.3815 38.4296H19.6209C20.0949 38.4296 20.5024 38.0936 20.5928 37.6285L21.6799 32.0352H25.3514C27.4277 32.0352 29.1755 31.8088 30.546 31.3624C31.9554 30.9045 33.2521 30.1281 34.3998 29.0548C35.349 28.1815 36.1309 27.2013 36.7233 26.1411C37.3159 25.0805 37.7416 23.8978 37.9886 22.6259C38.6017 19.4734 38.1037 16.9489 36.5086 15.1232C34.929 13.3149 32.4468 12.3981 29.1313 12.3981ZM21.6011 27.2497H24.788C26.9004 27.2497 28.4739 26.8518 29.5077 26.0559C30.5417 25.2599 31.2391 23.9313 31.6015 22.0696C31.9482 20.2821 31.7902 19.0207 31.1277 18.2859C30.4643 17.5511 29.1378 17.1836 27.1473 17.1836H23.5575L21.6011 27.2497ZM29.1313 13.3882C32.1622 13.3882 34.3733 14.1836 35.763 15.7745C37.1527 17.3655 37.5711 19.5861 37.0167 22.4371C36.7885 23.6115 36.4025 24.6853 35.8591 25.6581C35.315 26.6315 34.6046 27.5216 33.7267 28.3287C32.6805 29.3078 31.5183 30.0055 30.2394 30.421C28.9605 30.8377 27.3316 31.0451 25.3514 31.0451H20.8636L19.6209 37.4395H14.3815L19.0562 13.3882H29.1313Z" fill="white"/>
<path d="M49.5156 31.5402C49.3678 31.5402 49.2277 31.4742 49.1338 31.36C49.0396 31.246 49.0014 31.096 49.0297 30.9508L51.0975 20.309C51.2942 19.2969 51.2457 18.5705 50.961 18.2636C50.7868 18.0759 50.2633 17.7612 48.7156 17.7612H44.9694L42.3695 31.1396C42.3243 31.3722 42.1205 31.5402 41.8836 31.5402H36.6855C36.5377 31.5402 36.3976 31.4742 36.3035 31.36C36.2094 31.246 36.1713 31.0958 36.1995 30.9508L40.8742 6.89929C40.9194 6.66678 41.1232 6.49879 41.3601 6.49879H46.5582C46.706 6.49879 46.8461 6.5648 46.9402 6.67883C47.0343 6.79302 47.0724 6.94302 47.0442 7.08824L45.9161 12.8932H49.9462C53.0163 12.8932 55.0982 13.4345 56.3107 14.548C57.5467 15.684 57.9324 17.5004 57.4571 19.9472L55.2822 31.1396C55.237 31.3722 55.0333 31.5402 54.7962 31.5402H49.5156Z" fill="black"/>
<path d="M46.5583 6.00365H41.3602C40.8861 6.00365 40.4787 6.33963 40.3883 6.80481L35.7136 30.8563C35.6572 31.1466 35.7334 31.4467 35.9216 31.675C36.1097 31.9032 36.3899 32.0352 36.6856 32.0352H41.8837C42.3576 32.0352 42.7652 31.6992 42.8556 31.234L45.3776 18.2562H48.7157C50.2608 18.2562 50.585 18.5862 50.5981 18.6004C50.6918 18.7013 50.8151 19.1683 50.6116 20.2145L48.5438 30.8563C48.4873 31.1466 48.5636 31.4467 48.7517 31.675C48.9398 31.9032 49.22 32.0352 49.5157 32.0352H54.7963C55.2702 32.0352 55.6778 31.6992 55.7682 31.234L57.943 20.0417C58.4534 17.4145 58.0168 15.4437 56.6458 14.1836C55.3375 12.9821 53.1461 12.3981 49.9463 12.3981H46.5165L47.5302 7.1827C47.5865 6.89244 47.5104 6.5921 47.3223 6.36405C47.1342 6.13583 46.854 6.00365 46.5583 6.00365ZM46.5583 6.99376L45.3155 13.3882H49.9463C52.86 13.3882 54.8697 13.8968 55.9758 14.9126C57.0819 15.9291 57.4133 17.5762 56.9712 19.8529L54.7963 31.0451H49.5157L51.5836 20.4034C51.8189 19.1929 51.7324 18.3671 51.3238 17.9268C50.9151 17.4866 50.0456 17.2661 48.7157 17.2661H44.5612L41.8837 31.0451H36.6856L41.3602 6.99376H46.5583Z" fill="white"/>
<path d="M65.6819 26.7547C67.6729 26.7547 69.1592 26.3875 70.0996 25.6638C71.03 24.9476 71.6726 23.7065 72.0095 21.9751C72.3236 20.3569 72.2039 19.2271 71.6539 18.6173C71.0917 17.9946 69.8762 17.6787 68.0412 17.6787H64.8595L63.0956 26.7547H65.6819ZM55.2756 37.9346C55.1279 37.9346 54.9876 37.8686 54.8937 37.7544C54.7997 37.6404 54.7614 37.4902 54.7896 37.3452L59.4642 13.2937C59.5096 13.0612 59.7132 12.8932 59.9504 12.8932H70.0252C73.1917 12.8932 75.5483 13.7529 77.0299 15.4488C78.5191 17.1535 78.9789 19.5365 78.3967 22.5316C78.1594 23.7517 77.752 24.8849 77.1851 25.8994C76.6176 26.9151 75.8676 27.8549 74.9556 28.6931C73.8638 29.7149 72.6282 30.4559 71.2863 30.8918C69.9656 31.322 68.2696 31.5402 66.2453 31.5402H62.1656L61.001 37.534C60.9557 37.7666 60.752 37.9346 60.5149 37.9346H55.2756Z" fill="black"/>
<path d="M65.2676 18.1737H68.0412C70.2559 18.1737 71.0252 18.6597 71.2866 18.9493C71.7204 19.4302 71.8023 20.444 71.5234 21.881C71.2102 23.4901 70.6295 24.6308 69.7976 25.2714C68.9458 25.9272 67.561 26.2596 65.6819 26.2596H63.6963L65.2676 18.1737ZM70.0252 12.3981H59.9502C59.4763 12.3981 59.0688 12.7341 58.9784 13.1992L54.3038 37.2507C54.2474 37.541 54.3236 37.8412 54.5116 38.0694C54.6997 38.2976 54.9799 38.4296 55.2756 38.4296H60.5149C60.9888 38.4296 61.3964 38.0936 61.4868 37.6285L62.5738 32.0352H66.2453C68.3215 32.0352 70.0694 31.8088 71.4399 31.3624C72.8493 30.9045 74.1463 30.1279 75.294 29.0545C76.2432 28.1814 77.0247 27.2013 77.6172 26.1411C78.2097 25.0805 78.6355 23.8978 78.8825 22.6259C79.4956 19.4732 78.9975 16.9488 77.4025 15.123C75.8229 13.3149 73.3409 12.3981 70.0252 12.3981ZM62.4951 27.2497H65.6819C67.7943 27.2497 69.3678 26.8518 70.4016 26.0559C71.4358 25.2599 72.133 23.9313 72.4953 22.0696C72.8422 20.2821 72.6843 19.0207 72.0216 18.2859C71.3582 17.5511 70.0316 17.1836 68.0412 17.1836H64.4514L62.4951 27.2497ZM70.0252 13.3882C73.0561 13.3882 75.2671 14.1836 76.6569 15.7745C78.0467 17.3655 78.465 19.5861 77.9106 22.4371C77.6823 23.6115 77.2964 24.6853 76.753 25.6581C76.2089 26.6315 75.4985 27.5216 74.6206 28.3287C73.5744 29.3078 72.4122 30.0055 71.1333 30.421C69.8544 30.8377 68.2255 31.0451 66.2453 31.0451H61.7575L60.5149 37.4395H55.2756L59.9502 13.3882H70.0252Z" fill="white"/>
<defs>
<radialGradient id="paint0_radial" cx="0" cy="0" r="1" gradientUnits="userSpaceOnUse" gradientTransform="translate(27.3929 8.43766) scale(59.911)">
<stop stop-color="#AEB2D5"/>
<stop offset="0.3" stop-color="#AEB2D5"/>
<stop offset="0.75" stop-color="#484C89"/>
<stop offset="1" stop-color="#484C89"/>
</radialGradient>
</defs>
</svg>
