<svg width="63" height="64" viewBox="0 0 63 64" fill="none" xmlns="http://www.w3.org/2000/svg">
<path d="M46.4646 46.686C46.8745 43.2731 46.7519 42.7724 49.2937 43.325L49.9391 43.3821C51.8939 43.4709 54.4513 43.0675 55.9528 42.3696C59.1866 40.8694 61.1039 38.3633 57.9154 39.0216C50.6415 40.5218 50.1414 38.0598 50.1414 38.0598C57.8227 26.6634 61.0338 12.1973 58.2624 8.65601C50.7038 -1.00277 37.6191 3.56459 37.3999 3.68328L37.3299 3.6969C35.8926 3.3979 34.2847 3.22019 32.4778 3.191C29.1862 3.13717 26.6885 4.05427 24.794 5.4909C24.794 5.4909 1.45191 -4.12572 2.53765 17.5845C2.76855 22.2031 9.15779 52.5317 16.7781 43.371C19.5631 40.0217 22.2547 37.1893 22.2547 37.1893C23.5915 38.0773 25.1915 38.53 26.8701 38.3672L26.9998 38.2569C26.9596 38.6727 26.9771 39.0793 27.0523 39.5606C25.0891 41.7548 25.6663 42.14 21.741 42.9475C17.7704 43.766 20.1034 45.2228 21.6256 45.6035C23.4728 46.0659 27.7437 46.7204 30.6306 42.679L30.5158 43.1401C31.2863 43.7563 31.2338 47.5681 31.3427 50.2915C31.4517 53.0149 31.6346 55.5561 32.1898 57.0556C32.745 58.5538 33.4001 62.4136 38.5583 61.3084C42.8688 60.3835 46.1643 59.0539 46.4646 46.686Z" fill="black"/>
<path d="M36.8784 64C34.5966 64 33.1114 63.1179 32.2085 62.2657C30.8465 60.9808 30.3062 59.325 29.9839 58.3359L29.8444 57.9227C29.1945 56.1683 28.9747 53.6427 28.8443 50.3907C28.8248 49.9029 28.8106 49.399 28.7957 48.8652C28.7846 48.4754 28.771 47.9864 28.7516 47.4733C27.9408 47.8618 27.073 48.1362 26.1591 48.2931C24.5506 48.5681 22.8215 48.4786 21.0184 48.0279C19.7466 47.7101 18.4247 47.0511 17.6717 46.0328C15.4763 47.9559 13.382 47.6945 12.2411 47.3144C10.2285 46.6431 8.4274 44.7577 6.73393 41.5485C5.52821 39.2635 4.3614 36.2852 3.26593 32.6978C1.35908 26.45 0.147518 19.8694 0.0398524 17.7096C-0.298711 10.9468 1.52123 6.11091 5.44908 3.3369C11.6463 -1.04042 21.0347 1.53318 24.4573 2.70193C26.7565 1.3159 29.4618 0.640719 32.5192 0.690012C34.1614 0.716604 35.7245 0.86124 37.1767 1.11938C38.6912 0.643314 41.6838 -0.040298 45.1089 0.00186018C51.4197 0.0770964 56.6493 2.53654 60.2314 7.11428C62.7875 10.3806 61.5241 17.2387 60.5428 21.0369C59.1632 26.378 56.7446 32.0603 53.7741 37.0064C54.5809 37.0122 55.749 36.915 57.4107 36.5725C60.6887 35.8954 61.6466 37.6531 61.9067 38.4398C62.949 41.5965 58.4186 43.9813 57.0053 44.6371C55.1945 45.4783 52.2428 45.99 49.8248 45.8791L49.7191 45.872L49.0841 45.8162L49.0212 46.3454L48.9609 46.8637C48.7988 53.1316 47.9031 57.101 46.0604 59.7245C44.1296 62.4739 41.4451 63.245 39.081 63.7516C38.2761 63.9248 37.5432 64 36.8784 64ZM32.0775 41.1866C33.5505 42.365 33.6795 44.5826 33.7943 48.727C33.8086 49.244 33.8222 49.7337 33.8404 50.1909C33.8962 51.575 34.0265 54.8166 34.5337 56.1865C34.6057 56.3797 34.6699 56.5769 34.7374 56.7845C35.3029 58.5175 35.587 59.3859 38.0328 58.8619C40.0869 58.4221 41.1422 58.0272 41.9685 56.8506C43.1697 55.1396 43.8416 51.7002 43.9648 46.6243L46.4632 46.6853L43.9817 46.3876L44.0543 45.7682C44.2924 43.7264 44.4636 42.2502 45.8289 41.2748C46.9237 40.4919 48.1722 40.5678 49.1665 40.7468C48.0743 39.9225 47.772 38.9535 47.6916 38.5565L47.4834 37.5305L48.0685 36.6614C51.4411 31.6569 54.2229 25.5063 55.7004 19.7864C57.2181 13.9089 56.755 10.7872 56.2926 10.197C50.166 2.36791 39.5402 5.59982 38.4311 5.96757L38.243 6.06875L37.3025 6.24452L36.8206 6.14464C35.493 5.86899 34.0181 5.71657 32.4362 5.69063C29.9514 5.64912 27.9473 6.23609 26.3038 7.48332L25.1636 8.34789L23.8398 7.80243C21.0132 6.64665 12.7087 4.32275 8.32686 7.42625C5.89466 9.1489 4.78687 12.5248 5.03333 17.4599C5.11441 19.0892 6.2222 25.2566 8.04732 31.2392C10.571 39.5061 12.8644 42.2515 13.8217 42.5713C13.9884 42.6277 14.4223 42.2905 14.8536 41.7729C17.6594 38.3983 20.3277 35.5854 20.4399 35.4667L21.8869 33.9444L23.6361 35.1067C24.3412 35.5756 25.1188 35.8409 25.9179 35.8908L30.0902 32.3327L29.4858 38.5008C29.4721 38.6396 29.4656 38.8276 29.5201 39.1779L29.7017 40.3473L28.915 41.2281L28.8242 41.3299L31.1163 42.3884L32.0775 41.1866Z" fill="black"/>
<path d="M57.9171 39.0216C50.6425 40.5218 50.1425 38.0591 50.1425 38.0591C57.823 26.6627 61.0336 12.196 58.2628 8.65533C50.7035 -1.00344 37.6189 3.56457 37.4003 3.68326L37.3296 3.69558C35.8923 3.39788 34.2845 3.22017 32.4769 3.19098C29.1853 3.13715 26.6882 4.0536 24.7937 5.49023C24.7937 5.49023 1.451 -4.12574 2.53673 17.5844C2.76763 22.203 9.15687 52.5317 16.7771 43.371C19.5622 40.0217 22.2532 37.1893 22.2532 37.1893C23.5899 38.0772 25.19 38.53 26.8679 38.3672L26.9982 38.2569C26.958 38.6726 26.9762 39.0793 27.0501 39.5606C25.0875 41.7547 25.6634 42.14 21.7395 42.9475C17.7682 43.766 20.1011 45.2227 21.6247 45.6035C23.4712 46.0659 27.7428 46.7203 30.629 42.679L30.5136 43.1401C31.2828 43.7563 31.8231 47.1478 31.7323 50.2221C31.6415 53.2964 31.5812 55.4069 32.1876 57.0556C32.794 58.7036 33.3979 62.4136 38.5567 61.3084C42.8672 60.3841 45.101 57.9902 45.4123 53.9975C45.6328 51.1586 46.1316 51.5783 46.1634 49.0397L46.5642 47.8378C47.0253 43.9891 46.6375 42.7477 49.2935 43.3256L49.9388 43.382C51.8936 43.4715 54.4517 43.0675 55.9532 42.3696C59.187 40.8688 61.1049 38.3633 57.9171 39.0216Z" fill="#336791"/>
<path d="M37.1389 62.459C32.8381 62.4596 31.4761 59.0539 30.9183 57.6614C30.103 55.6209 29.9266 47.7003 30.1082 41.2047C30.1212 40.7442 30.5019 40.3804 30.965 40.3946C31.4249 40.4076 31.7874 40.7909 31.7751 41.2514C31.5656 48.7433 31.8633 55.5321 32.4665 57.042C33.4089 59.3976 34.8377 61.4582 38.8791 60.593C42.7155 59.7699 44.1521 58.3151 44.7916 54.6065C45.2832 51.7599 46.2535 43.6622 46.3729 42.0641C46.4073 41.6049 46.8055 41.2599 47.266 41.2949C47.7252 41.3293 48.0696 41.7294 48.0352 42.188C47.9107 43.851 46.9443 51.9337 46.4338 54.8899C45.6782 59.2712 43.7253 61.2584 39.228 62.2229C38.4646 62.3857 37.77 62.459 37.1389 62.459ZM13.8215 45.8259C13.411 45.8266 13.0387 45.7513 12.7163 45.6437C9.92287 44.7117 7.26236 40.1625 4.8081 32.1213C2.94017 25.9999 1.7565 19.6113 1.65272 17.5352C1.34464 11.3801 2.93044 7.02479 6.36472 4.59129C13.1593 -0.223184 24.59 4.36169 25.0732 4.55886C25.4994 4.73333 25.7037 5.21977 25.5292 5.64589C25.3554 6.07136 24.8683 6.27632 24.4428 6.10185V6.1025C24.3326 6.0571 13.3714 1.66615 7.32528 5.95397C4.38847 8.03659 3.04005 11.9048 3.317 17.4528C3.40456 19.2014 4.5104 25.4376 6.40233 31.6355C8.59327 38.8134 11.0871 43.3438 13.2436 44.0624C13.5816 44.1759 14.6115 44.519 16.0851 42.7484C18.8559 39.4146 21.4016 36.7541 21.4269 36.7275C21.7453 36.3948 22.2733 36.3844 22.6054 36.7022C22.9374 37.0207 22.9491 37.5486 22.6307 37.8807C22.6054 37.9067 20.0986 40.5276 17.3667 43.814C16.0728 45.3693 14.832 45.8259 13.8215 45.8259ZM50.0906 38.8024C49.9304 38.8024 49.7682 38.7563 49.6255 38.6597C49.2435 38.4028 49.1423 37.8846 49.3998 37.5026C57.1641 25.9811 59.8895 12.0604 57.5552 9.07822C54.6171 5.32419 50.4681 3.36286 45.2242 3.25065C41.3411 3.16634 38.2545 4.15803 37.7505 4.3312L37.6241 4.38244C37.1169 4.54199 36.7277 4.26375 36.5811 3.93881C36.4073 3.55419 36.55 3.09953 36.9106 2.88096L37.135 2.78886L37.124 2.7921L37.1357 2.78821C37.9925 2.47494 41.1258 1.53449 45.0076 1.57924C50.8105 1.64021 55.6036 3.87849 58.8686 8.05021C60.4135 10.0245 60.4168 14.5731 58.8783 20.529C57.31 26.6011 54.3589 33.1279 50.7826 38.4346C50.6218 38.6739 50.3585 38.8024 50.0906 38.8024ZM50.4869 44.1357C49.1612 44.1357 47.9729 43.9496 47.2614 43.5228C46.5298 43.085 46.3904 42.4889 46.3722 42.1731C46.1725 38.6681 48.1066 38.0578 49.0931 37.7795C48.9556 37.572 48.7597 37.3275 48.558 37.0752C47.9827 36.3565 47.1953 35.372 46.5882 33.8997C46.4935 33.6701 46.1952 33.135 45.8501 32.5163C43.9802 29.1637 40.09 22.1868 42.589 18.6138C43.7461 16.9605 46.0486 16.31 49.442 16.6732C48.4438 13.632 43.6897 4.11782 32.4107 3.93297C29.018 3.87589 26.2355 4.91947 24.1451 7.02998C19.4643 11.7575 19.6342 20.3111 19.6361 20.3961C19.6485 20.8566 19.2846 21.2392 18.8247 21.2509C18.3642 21.2652 17.9816 20.9 17.9699 20.4395C17.9595 20.0601 17.7844 11.0843 22.9608 5.85668C25.3833 3.41021 28.5717 2.20254 32.438 2.26545C39.6555 2.38414 44.3 6.05255 46.9261 9.11C49.7877 12.4411 51.1912 16.116 51.3067 17.3419C51.393 18.2538 50.7385 18.4367 50.6062 18.4633L50.3059 18.4704C46.9754 17.9373 44.839 18.307 43.9556 19.5698C42.0546 22.2861 45.7347 28.8855 47.3062 31.7042C47.7077 32.4229 47.9969 32.9424 48.1293 33.2634C48.6455 34.5152 49.3188 35.3564 49.8597 36.0322C50.3351 36.627 50.7476 37.142 50.8955 37.7478C50.9636 37.8677 51.9352 39.3037 57.6979 38.1142C59.1423 37.8165 60.0081 38.0714 60.2728 38.8718C60.7936 40.4472 57.8717 42.284 56.2541 43.0357C54.8026 43.7096 52.4891 44.1357 50.4869 44.1357ZM48.0346 42.0356C48.2168 42.2204 49.1313 42.5382 51.0259 42.4572C52.7096 42.3845 54.4861 42.0181 55.5523 41.5238C56.9157 40.8908 57.825 40.1832 58.2965 39.7L58.0345 39.748C54.3499 40.5088 51.7438 40.4076 50.2891 39.4464C50.1846 39.3783 50.0919 39.307 50.0069 39.2369C49.8493 39.2992 49.7034 39.34 49.5996 39.3692C48.7739 39.6008 47.9204 39.8401 48.0346 42.0356ZM24.2333 46.6918C23.3182 46.6918 22.355 46.5679 21.3711 46.3208C20.3522 46.0659 18.6334 45.2986 18.66 44.0384C18.6892 42.6238 20.7459 42.1997 21.5209 42.0401C24.3176 41.4642 24.4999 41.2333 25.3742 40.1235C25.6291 39.7999 25.9462 39.3971 26.3782 38.9139C27.0203 38.1959 27.7221 37.8314 28.4641 37.8314C28.9803 37.8314 29.4045 38.0072 29.6841 38.1226C30.5765 38.4923 31.3211 39.3861 31.6272 40.4563C31.9035 41.4214 31.7719 42.3501 31.2562 43.0714C29.5647 45.4407 27.1364 46.6918 24.2333 46.6918ZM20.4605 44.1104C20.7121 44.3043 21.2154 44.5638 21.7752 44.7045C22.6274 44.9173 23.4537 45.0256 24.2333 45.0256C26.6085 45.0256 28.5147 44.0417 29.9 42.103C30.1887 41.6983 30.1024 41.1853 30.0252 40.9148C29.8631 40.3493 29.4609 39.8349 29.0465 39.6624C28.8214 39.569 28.6353 39.4977 28.4641 39.4977C28.372 39.4977 28.0924 39.4977 27.6209 40.025C27.2227 40.4699 26.9366 40.8331 26.683 41.1541C25.5947 42.5363 25.0959 43.0052 21.8569 43.6726C21.0669 43.8361 20.6615 44.0008 20.4605 44.1104ZM26.8698 40.2656C26.4651 40.2656 26.1103 39.9705 26.0468 39.5586C26.0254 39.4205 26.0118 39.281 26.0053 39.1409C23.8818 39.1007 21.8335 38.1901 20.2789 36.5673C18.313 34.5158 17.418 31.6737 17.824 28.77C18.265 25.6166 18.1003 22.8328 18.0114 21.3372C17.9868 20.9214 17.9693 20.6211 17.9706 20.4129C17.9719 20.1496 17.977 19.4498 20.3152 18.2648C21.1467 17.8432 22.8142 17.1077 24.6354 16.919C27.654 16.6077 29.6432 17.9516 30.2386 20.7042C31.8458 28.137 30.3657 31.4247 29.2852 33.8251C29.0835 34.2713 28.8934 34.6942 28.7417 35.1028L28.6074 35.4641C28.0366 36.9948 27.5431 38.3172 27.6948 39.3057C27.7642 39.761 27.4523 40.1858 26.9976 40.2565L26.8698 40.2656ZM19.6426 20.6432L19.6757 21.2386C19.7678 22.792 19.939 25.6834 19.4746 29.0015C19.14 31.3961 19.8716 33.7343 21.482 35.4148C22.7545 36.7431 24.4305 37.476 26.1525 37.476H26.1882C26.3814 36.6633 26.7012 35.8059 27.0456 34.8816L27.1792 34.523C27.3511 34.0612 27.5521 33.6143 27.7649 33.1415C28.8052 30.8299 30.0998 27.9528 28.6087 21.0563C28.3129 19.6911 27.5969 18.9004 26.4197 18.6397C24.0018 18.1053 20.3989 19.9239 19.6426 20.6432ZM26.1454 21.7665L25.9326 21.7516C25.4624 21.6861 24.987 21.3897 24.662 20.9584C24.5479 20.8073 24.3611 20.5128 24.3981 20.2508C24.4512 19.8662 24.9195 19.6366 25.6518 19.6366C25.8159 19.6366 25.9858 19.6489 26.1577 19.6723C26.5572 19.728 26.9289 19.8435 27.2032 19.9966C27.6786 20.2625 27.7136 20.5582 27.6922 20.7119C27.6332 21.1355 26.9574 21.7665 26.1454 21.7665ZM47.7284 19.6885C47.7693 19.9836 47.1888 20.7703 46.4306 20.8754C45.673 20.9805 45.0251 20.3662 44.9836 20.0711C44.9434 19.7767 45.5245 19.4517 46.2821 19.3467C47.0396 19.2403 47.6869 19.3947 47.7284 19.6885ZM46.2561 21.0259C45.5265 21.0259 44.898 20.4583 44.8461 20.0906C44.7864 19.6489 45.5135 19.3129 46.2633 19.2092C46.428 19.1858 46.5915 19.1741 46.7491 19.1741C47.3957 19.1741 47.8238 19.3642 47.8666 19.6697C47.8945 19.8681 47.7427 20.1736 47.4807 20.4486C47.3081 20.6302 46.9449 20.9448 46.4507 21.0129L46.2561 21.0259ZM46.7484 19.4517C46.6038 19.4517 46.4533 19.4628 46.3009 19.4835C45.5472 19.5879 45.0991 19.8908 45.1205 20.053C45.1457 20.2307 45.6264 20.7483 46.2555 20.7483L46.4105 20.7372C46.8217 20.6795 47.1304 20.4116 47.2777 20.2566C47.5086 20.0134 47.6007 19.7851 47.5896 19.7066C47.576 19.6048 47.2984 19.4517 46.7484 19.4517ZM48.82 36.6088C48.6604 36.6088 48.4996 36.5634 48.3569 36.4681C47.9742 36.2113 47.8718 35.6943 48.128 35.3117C49.9025 32.6609 49.5776 29.9569 49.2636 27.3431C49.1294 26.2288 48.9912 25.0776 49.0275 23.9718C49.0639 22.8348 49.2079 21.8969 49.3479 20.9889C49.5133 19.9142 49.6697 18.8978 49.6048 17.6928C49.5795 17.2336 49.9323 16.8412 50.3922 16.8152C50.8533 16.7906 51.2444 17.1434 51.2697 17.6033C51.3437 18.9809 51.1666 20.1302 50.9954 21.2425C50.8631 22.1006 50.7262 22.9878 50.6931 24.0249C50.6613 25.0037 50.7865 26.0433 50.9188 27.1433C51.2535 29.9238 51.6316 33.0753 49.5133 36.2385C49.3525 36.4785 49.0885 36.6088 48.82 36.6088Z" fill="white"/>
</svg>
