<svg width="65" height="32" viewBox="0 0 65 32" fill="none" xmlns="http://www.w3.org/2000/svg">
<path fill-rule="evenodd" clip-rule="evenodd" d="M34.2805 0.569083C34.4068 0.323536 34.5092 0.124619 34.6135 0.108524C34.7164 0.0917745 34.8527 0.268011 34.9895 0.444958C35.1334 0.631057 35.278 0.818022 35.3852 0.782344C35.4759 0.751382 35.5813 0.624123 35.6948 0.486976C35.8594 0.288211 36.0412 0.0686769 36.2205 0.0914139C36.3498 0.108597 36.8639 1.13781 36.8639 1.13781C40.4787 1.31674 44.8326 5.16171 46.3205 6.47567C46.5376 6.66739 46.6937 6.80523 46.7776 6.86993C46.8255 6.90715 46.8971 6.97065 46.9925 7.05535C47.5261 7.52911 48.8069 8.66614 50.8865 9.57782C51.8945 10.0202 52.9066 10.2101 53.846 10.1404C55.0984 10.0505 56.4993 8.95055 57.3609 7.45269C57.6505 6.94984 57.8955 6.34701 58.1592 5.6983C58.8785 3.92849 59.7366 1.8172 62.0183 0.463052C62.4546 0.204515 63.4434 -0.374257 64.0151 0.355026C64.4747 0.945905 64.0959 1.9206 63.6162 2.38823C63.3131 2.68324 62.7637 2.98114 61.7203 3.47306C61.3658 3.64278 60.788 4.07402 60.5628 4.24983C59.4627 5.08843 58.6598 6.97622 57.7753 9.05592L57.7316 9.15862C57.7316 9.15862 57.3468 10.201 55.6509 11.3212C55.427 11.4665 55.5383 11.5956 55.7472 11.8379C55.804 11.9039 55.8681 11.9782 55.9347 12.0636C56.3337 12.5918 57.1336 14.7433 57.0306 18.0178C57.0167 18.4902 57.1692 18.7455 57.3687 19.0794C57.4149 19.1568 57.4636 19.2384 57.5134 19.3278C57.702 19.6648 57.9655 19.8325 58.2093 19.9876C58.5596 20.2106 58.8689 20.4074 58.8558 21.0429C58.8393 21.8058 59.1292 22.2519 59.3563 22.6013C59.5594 22.914 59.7124 23.1493 59.5507 23.465C59.351 23.8522 59.3657 24.2304 59.3804 24.6084C59.3841 24.7046 59.3879 24.8009 59.388 24.8973C59.388 24.9379 59.3918 24.9816 59.3956 25.0261C59.4142 25.2451 59.4344 25.4829 59.0214 25.4619C57.0154 25.3402 57.1224 22.6823 57.1615 21.7123L57.163 21.6752C57.1953 21.551 57.1023 21.3288 57.0862 21.3187C56.9852 21.245 55.7196 20.2611 55.6357 20.1773C54.0985 18.6138 53.0843 17.2088 52.5187 15.7644C52.144 14.8018 51.7582 13.8534 51.0985 13.2433C50.3592 12.5686 49.4532 12.1888 48.6583 12.1848C44.0734 12.161 42.4422 10.5255 41.1689 9.24869C40.8722 8.95117 40.5949 8.67313 40.3042 8.43949C40.2577 8.40513 40.1163 8.32538 40.0355 8.31929C39.9724 8.32376 39.9191 8.37997 39.8733 8.42833C39.8568 8.44581 39.8412 8.46226 39.8264 8.47487C39.2324 9.09707 38.6345 9.30007 37.8305 9.30007C36.755 9.30007 35.6337 8.76945 34.7945 8.37229C34.1433 8.06412 33.6619 7.8363 33.5035 7.99912C33.3911 8.11728 33.364 8.28622 33.3374 8.45191C33.2985 8.69421 33.2607 8.92956 32.959 8.98897C32.2247 9.13644 31.4642 8.41122 31.5248 7.79612C31.6348 6.69607 32.761 6.37395 33.7479 6.26179C34.3987 6.1927 34.953 6.32046 35.2298 6.38427C35.301 6.40067 35.3538 6.41285 35.3852 6.41636C35.8407 6.47995 35.9205 5.92851 35.8458 5.57296C35.7664 5.21202 35.4466 5.11805 35.0981 5.01561C35.074 5.00854 35.0499 5.00143 35.0256 4.99419C34.7841 4.92222 34.5286 4.99402 34.2909 5.0608C34.0782 5.12057 33.8798 5.17632 33.7186 5.12143C33.4556 5.02713 33.3516 4.90661 33.2172 4.75098C33.1473 4.66994 33.0691 4.57939 32.956 4.47806C32.8305 4.36902 32.6992 4.28361 32.5766 4.20389C32.286 4.01483 32.0445 3.85776 32.046 3.49329C32.046 3.22885 32.2233 3.0982 32.4102 2.96047C32.5624 2.84829 32.721 2.73141 32.7954 2.53374C32.8375 2.42447 32.8528 2.31294 32.8666 2.21189C32.8806 2.10933 32.8931 2.01756 32.9308 1.94989C33.0435 1.74399 33.2132 1.66195 33.3935 1.57483C33.528 1.5098 33.6684 1.44194 33.7953 1.31762C33.9997 1.11474 34.1524 0.817961 34.2805 0.569083ZM15.6569 29.3385C15.6569 29.7344 15.9881 30.0546 16.378 30.0637C16.7699 30.0546 17.1012 29.7344 17.1012 29.3385L17.1053 16.4179H21.3596V30.6606C21.3596 31.3586 20.801 31.9283 20.1021 31.9283H12.659C11.9651 31.9283 11.3995 31.3586 11.3995 30.6606V16.4179H15.6579L15.6569 29.3385ZM24.1908 16.4179H30.6359H37.082C37.8446 16.4179 38.4668 17.0381 38.4668 17.8087V31.9283H34.2044V18.9764C34.2013 18.5794 33.8761 18.2653 33.4821 18.2653C33.0852 18.2653 32.766 18.5723 32.761 18.9652V31.9283H28.5157V18.9653C28.5066 18.5724 28.1875 18.2653 27.7895 18.2653C27.3935 18.2653 27.0724 18.5795 27.0693 18.9764V31.9282H22.807V17.8087C22.807 17.0381 23.4282 16.4179 24.1908 16.4179ZM4.97956 18.2653C5.35228 18.2653 5.70376 18.5723 5.70072 19.0036V25.3822C5.70384 25.8114 5.35533 26.1103 4.97956 26.1103H4.25636V18.2653H4.97956ZM4.25636 28.0305H8.55818C9.33089 28.0305 9.95404 27.4073 9.95404 26.6336V17.8148C9.95404 17.0421 9.3541 16.4179 8.58552 16.4179H0V31.9283H4.25636V28.0305ZM51.4995 30.095C51.4995 29.1991 52.2177 28.4597 53.0732 28.4597H53.1004C53.9762 28.4597 54.6853 29.1971 54.6853 30.095C54.6853 30.994 53.9762 31.7273 53.1005 31.7273C52.2177 31.7273 51.4995 30.994 51.4995 30.095ZM53.1005 32C54.1459 32 54.9903 31.1434 54.9903 30.09C54.9903 29.0244 54.1459 28.182 53.0692 28.182C52.044 28.182 51.1955 29.0506 51.1955 30.09C51.1955 31.1496 52.044 32 53.1005 32ZM53.355 29.6537C53.355 29.8637 53.1995 29.9688 52.9035 29.9688H52.8318V29.3708H52.9166C53.2045 29.3708 53.355 29.4668 53.355 29.6537ZM53.4853 31.195H53.9934L53.2853 30.2749L53.3156 30.2637C53.5752 30.188 53.7611 29.9344 53.7611 29.6486C53.7611 29.2203 53.446 28.9961 52.8531 28.9961H52.4167V31.195H52.8318V30.3253L53.4853 31.195ZM45.613 18.9714V26.1134H44.1666V18.9825C44.1696 18.5885 44.4948 18.2734 44.8878 18.2734C45.2847 18.2734 45.6029 18.5764 45.613 18.9714ZM45.613 28.0345V31.9283L49.8694 31.9282V17.8087C49.8694 17.0381 49.2482 16.4179 48.4835 16.4179H41.296C40.5334 16.4179 39.9123 17.0381 39.9123 17.8087V31.9283H44.1666V28.0345H45.613Z" fill="#29305E"/>
</svg>
