<svg width="65" height="64" viewBox="0 0 65 64" fill="none" xmlns="http://www.w3.org/2000/svg">
<path d="M31.9356 0C15.6034 1.16527e-06 16.6233 7.08264 16.6233 7.08264L16.6415 14.4202H32.2269V16.6233H10.451C10.451 16.6233 0 15.438 0 31.9174C-1.16527e-06 48.3967 9.12185 47.8124 9.12185 47.8124H14.5658V40.1653C14.5658 40.1653 14.2724 31.0434 23.542 31.0434C32.8117 31.0434 39 31.0434 39 31.0434C39 31.0434 47.6849 31.1838 47.6849 22.6499C47.6849 14.1159 47.6849 8.53922 47.6849 8.53922C47.6849 8.53922 49.0035 0 31.9356 0ZM23.3417 4.93418C24.8924 4.93418 26.1457 6.18746 26.1457 7.7381C26.1457 9.28874 24.8924 10.542 23.3417 10.542C21.7911 10.542 20.5378 9.28874 20.5378 7.7381C20.5378 6.18746 21.7911 4.93418 23.3417 4.93418Z" fill="url(#paint0_linear)"/>
<path d="M32.3995 64.0001C48.7317 64.0001 47.7118 56.9174 47.7118 56.9174L47.6936 49.5799H32.1081V47.3768H53.8841C53.8841 47.3768 64.335 48.562 64.335 32.0827C64.335 15.6033 55.2132 16.1877 55.2132 16.1877H49.7692V23.8348C49.7692 23.8348 50.0627 32.9566 40.793 32.9566C31.5234 32.9566 25.335 32.9566 25.335 32.9566C25.335 32.9566 16.6501 32.8162 16.6501 41.3502C16.6501 49.8841 16.6501 55.4608 16.6501 55.4608C16.6501 55.4608 15.3315 64.0001 32.3995 64.0001ZM40.9933 59.0659C39.4427 59.0659 38.1894 57.8126 38.1894 56.262C38.1894 54.7113 39.4427 53.458 40.9933 53.458C42.5439 53.458 43.7972 54.7113 43.7972 56.262C43.7972 57.8126 42.5439 59.0659 40.9933 59.0659Z" fill="url(#paint1_linear)"/>
<defs>
<linearGradient id="paint0_linear" x1="6.18272" y1="5.59417" x2="37.9945" y2="37.5124" gradientUnits="userSpaceOnUse">
<stop stop-color="#387EB8"/>
<stop offset="1" stop-color="#366994"/>
</linearGradient>
<linearGradient id="paint1_linear" x1="25.752" y1="25.8992" x2="59.918" y2="58.6319" gradientUnits="userSpaceOnUse">
<stop stop-color="#FFE052"/>
<stop offset="1" stop-color="#FFC331"/>
</linearGradient>
</defs>
</svg>
