<svg width="101" height="19" viewBox="0 0 101 19" fill="none" xmlns="http://www.w3.org/2000/svg">
<path d="M4.32 5.61601C4.32 4.65601 5.352 4.03201 6.792 4.03201C8.712 4.03201 9.888 5.18401 10.488 6.98401L13.392 5.25601C12.216 2.30401 10.2 0.864014 6.864 0.864014C3.216 0.864014 0.816 2.76001 0.816 5.68801C0.816 8.44801 2.712 10.08 6.096 10.728C8.616 11.208 9.864 11.88 9.864 13.2C9.864 14.184 8.904 14.928 7.368 14.928C4.992 14.928 3.888 13.608 3.288 11.304L0 12.888C0.84 16.032 3.024 18.336 7.368 18.336C11.472 18.336 13.68 15.84 13.68 12.936C13.68 10.128 12.024 8.59201 8.304 7.82401C5.28 7.17601 4.32 6.52801 4.32 5.61601Z" fill="#1B6ED4"/>
<path d="M30.207 1.20001H25.359L20.847 5.88001L20.535 6.21601C20.343 6.40801 20.151 6.69601 19.887 6.96001V1.20001H15.999V18H19.887V11.88L21.375 10.32L25.983 18H30.399L24.087 7.53601L30.207 1.20001Z" fill="#1B6ED4"/>
<path d="M31.8896 18H35.7776V1.20001H31.8896V18Z" fill="#1B6ED4"/>
<path d="M42.7854 11.448H50.9214V8.13601H42.7854V4.60801H51.6174V1.20001H38.8974V18H42.7854V11.448Z" fill="#1B6ED4"/>
<path d="M50.3949 18H54.6189L56.1309 13.944H61.9869L63.4989 18H67.7229L60.8829 1.20001H57.2349L50.3949 18ZM58.3629 7.89601L58.6029 7.27201C58.7709 6.91201 58.8909 6.40801 59.0589 5.90401C59.2029 6.43201 59.3469 6.88801 59.5149 7.27201L59.7549 7.89601L60.7629 10.632H57.3549L58.3629 7.89601Z" fill="#1B6ED4"/>
<path d="M68.9912 18H72.8792V12.288H76.8392C80.7992 12.288 83.4152 10.44 83.4152 6.74401C83.4152 3.04801 80.7992 1.20001 76.8392 1.20001H68.9912V18ZM72.8792 4.41601H76.7432C78.7592 4.41601 79.5272 5.40001 79.5272 6.74401C79.5272 8.08801 78.7592 9.07201 76.7432 9.07201H72.8792V4.41601Z" fill="#1B6ED4"/>
<path d="M85.6553 18H89.5433V12.288H93.5033C97.4633 12.288 100.079 10.44 100.079 6.74401C100.079 3.04801 97.4633 1.20001 93.5033 1.20001H85.6553V18ZM89.5433 4.41601H93.4072C95.4232 4.41601 96.1913 5.40001 96.1913 6.74401C96.1913 8.08801 95.4232 9.07201 93.4072 9.07201H89.5433V4.41601Z" fill="#1B6ED4"/>
</svg>
