<svg width="108" height="32" viewBox="0 0 108 32" fill="none" xmlns="http://www.w3.org/2000/svg">
<path d="M16.8405 0C8.00397 0 0.84021 7.16357 0.84021 16.0001C0.84021 24.837 8.00397 32 16.8405 32C25.678 32 32.841 24.837 32.841 16.0001C32.841 7.16414 25.678 0.000764253 16.8403 0.000764253L16.8405 0ZM24.1781 23.0767C24.1098 23.1886 24.0202 23.2859 23.9142 23.3631C23.8083 23.4403 23.6882 23.4958 23.5608 23.5265C23.4333 23.5572 23.3011 23.5625 23.1716 23.542C23.0422 23.5216 22.918 23.4758 22.8063 23.4073C19.0496 21.1126 14.3204 20.5929 8.75084 21.8654C8.49295 21.924 8.22232 21.8779 7.99844 21.7371C7.77455 21.5963 7.61573 21.3723 7.55688 21.1145C7.52757 20.9868 7.52373 20.8546 7.54558 20.7255C7.56743 20.5963 7.61454 20.4727 7.68422 20.3618C7.7539 20.2509 7.84477 20.1548 7.95164 20.0791C8.0585 20.0033 8.17926 19.9494 8.307 19.9204C14.4019 18.5279 19.63 19.1274 23.8476 21.7049C24.3176 21.9934 24.4666 22.6067 24.1781 23.0767ZM26.1365 18.7201C25.7754 19.307 25.0073 19.4924 24.4208 19.1313C20.1199 16.4877 13.5639 15.7221 8.47685 17.2663C7.81711 17.4656 7.1203 17.0937 6.92006 16.4351C6.82452 16.1185 6.85844 15.7769 7.01439 15.4853C7.17033 15.1936 7.43558 14.9757 7.75196 14.8793C13.5628 13.1162 20.7867 13.9702 25.7257 17.0053C26.3123 17.3664 26.4976 18.1345 26.1365 18.7203V18.7201ZM26.3047 14.1835C21.1478 11.1205 12.6398 10.8389 7.71623 12.3332C6.9256 12.573 6.08951 12.1267 5.84991 11.336C5.7347 10.9562 5.77507 10.5461 5.96214 10.196C6.1492 9.84595 6.46765 9.58448 6.84746 9.46914C12.4993 7.75338 21.8949 8.08488 27.832 11.6094C28.0012 11.7095 28.149 11.842 28.267 11.9993C28.3849 12.1567 28.4706 12.3357 28.5193 12.5262C28.5679 12.7167 28.5785 12.9149 28.5504 13.1095C28.5223 13.304 28.4561 13.4912 28.3556 13.6601C27.9352 14.3713 27.0143 14.6057 26.3054 14.1835H26.3047ZM44.3717 14.7704C41.6089 14.1116 41.1179 13.6492 41.1179 12.6777C41.1179 11.7598 41.9815 11.1421 43.2673 11.1421C44.5131 11.1421 45.7474 11.6112 47.0428 12.5768C47.081 12.606 47.1307 12.6177 47.1784 12.61C47.2025 12.6066 47.2255 12.5983 47.2462 12.5856C47.2669 12.5729 47.2848 12.5561 47.2988 12.5363L48.6477 10.6348C48.6744 10.5971 48.6856 10.5507 48.6792 10.505C48.6728 10.4593 48.6493 10.4177 48.6133 10.3887C47.0714 9.15197 45.3366 8.55069 43.3075 8.55069C40.325 8.55069 38.2404 10.3408 38.2404 12.902C38.2404 15.6485 40.0384 16.6211 43.1451 17.3717C45.7875 17.9807 46.2346 18.4908 46.2346 19.4026C46.2346 20.4133 45.3327 21.0419 43.8807 21.0419C42.2681 21.0419 40.9516 20.4974 39.4805 19.2249C39.4438 19.1939 39.3966 19.1781 39.3486 19.1809C39.2989 19.1848 39.255 19.2077 39.2244 19.244L37.7112 21.0438C37.6481 21.1202 37.6558 21.2311 37.7284 21.296C39.4403 22.8245 41.5459 23.6308 43.8195 23.6308C47.0332 23.6308 49.1101 21.8749 49.1101 19.1561C49.1158 16.862 47.7421 15.5914 44.3774 14.7729L44.3717 14.7704ZM56.382 12.0458C54.9891 12.0458 53.8466 12.5946 52.9027 13.719V12.4534C52.9029 12.4055 52.8841 12.3595 52.8504 12.3255C52.8168 12.2915 52.771 12.2723 52.7231 12.2721H50.2488C50.1495 12.2721 50.0692 12.3534 50.0692 12.4534V26.5159C50.0692 26.6152 50.1495 26.6974 50.2488 26.6974H52.7231C52.8225 26.6974 52.9027 26.6152 52.9027 26.5159V22.0775C53.8466 23.1341 54.9891 23.6518 56.382 23.6518C58.9709 23.6518 61.5923 21.659 61.5923 17.8494C61.5961 14.039 58.9747 12.0456 56.3839 12.0456L56.382 12.0458ZM58.7149 17.8494C58.7149 19.7885 57.5207 21.1432 55.8088 21.1432C54.1179 21.1432 52.8416 19.7274 52.8416 17.8494C52.8416 15.9712 54.1179 14.5558 55.8088 14.5558C57.4921 14.5557 58.7149 15.9405 58.7149 17.8492V17.8494ZM68.3082 12.0458C64.9741 12.0458 62.3623 14.613 62.3623 17.8909C62.3623 21.1336 64.957 23.6729 68.2681 23.6729C71.6136 23.6729 74.2331 21.1145 74.2331 17.8494C74.2331 14.5954 71.6308 12.0462 68.3082 12.0462V12.0458ZM68.3082 21.1623C66.5351 21.1623 65.1977 19.7369 65.1977 17.8484C65.1977 15.9514 66.4893 14.5748 68.2681 14.5748C70.0526 14.5748 71.3977 15.9995 71.3977 17.8899C71.3977 19.7866 70.0985 21.1623 68.3082 21.1623ZM81.3522 12.2721H78.6295V9.48901C78.6296 9.46533 78.625 9.44185 78.6161 9.41993C78.6071 9.39801 78.5939 9.37807 78.5772 9.36125C78.5605 9.34443 78.5407 9.33106 78.5189 9.3219C78.497 9.31275 78.4736 9.30798 78.4499 9.30788H75.9756C75.8763 9.30788 75.7941 9.38928 75.7941 9.48901V12.2721H74.6057C74.5063 12.2721 74.4261 12.3534 74.4261 12.4534V14.5793C74.4261 14.6791 74.5063 14.7607 74.6057 14.7607H75.7941V20.2624C75.7941 22.4844 76.9004 23.6117 79.0842 23.6117C79.9708 23.6117 80.7064 23.4283 81.3999 23.0347C81.4573 23.0041 81.4916 22.943 81.4916 22.878V20.8527C81.4916 20.7916 81.4592 20.7324 81.4057 20.6999C81.3796 20.6832 81.3497 20.6738 81.3188 20.6724C81.2879 20.6711 81.2573 20.6779 81.2299 20.6922C80.7541 20.9311 80.2937 21.0419 79.7778 21.0419C78.9849 21.0419 78.6295 20.6808 78.6295 19.8745V14.7616H81.3522C81.4515 14.7616 81.5318 14.6802 81.5318 14.5803V12.4545C81.5326 12.4308 81.5285 12.4072 81.52 12.385C81.5114 12.3629 81.4984 12.3428 81.4817 12.3258C81.4651 12.3089 81.4453 12.2955 81.4233 12.2864C81.4014 12.2774 81.3778 12.2729 81.3541 12.2732L81.3522 12.2721ZM90.8366 12.2829V11.9411C90.8366 10.9356 91.2225 10.4871 92.0862 10.4871C92.602 10.4871 93.0166 10.5895 93.4809 10.7443C93.5382 10.7623 93.5975 10.7533 93.6433 10.7191C93.6666 10.7023 93.6855 10.6802 93.6985 10.6546C93.7114 10.629 93.7181 10.6007 93.7178 10.572V8.48745C93.7183 8.44852 93.706 8.4105 93.6829 8.37916C93.6598 8.34782 93.6272 8.32487 93.5898 8.31378C93.1007 8.16799 92.474 8.01839 91.534 8.01839C89.2508 8.01839 88.0413 9.30502 88.0413 11.7378V12.2614H86.8529C86.7536 12.2614 86.6714 12.3427 86.6714 12.4425V14.5793C86.6714 14.6791 86.7536 14.7607 86.8529 14.7607H88.0413V23.2449C88.0413 23.3461 88.1235 23.4264 88.2228 23.4264H90.6952C90.7965 23.4264 90.8767 23.3461 90.8767 23.2449V14.7612H93.1867L96.7252 23.2449C96.324 24.1352 95.9285 24.3129 95.3896 24.3129C94.954 24.3129 94.4936 24.183 94.0255 23.9251C93.9811 23.9027 93.9299 23.8979 93.8821 23.9117C93.8344 23.9289 93.7943 23.9633 93.7752 24.0091L92.9364 25.8491C92.8963 25.937 92.9306 26.0382 93.0147 26.0841C93.8898 26.5579 94.6789 26.7605 95.6552 26.7605C97.4818 26.7605 98.4925 25.9083 99.381 23.6194L103.672 12.5306C103.683 12.5031 103.688 12.4734 103.684 12.444C103.681 12.4145 103.67 12.3864 103.653 12.3622C103.637 12.338 103.615 12.3181 103.59 12.3044C103.564 12.2907 103.535 12.2835 103.506 12.2835H100.931C100.852 12.2835 100.783 12.3326 100.759 12.405L98.12 19.9395L95.2311 12.4001C95.2181 12.3659 95.1951 12.3365 95.1651 12.3156C95.1351 12.2948 95.0995 12.2836 95.0629 12.2835H90.8366V12.2829ZM85.3378 12.2721H82.8635C82.7641 12.2721 82.682 12.3534 82.682 12.4534V23.2449C82.682 23.3461 82.7641 23.4264 82.8635 23.4264H85.3378C85.4371 23.4264 85.5193 23.3461 85.5193 23.2449V12.4541C85.5193 12.4303 85.5147 12.4067 85.5056 12.3846C85.4965 12.3626 85.4831 12.3426 85.4662 12.3257C85.4493 12.3089 85.4293 12.2955 85.4073 12.2865C85.3852 12.2774 85.3616 12.2727 85.3378 12.2728V12.2721ZM84.115 7.35807C83.1348 7.35807 82.34 8.15137 82.34 9.13134C82.34 10.1119 83.1348 10.9061 84.115 10.9061C85.0951 10.9061 85.888 10.1119 85.888 9.13134C85.888 8.15156 85.0932 7.35807 84.115 7.35807ZM105.785 15.742C104.807 15.742 104.045 14.9557 104.045 14.001C104.045 13.0462 104.817 12.251 105.795 12.251C106.773 12.251 107.536 13.0371 107.536 13.9911C107.536 14.9458 106.764 15.742 105.785 15.742ZM105.795 12.4241C104.903 12.4241 104.228 13.133 104.228 14.001C104.228 14.8686 104.899 15.5679 105.785 15.5679C106.678 15.5679 107.352 14.8596 107.352 13.9911C107.352 13.1234 106.682 12.4241 105.795 12.4241ZM106.181 14.1701L106.674 14.8594H106.257L105.814 14.227H105.434V14.8594H105.086V13.0321H105.9C106.326 13.0321 106.605 13.2493 106.605 13.615C106.607 13.9146 106.433 14.0977 106.183 14.1701H106.181ZM105.887 13.3456H105.434V13.9236H105.887C106.112 13.9236 106.248 13.813 106.248 13.6343C106.248 13.4463 106.112 13.3456 105.887 13.3456Z" fill="#29305E"/>
</svg>
