<svg width="16" height="16" viewBox="0 0 16 16" fill="none" xmlns="http://www.w3.org/2000/svg">
<path d="M8 16C12.4183 16 16 12.4183 16 8C16 3.58172 12.4183 0 8 0C3.58172 0 0 3.58172 0 8C0 12.4183 3.58172 16 8 16Z" fill="url(#paint0_linear)"/>
<path d="M3.3295 7.93066L8.71678 5.71101C9.24858 5.47979 11.052 4.73991 11.052 4.73991C11.052 4.73991 11.8844 4.41621 11.815 5.20234C11.7919 5.52604 11.607 6.65899 11.422 7.88442L10.844 11.5145C10.844 11.5145 10.7977 12.0463 10.4046 12.1388C10.0116 12.2312 9.36418 11.8151 9.24857 11.7226C9.15609 11.6532 7.51447 10.6127 6.91331 10.1041C6.75146 9.96535 6.56649 9.68789 6.93644 9.36419C7.76881 8.60118 8.76303 7.65321 9.36418 7.05205C9.64164 6.77459 9.9191 6.12719 8.76303 6.91332L5.50291 9.10986C5.50291 9.10986 5.13297 9.34107 4.43932 9.13298C3.74568 8.92488 2.93643 8.64743 2.93643 8.64743C2.93643 8.64743 2.38152 8.30061 3.3295 7.93066Z" fill="white"/>
<defs>
<linearGradient id="paint0_linear" x1="10.6673" y1="2.66728" x2="6.66728" y2="12" gradientUnits="userSpaceOnUse">
<stop stop-color="#37AEE2"/>
<stop offset="1" stop-color="#1E96C8"/>
</linearGradient>
</defs>
</svg>
