<svg width="28" height="22" viewBox="0 0 28 22" fill="none" xmlns="http://www.w3.org/2000/svg">
<path d="M27.92 10.6337L24.92 3.61806C24.8434 3.43691 24.7154 3.28234 24.5518 3.17363C24.3882 3.06491 24.1963 3.00686 24 3.0067H21V1.00223C21 0.736424 20.8946 0.481502 20.7071 0.293547C20.5196 0.105592 20.2652 0 20 0H1C0.734784 0 0.48043 0.105592 0.292893 0.293547C0.105357 0.481502 0 0.736424 0 1.00223V18.0402C0 18.306 0.105357 18.5609 0.292893 18.7489C0.48043 18.9368 0.734784 19.0424 1 19.0424H3.14C3.37028 19.8917 3.873 20.6414 4.5706 21.1759C5.26819 21.7104 6.1219 22 7 22C7.8781 22 8.73181 21.7104 9.4294 21.1759C10.127 20.6414 10.6297 19.8917 10.86 19.0424H17.14C17.3703 19.8917 17.873 20.6414 18.5706 21.1759C19.2682 21.7104 20.1219 22 21 22C21.8781 22 22.7318 21.7104 23.4294 21.1759C24.127 20.6414 24.6297 19.8917 24.86 19.0424H27C27.2652 19.0424 27.5196 18.9368 27.7071 18.7489C27.8946 18.5609 28 18.306 28 18.0402V11.0246C27.9997 10.8902 27.9725 10.7573 27.92 10.6337ZM21 5.01116H23.34L25.48 10.0223H21V5.01116ZM7 20.0446C6.60444 20.0446 6.21776 19.9271 5.88886 19.7068C5.55996 19.4866 5.30362 19.1735 5.15224 18.8073C5.00087 18.441 4.96126 18.038 5.03843 17.6491C5.1156 17.2603 5.30608 16.9031 5.58579 16.6228C5.86549 16.3425 6.22186 16.1516 6.60982 16.0742C6.99778 15.9969 7.39991 16.0366 7.76537 16.1883C8.13082 16.34 8.44318 16.5969 8.66294 16.9266C8.8827 17.2562 9 17.6437 9 18.0402C9 18.5718 8.78929 19.0816 8.41421 19.4576C8.03914 19.8335 7.53043 20.0446 7 20.0446ZM17.14 17.0379H10.86C10.6297 16.1887 10.127 15.439 9.4294 14.9045C8.73181 14.37 7.8781 14.0804 7 14.0804C6.1219 14.0804 5.26819 14.37 4.5706 14.9045C3.873 15.439 3.37028 16.1887 3.14 17.0379H2V2.00446H19V14.5925C18.5446 14.8574 18.1459 15.2097 17.8268 15.6294C17.5076 16.049 17.2742 16.5277 17.14 17.0379ZM21 20.0446C20.6044 20.0446 20.2178 19.9271 19.8889 19.7068C19.56 19.4866 19.3036 19.1735 19.1522 18.8073C19.0009 18.441 18.9613 18.038 19.0384 17.6491C19.1156 17.2603 19.3061 16.9031 19.5858 16.6228C19.8655 16.3425 20.2219 16.1516 20.6098 16.0742C20.9978 15.9969 21.3999 16.0366 21.7654 16.1883C22.1308 16.34 22.4432 16.5969 22.6629 16.9266C22.8827 17.2562 23 17.6437 23 18.0402C23 18.5718 22.7893 19.0816 22.4142 19.4576C22.0391 19.8335 21.5304 20.0446 21 20.0446ZM26 17.0379H24.86C24.6389 16.1796 24.1401 15.4188 23.4416 14.8748C22.7432 14.3308 21.8846 14.0341 21 14.0313V12.0268H26V17.0379Z" fill="#EB5757"/>
</svg>
