<svg width="28" height="24" viewBox="0 0 28 24" fill="none" xmlns="http://www.w3.org/2000/svg">
<path fill-rule="evenodd" clip-rule="evenodd" d="M2 2H26V22H2V2ZM26 0H2C1.46957 0 0.960859 0.210714 0.585786 0.585786C0.210714 0.960859 0 1.46957 0 2V22C0 22.5304 0.210714 23.0391 0.585786 23.4142C0.960859 23.7893 1.46957 24 2 24H26C26.5304 24 27.0391 23.7893 27.4142 23.4142C27.7893 23.0391 28 22.5304 28 22V2C28 1.46957 27.7893 0.960859 27.4142 0.585786C27.0391 0.210714 26.5304 0 26 0ZM11 6H4V8H11V6ZM4 10H8V12H4V10ZM23.1213 14.8787C22.5587 14.3161 21.7956 14 21 14H15C14.2044 14 13.4413 14.3161 12.8787 14.8787C12.3161 15.4413 12 16.2044 12 17V19H14V17C14 16.7348 14.1054 16.4804 14.2929 16.2929C14.4804 16.1054 14.7348 16 15 16H21C21.2652 16 21.5196 16.1054 21.7071 16.2929C21.8946 16.4804 22 16.7348 22 17V19H24V17C24 16.2044 23.6839 15.4413 23.1213 14.8787ZM20.2223 12.3259C19.5645 12.7654 18.7911 13 18 13C16.9391 13 15.9217 12.5786 15.1716 11.8284C14.4214 11.0783 14 10.0609 14 9C14 8.20888 14.2346 7.43552 14.6741 6.77772C15.1136 6.11992 15.7384 5.60723 16.4693 5.30448C17.2002 5.00173 18.0044 4.92252 18.7804 5.07686C19.5563 5.2312 20.269 5.61216 20.8284 6.17157C21.3878 6.73098 21.7688 7.44372 21.9231 8.21964C22.0775 8.99556 21.9983 9.79983 21.6955 10.5307C21.3928 11.2616 20.8801 11.8864 20.2223 12.3259ZM19.1111 7.33706C18.7822 7.1173 18.3956 7 18 7C17.4696 7 16.9609 7.21071 16.5858 7.58579C16.2107 7.96086 16 8.46957 16 9C16 9.39556 16.1173 9.78224 16.3371 10.1111C16.5568 10.44 16.8692 10.6964 17.2346 10.8478C17.6001 10.9991 18.0022 11.0387 18.3902 10.9616C18.7781 10.8844 19.1345 10.6939 19.4142 10.4142C19.6939 10.1345 19.8844 9.77814 19.9616 9.39018C20.0387 9.00222 19.9991 8.60009 19.8478 8.23463C19.6964 7.86918 19.44 7.55682 19.1111 7.33706Z" fill="#EB5757"/>
</svg>
